<svg width="144" height="26" viewBox="0 0 144 26" fill="none" xmlns="http://www.w3.org/2000/svg">
<rect width="40" height="26" rx="4" fill="#FCFCFD"/>
<path d="M13.988 16.512H10.844L10.34 18H8.192L11.24 9.576H13.616L16.664 18H14.492L13.988 16.512ZM13.46 14.928L12.416 11.844L11.384 14.928H13.46ZM21.8877 18L20.1357 14.82H19.6437V18H17.5917V9.576H21.0357C21.6997 9.576 22.2637 9.692 22.7277 9.924C23.1997 10.156 23.5517 10.476 23.7837 10.884C24.0157 11.284 24.1317 11.732 24.1317 12.228C24.1317 12.788 23.9717 13.288 23.6517 13.728C23.3397 14.168 22.8757 14.48 22.2597 14.664L24.2037 18H21.8877ZM19.6437 13.368H20.9157C21.2917 13.368 21.5717 13.276 21.7557 13.092C21.9477 12.908 22.0437 12.648 22.0437 12.312C22.0437 11.992 21.9477 11.74 21.7557 11.556C21.5717 11.372 21.2917 11.28 20.9157 11.28H19.6437V13.368ZM31.4798 9.576V11.22H29.2478V18H27.1958V11.22H24.9638V9.576H31.4798Z" fill="#23262F"/>
<rect x="48" width="96" height="26" rx="4" fill="#9757D7"/>
<path d="M58.76 9.576V14.616C58.76 15.12 58.884 15.508 59.132 15.78C59.38 16.052 59.744 16.188 60.224 16.188C60.704 16.188 61.072 16.052 61.328 15.78C61.584 15.508 61.712 15.12 61.712 14.616V9.576H63.764V14.604C63.764 15.356 63.604 15.992 63.284 16.512C62.964 17.032 62.532 17.424 61.988 17.688C61.452 17.952 60.852 18.084 60.188 18.084C59.524 18.084 58.928 17.956 58.4 17.7C57.88 17.436 57.468 17.044 57.164 16.524C56.86 15.996 56.708 15.356 56.708 14.604V9.576H58.76ZM72.7409 18H70.6889L67.2569 12.804V18H65.2049V9.576H67.2569L70.6889 14.796V9.576H72.7409V18ZM76.2804 16.416H78.9684V18H74.2284V9.576H76.2804V16.416ZM83.9311 18.084C83.1391 18.084 82.4111 17.9 81.7471 17.532C81.0911 17.164 80.5671 16.652 80.1751 15.996C79.7911 15.332 79.5991 14.588 79.5991 13.764C79.5991 12.94 79.7911 12.2 80.1751 11.544C80.5671 10.888 81.0911 10.376 81.7471 10.008C82.4111 9.64 83.1391 9.456 83.9311 9.456C84.7231 9.456 85.4471 9.64 86.1031 10.008C86.7671 10.376 87.2871 10.888 87.6631 11.544C88.0471 12.2 88.2391 12.94 88.2391 13.764C88.2391 14.588 88.0471 15.332 87.6631 15.996C87.2791 16.652 86.7591 17.164 86.1031 17.532C85.4471 17.9 84.7231 18.084 83.9311 18.084ZM83.9311 16.212C84.6031 16.212 85.1391 15.988 85.5391 15.54C85.9471 15.092 86.1511 14.5 86.1511 13.764C86.1511 13.02 85.9471 12.428 85.5391 11.988C85.1391 11.54 84.6031 11.316 83.9311 11.316C83.2511 11.316 82.7071 11.536 82.2991 11.976C81.8991 12.416 81.6991 13.012 81.6991 13.764C81.6991 14.508 81.8991 15.104 82.2991 15.552C82.7071 15.992 83.2511 16.212 83.9311 16.212ZM89.0327 13.776C89.0327 12.944 89.2127 12.204 89.5727 11.556C89.9327 10.9 90.4327 10.392 91.0727 10.032C91.7207 9.664 92.4527 9.48 93.2687 9.48C94.2687 9.48 95.1247 9.744 95.8367 10.272C96.5487 10.8 97.0247 11.52 97.2647 12.432H95.0087C94.8407 12.08 94.6007 11.812 94.2887 11.628C93.9847 11.444 93.6367 11.352 93.2447 11.352C92.6127 11.352 92.1007 11.572 91.7087 12.012C91.3167 12.452 91.1207 13.04 91.1207 13.776C91.1207 14.512 91.3167 15.1 91.7087 15.54C92.1007 15.98 92.6127 16.2 93.2447 16.2C93.6367 16.2 93.9847 16.108 94.2887 15.924C94.6007 15.74 94.8407 15.472 95.0087 15.12H97.2647C97.0247 16.032 96.5487 16.752 95.8367 17.28C95.1247 17.8 94.2687 18.06 93.2687 18.06C92.4527 18.06 91.7207 17.88 91.0727 17.52C90.4327 17.152 89.9327 16.644 89.5727 15.996C89.2127 15.348 89.0327 14.608 89.0327 13.776ZM103.405 18L100.573 14.28V18H98.5213V9.576H100.573V13.272L103.381 9.576H105.793L102.529 13.704L105.913 18H103.405ZM112.133 16.512H108.989L108.485 18H106.337L109.385 9.576H111.761L114.809 18H112.637L112.133 16.512ZM111.605 14.928L110.561 11.844L109.529 14.928H111.605ZM120.836 13.68C121.324 13.784 121.716 14.028 122.012 14.412C122.308 14.788 122.456 15.22 122.456 15.708C122.456 16.412 122.208 16.972 121.712 17.388C121.224 17.796 120.54 18 119.66 18H115.736V9.576H119.528C120.384 9.576 121.052 9.772 121.532 10.164C122.02 10.556 122.264 11.088 122.264 11.76C122.264 12.256 122.132 12.668 121.868 12.996C121.612 13.324 121.268 13.552 120.836 13.68ZM117.788 12.984H119.132C119.468 12.984 119.724 12.912 119.9 12.768C120.084 12.616 120.176 12.396 120.176 12.108C120.176 11.82 120.084 11.6 119.9 11.448C119.724 11.296 119.468 11.22 119.132 11.22H117.788V12.984ZM119.3 16.344C119.644 16.344 119.908 16.268 120.092 16.116C120.284 15.956 120.38 15.728 120.38 15.432C120.38 15.136 120.28 14.904 120.08 14.736C119.888 14.568 119.62 14.484 119.276 14.484H117.788V16.344H119.3ZM125.698 16.416H128.386V18H123.646V9.576H125.698V16.416ZM131.417 11.22V12.924H134.165V14.508H131.417V16.356H134.525V18H129.365V9.576H134.525V11.22H131.417Z" fill="#FCFCFD"/>
</svg>
