<svg width="230" height="40" viewBox="0 0 230 40" fill="none" xmlns="http://www.w3.org/2000/svg">
<path fill-rule="evenodd" clip-rule="evenodd" d="M28.6663 19.9999C28.6663 22.5772 26.577 24.6666 23.9997 24.6666C21.4223 24.6666 19.333 22.5772 19.333 19.9999C19.333 17.4226 21.4223 15.3333 23.9997 15.3333C26.577 15.3333 28.6663 17.4226 28.6663 19.9999ZM30.6663 19.9999C30.6663 23.6818 27.6816 26.6666 23.9997 26.6666C20.3178 26.6666 17.333 23.6818 17.333 19.9999C17.333 16.318 20.3178 13.3333 23.9997 13.3333C27.6816 13.3333 30.6663 16.318 30.6663 19.9999ZM23.9997 15.6666C24.552 15.6666 24.9997 16.1143 24.9997 16.6666V18.9999H27.333C27.8853 18.9999 28.333 19.4476 28.333 19.9999C28.333 20.5522 27.8853 20.9999 27.333 20.9999H24.9997V23.3333C24.9997 23.8855 24.552 24.3333 23.9997 24.3333C23.4474 24.3333 22.9997 23.8855 22.9997 23.3333V20.9999H20.6663C20.1141 20.9999 19.6663 20.5522 19.6663 19.9999C19.6663 19.4476 20.1141 18.9999 20.6663 18.9999H22.9997V16.6666C22.9997 16.1143 23.4474 15.6666 23.9997 15.6666Z" fill="#777E91"/>
<path d="M44.322 25L47.906 15.2H49.922L53.506 25H51.602L50.818 22.732H46.996L46.198 25H44.322ZM47.486 21.332H50.328L48.9 17.258L47.486 21.332ZM57.5903 25.168C56.9369 25.168 56.3536 25.0093 55.8403 24.692C55.3269 24.3747 54.9209 23.9407 54.6223 23.39C54.3236 22.8393 54.1743 22.214 54.1743 21.514C54.1743 20.814 54.3236 20.1933 54.6223 19.652C54.9209 19.1013 55.3269 18.672 55.8403 18.364C56.3536 18.0467 56.9369 17.888 57.5903 17.888C58.1129 17.888 58.5703 17.986 58.9623 18.182C59.3543 18.378 59.6716 18.6533 59.9143 19.008V14.92H61.7063V25H60.1103L59.9143 24.006C59.6903 24.314 59.3916 24.5847 59.0183 24.818C58.6543 25.0513 58.1783 25.168 57.5903 25.168ZM57.9683 23.6C58.5469 23.6 59.0183 23.4087 59.3823 23.026C59.7556 22.634 59.9423 22.1347 59.9423 21.528C59.9423 20.9213 59.7556 20.4267 59.3823 20.044C59.0183 19.652 58.5469 19.456 57.9683 19.456C57.3989 19.456 56.9276 19.6473 56.5543 20.03C56.1809 20.4127 55.9943 20.9073 55.9943 21.514C55.9943 22.1207 56.1809 22.62 56.5543 23.012C56.9276 23.404 57.3989 23.6 57.9683 23.6ZM66.7231 25.168C66.0698 25.168 65.4864 25.0093 64.9731 24.692C64.4598 24.3747 64.0538 23.9407 63.7551 23.39C63.4564 22.8393 63.3071 22.214 63.3071 21.514C63.3071 20.814 63.4564 20.1933 63.7551 19.652C64.0538 19.1013 64.4598 18.672 64.9731 18.364C65.4864 18.0467 66.0698 17.888 66.7231 17.888C67.2458 17.888 67.7031 17.986 68.0951 18.182C68.4871 18.378 68.8044 18.6533 69.0471 19.008V14.92H70.8391V25H69.2431L69.0471 24.006C68.8231 24.314 68.5244 24.5847 68.1511 24.818C67.7871 25.0513 67.3111 25.168 66.7231 25.168ZM67.1011 23.6C67.6798 23.6 68.1511 23.4087 68.5151 23.026C68.8884 22.634 69.0751 22.1347 69.0751 21.528C69.0751 20.9213 68.8884 20.4267 68.5151 20.044C68.1511 19.652 67.6798 19.456 67.1011 19.456C66.5318 19.456 66.0604 19.6473 65.6871 20.03C65.3138 20.4127 65.1271 20.9073 65.1271 21.514C65.1271 22.1207 65.3138 22.62 65.6871 23.012C66.0604 23.404 66.5318 23.6 67.1011 23.6ZM75.9998 25V18.056H77.5818L77.7358 18.994C77.9598 18.658 78.2538 18.392 78.6178 18.196C78.9912 17.9907 79.4205 17.888 79.9058 17.888C80.9792 17.888 81.7398 18.3033 82.1878 19.134C82.4398 18.7513 82.7758 18.448 83.1958 18.224C83.6252 18 84.0918 17.888 84.5958 17.888C85.5012 17.888 86.1965 18.1587 86.6818 18.7C87.1672 19.2413 87.4098 20.0347 87.4098 21.08V25H85.6178V21.248C85.6178 20.6507 85.5012 20.1933 85.2678 19.876C85.0438 19.5587 84.6938 19.4 84.2178 19.4C83.7325 19.4 83.3405 19.5773 83.0418 19.932C82.7525 20.2867 82.6078 20.7813 82.6078 21.416V25H80.8158V21.248C80.8158 20.6507 80.6992 20.1933 80.4658 19.876C80.2325 19.5587 79.8732 19.4 79.3878 19.4C78.9118 19.4 78.5245 19.5773 78.2258 19.932C77.9365 20.2867 77.7918 20.7813 77.7918 21.416V25H75.9998ZM92.4432 25.168C91.7712 25.168 91.1645 25.014 90.6232 24.706C90.0912 24.398 89.6665 23.9733 89.3492 23.432C89.0412 22.8813 88.8872 22.2467 88.8872 21.528C88.8872 20.8093 89.0458 20.1793 89.3632 19.638C89.6805 19.0873 90.1052 18.658 90.6372 18.35C91.1785 18.042 91.7852 17.888 92.4572 17.888C93.1198 17.888 93.7172 18.042 94.2492 18.35C94.7905 18.658 95.2152 19.0873 95.5232 19.638C95.8405 20.1793 95.9992 20.8093 95.9992 21.528C95.9992 22.2467 95.8405 22.8813 95.5232 23.432C95.2152 23.9733 94.7905 24.398 94.2492 24.706C93.7078 25.014 93.1058 25.168 92.4432 25.168ZM92.4432 23.614C92.9098 23.614 93.3158 23.4413 93.6612 23.096C94.0065 22.7413 94.1792 22.2187 94.1792 21.528C94.1792 20.8373 94.0065 20.3193 93.6612 19.974C93.3158 19.6193 92.9145 19.442 92.4572 19.442C91.9812 19.442 91.5705 19.6193 91.2252 19.974C90.8892 20.3193 90.7212 20.8373 90.7212 21.528C90.7212 22.2187 90.8892 22.7413 91.2252 23.096C91.5705 23.4413 91.9765 23.614 92.4432 23.614ZM97.6014 25V18.056H99.1974L99.3654 19.358C99.6174 18.91 99.9581 18.5553 100.387 18.294C100.826 18.0233 101.339 17.888 101.927 17.888V19.778H101.423C101.031 19.778 100.681 19.8387 100.373 19.96C100.065 20.0813 99.8227 20.2913 99.6454 20.59C99.4774 20.8887 99.3934 21.304 99.3934 21.836V25H97.6014ZM106.403 25.168C105.703 25.168 105.082 25.0187 104.541 24.72C104 24.4213 103.575 24.0013 103.267 23.46C102.959 22.9187 102.805 22.2933 102.805 21.584C102.805 20.8653 102.954 20.226 103.253 19.666C103.561 19.106 103.981 18.672 104.513 18.364C105.054 18.0467 105.689 17.888 106.417 17.888C107.098 17.888 107.7 18.0373 108.223 18.336C108.746 18.6347 109.152 19.0453 109.441 19.568C109.74 20.0813 109.889 20.6553 109.889 21.29C109.889 21.3927 109.884 21.5 109.875 21.612C109.875 21.724 109.87 21.8407 109.861 21.962H104.583C104.62 22.5033 104.807 22.928 105.143 23.236C105.488 23.544 105.904 23.698 106.389 23.698C106.753 23.698 107.056 23.6187 107.299 23.46C107.551 23.292 107.738 23.0773 107.859 22.816H109.679C109.548 23.2547 109.329 23.656 109.021 24.02C108.722 24.3747 108.349 24.6547 107.901 24.86C107.462 25.0653 106.963 25.168 106.403 25.168ZM106.417 19.344C105.978 19.344 105.591 19.47 105.255 19.722C104.919 19.9647 104.704 20.338 104.611 20.842H108.069C108.041 20.3847 107.873 20.0207 107.565 19.75C107.257 19.4793 106.874 19.344 106.417 19.344ZM117.602 25.168C116.986 25.168 116.445 25.07 115.978 24.874C115.512 24.6687 115.138 24.3887 114.858 24.034C114.578 23.6793 114.41 23.2687 114.354 22.802H116.16C116.216 23.0727 116.366 23.306 116.608 23.502C116.86 23.6887 117.182 23.782 117.574 23.782C117.966 23.782 118.251 23.7027 118.428 23.544C118.615 23.3853 118.708 23.2033 118.708 22.998C118.708 22.6993 118.578 22.4987 118.316 22.396C118.055 22.284 117.691 22.1767 117.224 22.074C116.926 22.0087 116.622 21.9293 116.314 21.836C116.006 21.7427 115.722 21.626 115.46 21.486C115.208 21.3367 115.003 21.15 114.844 20.926C114.686 20.6927 114.606 20.408 114.606 20.072C114.606 19.456 114.849 18.938 115.334 18.518C115.829 18.098 116.52 17.888 117.406 17.888C118.228 17.888 118.881 18.0793 119.366 18.462C119.861 18.8447 120.155 19.372 120.248 20.044H118.554C118.452 19.5307 118.064 19.274 117.392 19.274C117.056 19.274 116.795 19.3393 116.608 19.47C116.431 19.6007 116.342 19.764 116.342 19.96C116.342 20.1653 116.478 20.3287 116.748 20.45C117.019 20.5713 117.378 20.6833 117.826 20.786C118.312 20.898 118.755 21.024 119.156 21.164C119.567 21.2947 119.894 21.4953 120.136 21.766C120.379 22.0273 120.5 22.4053 120.5 22.9C120.51 23.3293 120.398 23.7167 120.164 24.062C119.931 24.4073 119.595 24.678 119.156 24.874C118.718 25.07 118.2 25.168 117.602 25.168ZM125.42 25.168C124.748 25.168 124.141 25.014 123.6 24.706C123.068 24.398 122.643 23.9733 122.326 23.432C122.018 22.8813 121.864 22.2467 121.864 21.528C121.864 20.8093 122.022 20.1793 122.34 19.638C122.657 19.0873 123.082 18.658 123.614 18.35C124.155 18.042 124.762 17.888 125.434 17.888C126.096 17.888 126.694 18.042 127.226 18.35C127.767 18.658 128.192 19.0873 128.5 19.638C128.817 20.1793 128.976 20.8093 128.976 21.528C128.976 22.2467 128.817 22.8813 128.5 23.432C128.192 23.9733 127.767 24.398 127.226 24.706C126.684 25.014 126.082 25.168 125.42 25.168ZM125.42 23.614C125.886 23.614 126.292 23.4413 126.638 23.096C126.983 22.7413 127.156 22.2187 127.156 21.528C127.156 20.8373 126.983 20.3193 126.638 19.974C126.292 19.6193 125.891 19.442 125.434 19.442C124.958 19.442 124.547 19.6193 124.202 19.974C123.866 20.3193 123.698 20.8373 123.698 21.528C123.698 22.2187 123.866 22.7413 124.202 23.096C124.547 23.4413 124.953 23.614 125.42 23.614ZM133.98 25.168C133.271 25.168 132.645 25.014 132.104 24.706C131.563 24.398 131.133 23.9687 130.816 23.418C130.508 22.8673 130.354 22.2373 130.354 21.528C130.354 20.8187 130.508 20.1887 130.816 19.638C131.133 19.0873 131.563 18.658 132.104 18.35C132.645 18.042 133.271 17.888 133.98 17.888C134.867 17.888 135.613 18.1213 136.22 18.588C136.827 19.0453 137.214 19.68 137.382 20.492H135.492C135.399 20.156 135.212 19.8947 134.932 19.708C134.661 19.512 134.339 19.414 133.966 19.414C133.471 19.414 133.051 19.6007 132.706 19.974C132.361 20.3473 132.188 20.8653 132.188 21.528C132.188 22.1907 132.361 22.7087 132.706 23.082C133.051 23.4553 133.471 23.642 133.966 23.642C134.339 23.642 134.661 23.5487 134.932 23.362C135.212 23.1753 135.399 22.9093 135.492 22.564H137.382C137.214 23.348 136.827 23.978 136.22 24.454C135.613 24.93 134.867 25.168 133.98 25.168ZM139.939 16.978C139.612 16.978 139.341 16.88 139.127 16.684C138.921 16.488 138.819 16.2407 138.819 15.942C138.819 15.6433 138.921 15.4007 139.127 15.214C139.341 15.018 139.612 14.92 139.939 14.92C140.265 14.92 140.531 15.018 140.737 15.214C140.951 15.4007 141.059 15.6433 141.059 15.942C141.059 16.2407 140.951 16.488 140.737 16.684C140.531 16.88 140.265 16.978 139.939 16.978ZM139.043 25V18.056H140.835V25H139.043ZM145.099 25.168C144.502 25.168 144.012 25.0747 143.629 24.888C143.246 24.692 142.962 24.4353 142.775 24.118C142.588 23.8007 142.495 23.4507 142.495 23.068C142.495 22.424 142.747 21.9013 143.251 21.5C143.755 21.0987 144.511 20.898 145.519 20.898H147.283V20.73C147.283 20.254 147.148 19.904 146.877 19.68C146.606 19.456 146.27 19.344 145.869 19.344C145.505 19.344 145.188 19.4327 144.917 19.61C144.646 19.778 144.478 20.03 144.413 20.366H142.663C142.71 19.862 142.878 19.4233 143.167 19.05C143.466 18.6767 143.848 18.392 144.315 18.196C144.782 17.9907 145.304 17.888 145.883 17.888C146.872 17.888 147.652 18.1353 148.221 18.63C148.79 19.1247 149.075 19.8247 149.075 20.73V25H147.549L147.381 23.88C147.176 24.2533 146.886 24.5613 146.513 24.804C146.149 25.0467 145.678 25.168 145.099 25.168ZM145.505 23.768C146.018 23.768 146.415 23.6 146.695 23.264C146.984 22.928 147.166 22.5127 147.241 22.018H145.715C145.239 22.018 144.898 22.1067 144.693 22.284C144.488 22.452 144.385 22.662 144.385 22.914C144.385 23.1847 144.488 23.3947 144.693 23.544C144.898 23.6933 145.169 23.768 145.505 23.768ZM150.785 25V14.92H152.577V25H150.785ZM160.138 25.168C159.541 25.168 159.051 25.0747 158.668 24.888C158.285 24.692 158.001 24.4353 157.814 24.118C157.627 23.8007 157.534 23.4507 157.534 23.068C157.534 22.424 157.786 21.9013 158.29 21.5C158.794 21.0987 159.55 20.898 160.558 20.898H162.322V20.73C162.322 20.254 162.187 19.904 161.916 19.68C161.645 19.456 161.309 19.344 160.908 19.344C160.544 19.344 160.227 19.4327 159.956 19.61C159.685 19.778 159.517 20.03 159.452 20.366H157.702C157.749 19.862 157.917 19.4233 158.206 19.05C158.505 18.6767 158.887 18.392 159.354 18.196C159.821 17.9907 160.343 17.888 160.922 17.888C161.911 17.888 162.691 18.1353 163.26 18.63C163.829 19.1247 164.114 19.8247 164.114 20.73V25H162.588L162.42 23.88C162.215 24.2533 161.925 24.5613 161.552 24.804C161.188 25.0467 160.717 25.168 160.138 25.168ZM160.544 23.768C161.057 23.768 161.454 23.6 161.734 23.264C162.023 22.928 162.205 22.5127 162.28 22.018H160.754C160.278 22.018 159.937 22.1067 159.732 22.284C159.527 22.452 159.424 22.662 159.424 22.914C159.424 23.1847 159.527 23.3947 159.732 23.544C159.937 23.6933 160.208 23.768 160.544 23.768ZM169.226 25.168C168.517 25.168 167.891 25.014 167.35 24.706C166.809 24.398 166.379 23.9687 166.062 23.418C165.754 22.8673 165.6 22.2373 165.6 21.528C165.6 20.8187 165.754 20.1887 166.062 19.638C166.379 19.0873 166.809 18.658 167.35 18.35C167.891 18.042 168.517 17.888 169.226 17.888C170.113 17.888 170.859 18.1213 171.466 18.588C172.073 19.0453 172.46 19.68 172.628 20.492H170.738C170.645 20.156 170.458 19.8947 170.178 19.708C169.907 19.512 169.585 19.414 169.212 19.414C168.717 19.414 168.297 19.6007 167.952 19.974C167.607 20.3473 167.434 20.8653 167.434 21.528C167.434 22.1907 167.607 22.7087 167.952 23.082C168.297 23.4553 168.717 23.642 169.212 23.642C169.585 23.642 169.907 23.5487 170.178 23.362C170.458 23.1753 170.645 22.9093 170.738 22.564H172.628C172.46 23.348 172.073 23.978 171.466 24.454C170.859 24.93 170.113 25.168 169.226 25.168ZM177.621 25.168C176.911 25.168 176.286 25.014 175.745 24.706C175.203 24.398 174.774 23.9687 174.457 23.418C174.149 22.8673 173.995 22.2373 173.995 21.528C173.995 20.8187 174.149 20.1887 174.457 19.638C174.774 19.0873 175.203 18.658 175.745 18.35C176.286 18.042 176.911 17.888 177.621 17.888C178.507 17.888 179.254 18.1213 179.861 18.588C180.467 19.0453 180.855 19.68 181.023 20.492H179.133C179.039 20.156 178.853 19.8947 178.573 19.708C178.302 19.512 177.98 19.414 177.607 19.414C177.112 19.414 176.692 19.6007 176.347 19.974C176.001 20.3473 175.829 20.8653 175.829 21.528C175.829 22.1907 176.001 22.7087 176.347 23.082C176.692 23.4553 177.112 23.642 177.607 23.642C177.98 23.642 178.302 23.5487 178.573 23.362C178.853 23.1753 179.039 22.9093 179.133 22.564H181.023C180.855 23.348 180.467 23.978 179.861 24.454C179.254 24.93 178.507 25.168 177.621 25.168ZM185.945 25.168C185.273 25.168 184.666 25.014 184.125 24.706C183.593 24.398 183.168 23.9733 182.851 23.432C182.543 22.8813 182.389 22.2467 182.389 21.528C182.389 20.8093 182.548 20.1793 182.865 19.638C183.182 19.0873 183.607 18.658 184.139 18.35C184.68 18.042 185.287 17.888 185.959 17.888C186.622 17.888 187.219 18.042 187.751 18.35C188.292 18.658 188.717 19.0873 189.025 19.638C189.342 20.1793 189.501 20.8093 189.501 21.528C189.501 22.2467 189.342 22.8813 189.025 23.432C188.717 23.9733 188.292 24.398 187.751 24.706C187.21 25.014 186.608 25.168 185.945 25.168ZM185.945 23.614C186.412 23.614 186.818 23.4413 187.163 23.096C187.508 22.7413 187.681 22.2187 187.681 21.528C187.681 20.8373 187.508 20.3193 187.163 19.974C186.818 19.6193 186.416 19.442 185.959 19.442C185.483 19.442 185.072 19.6193 184.727 19.974C184.391 20.3193 184.223 20.8373 184.223 21.528C184.223 22.2187 184.391 22.7413 184.727 23.096C185.072 23.4413 185.478 23.614 185.945 23.614ZM193.707 25.168C192.839 25.168 192.167 24.8973 191.691 24.356C191.225 23.8147 190.991 23.0213 190.991 21.976V18.056H192.769V21.808C192.769 22.4053 192.891 22.8627 193.133 23.18C193.376 23.4973 193.759 23.656 194.281 23.656C194.776 23.656 195.182 23.4787 195.499 23.124C195.826 22.7693 195.989 22.2747 195.989 21.64V18.056H197.781V25H196.199L196.059 23.824C195.845 24.2347 195.532 24.5613 195.121 24.804C194.72 25.0467 194.249 25.168 193.707 25.168ZM199.621 25V18.056H201.203L201.343 19.232C201.558 18.8213 201.866 18.4947 202.267 18.252C202.678 18.0093 203.158 17.888 203.709 17.888C204.568 17.888 205.235 18.1587 205.711 18.7C206.187 19.2413 206.425 20.0347 206.425 21.08V25H204.633V21.248C204.633 20.6507 204.512 20.1933 204.269 19.876C204.026 19.5587 203.648 19.4 203.135 19.4C202.631 19.4 202.216 19.5773 201.889 19.932C201.572 20.2867 201.413 20.7813 201.413 21.416V25H199.621ZM211.233 25C210.505 25 209.921 24.8227 209.483 24.468C209.044 24.1133 208.825 23.4833 208.825 22.578V19.554H207.635V18.056H208.825L209.035 16.194H210.617V18.056H212.493V19.554H210.617V22.592C210.617 22.928 210.687 23.1613 210.827 23.292C210.976 23.4133 211.228 23.474 211.583 23.474H212.451V25H211.233Z" fill="#777E91"/>
<rect x="1" y="1" width="228" height="38" rx="19" stroke="#353945" stroke-width="2"/>
</svg>
