<svg width="153" height="40" viewBox="0 0 153 40" fill="none" xmlns="http://www.w3.org/2000/svg">
<path fill-rule="evenodd" clip-rule="evenodd" d="M22.6054 16.8433C22.3348 16.5936 21.9131 16.6104 21.6633 16.881L19.5095 19.2143C19.2738 19.4697 19.2737 19.8633 19.5095 20.1187L21.6633 22.452C21.9131 22.7226 22.3348 22.7394 22.6054 22.4897C22.8759 22.24 22.8928 21.8182 22.6431 21.5477L21.522 20.3331L27.9993 20.3331C28.3675 20.3331 28.666 20.0347 28.666 19.6665C28.666 19.2983 28.3675 18.9998 27.9993 18.9998L21.522 18.9998L22.6431 17.7854C22.8928 17.5148 22.8759 17.093 22.6054 16.8433Z" fill="#777E91"/>
<path d="M45.1385 25V15.2H49.0725C50.0899 15.2 50.8645 15.438 51.3965 15.914C51.9379 16.3807 52.2085 16.9827 52.2085 17.72C52.2085 18.336 52.0405 18.8307 51.7045 19.204C51.3779 19.568 50.9765 19.8153 50.5005 19.946C51.0605 20.058 51.5225 20.338 51.8865 20.786C52.2505 21.2247 52.4325 21.738 52.4325 22.326C52.4325 23.1007 52.1525 23.74 51.5925 24.244C51.0325 24.748 50.2392 25 49.2125 25H45.1385ZM46.9305 19.316H48.8065C49.3105 19.316 49.6979 19.1993 49.9685 18.966C50.2392 18.7327 50.3745 18.4013 50.3745 17.972C50.3745 17.5613 50.2392 17.2393 49.9685 17.006C49.7072 16.7633 49.3105 16.642 48.7785 16.642H46.9305V19.316ZM46.9305 23.544H48.9325C49.4645 23.544 49.8752 23.4227 50.1645 23.18C50.4632 22.928 50.6125 22.578 50.6125 22.13C50.6125 21.6727 50.4585 21.3133 50.1505 21.052C49.8425 20.7907 49.4272 20.66 48.9045 20.66H46.9305V23.544ZM56.3226 25.168C55.7252 25.168 55.2352 25.0747 54.8526 24.888C54.4699 24.692 54.1852 24.4353 53.9986 24.118C53.8119 23.8007 53.7186 23.4507 53.7186 23.068C53.7186 22.424 53.9706 21.9013 54.4746 21.5C54.9786 21.0987 55.7346 20.898 56.7426 20.898H58.5066V20.73C58.5066 20.254 58.3712 19.904 58.1006 19.68C57.8299 19.456 57.4939 19.344 57.0926 19.344C56.7286 19.344 56.4112 19.4327 56.1406 19.61C55.8699 19.778 55.7019 20.03 55.6366 20.366H53.8866C53.9332 19.862 54.1012 19.4233 54.3906 19.05C54.6892 18.6767 55.0719 18.392 55.5386 18.196C56.0052 17.9907 56.5279 17.888 57.1066 17.888C58.0959 17.888 58.8752 18.1353 59.4446 18.63C60.0139 19.1247 60.2986 19.8247 60.2986 20.73V25H58.7726L58.6046 23.88C58.3992 24.2533 58.1099 24.5613 57.7366 24.804C57.3726 25.0467 56.9012 25.168 56.3226 25.168ZM56.7286 23.768C57.2419 23.768 57.6386 23.6 57.9186 23.264C58.2079 22.928 58.3899 22.5127 58.4646 22.018H56.9386C56.4626 22.018 56.1219 22.1067 55.9166 22.284C55.7112 22.452 55.6086 22.662 55.6086 22.914C55.6086 23.1847 55.7112 23.3947 55.9166 23.544C56.1219 23.6933 56.3926 23.768 56.7286 23.768ZM65.4106 25.168C64.7013 25.168 64.076 25.014 63.5346 24.706C62.9933 24.398 62.564 23.9687 62.2466 23.418C61.9386 22.8673 61.7846 22.2373 61.7846 21.528C61.7846 20.8187 61.9386 20.1887 62.2466 19.638C62.564 19.0873 62.9933 18.658 63.5346 18.35C64.076 18.042 64.7013 17.888 65.4106 17.888C66.2973 17.888 67.044 18.1213 67.6506 18.588C68.2573 19.0453 68.6446 19.68 68.8126 20.492H66.9226C66.8293 20.156 66.6426 19.8947 66.3626 19.708C66.092 19.512 65.77 19.414 65.3966 19.414C64.902 19.414 64.482 19.6007 64.1366 19.974C63.7913 20.3473 63.6186 20.8653 63.6186 21.528C63.6186 22.1907 63.7913 22.7087 64.1366 23.082C64.482 23.4553 64.902 23.642 65.3966 23.642C65.77 23.642 66.092 23.5487 66.3626 23.362C66.6426 23.1753 66.8293 22.9093 66.9226 22.564H68.8126C68.6446 23.348 68.2573 23.978 67.6506 24.454C67.044 24.93 66.2973 25.168 65.4106 25.168ZM70.4032 25V14.92H72.1952V20.87L74.6592 18.056H76.7872L73.9452 21.22L77.2492 25H75.0092L72.1952 21.514V25H70.4032ZM84.7901 25C84.0621 25 83.4788 24.8227 83.0401 24.468C82.6015 24.1133 82.3821 23.4833 82.3821 22.578V19.554H81.1921V18.056H82.3821L82.5921 16.194H84.1741V18.056H86.0501V19.554H84.1741V22.592C84.1741 22.928 84.2441 23.1613 84.3841 23.292C84.5335 23.4133 84.7855 23.474 85.1401 23.474H86.0081V25H84.7901ZM90.743 25.168C90.071 25.168 89.4643 25.014 88.923 24.706C88.391 24.398 87.9663 23.9733 87.649 23.432C87.341 22.8813 87.187 22.2467 87.187 21.528C87.187 20.8093 87.3456 20.1793 87.663 19.638C87.9803 19.0873 88.405 18.658 88.937 18.35C89.4783 18.042 90.085 17.888 90.757 17.888C91.4196 17.888 92.017 18.042 92.549 18.35C93.0903 18.658 93.515 19.0873 93.823 19.638C94.1403 20.1793 94.299 20.8093 94.299 21.528C94.299 22.2467 94.1403 22.8813 93.823 23.432C93.515 23.9733 93.0903 24.398 92.549 24.706C92.0076 25.014 91.4056 25.168 90.743 25.168ZM90.743 23.614C91.2096 23.614 91.6156 23.4413 91.961 23.096C92.3063 22.7413 92.479 22.2187 92.479 21.528C92.479 20.8373 92.3063 20.3193 91.961 19.974C91.6156 19.6193 91.2143 19.442 90.757 19.442C90.281 19.442 89.8703 19.6193 89.525 19.974C89.189 20.3193 89.021 20.8373 89.021 21.528C89.021 22.2187 89.189 22.7413 89.525 23.096C89.8703 23.4413 90.2763 23.614 90.743 23.614ZM99.2371 25V14.92H101.029V19.12C101.262 18.7373 101.575 18.4387 101.967 18.224C102.368 18 102.826 17.888 103.339 17.888C104.198 17.888 104.86 18.1587 105.327 18.7C105.803 19.2413 106.041 20.0347 106.041 21.08V25H104.263V21.248C104.263 20.6507 104.142 20.1933 103.899 19.876C103.666 19.5587 103.292 19.4 102.779 19.4C102.275 19.4 101.855 19.5773 101.519 19.932C101.192 20.2867 101.029 20.7813 101.029 21.416V25H99.2371ZM111.087 25.168C110.415 25.168 109.808 25.014 109.267 24.706C108.735 24.398 108.31 23.9733 107.993 23.432C107.685 22.8813 107.531 22.2467 107.531 21.528C107.531 20.8093 107.689 20.1793 108.007 19.638C108.324 19.0873 108.749 18.658 109.281 18.35C109.822 18.042 110.429 17.888 111.101 17.888C111.763 17.888 112.361 18.042 112.893 18.35C113.434 18.658 113.859 19.0873 114.167 19.638C114.484 20.1793 114.643 20.8093 114.643 21.528C114.643 22.2467 114.484 22.8813 114.167 23.432C113.859 23.9733 113.434 24.398 112.893 24.706C112.351 25.014 111.749 25.168 111.087 25.168ZM111.087 23.614C111.553 23.614 111.959 23.4413 112.305 23.096C112.65 22.7413 112.823 22.2187 112.823 21.528C112.823 20.8373 112.65 20.3193 112.305 19.974C111.959 19.6193 111.558 19.442 111.101 19.442C110.625 19.442 110.214 19.6193 109.869 19.974C109.533 20.3193 109.365 20.8373 109.365 21.528C109.365 22.2187 109.533 22.7413 109.869 23.096C110.214 23.4413 110.62 23.614 111.087 23.614ZM116.245 25V18.056H117.827L117.981 18.994C118.205 18.658 118.499 18.392 118.863 18.196C119.236 17.9907 119.666 17.888 120.151 17.888C121.224 17.888 121.985 18.3033 122.433 19.134C122.685 18.7513 123.021 18.448 123.441 18.224C123.87 18 124.337 17.888 124.841 17.888C125.746 17.888 126.442 18.1587 126.927 18.7C127.412 19.2413 127.655 20.0347 127.655 21.08V25H125.863V21.248C125.863 20.6507 125.746 20.1933 125.513 19.876C125.289 19.5587 124.939 19.4 124.463 19.4C123.978 19.4 123.586 19.5773 123.287 19.932C122.998 20.2867 122.853 20.7813 122.853 21.416V25H121.061V21.248C121.061 20.6507 120.944 20.1933 120.711 19.876C120.478 19.5587 120.118 19.4 119.633 19.4C119.157 19.4 118.77 19.5773 118.471 19.932C118.182 20.2867 118.037 20.7813 118.037 21.416V25H116.245ZM132.73 25.168C132.03 25.168 131.41 25.0187 130.868 24.72C130.327 24.4213 129.902 24.0013 129.594 23.46C129.286 22.9187 129.132 22.2933 129.132 21.584C129.132 20.8653 129.282 20.226 129.58 19.666C129.888 19.106 130.308 18.672 130.84 18.364C131.382 18.0467 132.016 17.888 132.744 17.888C133.426 17.888 134.028 18.0373 134.55 18.336C135.073 18.6347 135.479 19.0453 135.768 19.568C136.067 20.0813 136.216 20.6553 136.216 21.29C136.216 21.3927 136.212 21.5 136.202 21.612C136.202 21.724 136.198 21.8407 136.188 21.962H130.91C130.948 22.5033 131.134 22.928 131.47 23.236C131.816 23.544 132.231 23.698 132.716 23.698C133.08 23.698 133.384 23.6187 133.626 23.46C133.878 23.292 134.065 23.0773 134.186 22.816H136.006C135.876 23.2547 135.656 23.656 135.348 24.02C135.05 24.3747 134.676 24.6547 134.228 24.86C133.79 25.0653 133.29 25.168 132.73 25.168ZM132.744 19.344C132.306 19.344 131.918 19.47 131.582 19.722C131.246 19.9647 131.032 20.338 130.938 20.842H134.396C134.368 20.3847 134.2 20.0207 133.892 19.75C133.584 19.4793 133.202 19.344 132.744 19.344Z" fill="#FCFCFD"/>
<rect x="1" y="1" width="151" height="38" rx="19" stroke="#353945" stroke-width="2"/>
</svg>
