<svg width="311" height="48" viewBox="0 0 311 48" fill="none" xmlns="http://www.w3.org/2000/svg">
<rect width="311" height="48" rx="24" fill="#3772FF"/>
<path d="M121.088 29V17.8H128.4V19.448H123.136V22.52H127.92V24.12H123.136V27.352H128.4V29H121.088ZM133.026 29.192C132.343 29.192 131.783 29.0853 131.346 28.872C130.909 28.648 130.583 28.3547 130.37 27.992C130.157 27.6293 130.05 27.2293 130.05 26.792C130.05 26.056 130.338 25.4587 130.914 25C131.49 24.5413 132.354 24.312 133.506 24.312H135.522V24.12C135.522 23.576 135.367 23.176 135.058 22.92C134.749 22.664 134.365 22.536 133.906 22.536C133.49 22.536 133.127 22.6373 132.818 22.84C132.509 23.032 132.317 23.32 132.242 23.704H130.242C130.295 23.128 130.487 22.6267 130.818 22.2C131.159 21.7733 131.597 21.448 132.13 21.224C132.663 20.9893 133.261 20.872 133.922 20.872C135.053 20.872 135.943 21.1547 136.594 21.72C137.245 22.2853 137.57 23.0853 137.57 24.12V29H135.826L135.634 27.72C135.399 28.1467 135.069 28.4987 134.642 28.776C134.226 29.0533 133.687 29.192 133.026 29.192ZM133.49 27.592C134.077 27.592 134.53 27.4 134.85 27.016C135.181 26.632 135.389 26.1573 135.474 25.592H133.73C133.186 25.592 132.797 25.6933 132.562 25.896C132.327 26.088 132.21 26.328 132.21 26.616C132.21 26.9253 132.327 27.1653 132.562 27.336C132.797 27.5067 133.106 27.592 133.49 27.592ZM139.524 29V21.064H141.348L141.54 22.552C141.828 22.04 142.218 21.6347 142.708 21.336C143.21 21.0267 143.796 20.872 144.468 20.872V23.032H143.892C143.444 23.032 143.044 23.1013 142.692 23.24C142.34 23.3787 142.063 23.6187 141.86 23.96C141.668 24.3013 141.572 24.776 141.572 25.384V29H139.524ZM145.868 29V21.064H147.676L147.836 22.408C148.081 21.9387 148.433 21.5653 148.892 21.288C149.361 21.0107 149.911 20.872 150.54 20.872C151.521 20.872 152.284 21.1813 152.828 21.8C153.372 22.4187 153.644 23.3253 153.644 24.52V29H151.596V24.712C151.596 24.0293 151.457 23.5067 151.18 23.144C150.903 22.7813 150.471 22.6 149.884 22.6C149.308 22.6 148.833 22.8027 148.46 23.208C148.097 23.6133 147.916 24.1787 147.916 24.904V29H145.868ZM159.415 29V21.064H161.223L161.383 22.408C161.628 21.9387 161.98 21.5653 162.439 21.288C162.908 21.0107 163.458 20.872 164.087 20.872C165.068 20.872 165.831 21.1813 166.375 21.8C166.919 22.4187 167.191 23.3253 167.191 24.52V29H165.143V24.712C165.143 24.0293 165.004 23.5067 164.727 23.144C164.45 22.7813 164.018 22.6 163.431 22.6C162.855 22.6 162.38 22.8027 162.007 23.208C161.644 23.6133 161.463 24.1787 161.463 24.904V29H159.415ZM172.957 29.192C172.189 29.192 171.496 29.016 170.877 28.664C170.269 28.312 169.784 27.8267 169.421 27.208C169.069 26.5787 168.893 25.8533 168.893 25.032C168.893 24.2107 169.075 23.4907 169.437 22.872C169.8 22.2427 170.285 21.752 170.893 21.4C171.512 21.048 172.205 20.872 172.973 20.872C173.731 20.872 174.413 21.048 175.021 21.4C175.64 21.752 176.125 22.2427 176.477 22.872C176.84 23.4907 177.021 24.2107 177.021 25.032C177.021 25.8533 176.84 26.5787 176.477 27.208C176.125 27.8267 175.64 28.312 175.021 28.664C174.403 29.016 173.715 29.192 172.957 29.192ZM172.957 27.416C173.491 27.416 173.955 27.2187 174.349 26.824C174.744 26.4187 174.941 25.8213 174.941 25.032C174.941 24.2427 174.744 23.6507 174.349 23.256C173.955 22.8507 173.496 22.648 172.973 22.648C172.429 22.648 171.96 22.8507 171.565 23.256C171.181 23.6507 170.989 24.2427 170.989 25.032C170.989 25.8213 171.181 26.4187 171.565 26.824C171.96 27.2187 172.424 27.416 172.957 27.416ZM180.123 29L177.803 21.064H179.835L181.211 26.776L182.811 21.064H185.083L186.683 26.776L188.075 21.064H190.107L187.771 29H185.643L183.947 23.064L182.251 29H180.123Z" fill="#FCFCFD"/>
</svg>
