<svg width="160" height="48" viewBox="0 0 160 48" fill="none" xmlns="http://www.w3.org/2000/svg">
<path d="M25.088 29V17.8H28.912C30.224 17.8 31.3013 18.0347 32.144 18.504C32.9973 18.9627 33.6267 19.6133 34.032 20.456C34.448 21.288 34.656 22.2693 34.656 23.4C34.656 24.5307 34.448 25.5173 34.032 26.36C33.6267 27.192 32.9973 27.8427 32.144 28.312C31.3013 28.7707 30.224 29 28.912 29H25.088ZM27.136 27.24H28.816C29.7547 27.24 30.496 27.0907 31.04 26.792C31.584 26.4827 31.9733 26.0453 32.208 25.48C32.4427 24.904 32.56 24.2107 32.56 23.4C32.56 22.6 32.4427 21.912 32.208 21.336C31.9733 20.76 31.584 20.3173 31.04 20.008C30.496 19.6987 29.7547 19.544 28.816 19.544H27.136V27.24ZM37.519 19.832C37.1457 19.832 36.8363 19.72 36.591 19.496C36.3563 19.272 36.239 18.9893 36.239 18.648C36.239 18.3067 36.3563 18.0293 36.591 17.816C36.8363 17.592 37.1457 17.48 37.519 17.48C37.8923 17.48 38.1963 17.592 38.431 17.816C38.6763 18.0293 38.799 18.3067 38.799 18.648C38.799 18.9893 38.6763 19.272 38.431 19.496C38.1963 19.72 37.8923 19.832 37.519 19.832ZM36.495 29V21.064H38.543V29H36.495ZM43.9606 29.192C43.2566 29.192 42.638 29.08 42.1046 28.856C41.5713 28.6213 41.1446 28.3013 40.8246 27.896C40.5046 27.4907 40.3126 27.0213 40.2486 26.488H42.3126C42.3766 26.7973 42.5473 27.064 42.8246 27.288C43.1126 27.5013 43.4806 27.608 43.9286 27.608C44.3766 27.608 44.702 27.5173 44.9046 27.336C45.118 27.1547 45.2246 26.9467 45.2246 26.712C45.2246 26.3707 45.0753 26.1413 44.7766 26.024C44.478 25.896 44.062 25.7733 43.5286 25.656C43.1873 25.5813 42.8406 25.4907 42.4886 25.384C42.1366 25.2773 41.8113 25.144 41.5126 24.984C41.2246 24.8133 40.99 24.6 40.8086 24.344C40.6273 24.0773 40.5366 23.752 40.5366 23.368C40.5366 22.664 40.814 22.072 41.3686 21.592C41.934 21.112 42.7233 20.872 43.7366 20.872C44.6753 20.872 45.422 21.0907 45.9766 21.528C46.542 21.9653 46.878 22.568 46.9846 23.336H45.0486C44.9313 22.7493 44.4886 22.456 43.7206 22.456C43.3366 22.456 43.038 22.5307 42.8246 22.68C42.622 22.8293 42.5206 23.016 42.5206 23.24C42.5206 23.4747 42.6753 23.6613 42.9846 23.8C43.294 23.9387 43.7046 24.0667 44.2166 24.184C44.7713 24.312 45.278 24.456 45.7366 24.616C46.206 24.7653 46.5793 24.9947 46.8566 25.304C47.134 25.6027 47.2726 26.0347 47.2726 26.6C47.2833 27.0907 47.1553 27.5333 46.8886 27.928C46.622 28.3227 46.238 28.632 45.7366 28.856C45.2353 29.08 44.6433 29.192 43.9606 29.192ZM52.9749 29.192C52.1642 29.192 51.4495 29.016 50.8309 28.664C50.2122 28.312 49.7215 27.8213 49.3589 27.192C49.0069 26.5627 48.8309 25.8427 48.8309 25.032C48.8309 24.2213 49.0069 23.5013 49.3589 22.872C49.7215 22.2427 50.2122 21.752 50.8309 21.4C51.4495 21.048 52.1642 20.872 52.9749 20.872C53.9882 20.872 54.8415 21.1387 55.5349 21.672C56.2282 22.1947 56.6709 22.92 56.8629 23.848H54.7029C54.5962 23.464 54.3829 23.1653 54.0629 22.952C53.7535 22.728 53.3855 22.616 52.9589 22.616C52.3935 22.616 51.9135 22.8293 51.5189 23.256C51.1242 23.6827 50.9269 24.2747 50.9269 25.032C50.9269 25.7893 51.1242 26.3813 51.5189 26.808C51.9135 27.2347 52.3935 27.448 52.9589 27.448C53.3855 27.448 53.7535 27.3413 54.0629 27.128C54.3829 26.9147 54.5962 26.6107 54.7029 26.216H56.8629C56.6709 27.112 56.2282 27.832 55.5349 28.376C54.8415 28.92 53.9882 29.192 52.9749 29.192ZM62.4886 29.192C61.7206 29.192 61.0273 29.016 60.4086 28.664C59.8006 28.312 59.3153 27.8267 58.9526 27.208C58.6006 26.5787 58.4246 25.8533 58.4246 25.032C58.4246 24.2107 58.606 23.4907 58.9686 22.872C59.3313 22.2427 59.8166 21.752 60.4246 21.4C61.0433 21.048 61.7366 20.872 62.5046 20.872C63.262 20.872 63.9446 21.048 64.5526 21.4C65.1713 21.752 65.6566 22.2427 66.0086 22.872C66.3713 23.4907 66.5526 24.2107 66.5526 25.032C66.5526 25.8533 66.3713 26.5787 66.0086 27.208C65.6566 27.8267 65.1713 28.312 64.5526 28.664C63.934 29.016 63.246 29.192 62.4886 29.192ZM62.4886 27.416C63.022 27.416 63.486 27.2187 63.8806 26.824C64.2753 26.4187 64.4726 25.8213 64.4726 25.032C64.4726 24.2427 64.2753 23.6507 63.8806 23.256C63.486 22.8507 63.0273 22.648 62.5046 22.648C61.9606 22.648 61.4913 22.8507 61.0966 23.256C60.7126 23.6507 60.5206 24.2427 60.5206 25.032C60.5206 25.8213 60.7126 26.4187 61.0966 26.824C61.4913 27.2187 61.9553 27.416 62.4886 27.416ZM70.1371 29L67.2251 21.064H69.3691L71.3851 27.064L73.4011 21.064H75.5451L72.6171 29H70.1371ZM80.3023 29.192C79.5023 29.192 78.7929 29.0213 78.1743 28.68C77.5556 28.3387 77.0703 27.8587 76.7183 27.24C76.3663 26.6213 76.1903 25.9067 76.1903 25.096C76.1903 24.2747 76.3609 23.544 76.7023 22.904C77.0543 22.264 77.5343 21.768 78.1423 21.416C78.7609 21.0533 79.4863 20.872 80.3183 20.872C81.0969 20.872 81.7849 21.0427 82.3823 21.384C82.9796 21.7253 83.4436 22.1947 83.7743 22.792C84.1156 23.3787 84.2863 24.0347 84.2863 24.76C84.2863 24.8773 84.2809 25 84.2703 25.128C84.2703 25.256 84.2649 25.3893 84.2543 25.528H78.2223C78.2649 26.1467 78.4783 26.632 78.8623 26.984C79.2569 27.336 79.7316 27.512 80.2863 27.512C80.7023 27.512 81.0489 27.4213 81.3263 27.24C81.6143 27.048 81.8276 26.8027 81.9663 26.504H84.0463C83.8969 27.0053 83.6463 27.464 83.2943 27.88C82.9529 28.2853 82.5263 28.6053 82.0143 28.84C81.5129 29.0747 80.9423 29.192 80.3023 29.192ZM80.3183 22.536C79.8169 22.536 79.3743 22.68 78.9903 22.968C78.6063 23.2453 78.3609 23.672 78.2543 24.248H82.2063C82.1743 23.7253 81.9823 23.3093 81.6303 23C81.2783 22.6907 80.8409 22.536 80.3183 22.536ZM86.0088 29V21.064H87.8328L88.0248 22.552C88.3128 22.04 88.7021 21.6347 89.1927 21.336C89.6941 21.0267 90.2808 20.872 90.9528 20.872V23.032H90.3768C89.9288 23.032 89.5288 23.1013 89.1768 23.24C88.8248 23.3787 88.5474 23.6187 88.3448 23.96C88.1528 24.3013 88.0568 24.776 88.0568 25.384V29H86.0088ZM96.165 29V21.064H97.973L98.149 22.136C98.405 21.752 98.741 21.448 99.157 21.224C99.5837 20.9893 100.074 20.872 100.629 20.872C101.856 20.872 102.725 21.3467 103.237 22.296C103.525 21.8587 103.909 21.512 104.389 21.256C104.88 21 105.413 20.872 105.989 20.872C107.024 20.872 107.818 21.1813 108.373 21.8C108.928 22.4187 109.205 23.3253 109.205 24.52V29H107.157V24.712C107.157 24.0293 107.024 23.5067 106.757 23.144C106.501 22.7813 106.101 22.6 105.557 22.6C105.002 22.6 104.554 22.8027 104.213 23.208C103.882 23.6133 103.717 24.1787 103.717 24.904V29H101.669V24.712C101.669 24.0293 101.536 23.5067 101.269 23.144C101.002 22.7813 100.592 22.6 100.037 22.6C99.493 22.6 99.0503 22.8027 98.709 23.208C98.3783 23.6133 98.213 24.1787 98.213 24.904V29H96.165ZM114.957 29.192C114.189 29.192 113.496 29.016 112.877 28.664C112.269 28.312 111.784 27.8267 111.421 27.208C111.069 26.5787 110.893 25.8533 110.893 25.032C110.893 24.2107 111.075 23.4907 111.437 22.872C111.8 22.2427 112.285 21.752 112.893 21.4C113.512 21.048 114.205 20.872 114.973 20.872C115.731 20.872 116.413 21.048 117.021 21.4C117.64 21.752 118.125 22.2427 118.477 22.872C118.84 23.4907 119.021 24.2107 119.021 25.032C119.021 25.8533 118.84 26.5787 118.477 27.208C118.125 27.8267 117.64 28.312 117.021 28.664C116.403 29.016 115.715 29.192 114.957 29.192ZM114.957 27.416C115.491 27.416 115.955 27.2187 116.349 26.824C116.744 26.4187 116.941 25.8213 116.941 25.032C116.941 24.2427 116.744 23.6507 116.349 23.256C115.955 22.8507 115.496 22.648 114.973 22.648C114.429 22.648 113.96 22.8507 113.565 23.256C113.181 23.6507 112.989 24.2427 112.989 25.032C112.989 25.8213 113.181 26.4187 113.565 26.824C113.96 27.2187 114.424 27.416 114.957 27.416ZM120.853 29V21.064H122.677L122.869 22.552C123.157 22.04 123.546 21.6347 124.036 21.336C124.538 21.0267 125.125 20.872 125.797 20.872V23.032H125.221C124.773 23.032 124.373 23.1013 124.021 23.24C123.669 23.3787 123.391 23.6187 123.189 23.96C122.997 24.3013 122.901 24.776 122.901 25.384V29H120.853ZM130.912 29.192C130.112 29.192 129.402 29.0213 128.784 28.68C128.165 28.3387 127.68 27.8587 127.328 27.24C126.976 26.6213 126.8 25.9067 126.8 25.096C126.8 24.2747 126.97 23.544 127.312 22.904C127.664 22.264 128.144 21.768 128.752 21.416C129.37 21.0533 130.096 20.872 130.928 20.872C131.706 20.872 132.394 21.0427 132.992 21.384C133.589 21.7253 134.053 22.1947 134.384 22.792C134.725 23.3787 134.896 24.0347 134.896 24.76C134.896 24.8773 134.89 25 134.88 25.128C134.88 25.256 134.874 25.3893 134.864 25.528H128.832C128.874 26.1467 129.088 26.632 129.472 26.984C129.866 27.336 130.341 27.512 130.896 27.512C131.312 27.512 131.658 27.4213 131.936 27.24C132.224 27.048 132.437 26.8027 132.576 26.504H134.656C134.506 27.0053 134.256 27.464 133.904 27.88C133.562 28.2853 133.136 28.6053 132.624 28.84C132.122 29.0747 131.552 29.192 130.912 29.192ZM130.928 22.536C130.426 22.536 129.984 22.68 129.6 22.968C129.216 23.2453 128.97 23.672 128.864 24.248H132.816C132.784 23.7253 132.592 23.3093 132.24 23C131.888 22.6907 131.45 22.536 130.928 22.536Z" fill="#FCFCFD"/>
<rect x="1" y="1" width="158" height="46" rx="23" stroke="#777E91" stroke-width="2"/>
</svg>
