<svg width="98" height="32" viewBox="0 0 98 32" fill="none" xmlns="http://www.w3.org/2000/svg">
<path d="M12.952 21V11.2H16.578C17.362 11.2 18.0107 11.3307 18.524 11.592C19.0373 11.8533 19.42 12.2127 19.672 12.67C19.924 13.1273 20.05 13.6407 20.05 14.21C20.05 14.7513 19.9287 15.2507 19.686 15.708C19.4433 16.156 19.0653 16.52 18.552 16.8C18.0387 17.0707 17.3807 17.206 16.578 17.206H14.744V21H12.952ZM14.744 15.75H16.466C17.0913 15.75 17.5393 15.6147 17.81 15.344C18.09 15.064 18.23 14.686 18.23 14.21C18.23 13.7247 18.09 13.3467 17.81 13.076C17.5393 12.796 17.0913 12.656 16.466 12.656H14.744V15.75ZM21.4139 21V10.92H23.2059V21H21.4139ZM27.431 21.168C26.8336 21.168 26.3436 21.0747 25.961 20.888C25.5783 20.692 25.2936 20.4353 25.107 20.118C24.9203 19.8007 24.827 19.4507 24.827 19.068C24.827 18.424 25.079 17.9013 25.583 17.5C26.087 17.0987 26.843 16.898 27.851 16.898H29.615V16.73C29.615 16.254 29.4796 15.904 29.209 15.68C28.9383 15.456 28.6023 15.344 28.201 15.344C27.837 15.344 27.5196 15.4327 27.249 15.61C26.9783 15.778 26.8103 16.03 26.745 16.366H24.995C25.0416 15.862 25.2096 15.4233 25.499 15.05C25.7976 14.6767 26.1803 14.392 26.647 14.196C27.1136 13.9907 27.6363 13.888 28.215 13.888C29.2043 13.888 29.9836 14.1353 30.553 14.63C31.1223 15.1247 31.407 15.8247 31.407 16.73V21H29.881L29.713 19.88C29.5076 20.2533 29.2183 20.5613 28.845 20.804C28.481 21.0467 28.0096 21.168 27.431 21.168ZM27.837 19.768C28.3503 19.768 28.747 19.6 29.027 19.264C29.3163 18.928 29.4983 18.5127 29.573 18.018H28.047C27.571 18.018 27.2303 18.1067 27.025 18.284C26.8196 18.452 26.717 18.662 26.717 18.914C26.717 19.1847 26.8196 19.3947 27.025 19.544C27.2303 19.6933 27.501 19.768 27.837 19.768ZM36.519 21.168C35.8097 21.168 35.1844 21.014 34.643 20.706C34.1017 20.398 33.6724 19.9687 33.355 19.418C33.047 18.8673 32.893 18.2373 32.893 17.528C32.893 16.8187 33.047 16.1887 33.355 15.638C33.6724 15.0873 34.1017 14.658 34.643 14.35C35.1844 14.042 35.8097 13.888 36.519 13.888C37.4057 13.888 38.1524 14.1213 38.759 14.588C39.3657 15.0453 39.753 15.68 39.921 16.492H38.031C37.9377 16.156 37.751 15.8947 37.471 15.708C37.2004 15.512 36.8784 15.414 36.505 15.414C36.0104 15.414 35.5904 15.6007 35.245 15.974C34.8997 16.3473 34.727 16.8653 34.727 17.528C34.727 18.1907 34.8997 18.7087 35.245 19.082C35.5904 19.4553 36.0104 19.642 36.505 19.642C36.8784 19.642 37.2004 19.5487 37.471 19.362C37.751 19.1753 37.9377 18.9093 38.031 18.564H39.921C39.753 19.348 39.3657 19.978 38.759 20.454C38.1524 20.93 37.4057 21.168 36.519 21.168ZM44.8856 21.168C44.1856 21.168 43.5649 21.0187 43.0236 20.72C42.4822 20.4213 42.0576 20.0013 41.7496 19.46C41.4416 18.9187 41.2876 18.2933 41.2876 17.584C41.2876 16.8653 41.4369 16.226 41.7356 15.666C42.0436 15.106 42.4636 14.672 42.9956 14.364C43.5369 14.0467 44.1716 13.888 44.8996 13.888C45.5809 13.888 46.1829 14.0373 46.7056 14.336C47.2282 14.6347 47.6342 15.0453 47.9236 15.568C48.2222 16.0813 48.3716 16.6553 48.3716 17.29C48.3716 17.3927 48.3669 17.5 48.3576 17.612C48.3576 17.724 48.3529 17.8407 48.3436 17.962H43.0656C43.1029 18.5033 43.2896 18.928 43.6256 19.236C43.9709 19.544 44.3862 19.698 44.8716 19.698C45.2356 19.698 45.5389 19.6187 45.7816 19.46C46.0336 19.292 46.2202 19.0773 46.3416 18.816H48.1616C48.0309 19.2547 47.8116 19.656 47.5036 20.02C47.2049 20.3747 46.8316 20.6547 46.3836 20.86C45.9449 21.0653 45.4456 21.168 44.8856 21.168ZM44.8996 15.344C44.4609 15.344 44.0736 15.47 43.7376 15.722C43.4016 15.9647 43.1869 16.338 43.0936 16.842H46.5516C46.5236 16.3847 46.3556 16.0207 46.0476 15.75C45.7396 15.4793 45.3569 15.344 44.8996 15.344ZM55.6087 21.168C55.0114 21.168 54.5214 21.0747 54.1387 20.888C53.756 20.692 53.4714 20.4353 53.2847 20.118C53.098 19.8007 53.0047 19.4507 53.0047 19.068C53.0047 18.424 53.2567 17.9013 53.7607 17.5C54.2647 17.0987 55.0207 16.898 56.0287 16.898H57.7927V16.73C57.7927 16.254 57.6574 15.904 57.3867 15.68C57.116 15.456 56.78 15.344 56.3787 15.344C56.0147 15.344 55.6974 15.4327 55.4267 15.61C55.156 15.778 54.988 16.03 54.9227 16.366H53.1727C53.2194 15.862 53.3874 15.4233 53.6767 15.05C53.9754 14.6767 54.358 14.392 54.8247 14.196C55.2914 13.9907 55.814 13.888 56.3927 13.888C57.382 13.888 58.1614 14.1353 58.7307 14.63C59.3 15.1247 59.5847 15.8247 59.5847 16.73V21H58.0587L57.8907 19.88C57.6854 20.2533 57.396 20.5613 57.0227 20.804C56.6587 21.0467 56.1874 21.168 55.6087 21.168ZM56.0147 19.768C56.528 19.768 56.9247 19.6 57.2047 19.264C57.494 18.928 57.676 18.5127 57.7507 18.018H56.2247C55.7487 18.018 55.408 18.1067 55.2027 18.284C54.9974 18.452 54.8947 18.662 54.8947 18.914C54.8947 19.1847 54.9974 19.3947 55.2027 19.544C55.408 19.6933 55.6787 19.768 56.0147 19.768ZM68.7467 21.168C68.224 21.168 67.7667 21.07 67.3747 20.874C66.9827 20.678 66.6654 20.4027 66.4227 20.048L66.2267 21H64.6307V10.92H66.4227V15.05C66.6467 14.742 66.9407 14.4713 67.3047 14.238C67.678 14.0047 68.1587 13.888 68.7467 13.888C69.4 13.888 69.9834 14.0467 70.4967 14.364C71.01 14.6813 71.416 15.1153 71.7147 15.666C72.0134 16.2167 72.1627 16.842 72.1627 17.542C72.1627 18.242 72.0134 18.8673 71.7147 19.418C71.416 19.9593 71.01 20.3887 70.4967 20.706C69.9834 21.014 69.4 21.168 68.7467 21.168ZM68.3687 19.6C68.938 19.6 69.4094 19.4087 69.7827 19.026C70.156 18.6433 70.3427 18.1487 70.3427 17.542C70.3427 16.9353 70.156 16.436 69.7827 16.044C69.4094 15.652 68.938 15.456 68.3687 15.456C67.79 15.456 67.314 15.652 66.9407 16.044C66.5767 16.4267 66.3947 16.9213 66.3947 17.528C66.3947 18.1347 66.5767 18.634 66.9407 19.026C67.314 19.4087 67.79 19.6 68.3687 19.6ZM74.7295 12.978C74.4028 12.978 74.1322 12.88 73.9175 12.684C73.7122 12.488 73.6095 12.2407 73.6095 11.942C73.6095 11.6433 73.7122 11.4007 73.9175 11.214C74.1322 11.018 74.4028 10.92 74.7295 10.92C75.0562 10.92 75.3222 11.018 75.5275 11.214C75.7422 11.4007 75.8495 11.6433 75.8495 11.942C75.8495 12.2407 75.7422 12.488 75.5275 12.684C75.3222 12.88 75.0562 12.978 74.7295 12.978ZM73.8335 21V14.056H75.6255V21H73.8335ZM80.6879 21.168C80.0346 21.168 79.4513 21.0093 78.9379 20.692C78.4246 20.3747 78.0186 19.9407 77.7199 19.39C77.4213 18.8393 77.2719 18.214 77.2719 17.514C77.2719 16.814 77.4213 16.1933 77.7199 15.652C78.0186 15.1013 78.4246 14.672 78.9379 14.364C79.4513 14.0467 80.0346 13.888 80.6879 13.888C81.2106 13.888 81.6679 13.986 82.0599 14.182C82.4519 14.378 82.7693 14.6533 83.0119 15.008V10.92H84.8039V21H83.2079L83.0119 20.006C82.7879 20.314 82.4893 20.5847 82.1159 20.818C81.7519 21.0513 81.2759 21.168 80.6879 21.168ZM81.0659 19.6C81.6446 19.6 82.1159 19.4087 82.4799 19.026C82.8533 18.634 83.0399 18.1347 83.0399 17.528C83.0399 16.9213 82.8533 16.4267 82.4799 16.044C82.1159 15.652 81.6446 15.456 81.0659 15.456C80.4966 15.456 80.0253 15.6473 79.6519 16.03C79.2786 16.4127 79.0919 16.9073 79.0919 17.514C79.0919 18.1207 79.2786 18.62 79.6519 19.012C80.0253 19.404 80.4966 19.6 81.0659 19.6Z" fill="#FCFCFD"/>
<rect x="1" y="1" width="96" height="30" rx="15" stroke="#777E91" stroke-width="2"/>
</svg>
