<svg width="147" height="40" viewBox="0 0 147 40" fill="none" xmlns="http://www.w3.org/2000/svg">
<g clip-path="url(#clip0_22086_17875)">
<rect x="4" y="4" width="32" height="32" rx="16" fill="#45B36B"/>
<rect x="4" y="-4.66675" width="32" height="47.9941"/>
</g>
<path d="M49.7718 25L53.4678 16.726H48.6378V15.2H55.3158V16.474L51.6338 25H49.7718ZM56.5843 25.098C56.2576 25.098 55.987 24.9953 55.7723 24.79C55.567 24.5847 55.4643 24.3373 55.4643 24.048C55.4643 23.7493 55.567 23.4973 55.7723 23.292C55.987 23.0867 56.2576 22.984 56.5843 22.984C56.911 22.984 57.177 23.0867 57.3823 23.292C57.597 23.4973 57.7043 23.7493 57.7043 24.048C57.7043 24.3373 57.597 24.5847 57.3823 24.79C57.177 24.9953 56.911 25.098 56.5843 25.098ZM62.677 25.168C61.7717 25.168 60.997 24.958 60.353 24.538C59.709 24.1087 59.2097 23.516 58.855 22.76C58.5097 21.9947 58.337 21.108 58.337 20.1C58.337 19.1013 58.5097 18.2193 58.855 17.454C59.2097 16.6887 59.709 16.096 60.353 15.676C60.997 15.2467 61.7717 15.032 62.677 15.032C63.5824 15.032 64.357 15.2467 65.001 15.676C65.645 16.096 66.1397 16.6887 66.485 17.454C66.8397 18.2193 67.017 19.1013 67.017 20.1C67.017 21.108 66.8397 21.9947 66.485 22.76C66.1397 23.516 65.645 24.1087 65.001 24.538C64.357 24.958 63.5824 25.168 62.677 25.168ZM62.677 23.558C63.4144 23.558 64.0164 23.25 64.483 22.634C64.9497 22.018 65.183 21.1733 65.183 20.1C65.183 19.0267 64.9497 18.182 64.483 17.566C64.0164 16.95 63.4144 16.642 62.677 16.642C61.9304 16.642 61.3237 16.95 60.857 17.566C60.3997 18.182 60.171 19.0267 60.171 20.1C60.171 21.1733 60.3997 22.018 60.857 22.634C61.3237 23.25 61.9304 23.558 62.677 23.558ZM72.6165 25.168C71.7112 25.168 70.9365 24.958 70.2925 24.538C69.6485 24.1087 69.1492 23.516 68.7945 22.76C68.4492 21.9947 68.2765 21.108 68.2765 20.1C68.2765 19.1013 68.4492 18.2193 68.7945 17.454C69.1492 16.6887 69.6485 16.096 70.2925 15.676C70.9365 15.2467 71.7112 15.032 72.6165 15.032C73.5218 15.032 74.2965 15.2467 74.9405 15.676C75.5845 16.096 76.0792 16.6887 76.4245 17.454C76.7792 18.2193 76.9565 19.1013 76.9565 20.1C76.9565 21.108 76.7792 21.9947 76.4245 22.76C76.0792 23.516 75.5845 24.1087 74.9405 24.538C74.2965 24.958 73.5218 25.168 72.6165 25.168ZM72.6165 23.558C73.3538 23.558 73.9558 23.25 74.4225 22.634C74.8892 22.018 75.1225 21.1733 75.1225 20.1C75.1225 19.0267 74.8892 18.182 74.4225 17.566C73.9558 16.95 73.3538 16.642 72.6165 16.642C71.8698 16.642 71.2632 16.95 70.7965 17.566C70.3392 18.182 70.1105 19.0267 70.1105 20.1C70.1105 21.1733 70.3392 22.018 70.7965 22.634C71.2632 23.25 71.8698 23.558 72.6165 23.558ZM82.2199 25.168C81.4826 25.168 80.8619 25.0327 80.3579 24.762C79.8539 24.4913 79.4479 24.1273 79.1399 23.67C78.8319 23.2127 78.6079 22.704 78.4679 22.144C78.3373 21.584 78.2719 21.01 78.2719 20.422C78.2719 19.33 78.4259 18.3827 78.7339 17.58C79.0419 16.768 79.4853 16.1427 80.0639 15.704C80.6426 15.256 81.3426 15.032 82.1639 15.032C82.8359 15.032 83.4053 15.1673 83.8719 15.438C84.3479 15.6993 84.7166 16.0447 84.9779 16.474C85.2393 16.9033 85.3933 17.3653 85.4399 17.86H83.7739C83.6899 17.4307 83.5079 17.0993 83.2279 16.866C82.9479 16.6327 82.5886 16.516 82.1499 16.516C81.5246 16.516 81.0206 16.8053 80.6379 17.384C80.2553 17.9533 80.0499 18.826 80.0219 20.002C80.2459 19.6193 80.5819 19.302 81.0299 19.05C81.4779 18.798 81.9773 18.672 82.5279 18.672C83.0693 18.672 83.5779 18.8027 84.0539 19.064C84.5299 19.3253 84.9126 19.694 85.2019 20.17C85.5006 20.646 85.6499 21.206 85.6499 21.85C85.6499 22.438 85.5053 22.984 85.2159 23.488C84.9359 23.992 84.5346 24.398 84.0119 24.706C83.4986 25.014 82.9013 25.168 82.2199 25.168ZM82.1219 23.628C82.6446 23.628 83.0739 23.4693 83.4099 23.152C83.7553 22.8253 83.9279 22.4147 83.9279 21.92C83.9279 21.3973 83.7553 20.9773 83.4099 20.66C83.0646 20.3427 82.6259 20.184 82.0939 20.184C81.7486 20.184 81.4359 20.2633 81.1559 20.422C80.8853 20.5713 80.6706 20.7767 80.5119 21.038C80.3533 21.29 80.2739 21.5747 80.2739 21.892C80.2739 22.396 80.4466 22.8113 80.7919 23.138C81.1466 23.4647 81.5899 23.628 82.1219 23.628ZM90.4835 25.168C89.8022 25.168 89.2282 25.0373 88.7615 24.776C88.2949 24.5053 87.9309 24.1553 87.6695 23.726C87.4082 23.2967 87.2542 22.8347 87.2075 22.34H88.8735C88.9482 22.7693 89.1255 23.1007 89.4055 23.334C89.6949 23.5673 90.0589 23.684 90.4975 23.684C91.1229 23.684 91.6269 23.3993 92.0095 22.83C92.3922 22.2513 92.5975 21.374 92.6255 20.198C92.4015 20.5807 92.0609 20.898 91.6035 21.15C91.1555 21.402 90.6609 21.528 90.1195 21.528C89.5782 21.528 89.0695 21.3973 88.5935 21.136C88.1175 20.8747 87.7302 20.506 87.4315 20.03C87.1329 19.554 86.9835 18.994 86.9835 18.35C86.9835 17.762 87.1282 17.216 87.4175 16.712C87.7069 16.208 88.1082 15.802 88.6215 15.494C89.1349 15.186 89.7369 15.032 90.4275 15.032C91.1649 15.032 91.7855 15.1673 92.2895 15.438C92.7935 15.7087 93.1949 16.0727 93.4935 16.53C93.8015 16.9873 94.0209 17.496 94.1515 18.056C94.2915 18.616 94.3615 19.19 94.3615 19.778C94.3615 20.87 94.2075 21.822 93.8995 22.634C93.6009 23.4367 93.1575 24.062 92.5695 24.51C91.9909 24.9487 91.2955 25.168 90.4835 25.168ZM90.5395 20.016C90.8849 20.016 91.1975 19.9413 91.4775 19.792C91.7575 19.6333 91.9769 19.428 92.1355 19.176C92.2942 18.9147 92.3735 18.6253 92.3735 18.308C92.3735 17.804 92.1962 17.3887 91.8415 17.062C91.4962 16.7353 91.0575 16.572 90.5255 16.572C90.0029 16.572 89.5689 16.7353 89.2235 17.062C88.8782 17.3793 88.7055 17.7853 88.7055 18.28C88.7055 18.8027 88.8782 19.2227 89.2235 19.54C89.5689 19.8573 90.0075 20.016 90.5395 20.016ZM99.3455 25.168C98.6735 25.168 98.0669 25.0513 97.5255 24.818C96.9842 24.5753 96.5502 24.2347 96.2235 23.796C95.9062 23.3573 95.7475 22.8487 95.7475 22.27C95.7475 21.6727 95.9015 21.15 96.2095 20.702C96.5269 20.254 96.9422 19.932 97.4555 19.736C97.0075 19.54 96.6529 19.26 96.3915 18.896C96.1302 18.5227 95.9995 18.1073 95.9995 17.65C95.9995 17.1833 96.1255 16.754 96.3775 16.362C96.6295 15.9607 97.0029 15.6387 97.4975 15.396C98.0015 15.1533 98.6175 15.032 99.3455 15.032C100.074 15.032 100.685 15.1533 101.18 15.396C101.674 15.6387 102.048 15.9607 102.3 16.362C102.552 16.754 102.678 17.1833 102.678 17.65C102.678 18.098 102.542 18.5133 102.272 18.896C102.01 19.2693 101.66 19.5493 101.222 19.736C101.744 19.932 102.16 20.254 102.468 20.702C102.776 21.15 102.93 21.6727 102.93 22.27C102.93 22.8487 102.771 23.3573 102.454 23.796C102.136 24.2347 101.702 24.5753 101.152 24.818C100.61 25.0513 100.008 25.168 99.3455 25.168ZM99.3455 19.204C99.8309 19.204 100.214 19.078 100.494 18.826C100.774 18.574 100.914 18.252 100.914 17.86C100.914 17.4307 100.774 17.0947 100.494 16.852C100.223 16.6093 99.8402 16.488 99.3455 16.488C98.8415 16.488 98.4542 16.6093 98.1835 16.852C97.9129 17.0947 97.7775 17.4307 97.7775 17.86C97.7775 18.2613 97.9129 18.588 98.1835 18.84C98.4635 19.0827 98.8509 19.204 99.3455 19.204ZM99.3455 23.67C99.9429 23.67 100.396 23.5253 100.704 23.236C101.012 22.9373 101.166 22.564 101.166 22.116C101.166 21.6213 101.002 21.234 100.676 20.954C100.358 20.674 99.9149 20.534 99.3455 20.534C98.7762 20.534 98.3235 20.674 97.9875 20.954C97.6609 21.234 97.4975 21.6213 97.4975 22.116C97.4975 22.564 97.6515 22.9373 97.9595 23.236C98.2769 23.5253 98.7389 23.67 99.3455 23.67Z" fill="#FCFCFD"/>
<path d="M109.327 25V15.2H115.725V16.642H111.119V19.33H115.305V20.73H111.119V23.558H115.725V25H109.327ZM119.703 25V16.642H116.847V15.2H124.365V16.642H121.495V25H119.703ZM125.692 25V15.2H127.484V19.274H131.88V15.2H133.672V25H131.88V20.73H127.484V25H125.692Z" fill="#45B36B"/>
<rect x="1" y="1" width="145" height="38" rx="19" stroke="#353945" stroke-width="2"/>
<defs>
<clipPath id="clip0_22086_17875">
<rect x="4" y="4" width="32" height="32" rx="16" fill="white"/>
</clipPath>
</defs>
</svg>
