<svg width="119" height="48" viewBox="0 0 119 48" fill="none" xmlns="http://www.w3.org/2000/svg">
<rect width="119" height="48" rx="24" fill="#3772FF"/>
<path d="M25.088 29V17.8H32.4V19.448H27.136V22.52H31.92V24.12H27.136V27.352H32.4V29H25.088ZM37.026 29.192C36.3433 29.192 35.7833 29.0853 35.346 28.872C34.9087 28.648 34.5833 28.3547 34.37 27.992C34.1567 27.6293 34.05 27.2293 34.05 26.792C34.05 26.056 34.338 25.4587 34.914 25C35.49 24.5413 36.354 24.312 37.506 24.312H39.522V24.12C39.522 23.576 39.3673 23.176 39.058 22.92C38.7487 22.664 38.3647 22.536 37.906 22.536C37.49 22.536 37.1273 22.6373 36.818 22.84C36.5087 23.032 36.3167 23.32 36.242 23.704H34.242C34.2953 23.128 34.4873 22.6267 34.818 22.2C35.1593 21.7733 35.5967 21.448 36.13 21.224C36.6633 20.9893 37.2607 20.872 37.922 20.872C39.0527 20.872 39.9433 21.1547 40.594 21.72C41.2447 22.2853 41.57 23.0853 41.57 24.12V29H39.826L39.634 27.72C39.3993 28.1467 39.0687 28.4987 38.642 28.776C38.226 29.0533 37.6873 29.192 37.026 29.192ZM37.49 27.592C38.0767 27.592 38.53 27.4 38.85 27.016C39.1807 26.632 39.3887 26.1573 39.474 25.592H37.73C37.186 25.592 36.7967 25.6933 36.562 25.896C36.3273 26.088 36.21 26.328 36.21 26.616C36.21 26.9253 36.3273 27.1653 36.562 27.336C36.7967 27.5067 37.106 27.592 37.49 27.592ZM43.5244 29V21.064H45.3484L45.5404 22.552C45.8284 22.04 46.2177 21.6347 46.7084 21.336C47.2097 21.0267 47.7964 20.872 48.4684 20.872V23.032H47.8924C47.4444 23.032 47.0444 23.1013 46.6924 23.24C46.3404 23.3787 46.063 23.6187 45.8604 23.96C45.6684 24.3013 45.5724 24.776 45.5724 25.384V29H43.5244ZM49.8681 29V21.064H51.6761L51.8361 22.408C52.0815 21.9387 52.4335 21.5653 52.8921 21.288C53.3615 21.0107 53.9108 20.872 54.5401 20.872C55.5215 20.872 56.2841 21.1813 56.8281 21.8C57.3721 22.4187 57.6441 23.3253 57.6441 24.52V29H55.5961V24.712C55.5961 24.0293 55.4575 23.5067 55.1801 23.144C54.9028 22.7813 54.4708 22.6 53.8841 22.6C53.3081 22.6 52.8335 22.8027 52.4601 23.208C52.0975 23.6133 51.9161 24.1787 51.9161 24.904V29H49.8681ZM63.415 29V21.064H65.223L65.383 22.408C65.6283 21.9387 65.9803 21.5653 66.439 21.288C66.9083 21.0107 67.4577 20.872 68.087 20.872C69.0683 20.872 69.831 21.1813 70.375 21.8C70.919 22.4187 71.191 23.3253 71.191 24.52V29H69.143V24.712C69.143 24.0293 69.0043 23.5067 68.727 23.144C68.4497 22.7813 68.0177 22.6 67.431 22.6C66.855 22.6 66.3803 22.8027 66.007 23.208C65.6443 23.6133 65.463 24.1787 65.463 24.904V29H63.415ZM76.9574 29.192C76.1894 29.192 75.496 29.016 74.8774 28.664C74.2694 28.312 73.784 27.8267 73.4214 27.208C73.0694 26.5787 72.8934 25.8533 72.8934 25.032C72.8934 24.2107 73.0747 23.4907 73.4374 22.872C73.8 22.2427 74.2854 21.752 74.8934 21.4C75.512 21.048 76.2054 20.872 76.9734 20.872C77.7307 20.872 78.4134 21.048 79.0214 21.4C79.64 21.752 80.1254 22.2427 80.4774 22.872C80.84 23.4907 81.0214 24.2107 81.0214 25.032C81.0214 25.8533 80.84 26.5787 80.4774 27.208C80.1254 27.8267 79.64 28.312 79.0214 28.664C78.4027 29.016 77.7147 29.192 76.9574 29.192ZM76.9574 27.416C77.4907 27.416 77.9547 27.2187 78.3494 26.824C78.744 26.4187 78.9414 25.8213 78.9414 25.032C78.9414 24.2427 78.744 23.6507 78.3494 23.256C77.9547 22.8507 77.496 22.648 76.9734 22.648C76.4294 22.648 75.96 22.8507 75.5654 23.256C75.1814 23.6507 74.9894 24.2427 74.9894 25.032C74.9894 25.8213 75.1814 26.4187 75.5654 26.824C75.96 27.2187 76.424 27.416 76.9574 27.416ZM84.1233 29L81.8033 21.064H83.8353L85.2113 26.776L86.8113 21.064H89.0833L90.6833 26.776L92.0753 21.064H94.1073L91.7713 29H89.6433L87.9473 23.064L86.2513 29H84.1233Z" fill="#FCFCFD"/>
</svg>
