<svg width="311" height="48" viewBox="0 0 311 48" fill="none" xmlns="http://www.w3.org/2000/svg">
<path d="M100.588 29V17.8H104.412C105.724 17.8 106.801 18.0347 107.644 18.504C108.497 18.9627 109.127 19.6133 109.532 20.456C109.948 21.288 110.156 22.2693 110.156 23.4C110.156 24.5307 109.948 25.5173 109.532 26.36C109.127 27.192 108.497 27.8427 107.644 28.312C106.801 28.7707 105.724 29 104.412 29H100.588ZM102.636 27.24H104.316C105.255 27.24 105.996 27.0907 106.54 26.792C107.084 26.4827 107.473 26.0453 107.708 25.48C107.943 24.904 108.06 24.2107 108.06 23.4C108.06 22.6 107.943 21.912 107.708 21.336C107.473 20.76 107.084 20.3173 106.54 20.008C105.996 19.6987 105.255 19.544 104.316 19.544H102.636V27.24ZM113.019 19.832C112.646 19.832 112.336 19.72 112.091 19.496C111.856 19.272 111.739 18.9893 111.739 18.648C111.739 18.3067 111.856 18.0293 112.091 17.816C112.336 17.592 112.646 17.48 113.019 17.48C113.392 17.48 113.696 17.592 113.931 17.816C114.176 18.0293 114.299 18.3067 114.299 18.648C114.299 18.9893 114.176 19.272 113.931 19.496C113.696 19.72 113.392 19.832 113.019 19.832ZM111.995 29V21.064H114.043V29H111.995ZM119.461 29.192C118.757 29.192 118.138 29.08 117.605 28.856C117.071 28.6213 116.645 28.3013 116.325 27.896C116.005 27.4907 115.813 27.0213 115.749 26.488H117.813C117.877 26.7973 118.047 27.064 118.325 27.288C118.613 27.5013 118.981 27.608 119.429 27.608C119.877 27.608 120.202 27.5173 120.405 27.336C120.618 27.1547 120.725 26.9467 120.725 26.712C120.725 26.3707 120.575 26.1413 120.277 26.024C119.978 25.896 119.562 25.7733 119.029 25.656C118.687 25.5813 118.341 25.4907 117.989 25.384C117.637 25.2773 117.311 25.144 117.013 24.984C116.725 24.8133 116.49 24.6 116.309 24.344C116.127 24.0773 116.037 23.752 116.037 23.368C116.037 22.664 116.314 22.072 116.869 21.592C117.434 21.112 118.223 20.872 119.237 20.872C120.175 20.872 120.922 21.0907 121.477 21.528C122.042 21.9653 122.378 22.568 122.485 23.336H120.549C120.431 22.7493 119.989 22.456 119.221 22.456C118.837 22.456 118.538 22.5307 118.325 22.68C118.122 22.8293 118.021 23.016 118.021 23.24C118.021 23.4747 118.175 23.6613 118.485 23.8C118.794 23.9387 119.205 24.0667 119.717 24.184C120.271 24.312 120.778 24.456 121.237 24.616C121.706 24.7653 122.079 24.9947 122.357 25.304C122.634 25.6027 122.773 26.0347 122.773 26.6C122.783 27.0907 122.655 27.5333 122.389 27.928C122.122 28.3227 121.738 28.632 121.237 28.856C120.735 29.08 120.143 29.192 119.461 29.192ZM128.475 29.192C127.664 29.192 126.95 29.016 126.331 28.664C125.712 28.312 125.222 27.8213 124.859 27.192C124.507 26.5627 124.331 25.8427 124.331 25.032C124.331 24.2213 124.507 23.5013 124.859 22.872C125.222 22.2427 125.712 21.752 126.331 21.4C126.95 21.048 127.664 20.872 128.475 20.872C129.488 20.872 130.342 21.1387 131.035 21.672C131.728 22.1947 132.171 22.92 132.363 23.848H130.203C130.096 23.464 129.883 23.1653 129.563 22.952C129.254 22.728 128.886 22.616 128.459 22.616C127.894 22.616 127.414 22.8293 127.019 23.256C126.624 23.6827 126.427 24.2747 126.427 25.032C126.427 25.7893 126.624 26.3813 127.019 26.808C127.414 27.2347 127.894 27.448 128.459 27.448C128.886 27.448 129.254 27.3413 129.563 27.128C129.883 26.9147 130.096 26.6107 130.203 26.216H132.363C132.171 27.112 131.728 27.832 131.035 28.376C130.342 28.92 129.488 29.192 128.475 29.192ZM137.989 29.192C137.221 29.192 136.527 29.016 135.909 28.664C135.301 28.312 134.815 27.8267 134.453 27.208C134.101 26.5787 133.925 25.8533 133.925 25.032C133.925 24.2107 134.106 23.4907 134.469 22.872C134.831 22.2427 135.317 21.752 135.925 21.4C136.543 21.048 137.237 20.872 138.005 20.872C138.762 20.872 139.445 21.048 140.053 21.4C140.671 21.752 141.157 22.2427 141.509 22.872C141.871 23.4907 142.053 24.2107 142.053 25.032C142.053 25.8533 141.871 26.5787 141.509 27.208C141.157 27.8267 140.671 28.312 140.053 28.664C139.434 29.016 138.746 29.192 137.989 29.192ZM137.989 27.416C138.522 27.416 138.986 27.2187 139.381 26.824C139.775 26.4187 139.973 25.8213 139.973 25.032C139.973 24.2427 139.775 23.6507 139.381 23.256C138.986 22.8507 138.527 22.648 138.005 22.648C137.461 22.648 136.991 22.8507 136.597 23.256C136.213 23.6507 136.021 24.2427 136.021 25.032C136.021 25.8213 136.213 26.4187 136.597 26.824C136.991 27.2187 137.455 27.416 137.989 27.416ZM145.637 29L142.725 21.064H144.869L146.885 27.064L148.901 21.064H151.045L148.117 29H145.637ZM155.802 29.192C155.002 29.192 154.293 29.0213 153.674 28.68C153.056 28.3387 152.57 27.8587 152.218 27.24C151.866 26.6213 151.69 25.9067 151.69 25.096C151.69 24.2747 151.861 23.544 152.202 22.904C152.554 22.264 153.034 21.768 153.642 21.416C154.261 21.0533 154.986 20.872 155.818 20.872C156.597 20.872 157.285 21.0427 157.882 21.384C158.48 21.7253 158.944 22.1947 159.274 22.792C159.616 23.3787 159.786 24.0347 159.786 24.76C159.786 24.8773 159.781 25 159.77 25.128C159.77 25.256 159.765 25.3893 159.754 25.528H153.722C153.765 26.1467 153.978 26.632 154.362 26.984C154.757 27.336 155.232 27.512 155.786 27.512C156.202 27.512 156.549 27.4213 156.826 27.24C157.114 27.048 157.328 26.8027 157.466 26.504H159.546C159.397 27.0053 159.146 27.464 158.794 27.88C158.453 28.2853 158.026 28.6053 157.514 28.84C157.013 29.0747 156.442 29.192 155.802 29.192ZM155.818 22.536C155.317 22.536 154.874 22.68 154.49 22.968C154.106 23.2453 153.861 23.672 153.754 24.248H157.706C157.674 23.7253 157.482 23.3093 157.13 23C156.778 22.6907 156.341 22.536 155.818 22.536ZM161.509 29V21.064H163.333L163.525 22.552C163.813 22.04 164.202 21.6347 164.693 21.336C165.194 21.0267 165.781 20.872 166.453 20.872V23.032H165.877C165.429 23.032 165.029 23.1013 164.677 23.24C164.325 23.3787 164.047 23.6187 163.845 23.96C163.653 24.3013 163.557 24.776 163.557 25.384V29H161.509ZM171.665 29V21.064H173.473L173.649 22.136C173.905 21.752 174.241 21.448 174.657 21.224C175.084 20.9893 175.574 20.872 176.129 20.872C177.356 20.872 178.225 21.3467 178.737 22.296C179.025 21.8587 179.409 21.512 179.889 21.256C180.38 21 180.913 20.872 181.489 20.872C182.524 20.872 183.318 21.1813 183.873 21.8C184.428 22.4187 184.705 23.3253 184.705 24.52V29H182.657V24.712C182.657 24.0293 182.524 23.5067 182.257 23.144C182.001 22.7813 181.601 22.6 181.057 22.6C180.502 22.6 180.054 22.8027 179.713 23.208C179.382 23.6133 179.217 24.1787 179.217 24.904V29H177.169V24.712C177.169 24.0293 177.036 23.5067 176.769 23.144C176.502 22.7813 176.092 22.6 175.537 22.6C174.993 22.6 174.55 22.8027 174.209 23.208C173.878 23.6133 173.713 24.1787 173.713 24.904V29H171.665ZM190.457 29.192C189.689 29.192 188.996 29.016 188.377 28.664C187.769 28.312 187.284 27.8267 186.921 27.208C186.569 26.5787 186.393 25.8533 186.393 25.032C186.393 24.2107 186.575 23.4907 186.937 22.872C187.3 22.2427 187.785 21.752 188.393 21.4C189.012 21.048 189.705 20.872 190.473 20.872C191.231 20.872 191.913 21.048 192.521 21.4C193.14 21.752 193.625 22.2427 193.977 22.872C194.34 23.4907 194.521 24.2107 194.521 25.032C194.521 25.8533 194.34 26.5787 193.977 27.208C193.625 27.8267 193.14 28.312 192.521 28.664C191.903 29.016 191.215 29.192 190.457 29.192ZM190.457 27.416C190.991 27.416 191.455 27.2187 191.849 26.824C192.244 26.4187 192.441 25.8213 192.441 25.032C192.441 24.2427 192.244 23.6507 191.849 23.256C191.455 22.8507 190.996 22.648 190.473 22.648C189.929 22.648 189.46 22.8507 189.065 23.256C188.681 23.6507 188.489 24.2427 188.489 25.032C188.489 25.8213 188.681 26.4187 189.065 26.824C189.46 27.2187 189.924 27.416 190.457 27.416ZM196.353 29V21.064H198.177L198.369 22.552C198.657 22.04 199.046 21.6347 199.536 21.336C200.038 21.0267 200.625 20.872 201.297 20.872V23.032H200.721C200.273 23.032 199.873 23.1013 199.521 23.24C199.169 23.3787 198.891 23.6187 198.689 23.96C198.497 24.3013 198.401 24.776 198.401 25.384V29H196.353ZM206.412 29.192C205.612 29.192 204.902 29.0213 204.284 28.68C203.665 28.3387 203.18 27.8587 202.828 27.24C202.476 26.6213 202.3 25.9067 202.3 25.096C202.3 24.2747 202.47 23.544 202.812 22.904C203.164 22.264 203.644 21.768 204.252 21.416C204.87 21.0533 205.596 20.872 206.428 20.872C207.206 20.872 207.894 21.0427 208.492 21.384C209.089 21.7253 209.553 22.1947 209.884 22.792C210.225 23.3787 210.396 24.0347 210.396 24.76C210.396 24.8773 210.39 25 210.38 25.128C210.38 25.256 210.374 25.3893 210.364 25.528H204.332C204.374 26.1467 204.588 26.632 204.972 26.984C205.366 27.336 205.841 27.512 206.396 27.512C206.812 27.512 207.158 27.4213 207.436 27.24C207.724 27.048 207.937 26.8027 208.076 26.504H210.156C210.006 27.0053 209.756 27.464 209.404 27.88C209.062 28.2853 208.636 28.6053 208.124 28.84C207.622 29.0747 207.052 29.192 206.412 29.192ZM206.428 22.536C205.926 22.536 205.484 22.68 205.1 22.968C204.716 23.2453 204.47 23.672 204.364 24.248H208.316C208.284 23.7253 208.092 23.3093 207.74 23C207.388 22.6907 206.95 22.536 206.428 22.536Z" fill="#FCFCFD"/>
<rect x="1" y="1" width="309" height="46" rx="23" stroke="#777E91" stroke-width="2"/>
</svg>
