<svg width="158" height="40" viewBox="0 0 158 40" fill="none" xmlns="http://www.w3.org/2000/svg">
<path fill-rule="evenodd" clip-rule="evenodd" d="M22.6064 16.8436C22.3358 16.5938 21.914 16.6107 21.6643 16.8812L19.5105 19.2145C19.2747 19.4699 19.2747 19.8635 19.5105 20.1189L21.6643 22.4523C21.914 22.7228 22.3358 22.7397 22.6064 22.49C22.8769 22.2402 22.8938 21.8185 22.644 21.5479L21.523 20.3334L28.0003 20.3334C28.3685 20.3334 28.667 20.0349 28.667 19.6667C28.667 19.2985 28.3685 19.0001 28.0003 19.0001L21.523 19.0001L22.644 17.7856C22.8938 17.5151 22.8769 17.0933 22.6064 16.8436Z" fill="#777E91"/>
<path d="M44.952 25V15.2H48.886C49.9033 15.2 50.678 15.438 51.21 15.914C51.7513 16.3807 52.022 16.9827 52.022 17.72C52.022 18.336 51.854 18.8307 51.518 19.204C51.1913 19.568 50.79 19.8153 50.314 19.946C50.874 20.058 51.336 20.338 51.7 20.786C52.064 21.2247 52.246 21.738 52.246 22.326C52.246 23.1007 51.966 23.74 51.406 24.244C50.846 24.748 50.0527 25 49.026 25H44.952ZM46.744 19.316H48.62C49.124 19.316 49.5113 19.1993 49.782 18.966C50.0527 18.7327 50.188 18.4013 50.188 17.972C50.188 17.5613 50.0527 17.2393 49.782 17.006C49.5207 16.7633 49.124 16.642 48.592 16.642H46.744V19.316ZM46.744 23.544H48.746C49.278 23.544 49.6887 23.4227 49.978 23.18C50.2767 22.928 50.426 22.578 50.426 22.13C50.426 21.6727 50.272 21.3133 49.964 21.052C49.656 20.7907 49.2407 20.66 48.718 20.66H46.744V23.544ZM56.136 25.168C55.5387 25.168 55.0487 25.0747 54.666 24.888C54.2834 24.692 53.9987 24.4353 53.812 24.118C53.6254 23.8007 53.532 23.4507 53.532 23.068C53.532 22.424 53.784 21.9013 54.288 21.5C54.792 21.0987 55.548 20.898 56.556 20.898H58.32V20.73C58.32 20.254 58.1847 19.904 57.914 19.68C57.6434 19.456 57.3074 19.344 56.906 19.344C56.542 19.344 56.2247 19.4327 55.954 19.61C55.6834 19.778 55.5154 20.03 55.45 20.366H53.7C53.7467 19.862 53.9147 19.4233 54.204 19.05C54.5027 18.6767 54.8854 18.392 55.352 18.196C55.8187 17.9907 56.3414 17.888 56.92 17.888C57.9094 17.888 58.6887 18.1353 59.258 18.63C59.8274 19.1247 60.112 19.8247 60.112 20.73V25H58.586L58.418 23.88C58.2127 24.2533 57.9234 24.5613 57.55 24.804C57.186 25.0467 56.7147 25.168 56.136 25.168ZM56.542 23.768C57.0554 23.768 57.452 23.6 57.732 23.264C58.0214 22.928 58.2034 22.5127 58.278 22.018H56.752C56.276 22.018 55.9354 22.1067 55.73 22.284C55.5247 22.452 55.422 22.662 55.422 22.914C55.422 23.1847 55.5247 23.3947 55.73 23.544C55.9354 23.6933 56.206 23.768 56.542 23.768ZM65.2241 25.168C64.5148 25.168 63.8894 25.014 63.3481 24.706C62.8068 24.398 62.3774 23.9687 62.0601 23.418C61.7521 22.8673 61.5981 22.2373 61.5981 21.528C61.5981 20.8187 61.7521 20.1887 62.0601 19.638C62.3774 19.0873 62.8068 18.658 63.3481 18.35C63.8894 18.042 64.5148 17.888 65.2241 17.888C66.1108 17.888 66.8574 18.1213 67.4641 18.588C68.0708 19.0453 68.4581 19.68 68.6261 20.492H66.7361C66.6428 20.156 66.4561 19.8947 66.1761 19.708C65.9054 19.512 65.5834 19.414 65.2101 19.414C64.7154 19.414 64.2954 19.6007 63.9501 19.974C63.6048 20.3473 63.4321 20.8653 63.4321 21.528C63.4321 22.1907 63.6048 22.7087 63.9501 23.082C64.2954 23.4553 64.7154 23.642 65.2101 23.642C65.5834 23.642 65.9054 23.5487 66.1761 23.362C66.4561 23.1753 66.6428 22.9093 66.7361 22.564H68.6261C68.4581 23.348 68.0708 23.978 67.4641 24.454C66.8574 24.93 66.1108 25.168 65.2241 25.168ZM70.2166 25V14.92H72.0086V20.87L74.4726 18.056H76.6006L73.7586 21.22L77.0626 25H74.8226L72.0086 21.514V25H70.2166ZM84.6036 25C83.8756 25 83.2923 24.8227 82.8536 24.468C82.4149 24.1133 82.1956 23.4833 82.1956 22.578V19.554H81.0056V18.056H82.1956L82.4056 16.194H83.9876V18.056H85.8636V19.554H83.9876V22.592C83.9876 22.928 84.0576 23.1613 84.1976 23.292C84.3469 23.4133 84.5989 23.474 84.9536 23.474H85.8216V25H84.6036ZM90.5565 25.168C89.8845 25.168 89.2778 25.014 88.7365 24.706C88.2045 24.398 87.7798 23.9733 87.4625 23.432C87.1545 22.8813 87.0005 22.2467 87.0005 21.528C87.0005 20.8093 87.1591 20.1793 87.4765 19.638C87.7938 19.0873 88.2185 18.658 88.7505 18.35C89.2918 18.042 89.8985 17.888 90.5705 17.888C91.2331 17.888 91.8305 18.042 92.3625 18.35C92.9038 18.658 93.3285 19.0873 93.6365 19.638C93.9538 20.1793 94.1125 20.8093 94.1125 21.528C94.1125 22.2467 93.9538 22.8813 93.6365 23.432C93.3285 23.9733 92.9038 24.398 92.3625 24.706C91.8211 25.014 91.2191 25.168 90.5565 25.168ZM90.5565 23.614C91.0231 23.614 91.4291 23.4413 91.7745 23.096C92.1198 22.7413 92.2925 22.2187 92.2925 21.528C92.2925 20.8373 92.1198 20.3193 91.7745 19.974C91.4291 19.6193 91.0278 19.442 90.5705 19.442C90.0945 19.442 89.6838 19.6193 89.3385 19.974C89.0025 20.3193 88.8345 20.8373 88.8345 21.528C88.8345 22.2187 89.0025 22.7413 89.3385 23.096C89.6838 23.4413 90.0898 23.614 90.5565 23.614ZM99.0506 28.08V18.056H100.647L100.843 19.05C101.067 18.742 101.361 18.4713 101.725 18.238C102.098 18.0047 102.579 17.888 103.167 17.888C103.82 17.888 104.403 18.0467 104.917 18.364C105.43 18.6813 105.836 19.1153 106.135 19.666C106.433 20.2167 106.583 20.842 106.583 21.542C106.583 22.242 106.433 22.8673 106.135 23.418C105.836 23.9593 105.43 24.3887 104.917 24.706C104.403 25.014 103.82 25.168 103.167 25.168C102.644 25.168 102.187 25.07 101.795 24.874C101.403 24.678 101.085 24.4027 100.843 24.048V28.08H99.0506ZM102.789 23.6C103.358 23.6 103.829 23.4087 104.203 23.026C104.576 22.6433 104.763 22.1487 104.763 21.542C104.763 20.9353 104.576 20.436 104.203 20.044C103.829 19.652 103.358 19.456 102.789 19.456C102.21 19.456 101.734 19.652 101.361 20.044C100.997 20.4267 100.815 20.9213 100.815 21.528C100.815 22.1347 100.997 22.634 101.361 23.026C101.734 23.4087 102.21 23.6 102.789 23.6ZM108.183 25V18.056H109.779L109.947 19.358C110.199 18.91 110.54 18.5553 110.969 18.294C111.408 18.0233 111.921 17.888 112.509 17.888V19.778H112.005C111.613 19.778 111.263 19.8387 110.955 19.96C110.647 20.0813 110.405 20.2913 110.227 20.59C110.059 20.8887 109.975 21.304 109.975 21.836V25H108.183ZM116.943 25.168C116.271 25.168 115.665 25.014 115.123 24.706C114.591 24.398 114.167 23.9733 113.849 23.432C113.541 22.8813 113.387 22.2467 113.387 21.528C113.387 20.8093 113.546 20.1793 113.863 19.638C114.181 19.0873 114.605 18.658 115.137 18.35C115.679 18.042 116.285 17.888 116.957 17.888C117.62 17.888 118.217 18.042 118.749 18.35C119.291 18.658 119.715 19.0873 120.023 19.638C120.341 20.1793 120.499 20.8093 120.499 21.528C120.499 22.2467 120.341 22.8813 120.023 23.432C119.715 23.9733 119.291 24.398 118.749 24.706C118.208 25.014 117.606 25.168 116.943 25.168ZM116.943 23.614C117.41 23.614 117.816 23.4413 118.161 23.096C118.507 22.7413 118.679 22.2187 118.679 21.528C118.679 20.8373 118.507 20.3193 118.161 19.974C117.816 19.6193 117.415 19.442 116.957 19.442C116.481 19.442 116.071 19.6193 115.725 19.974C115.389 20.3193 115.221 20.8373 115.221 21.528C115.221 22.2187 115.389 22.7413 115.725 23.096C116.071 23.4413 116.477 23.614 116.943 23.614ZM122.423 25V19.554H121.471V18.056H122.423V17.244C122.423 16.404 122.633 15.8067 123.053 15.452C123.483 15.0973 124.061 14.92 124.789 14.92H125.559V16.446H125.069C124.761 16.446 124.542 16.5067 124.411 16.628C124.281 16.7493 124.215 16.9547 124.215 17.244V18.056H128.695V25H126.903V19.554H124.215V25H122.423ZM127.813 17.062C127.487 17.062 127.216 16.964 127.001 16.768C126.796 16.572 126.693 16.3247 126.693 16.026C126.693 15.7273 126.796 15.4847 127.001 15.298C127.216 15.102 127.487 15.004 127.813 15.004C128.14 15.004 128.406 15.102 128.611 15.298C128.826 15.4847 128.933 15.7273 128.933 16.026C128.933 16.3247 128.826 16.572 128.611 16.768C128.406 16.964 128.14 17.062 127.813 17.062ZM130.592 25V14.92H132.384V25H130.592ZM137.589 25.168C136.889 25.168 136.268 25.0187 135.727 24.72C135.185 24.4213 134.761 24.0013 134.453 23.46C134.145 22.9187 133.991 22.2933 133.991 21.584C133.991 20.8653 134.14 20.226 134.439 19.666C134.747 19.106 135.167 18.672 135.699 18.364C136.24 18.0467 136.875 17.888 137.603 17.888C138.284 17.888 138.886 18.0373 139.409 18.336C139.931 18.6347 140.337 19.0453 140.627 19.568C140.925 20.0813 141.075 20.6553 141.075 21.29C141.075 21.3927 141.07 21.5 141.061 21.612C141.061 21.724 141.056 21.8407 141.047 21.962H135.769C135.806 22.5033 135.993 22.928 136.329 23.236C136.674 23.544 137.089 23.698 137.575 23.698C137.939 23.698 138.242 23.6187 138.485 23.46C138.737 23.292 138.923 23.0773 139.045 22.816H140.865C140.734 23.2547 140.515 23.656 140.207 24.02C139.908 24.3747 139.535 24.6547 139.087 24.86C138.648 25.0653 138.149 25.168 137.589 25.168ZM137.603 19.344C137.164 19.344 136.777 19.47 136.441 19.722C136.105 19.9647 135.89 20.338 135.797 20.842H139.255C139.227 20.3847 139.059 20.0207 138.751 19.75C138.443 19.4793 138.06 19.344 137.603 19.344Z" fill="#FCFCFD"/>
<rect x="1" y="1" width="156" height="38" rx="19" stroke="#353945" stroke-width="2"/>
</svg>
