<svg width="182" height="48" viewBox="0 0 182 48" fill="none" xmlns="http://www.w3.org/2000/svg">
<path d="M29.1151 29.192C28.2938 29.192 27.5685 29.0533 26.9391 28.776C26.3098 28.488 25.8138 28.0827 25.4511 27.56C25.0885 27.0267 24.9018 26.3813 24.8911 25.624H27.0511C27.0725 26.1467 27.2591 26.5893 27.6111 26.952C27.9738 27.304 28.4698 27.48 29.0991 27.48C29.6431 27.48 30.0751 27.352 30.3951 27.096C30.7151 26.8293 30.8751 26.4773 30.8751 26.04C30.8751 25.5813 30.7311 25.224 30.4431 24.968C30.1658 24.712 29.7925 24.504 29.3231 24.344C28.8538 24.184 28.3525 24.0133 27.8191 23.832C26.9551 23.5333 26.2938 23.1493 25.8351 22.68C25.3871 22.2107 25.1631 21.5867 25.1631 20.808C25.1525 20.1467 25.3071 19.5813 25.6271 19.112C25.9578 18.632 26.4058 18.264 26.9711 18.008C27.5365 17.7413 28.1871 17.608 28.9231 17.608C29.6698 17.608 30.3258 17.7413 30.8911 18.008C31.4671 18.2747 31.9151 18.648 32.2351 19.128C32.5658 19.608 32.7418 20.1787 32.7631 20.84H30.5711C30.5605 20.4453 30.4058 20.0987 30.1071 19.8C29.8191 19.4907 29.4138 19.336 28.8911 19.336C28.4431 19.3253 28.0645 19.4373 27.7551 19.672C27.4565 19.896 27.3071 20.2267 27.3071 20.664C27.3071 21.0373 27.4245 21.336 27.6591 21.56C27.8938 21.7733 28.2138 21.9547 28.6191 22.104C29.0245 22.2533 29.4885 22.4133 30.0111 22.584C30.5658 22.776 31.0725 23 31.5311 23.256C31.9898 23.512 32.3578 23.8533 32.6351 24.28C32.9125 24.696 33.0511 25.2347 33.0511 25.896C33.0511 26.4827 32.9018 27.0267 32.6031 27.528C32.3045 28.0293 31.8618 28.4347 31.2751 28.744C30.6885 29.0427 29.9685 29.192 29.1151 29.192ZM38.326 29C37.494 29 36.8273 28.7973 36.326 28.392C35.8247 27.9867 35.574 27.2667 35.574 26.232V22.776H34.214V21.064H35.574L35.814 18.936H37.622V21.064H39.766V22.776H37.622V26.248C37.622 26.632 37.702 26.8987 37.862 27.048C38.0327 27.1867 38.3207 27.256 38.726 27.256H39.718V29H38.326ZM44.2604 29.192C43.5777 29.192 43.0177 29.0853 42.5804 28.872C42.143 28.648 41.8177 28.3547 41.6044 27.992C41.391 27.6293 41.2844 27.2293 41.2844 26.792C41.2844 26.056 41.5724 25.4587 42.1484 25C42.7244 24.5413 43.5884 24.312 44.7404 24.312H46.7564V24.12C46.7564 23.576 46.6017 23.176 46.2924 22.92C45.983 22.664 45.599 22.536 45.1404 22.536C44.7244 22.536 44.3617 22.6373 44.0524 22.84C43.743 23.032 43.551 23.32 43.4764 23.704H41.4764C41.5297 23.128 41.7217 22.6267 42.0524 22.2C42.3937 21.7733 42.831 21.448 43.3644 21.224C43.8977 20.9893 44.495 20.872 45.1564 20.872C46.287 20.872 47.1777 21.1547 47.8284 21.72C48.479 22.2853 48.8044 23.0853 48.8044 24.12V29H47.0604L46.8684 27.72C46.6337 28.1467 46.303 28.4987 45.8764 28.776C45.4604 29.0533 44.9217 29.192 44.2604 29.192ZM44.7244 27.592C45.311 27.592 45.7644 27.4 46.0844 27.016C46.415 26.632 46.623 26.1573 46.7084 25.592H44.9644C44.4204 25.592 44.031 25.6933 43.7964 25.896C43.5617 26.088 43.4444 26.328 43.4444 26.616C43.4444 26.9253 43.5617 27.1653 43.7964 27.336C44.031 27.5067 44.3404 27.592 44.7244 27.592ZM50.7588 29V21.064H52.5828L52.7748 22.552C53.0628 22.04 53.4521 21.6347 53.9427 21.336C54.4441 21.0267 55.0308 20.872 55.7028 20.872V23.032H55.1268C54.6788 23.032 54.2788 23.1013 53.9268 23.24C53.5748 23.3787 53.2974 23.6187 53.0948 23.96C52.9028 24.3013 52.8068 24.776 52.8068 25.384V29H50.7588ZM60.6385 29C59.8065 29 59.1398 28.7973 58.6385 28.392C58.1372 27.9867 57.8865 27.2667 57.8865 26.232V22.776H56.5265V21.064H57.8865L58.1265 18.936H59.9345V21.064H62.0785V22.776H59.9345V26.248C59.9345 26.632 60.0145 26.8987 60.1745 27.048C60.3452 27.1867 60.6332 27.256 61.0385 27.256H62.0305V29H60.6385ZM68.6414 32.52L70.4814 28.472H70.0014L66.9134 21.064H69.1374L71.3614 26.648L73.6814 21.064H75.8574L70.8174 32.52H68.6414ZM80.3168 29.192C79.5488 29.192 78.8554 29.016 78.2368 28.664C77.6288 28.312 77.1434 27.8267 76.7808 27.208C76.4288 26.5787 76.2528 25.8533 76.2528 25.032C76.2528 24.2107 76.4341 23.4907 76.7968 22.872C77.1594 22.2427 77.6448 21.752 78.2528 21.4C78.8714 21.048 79.5648 20.872 80.3328 20.872C81.0901 20.872 81.7728 21.048 82.3808 21.4C82.9994 21.752 83.4848 22.2427 83.8368 22.872C84.1994 23.4907 84.3808 24.2107 84.3808 25.032C84.3808 25.8533 84.1994 26.5787 83.8368 27.208C83.4848 27.8267 82.9994 28.312 82.3808 28.664C81.7621 29.016 81.0741 29.192 80.3168 29.192ZM80.3168 27.416C80.8501 27.416 81.3141 27.2187 81.7088 26.824C82.1034 26.4187 82.3008 25.8213 82.3008 25.032C82.3008 24.2427 82.1034 23.6507 81.7088 23.256C81.3141 22.8507 80.8554 22.648 80.3328 22.648C79.7888 22.648 79.3194 22.8507 78.9248 23.256C78.5408 23.6507 78.3488 24.2427 78.3488 25.032C78.3488 25.8213 78.5408 26.4187 78.9248 26.824C79.3194 27.2187 79.7834 27.416 80.3168 27.416ZM89.1879 29.192C88.1959 29.192 87.4279 28.8827 86.8839 28.264C86.3505 27.6453 86.0839 26.7387 86.0839 25.544V21.064H88.1159V25.352C88.1159 26.0347 88.2545 26.5573 88.5319 26.92C88.8092 27.2827 89.2465 27.464 89.8439 27.464C90.4092 27.464 90.8732 27.2613 91.2359 26.856C91.6092 26.4507 91.7959 25.8853 91.7959 25.16V21.064H93.8439V29H92.0359L91.8759 27.656C91.6305 28.1253 91.2732 28.4987 90.8039 28.776C90.3452 29.0533 89.8065 29.192 89.1879 29.192ZM95.9463 29V21.064H97.7703L97.9623 22.552C98.2503 22.04 98.6396 21.6347 99.1302 21.336C99.6316 21.0267 100.218 20.872 100.89 20.872V23.032H100.314C99.8663 23.032 99.4663 23.1013 99.1143 23.24C98.7623 23.3787 98.4849 23.6187 98.2823 23.96C98.0903 24.3013 97.9943 24.776 97.9943 25.384V29H95.9463ZM109.383 29.192C108.679 29.192 108.06 29.08 107.527 28.856C106.993 28.6213 106.567 28.3013 106.247 27.896C105.927 27.4907 105.735 27.0213 105.671 26.488H107.735C107.799 26.7973 107.969 27.064 108.247 27.288C108.535 27.5013 108.903 27.608 109.351 27.608C109.799 27.608 110.124 27.5173 110.327 27.336C110.54 27.1547 110.647 26.9467 110.647 26.712C110.647 26.3707 110.497 26.1413 110.199 26.024C109.9 25.896 109.484 25.7733 108.951 25.656C108.609 25.5813 108.263 25.4907 107.911 25.384C107.559 25.2773 107.233 25.144 106.935 24.984C106.647 24.8133 106.412 24.6 106.231 24.344C106.049 24.0773 105.959 23.752 105.959 23.368C105.959 22.664 106.236 22.072 106.791 21.592C107.356 21.112 108.145 20.872 109.159 20.872C110.097 20.872 110.844 21.0907 111.399 21.528C111.964 21.9653 112.3 22.568 112.407 23.336H110.471C110.353 22.7493 109.911 22.456 109.143 22.456C108.759 22.456 108.46 22.5307 108.247 22.68C108.044 22.8293 107.943 23.016 107.943 23.24C107.943 23.4747 108.097 23.6613 108.407 23.8C108.716 23.9387 109.127 24.0667 109.639 24.184C110.193 24.312 110.7 24.456 111.159 24.616C111.628 24.7653 112.001 24.9947 112.279 25.304C112.556 25.6027 112.695 26.0347 112.695 26.6C112.705 27.0907 112.577 27.5333 112.311 27.928C112.044 28.3227 111.66 28.632 111.159 28.856C110.657 29.08 110.065 29.192 109.383 29.192ZM118.365 29.192C117.565 29.192 116.855 29.0213 116.237 28.68C115.618 28.3387 115.133 27.8587 114.781 27.24C114.429 26.6213 114.253 25.9067 114.253 25.096C114.253 24.2747 114.423 23.544 114.765 22.904C115.117 22.264 115.597 21.768 116.205 21.416C116.823 21.0533 117.549 20.872 118.381 20.872C119.159 20.872 119.847 21.0427 120.445 21.384C121.042 21.7253 121.506 22.1947 121.837 22.792C122.178 23.3787 122.349 24.0347 122.349 24.76C122.349 24.8773 122.343 25 122.333 25.128C122.333 25.256 122.327 25.3893 122.317 25.528H116.285C116.327 26.1467 116.541 26.632 116.925 26.984C117.319 27.336 117.794 27.512 118.349 27.512C118.765 27.512 119.111 27.4213 119.389 27.24C119.677 27.048 119.89 26.8027 120.029 26.504H122.109C121.959 27.0053 121.709 27.464 121.357 27.88C121.015 28.2853 120.589 28.6053 120.077 28.84C119.575 29.0747 119.005 29.192 118.365 29.192ZM118.381 22.536C117.879 22.536 117.437 22.68 117.053 22.968C116.669 23.2453 116.423 23.672 116.317 24.248H120.269C120.237 23.7253 120.045 23.3093 119.693 23C119.341 22.6907 118.903 22.536 118.381 22.536ZM126.807 29.192C126.125 29.192 125.565 29.0853 125.127 28.872C124.69 28.648 124.365 28.3547 124.151 27.992C123.938 27.6293 123.831 27.2293 123.831 26.792C123.831 26.056 124.119 25.4587 124.695 25C125.271 24.5413 126.135 24.312 127.287 24.312H129.303V24.12C129.303 23.576 129.149 23.176 128.839 22.92C128.53 22.664 128.146 22.536 127.687 22.536C127.271 22.536 126.909 22.6373 126.599 22.84C126.29 23.032 126.098 23.32 126.023 23.704H124.023C124.077 23.128 124.269 22.6267 124.599 22.2C124.941 21.7733 125.378 21.448 125.911 21.224C126.445 20.9893 127.042 20.872 127.703 20.872C128.834 20.872 129.725 21.1547 130.375 21.72C131.026 22.2853 131.351 23.0853 131.351 24.12V29H129.607L129.415 27.72C129.181 28.1467 128.85 28.4987 128.423 28.776C128.007 29.0533 127.469 29.192 126.807 29.192ZM127.271 27.592C127.858 27.592 128.311 27.4 128.631 27.016C128.962 26.632 129.17 26.1573 129.255 25.592H127.511C126.967 25.592 126.578 25.6933 126.343 25.896C126.109 26.088 125.991 26.328 125.991 26.616C125.991 26.9253 126.109 27.1653 126.343 27.336C126.578 27.5067 126.887 27.592 127.271 27.592ZM133.306 29V21.064H135.13L135.322 22.552C135.61 22.04 135.999 21.6347 136.49 21.336C136.991 21.0267 137.578 20.872 138.25 20.872V23.032H137.674C137.226 23.032 136.826 23.1013 136.474 23.24C136.122 23.3787 135.844 23.6187 135.642 23.96C135.45 24.3013 135.354 24.776 135.354 25.384V29H133.306ZM143.397 29.192C142.586 29.192 141.871 29.016 141.253 28.664C140.634 28.312 140.143 27.8213 139.781 27.192C139.429 26.5627 139.253 25.8427 139.253 25.032C139.253 24.2213 139.429 23.5013 139.781 22.872C140.143 22.2427 140.634 21.752 141.253 21.4C141.871 21.048 142.586 20.872 143.397 20.872C144.41 20.872 145.263 21.1387 145.957 21.672C146.65 22.1947 147.093 22.92 147.285 23.848H145.125C145.018 23.464 144.805 23.1653 144.485 22.952C144.175 22.728 143.807 22.616 143.381 22.616C142.815 22.616 142.335 22.8293 141.941 23.256C141.546 23.6827 141.349 24.2747 141.349 25.032C141.349 25.7893 141.546 26.3813 141.941 26.808C142.335 27.2347 142.815 27.448 143.381 27.448C143.807 27.448 144.175 27.3413 144.485 27.128C144.805 26.9147 145.018 26.6107 145.125 26.216H147.285C147.093 27.112 146.65 27.832 145.957 28.376C145.263 28.92 144.41 29.192 143.397 29.192ZM149.103 29V17.48H151.151V22.28C151.417 21.8427 151.775 21.5013 152.223 21.256C152.681 21 153.204 20.872 153.791 20.872C154.772 20.872 155.529 21.1813 156.062 21.8C156.606 22.4187 156.878 23.3253 156.878 24.52V29H154.847V24.712C154.847 24.0293 154.708 23.5067 154.431 23.144C154.164 22.7813 153.737 22.6 153.151 22.6C152.575 22.6 152.095 22.8027 151.711 23.208C151.337 23.6133 151.151 24.1787 151.151 24.904V29H149.103Z" fill="#FCFCFD"/>
<rect x="1" y="1" width="180" height="46" rx="23" stroke="#777E91" stroke-width="2"/>
</svg>
