<svg width="80" height="40" viewBox="0 0 80 40" fill="none" xmlns="http://www.w3.org/2000/svg">
<rect width="80" height="40" rx="20" fill="#3772FF"/>
<path d="M20.7379 25.168C20.0192 25.168 19.3705 25.028 18.7919 24.748C18.2132 24.4587 17.7512 24.0247 17.4059 23.446C17.0699 22.8673 16.9019 22.1347 16.9019 21.248V15.2H18.6939V21.262C18.6939 22.0273 18.8759 22.5967 19.2399 22.97C19.6132 23.3433 20.1265 23.53 20.7799 23.53C21.4239 23.53 21.9325 23.3433 22.3059 22.97C22.6792 22.5967 22.8659 22.0273 22.8659 21.262V15.2H24.6579V21.248C24.6579 22.1347 24.4805 22.8673 24.1259 23.446C23.7712 24.0247 23.2952 24.4587 22.6979 24.748C22.1099 25.028 21.4565 25.168 20.7379 25.168ZM26.4452 28.08V18.056H28.0412L28.2372 19.05C28.4612 18.742 28.7552 18.4713 29.1192 18.238C29.4925 18.0047 29.9732 17.888 30.5612 17.888C31.2145 17.888 31.7978 18.0467 32.3112 18.364C32.8245 18.6813 33.2305 19.1153 33.5292 19.666C33.8278 20.2167 33.9772 20.842 33.9772 21.542C33.9772 22.242 33.8278 22.8673 33.5292 23.418C33.2305 23.9593 32.8245 24.3887 32.3112 24.706C31.7978 25.014 31.2145 25.168 30.5612 25.168C30.0385 25.168 29.5812 25.07 29.1892 24.874C28.7972 24.678 28.4798 24.4027 28.2372 24.048V28.08H26.4452ZM30.1832 23.6C30.7525 23.6 31.2238 23.4087 31.5972 23.026C31.9705 22.6433 32.1572 22.1487 32.1572 21.542C32.1572 20.9353 31.9705 20.436 31.5972 20.044C31.2238 19.652 30.7525 19.456 30.1832 19.456C29.6045 19.456 29.1285 19.652 28.7552 20.044C28.3912 20.4267 28.2092 20.9213 28.2092 21.528C28.2092 22.1347 28.3912 22.634 28.7552 23.026C29.1285 23.4087 29.6045 23.6 30.1832 23.6ZM35.578 25V14.92H37.37V25H35.578ZM42.533 25.168C41.861 25.168 41.2543 25.014 40.713 24.706C40.181 24.398 39.7563 23.9733 39.439 23.432C39.131 22.8813 38.977 22.2467 38.977 21.528C38.977 20.8093 39.1357 20.1793 39.453 19.638C39.7703 19.0873 40.195 18.658 40.727 18.35C41.2683 18.042 41.875 17.888 42.547 17.888C43.2097 17.888 43.807 18.042 44.339 18.35C44.8803 18.658 45.305 19.0873 45.613 19.638C45.9303 20.1793 46.089 20.8093 46.089 21.528C46.089 22.2467 45.9303 22.8813 45.613 23.432C45.305 23.9733 44.8803 24.398 44.339 24.706C43.7977 25.014 43.1957 25.168 42.533 25.168ZM42.533 23.614C42.9997 23.614 43.4057 23.4413 43.751 23.096C44.0963 22.7413 44.269 22.2187 44.269 21.528C44.269 20.8373 44.0963 20.3193 43.751 19.974C43.4057 19.6193 43.0043 19.442 42.547 19.442C42.071 19.442 41.6603 19.6193 41.315 19.974C40.979 20.3193 40.811 20.8373 40.811 21.528C40.811 22.2187 40.979 22.7413 41.315 23.096C41.6603 23.4413 42.0663 23.614 42.533 23.614ZM50.0853 25.168C49.4879 25.168 48.9979 25.0747 48.6153 24.888C48.2326 24.692 47.9479 24.4353 47.7613 24.118C47.5746 23.8007 47.4813 23.4507 47.4813 23.068C47.4813 22.424 47.7333 21.9013 48.2373 21.5C48.7413 21.0987 49.4973 20.898 50.5053 20.898H52.2693V20.73C52.2693 20.254 52.1339 19.904 51.8633 19.68C51.5926 19.456 51.2566 19.344 50.8553 19.344C50.4913 19.344 50.1739 19.4327 49.9033 19.61C49.6326 19.778 49.4646 20.03 49.3993 20.366H47.6493C47.6959 19.862 47.8639 19.4233 48.1533 19.05C48.4519 18.6767 48.8346 18.392 49.3013 18.196C49.7679 17.9907 50.2906 17.888 50.8693 17.888C51.8586 17.888 52.6379 18.1353 53.2073 18.63C53.7766 19.1247 54.0613 19.8247 54.0613 20.73V25H52.5353L52.3673 23.88C52.1619 24.2533 51.8726 24.5613 51.4993 24.804C51.1353 25.0467 50.6639 25.168 50.0853 25.168ZM50.4913 23.768C51.0046 23.768 51.4013 23.6 51.6813 23.264C51.9706 22.928 52.1526 22.5127 52.2273 22.018H50.7013C50.2253 22.018 49.8846 22.1067 49.6793 22.284C49.4739 22.452 49.3713 22.662 49.3713 22.914C49.3713 23.1847 49.4739 23.3947 49.6793 23.544C49.8846 23.6933 50.1553 23.768 50.4913 23.768ZM58.9633 25.168C58.31 25.168 57.7267 25.0093 57.2133 24.692C56.7 24.3747 56.294 23.9407 55.9953 23.39C55.6967 22.8393 55.5473 22.214 55.5473 21.514C55.5473 20.814 55.6967 20.1933 55.9953 19.652C56.294 19.1013 56.7 18.672 57.2133 18.364C57.7267 18.0467 58.31 17.888 58.9633 17.888C59.486 17.888 59.9433 17.986 60.3353 18.182C60.7273 18.378 61.0447 18.6533 61.2873 19.008V14.92H63.0793V25H61.4833L61.2873 24.006C61.0633 24.314 60.7647 24.5847 60.3913 24.818C60.0273 25.0513 59.5513 25.168 58.9633 25.168ZM59.3413 23.6C59.92 23.6 60.3913 23.4087 60.7553 23.026C61.1287 22.634 61.3153 22.1347 61.3153 21.528C61.3153 20.9213 61.1287 20.4267 60.7553 20.044C60.3913 19.652 59.92 19.456 59.3413 19.456C58.772 19.456 58.3007 19.6473 57.9273 20.03C57.554 20.4127 57.3673 20.9073 57.3673 21.514C57.3673 22.1207 57.554 22.62 57.9273 23.012C58.3007 23.404 58.772 23.6 59.3413 23.6Z" fill="#FCFCFD"/>
</svg>
