<svg width="137" height="40" viewBox="0 0 137 40" fill="none" xmlns="http://www.w3.org/2000/svg">
<path d="M21.6156 25.168C20.6263 25.168 19.7769 24.958 19.0676 24.538C18.3583 24.1087 17.8123 23.516 17.4296 22.76C17.0469 21.9947 16.8556 21.1127 16.8556 20.114C16.8556 19.1153 17.0469 18.2333 17.4296 17.468C17.8123 16.7027 18.3583 16.1053 19.0676 15.676C19.7769 15.2467 20.6263 15.032 21.6156 15.032C22.7916 15.032 23.7529 15.326 24.4996 15.914C25.2556 16.4927 25.7269 17.3093 25.9136 18.364H23.9396C23.8183 17.832 23.5569 17.4167 23.1556 17.118C22.7636 16.81 22.2409 16.656 21.5876 16.656C20.6823 16.656 19.9729 16.964 19.4596 17.58C18.9463 18.196 18.6896 19.0407 18.6896 20.114C18.6896 21.1873 18.9463 22.032 19.4596 22.648C19.9729 23.2547 20.6823 23.558 21.5876 23.558C22.2409 23.558 22.7636 23.418 23.1556 23.138C23.5569 22.8487 23.8183 22.452 23.9396 21.948H25.9136C25.7269 22.956 25.2556 23.7447 24.4996 24.314C23.7529 24.8833 22.7916 25.168 21.6156 25.168ZM30.7899 25.168C30.1179 25.168 29.5112 25.014 28.9699 24.706C28.4379 24.398 28.0132 23.9733 27.6959 23.432C27.3879 22.8813 27.2339 22.2467 27.2339 21.528C27.2339 20.8093 27.3925 20.1793 27.7099 19.638C28.0272 19.0873 28.4519 18.658 28.9839 18.35C29.5252 18.042 30.1319 17.888 30.8039 17.888C31.4665 17.888 32.0639 18.042 32.5959 18.35C33.1372 18.658 33.5619 19.0873 33.8699 19.638C34.1872 20.1793 34.3459 20.8093 34.3459 21.528C34.3459 22.2467 34.1872 22.8813 33.8699 23.432C33.5619 23.9733 33.1372 24.398 32.5959 24.706C32.0545 25.014 31.4525 25.168 30.7899 25.168ZM30.7899 23.614C31.2565 23.614 31.6625 23.4413 32.0079 23.096C32.3532 22.7413 32.5259 22.2187 32.5259 21.528C32.5259 20.8373 32.3532 20.3193 32.0079 19.974C31.6625 19.6193 31.2612 19.442 30.8039 19.442C30.3279 19.442 29.9172 19.6193 29.5719 19.974C29.2359 20.3193 29.0679 20.8373 29.0679 21.528C29.0679 22.2187 29.2359 22.7413 29.5719 23.096C29.9172 23.4413 30.3232 23.614 30.7899 23.614ZM35.9481 25V18.056H37.5301L37.6701 19.232C37.8848 18.8213 38.1928 18.4947 38.5941 18.252C39.0048 18.0093 39.4854 17.888 40.0361 17.888C40.8948 17.888 41.5621 18.1587 42.0381 18.7C42.5141 19.2413 42.7521 20.0347 42.7521 21.08V25H40.9601V21.248C40.9601 20.6507 40.8388 20.1933 40.5961 19.876C40.3534 19.5587 39.9754 19.4 39.4621 19.4C38.9581 19.4 38.5428 19.5773 38.2161 19.932C37.8988 20.2867 37.7401 20.7813 37.7401 21.416V25H35.9481ZM44.4657 25V18.056H46.0477L46.1877 19.232C46.4023 18.8213 46.7103 18.4947 47.1117 18.252C47.5223 18.0093 48.003 17.888 48.5537 17.888C49.4123 17.888 50.0797 18.1587 50.5557 18.7C51.0317 19.2413 51.2697 20.0347 51.2697 21.08V25H49.4777V21.248C49.4777 20.6507 49.3563 20.1933 49.1137 19.876C48.871 19.5587 48.493 19.4 47.9797 19.4C47.4757 19.4 47.0603 19.5773 46.7337 19.932C46.4163 20.2867 46.2577 20.7813 46.2577 21.416V25H44.4657ZM56.3572 25.168C55.6572 25.168 55.0366 25.0187 54.4952 24.72C53.9539 24.4213 53.5292 24.0013 53.2212 23.46C52.9132 22.9187 52.7592 22.2933 52.7592 21.584C52.7592 20.8653 52.9086 20.226 53.2072 19.666C53.5152 19.106 53.9352 18.672 54.4672 18.364C55.0086 18.0467 55.6432 17.888 56.3712 17.888C57.0526 17.888 57.6546 18.0373 58.1772 18.336C58.6999 18.6347 59.1059 19.0453 59.3952 19.568C59.6939 20.0813 59.8432 20.6553 59.8432 21.29C59.8432 21.3927 59.8386 21.5 59.8292 21.612C59.8292 21.724 59.8246 21.8407 59.8152 21.962H54.5372C54.5746 22.5033 54.7612 22.928 55.0972 23.236C55.4426 23.544 55.8579 23.698 56.3432 23.698C56.7072 23.698 57.0106 23.6187 57.2532 23.46C57.5052 23.292 57.6919 23.0773 57.8132 22.816H59.6332C59.5026 23.2547 59.2832 23.656 58.9752 24.02C58.6766 24.3747 58.3032 24.6547 57.8552 24.86C57.4166 25.0653 56.9172 25.168 56.3572 25.168ZM56.3712 19.344C55.9326 19.344 55.5452 19.47 55.2092 19.722C54.8732 19.9647 54.6586 20.338 54.5652 20.842H58.0232C57.9952 20.3847 57.8272 20.0207 57.5192 19.75C57.2112 19.4793 56.8286 19.344 56.3712 19.344ZM64.7524 25.168C64.0431 25.168 63.4178 25.014 62.8764 24.706C62.3351 24.398 61.9058 23.9687 61.5884 23.418C61.2804 22.8673 61.1264 22.2373 61.1264 21.528C61.1264 20.8187 61.2804 20.1887 61.5884 19.638C61.9058 19.0873 62.3351 18.658 62.8764 18.35C63.4178 18.042 64.0431 17.888 64.7524 17.888C65.6391 17.888 66.3858 18.1213 66.9924 18.588C67.5991 19.0453 67.9864 19.68 68.1544 20.492H66.2644C66.1711 20.156 65.9844 19.8947 65.7044 19.708C65.4338 19.512 65.1118 19.414 64.7384 19.414C64.2438 19.414 63.8238 19.6007 63.4784 19.974C63.1331 20.3473 62.9604 20.8653 62.9604 21.528C62.9604 22.1907 63.1331 22.7087 63.4784 23.082C63.8238 23.4553 64.2438 23.642 64.7384 23.642C65.1118 23.642 65.4338 23.5487 65.7044 23.362C65.9844 23.1753 66.1711 22.9093 66.2644 22.564H68.1544C67.9864 23.348 67.5991 23.978 66.9924 24.454C66.3858 24.93 65.6391 25.168 64.7524 25.168ZM72.7433 25C72.0153 25 71.4319 24.8227 70.9933 24.468C70.5546 24.1133 70.3353 23.4833 70.3353 22.578V19.554H69.1453V18.056H70.3353L70.5453 16.194H72.1273V18.056H74.0033V19.554H72.1273V22.592C72.1273 22.928 72.1973 23.1613 72.3373 23.292C72.4866 23.4133 72.7386 23.474 73.0933 23.474H73.9613V25H72.7433ZM80.9078 25L78.3178 15.2H80.2358L81.9998 22.998L84.0718 15.2H86.0458L88.0618 22.998L89.8258 15.2H91.7578L89.0978 25H86.9698L85.0238 17.734L83.0218 25H80.9078ZM94.6155 25.168C94.0182 25.168 93.5282 25.0747 93.1455 24.888C92.7629 24.692 92.4782 24.4353 92.2915 24.118C92.1049 23.8007 92.0115 23.4507 92.0115 23.068C92.0115 22.424 92.2635 21.9013 92.7675 21.5C93.2715 21.0987 94.0275 20.898 95.0355 20.898H96.7995V20.73C96.7995 20.254 96.6642 19.904 96.3935 19.68C96.1229 19.456 95.7869 19.344 95.3855 19.344C95.0215 19.344 94.7042 19.4327 94.4335 19.61C94.1629 19.778 93.9949 20.03 93.9295 20.366H92.1795C92.2262 19.862 92.3942 19.4233 92.6835 19.05C92.9822 18.6767 93.3649 18.392 93.8315 18.196C94.2982 17.9907 94.8209 17.888 95.3995 17.888C96.3889 17.888 97.1682 18.1353 97.7375 18.63C98.3069 19.1247 98.5915 19.8247 98.5915 20.73V25H97.0655L96.8975 23.88C96.6922 24.2533 96.4029 24.5613 96.0295 24.804C95.6655 25.0467 95.1942 25.168 94.6155 25.168ZM95.0215 23.768C95.5349 23.768 95.9315 23.6 96.2115 23.264C96.5009 22.928 96.6829 22.5127 96.7575 22.018H95.2315C94.7555 22.018 94.4149 22.1067 94.2095 22.284C94.0042 22.452 93.9015 22.662 93.9015 22.914C93.9015 23.1847 94.0042 23.3947 94.2095 23.544C94.4149 23.6933 94.6855 23.768 95.0215 23.768ZM100.302 25V14.92H102.094V25H100.302ZM103.925 25V14.92H105.717V25H103.925ZM110.922 25.168C110.222 25.168 109.601 25.0187 109.06 24.72C108.518 24.4213 108.094 24.0013 107.786 23.46C107.478 22.9187 107.324 22.2933 107.324 21.584C107.324 20.8653 107.473 20.226 107.772 19.666C108.08 19.106 108.5 18.672 109.032 18.364C109.573 18.0467 110.208 17.888 110.936 17.888C111.617 17.888 112.219 18.0373 112.742 18.336C113.264 18.6347 113.67 19.0453 113.96 19.568C114.258 20.0813 114.408 20.6553 114.408 21.29C114.408 21.3927 114.403 21.5 114.394 21.612C114.394 21.724 114.389 21.8407 114.38 21.962H109.102C109.139 22.5033 109.326 22.928 109.662 23.236C110.007 23.544 110.422 23.698 110.908 23.698C111.272 23.698 111.575 23.6187 111.818 23.46C112.07 23.292 112.256 23.0773 112.378 22.816H114.198C114.067 23.2547 113.848 23.656 113.54 24.02C113.241 24.3747 112.868 24.6547 112.42 24.86C111.981 25.0653 111.482 25.168 110.922 25.168ZM110.936 19.344C110.497 19.344 110.11 19.47 109.774 19.722C109.438 19.9647 109.223 20.338 109.13 20.842H112.588C112.56 20.3847 112.392 20.0207 112.084 19.75C111.776 19.4793 111.393 19.344 110.936 19.344ZM118.886 25C118.158 25 117.575 24.8227 117.136 24.468C116.697 24.1133 116.478 23.4833 116.478 22.578V19.554H115.288V18.056H116.478L116.688 16.194H118.27V18.056H120.146V19.554H118.27V22.592C118.27 22.928 118.34 23.1613 118.48 23.292C118.629 23.4133 118.881 23.474 119.236 23.474H120.104V25H118.886Z" fill="#FCFCFD"/>
<rect x="1" y="1" width="135" height="38" rx="19" stroke="#777E91" stroke-width="2"/>
</svg>
