<svg width="64" height="64" viewBox="0 0 64 64" fill="none" xmlns="http://www.w3.org/2000/svg">
<g filter="url(#filter0_d_21149_19427)">
<rect x="8" width="48" height="48" rx="24" fill="#23262F"/>
<path fill-rule="evenodd" clip-rule="evenodd" d="M33.3946 20.8433C33.6652 20.5936 34.0869 20.6104 34.3367 20.881L36.4905 23.2143C36.7262 23.4697 36.7263 23.8633 36.4905 24.1187L34.3367 26.452C34.0869 26.7226 33.6652 26.7394 33.3946 26.4897C33.1241 26.24 33.1072 25.8182 33.3569 25.5477L34.478 24.3331L28.0007 24.3331C27.6325 24.3331 27.334 24.0347 27.334 23.6665C27.334 23.2983 27.6325 22.9998 28.0007 22.9998L34.478 22.9998L33.3569 21.7854C33.1072 21.5148 33.1241 21.093 33.3946 20.8433Z" fill="#777E91"/>
</g>
<defs>
<filter id="filter0_d_21149_19427" x="0" y="0" width="64" height="64" filterUnits="userSpaceOnUse" color-interpolation-filters="sRGB">
<feFlood flood-opacity="0" result="BackgroundImageFix"/>
<feColorMatrix in="SourceAlpha" type="matrix" values="0 0 0 0 0 0 0 0 0 0 0 0 0 0 0 0 0 0 127 0" result="hardAlpha"/>
<feMorphology radius="8" operator="erode" in="SourceAlpha" result="effect1_dropShadow_21149_19427"/>
<feOffset dy="8"/>
<feGaussianBlur stdDeviation="8"/>
<feColorMatrix type="matrix" values="0 0 0 0 0.0583333 0 0 0 0 0.0583333 0 0 0 0 0.0583333 0 0 0 0.2 0"/>
<feBlend mode="multiply" in2="BackgroundImageFix" result="effect1_dropShadow_21149_19427"/>
<feBlend mode="normal" in="SourceGraphic" in2="effect1_dropShadow_21149_19427" result="shape"/>
</filter>
</defs>
</svg>
