<svg width="95" height="24" viewBox="0 0 95 24" fill="none" xmlns="http://www.w3.org/2000/svg">
<path fill-rule="evenodd" clip-rule="evenodd" d="M12 20C16.4183 20 20 16.4183 20 12C20 7.58172 16.4183 4 12 4C7.58172 4 4 7.58172 4 12C4 16.4183 7.58172 20 12 20ZM12 22C17.5228 22 22 17.5228 22 12C22 6.47715 17.5228 2 12 2C6.47715 2 2 6.47715 2 12C2 17.5228 6.47715 22 12 22Z" fill="#777E91"/>
<path fill-rule="evenodd" clip-rule="evenodd" d="M8.29289 8.29289C8.68342 7.90237 9.31658 7.90237 9.70711 8.29289L12 10.5858L14.2929 8.29289C14.6834 7.90237 15.3166 7.90237 15.7071 8.29289C16.0976 8.68342 16.0976 9.31658 15.7071 9.70711L13.4142 12L15.7071 14.2929C16.0976 14.6834 16.0976 15.3166 15.7071 15.7071C15.3166 16.0976 14.6834 16.0976 14.2929 15.7071L12 13.4142L9.70711 15.7071C9.31658 16.0976 8.68342 16.0976 8.29289 15.7071C7.90237 15.3166 7.90237 14.6834 8.29289 14.2929L10.5858 12L8.29289 9.70711C7.90237 9.31658 7.90237 8.68342 8.29289 8.29289Z" fill="#777E91"/>
<path d="M38.7538 17.192C37.6231 17.192 36.6524 16.952 35.8418 16.472C35.0311 15.9813 34.4071 15.304 33.9698 14.44C33.5324 13.5653 33.3138 12.5573 33.3138 11.416C33.3138 10.2747 33.5324 9.26667 33.9698 8.392C34.4071 7.51733 35.0311 6.83467 35.8418 6.344C36.6524 5.85333 37.6231 5.608 38.7538 5.608C40.0978 5.608 41.1964 5.944 42.0498 6.616C42.9138 7.27733 43.4524 8.21067 43.6658 9.416H41.4097C41.2711 8.808 40.9724 8.33333 40.5138 7.992C40.0658 7.64 39.4684 7.464 38.7218 7.464C37.6871 7.464 36.8764 7.816 36.2898 8.52C35.7031 9.224 35.4098 10.1893 35.4098 11.416C35.4098 12.6427 35.7031 13.608 36.2898 14.312C36.8764 15.0053 37.6871 15.352 38.7218 15.352C39.4684 15.352 40.0658 15.192 40.5138 14.872C40.9724 14.5413 41.2711 14.088 41.4097 13.512H43.6658C43.4524 14.664 42.9138 15.5653 42.0498 16.216C41.1964 16.8667 40.0978 17.192 38.7538 17.192ZM45.4306 17V5.48H47.4786V17H45.4306ZM53.4273 17.192C52.6273 17.192 51.9179 17.0213 51.2993 16.68C50.6806 16.3387 50.1953 15.8587 49.8433 15.24C49.4913 14.6213 49.3153 13.9067 49.3153 13.096C49.3153 12.2747 49.4859 11.544 49.8273 10.904C50.1793 10.264 50.6593 9.768 51.2673 9.416C51.8859 9.05333 52.6113 8.872 53.4433 8.872C54.2219 8.872 54.9099 9.04267 55.5073 9.384C56.1046 9.72533 56.5686 10.1947 56.8993 10.792C57.2406 11.3787 57.4113 12.0347 57.4113 12.76C57.4113 12.8773 57.4059 13 57.3953 13.128C57.3953 13.256 57.3899 13.3893 57.3793 13.528H51.3473C51.3899 14.1467 51.6033 14.632 51.9873 14.984C52.3819 15.336 52.8566 15.512 53.4113 15.512C53.8273 15.512 54.1739 15.4213 54.4513 15.24C54.7393 15.048 54.9526 14.8027 55.0913 14.504H57.1713C57.0219 15.0053 56.7713 15.464 56.4193 15.88C56.0779 16.2853 55.6513 16.6053 55.1393 16.84C54.6379 17.0747 54.0673 17.192 53.4273 17.192ZM53.4433 10.536C52.9419 10.536 52.4993 10.68 52.1153 10.968C51.7313 11.2453 51.4859 11.672 51.3793 12.248H55.3313C55.2993 11.7253 55.1073 11.3093 54.7553 11C54.4033 10.6907 53.9659 10.536 53.4433 10.536ZM61.8698 17.192C61.1871 17.192 60.6271 17.0853 60.1898 16.872C59.7524 16.648 59.4271 16.3547 59.2138 15.992C59.0004 15.6293 58.8938 15.2293 58.8938 14.792C58.8938 14.056 59.1818 13.4587 59.7578 13C60.3338 12.5413 61.1978 12.312 62.3498 12.312H64.3658V12.12C64.3658 11.576 64.2111 11.176 63.9018 10.92C63.5924 10.664 63.2084 10.536 62.7498 10.536C62.3338 10.536 61.9711 10.6373 61.6618 10.84C61.3524 11.032 61.1604 11.32 61.0858 11.704H59.0858C59.1391 11.128 59.3311 10.6267 59.6618 10.2C60.0031 9.77333 60.4404 9.448 60.9738 9.224C61.5071 8.98933 62.1044 8.872 62.7658 8.872C63.8964 8.872 64.7871 9.15467 65.4378 9.72C66.0884 10.2853 66.4138 11.0853 66.4138 12.12V17H64.6698L64.4778 15.72C64.2431 16.1467 63.9124 16.4987 63.4858 16.776C63.0698 17.0533 62.5311 17.192 61.8698 17.192ZM62.3338 15.592C62.9204 15.592 63.3738 15.4 63.6938 15.016C64.0244 14.632 64.2324 14.1573 64.3178 13.592H62.5738C62.0298 13.592 61.6404 13.6933 61.4058 13.896C61.1711 14.088 61.0538 14.328 61.0538 14.616C61.0538 14.9253 61.1711 15.1653 61.4058 15.336C61.6404 15.5067 61.9498 15.592 62.3338 15.592ZM68.3681 17V9.064H70.1921L70.3841 10.552C70.6721 10.04 71.0615 9.63467 71.5521 9.336C72.0535 9.02667 72.6401 8.872 73.3121 8.872V11.032H72.7361C72.2881 11.032 71.8881 11.1013 71.5361 11.24C71.1841 11.3787 70.9068 11.6187 70.7041 11.96C70.5121 12.3013 70.4161 12.776 70.4161 13.384V17H68.3681ZM81.2604 17.192C80.5777 17.192 80.0177 17.0853 79.5804 16.872C79.143 16.648 78.8177 16.3547 78.6044 15.992C78.391 15.6293 78.2844 15.2293 78.2844 14.792C78.2844 14.056 78.5724 13.4587 79.1484 13C79.7244 12.5413 80.5884 12.312 81.7404 12.312H83.7564V12.12C83.7564 11.576 83.6017 11.176 83.2924 10.92C82.983 10.664 82.599 10.536 82.1404 10.536C81.7244 10.536 81.3617 10.6373 81.0524 10.84C80.743 11.032 80.551 11.32 80.4764 11.704H78.4764C78.5297 11.128 78.7217 10.6267 79.0524 10.2C79.3937 9.77333 79.831 9.448 80.3644 9.224C80.8977 8.98933 81.495 8.872 82.1564 8.872C83.287 8.872 84.1777 9.15467 84.8284 9.72C85.479 10.2853 85.8044 11.0853 85.8044 12.12V17H84.0604L83.8684 15.72C83.6337 16.1467 83.303 16.4987 82.8764 16.776C82.4604 17.0533 81.9217 17.192 81.2604 17.192ZM81.7244 15.592C82.311 15.592 82.7644 15.4 83.0844 15.016C83.415 14.632 83.623 14.1573 83.7084 13.592H81.9644C81.4204 13.592 81.031 13.6933 80.7964 13.896C80.5617 14.088 80.4444 14.328 80.4444 14.616C80.4444 14.9253 80.5617 15.1653 80.7964 15.336C81.031 15.5067 81.3404 15.592 81.7244 15.592ZM87.7588 17V5.48H89.8068V17H87.7588ZM91.8994 17V5.48H93.9474V17H91.8994Z" fill="#777E91"/>
</svg>
