<svg width="124" height="40" viewBox="0 0 124 40" fill="none" xmlns="http://www.w3.org/2000/svg">
<path d="M22.348 25.168C21.3587 25.168 20.5093 24.958 19.8 24.538C19.0907 24.1087 18.5447 23.516 18.162 22.76C17.7793 21.9947 17.588 21.1127 17.588 20.114C17.588 19.1153 17.7793 18.2333 18.162 17.468C18.5447 16.7027 19.0907 16.1053 19.8 15.676C20.5093 15.2467 21.3587 15.032 22.348 15.032C23.524 15.032 24.4853 15.326 25.232 15.914C25.988 16.4927 26.4593 17.3093 26.646 18.364H24.672C24.5507 17.832 24.2893 17.4167 23.888 17.118C23.496 16.81 22.9733 16.656 22.32 16.656C21.4147 16.656 20.7053 16.964 20.192 17.58C19.6787 18.196 19.422 19.0407 19.422 20.114C19.422 21.1873 19.6787 22.032 20.192 22.648C20.7053 23.2547 21.4147 23.558 22.32 23.558C22.9733 23.558 23.496 23.418 23.888 23.138C24.2893 22.8487 24.5507 22.452 24.672 21.948H26.646C26.4593 22.956 25.988 23.7447 25.232 24.314C24.4853 24.8833 23.524 25.168 22.348 25.168ZM28.1903 25V18.056H29.7863L29.9543 19.358C30.2063 18.91 30.5469 18.5553 30.9763 18.294C31.4149 18.0233 31.9283 17.888 32.5163 17.888V19.778H32.0123C31.6203 19.778 31.2703 19.8387 30.9623 19.96C30.6543 20.0813 30.4116 20.2913 30.2343 20.59C30.0663 20.8887 29.9823 21.304 29.9823 21.836V25H28.1903ZM36.992 25.168C36.292 25.168 35.6713 25.0187 35.13 24.72C34.5887 24.4213 34.164 24.0013 33.856 23.46C33.548 22.9187 33.394 22.2933 33.394 21.584C33.394 20.8653 33.5433 20.226 33.842 19.666C34.15 19.106 34.57 18.672 35.102 18.364C35.6433 18.0467 36.278 17.888 37.006 17.888C37.6873 17.888 38.2893 18.0373 38.812 18.336C39.3347 18.6347 39.7407 19.0453 40.03 19.568C40.3287 20.0813 40.478 20.6553 40.478 21.29C40.478 21.3927 40.4733 21.5 40.464 21.612C40.464 21.724 40.4593 21.8407 40.45 21.962H35.172C35.2093 22.5033 35.396 22.928 35.732 23.236C36.0773 23.544 36.4927 23.698 36.978 23.698C37.342 23.698 37.6453 23.6187 37.888 23.46C38.14 23.292 38.3267 23.0773 38.448 22.816H40.268C40.1373 23.2547 39.918 23.656 39.61 24.02C39.3113 24.3747 38.938 24.6547 38.49 24.86C38.0513 25.0653 37.552 25.168 36.992 25.168ZM37.006 19.344C36.5673 19.344 36.18 19.47 35.844 19.722C35.508 19.9647 35.2933 20.338 35.2 20.842H38.658C38.63 20.3847 38.462 20.0207 38.154 19.75C37.846 19.4793 37.4633 19.344 37.006 19.344ZM44.3792 25.168C43.7819 25.168 43.2919 25.0747 42.9092 24.888C42.5265 24.692 42.2419 24.4353 42.0552 24.118C41.8685 23.8007 41.7752 23.4507 41.7752 23.068C41.7752 22.424 42.0272 21.9013 42.5312 21.5C43.0352 21.0987 43.7912 20.898 44.7992 20.898H46.5632V20.73C46.5632 20.254 46.4279 19.904 46.1572 19.68C45.8865 19.456 45.5505 19.344 45.1492 19.344C44.7852 19.344 44.4679 19.4327 44.1972 19.61C43.9265 19.778 43.7585 20.03 43.6932 20.366H41.9432C41.9899 19.862 42.1579 19.4233 42.4472 19.05C42.7459 18.6767 43.1285 18.392 43.5952 18.196C44.0619 17.9907 44.5845 17.888 45.1632 17.888C46.1525 17.888 46.9319 18.1353 47.5012 18.63C48.0705 19.1247 48.3552 19.8247 48.3552 20.73V25H46.8292L46.6612 23.88C46.4559 24.2533 46.1665 24.5613 45.7932 24.804C45.4292 25.0467 44.9579 25.168 44.3792 25.168ZM44.7852 23.768C45.2985 23.768 45.6952 23.6 45.9752 23.264C46.2645 22.928 46.4465 22.5127 46.5212 22.018H44.9952C44.5192 22.018 44.1785 22.1067 43.9732 22.284C43.7679 22.452 43.6652 22.662 43.6652 22.914C43.6652 23.1847 43.7679 23.3947 43.9732 23.544C44.1785 23.6933 44.4492 23.768 44.7852 23.768ZM53.0636 25C52.3356 25 51.7522 24.8227 51.3136 24.468C50.8749 24.1133 50.6556 23.4833 50.6556 22.578V19.554H49.4656V18.056H50.6556L50.8656 16.194H52.4476V18.056H54.3236V19.554H52.4476V22.592C52.4476 22.928 52.5176 23.1613 52.6576 23.292C52.8069 23.4133 53.0589 23.474 53.4136 23.474H54.2816V25H53.0636ZM59.0584 25.168C58.3584 25.168 57.7377 25.0187 57.1964 24.72C56.6551 24.4213 56.2304 24.0013 55.9224 23.46C55.6144 22.9187 55.4604 22.2933 55.4604 21.584C55.4604 20.8653 55.6097 20.226 55.9084 19.666C56.2164 19.106 56.6364 18.672 57.1684 18.364C57.7097 18.0467 58.3444 17.888 59.0724 17.888C59.7537 17.888 60.3557 18.0373 60.8784 18.336C61.4011 18.6347 61.8071 19.0453 62.0964 19.568C62.3951 20.0813 62.5444 20.6553 62.5444 21.29C62.5444 21.3927 62.5397 21.5 62.5304 21.612C62.5304 21.724 62.5257 21.8407 62.5164 21.962H57.2384C57.2757 22.5033 57.4624 22.928 57.7984 23.236C58.1437 23.544 58.5591 23.698 59.0444 23.698C59.4084 23.698 59.7117 23.6187 59.9544 23.46C60.2064 23.292 60.3931 23.0773 60.5144 22.816H62.3344C62.2037 23.2547 61.9844 23.656 61.6764 24.02C61.3777 24.3747 61.0044 24.6547 60.5564 24.86C60.1177 25.0653 59.6184 25.168 59.0584 25.168ZM59.0724 19.344C58.6337 19.344 58.2464 19.47 57.9104 19.722C57.5744 19.9647 57.3597 20.338 57.2664 20.842H60.7244C60.6964 20.3847 60.5284 20.0207 60.2204 19.75C59.9124 19.4793 59.5297 19.344 59.0724 19.344ZM70.7755 25.168C70.0569 25.168 69.4222 25.0467 68.8715 24.804C68.3209 24.552 67.8869 24.1973 67.5695 23.74C67.2522 23.2733 67.0889 22.7087 67.0795 22.046H68.9695C68.9882 22.5033 69.1515 22.8907 69.4595 23.208C69.7769 23.516 70.2109 23.67 70.7615 23.67C71.2375 23.67 71.6155 23.558 71.8955 23.334C72.1755 23.1007 72.3155 22.7927 72.3155 22.41C72.3155 22.0087 72.1895 21.696 71.9375 21.472C71.6949 21.248 71.3682 21.066 70.9575 20.926C70.5469 20.786 70.1082 20.6367 69.6415 20.478C68.8855 20.2167 68.3069 19.8807 67.9055 19.47C67.5135 19.0593 67.3175 18.5133 67.3175 17.832C67.3082 17.2533 67.4435 16.7587 67.7235 16.348C68.0129 15.928 68.4049 15.606 68.8995 15.382C69.3942 15.1487 69.9635 15.032 70.6075 15.032C71.2609 15.032 71.8349 15.1487 72.3295 15.382C72.8335 15.6153 73.2255 15.942 73.5055 16.362C73.7949 16.782 73.9489 17.2813 73.9675 17.86H72.0495C72.0402 17.5147 71.9049 17.2113 71.6435 16.95C71.3915 16.6793 71.0369 16.544 70.5795 16.544C70.1875 16.5347 69.8562 16.6327 69.5855 16.838C69.3242 17.034 69.1935 17.3233 69.1935 17.706C69.1935 18.0327 69.2962 18.294 69.5015 18.49C69.7069 18.6767 69.9869 18.8353 70.3415 18.966C70.6962 19.0967 71.1022 19.2367 71.5595 19.386C72.0449 19.554 72.4882 19.75 72.8895 19.974C73.2909 20.198 73.6129 20.4967 73.8555 20.87C74.0982 21.234 74.2195 21.7053 74.2195 22.284C74.2195 22.7973 74.0889 23.2733 73.8275 23.712C73.5662 24.1507 73.1789 24.5053 72.6655 24.776C72.1522 25.0373 71.5222 25.168 70.7755 25.168ZM76.7071 16.978C76.3804 16.978 76.1097 16.88 75.8951 16.684C75.6897 16.488 75.5871 16.2407 75.5871 15.942C75.5871 15.6433 75.6897 15.4007 75.8951 15.214C76.1097 15.018 76.3804 14.92 76.7071 14.92C77.0337 14.92 77.2997 15.018 77.5051 15.214C77.7197 15.4007 77.8271 15.6433 77.8271 15.942C77.8271 16.2407 77.7197 16.488 77.5051 16.684C77.2997 16.88 77.0337 16.978 76.7071 16.978ZM75.8111 25V18.056H77.6031V25H75.8111ZM79.4735 25V18.056H81.0555L81.1955 19.232C81.4101 18.8213 81.7181 18.4947 82.1195 18.252C82.5301 18.0093 83.0108 17.888 83.5615 17.888C84.4201 17.888 85.0875 18.1587 85.5635 18.7C86.0395 19.2413 86.2775 20.0347 86.2775 21.08V25H84.4855V21.248C84.4855 20.6507 84.3641 20.1933 84.1215 19.876C83.8788 19.5587 83.5008 19.4 82.9875 19.4C82.4835 19.4 82.0681 19.5773 81.7415 19.932C81.4241 20.2867 81.2655 20.7813 81.2655 21.416V25H79.4735ZM90.9311 22.928C90.5951 22.928 90.2824 22.8907 89.9931 22.816L89.4751 23.334C89.6337 23.418 89.8484 23.488 90.1191 23.544C90.3897 23.6 90.8284 23.656 91.4351 23.712C92.3591 23.796 93.0311 24.0153 93.4511 24.37C93.8711 24.7247 94.0811 25.2147 94.0811 25.84C94.0811 26.2507 93.9691 26.638 93.7451 27.002C93.5211 27.3753 93.1757 27.674 92.7091 27.898C92.2424 28.1313 91.6451 28.248 90.9171 28.248C89.9277 28.248 89.1297 28.0613 88.5231 27.688C87.9164 27.324 87.6131 26.7733 87.6131 26.036C87.6131 25.4107 87.9164 24.8693 88.5231 24.412C88.3364 24.328 88.1731 24.2393 88.0331 24.146C87.9024 24.0527 87.7857 23.9547 87.6831 23.852V23.53L88.9011 22.242C88.3597 21.766 88.0891 21.1547 88.0891 20.408C88.0891 19.9413 88.2011 19.5167 88.4251 19.134C88.6584 18.7513 88.9851 18.448 89.4051 18.224C89.8251 18 90.3337 17.888 90.9311 17.888C91.3231 17.888 91.6871 17.944 92.0231 18.056H94.6551V19.148L93.4651 19.232C93.6517 19.5867 93.7451 19.9787 93.7451 20.408C93.7451 20.8747 93.6331 21.2993 93.4091 21.682C93.1851 22.0647 92.8584 22.368 92.4291 22.592C92.0091 22.816 91.5097 22.928 90.9311 22.928ZM90.9311 21.556C91.2951 21.556 91.5937 21.458 91.8271 21.262C92.0697 21.066 92.1911 20.786 92.1911 20.422C92.1911 20.058 92.0697 19.778 91.8271 19.582C91.5937 19.386 91.2951 19.288 90.9311 19.288C90.5484 19.288 90.2404 19.386 90.0071 19.582C89.7737 19.778 89.6571 20.058 89.6571 20.422C89.6571 20.786 89.7737 21.066 90.0071 21.262C90.2404 21.458 90.5484 21.556 90.9311 21.556ZM89.2511 25.854C89.2511 26.1993 89.4097 26.456 89.7271 26.624C90.0537 26.8013 90.4504 26.89 90.9171 26.89C91.3651 26.89 91.7291 26.7967 92.0091 26.61C92.2891 26.4327 92.4291 26.19 92.4291 25.882C92.4291 25.63 92.3357 25.42 92.1491 25.252C91.9717 25.084 91.6124 24.9813 91.0711 24.944C90.6884 24.916 90.3337 24.874 90.0071 24.818C89.7364 24.9673 89.5404 25.1307 89.4191 25.308C89.3071 25.4853 89.2511 25.6673 89.2511 25.854ZM95.9618 25V14.92H97.7538V25H95.9618ZM102.959 25.168C102.259 25.168 101.638 25.0187 101.097 24.72C100.555 24.4213 100.131 24.0013 99.8228 23.46C99.5148 22.9187 99.3608 22.2933 99.3608 21.584C99.3608 20.8653 99.5101 20.226 99.8088 19.666C100.117 19.106 100.537 18.672 101.069 18.364C101.61 18.0467 102.245 17.888 102.973 17.888C103.654 17.888 104.256 18.0373 104.779 18.336C105.301 18.6347 105.707 19.0453 105.997 19.568C106.295 20.0813 106.445 20.6553 106.445 21.29C106.445 21.3927 106.44 21.5 106.431 21.612C106.431 21.724 106.426 21.8407 106.417 21.962H101.139C101.176 22.5033 101.363 22.928 101.699 23.236C102.044 23.544 102.459 23.698 102.945 23.698C103.309 23.698 103.612 23.6187 103.855 23.46C104.107 23.292 104.293 23.0773 104.415 22.816H106.235C106.104 23.2547 105.885 23.656 105.577 24.02C105.278 24.3747 104.905 24.6547 104.457 24.86C104.018 25.0653 103.519 25.168 102.959 25.168ZM102.973 19.344C102.534 19.344 102.147 19.47 101.811 19.722C101.475 19.9647 101.26 20.338 101.167 20.842H104.625C104.597 20.3847 104.429 20.0207 104.121 19.75C103.813 19.4793 103.43 19.344 102.973 19.344Z" fill="#FCFCFD"/>
<rect x="1.5" y="1" width="121" height="38" rx="19" stroke="#353945" stroke-width="2"/>
</svg>
