<svg width="138" height="40" viewBox="0 0 138 40" fill="none" xmlns="http://www.w3.org/2000/svg">
<rect x="0.5" width="137" height="40" rx="20" fill="#3772FF"/>
<path d="M22.0062 25.168C21.0169 25.168 20.1675 24.958 19.4582 24.538C18.7489 24.1087 18.2029 23.516 17.8202 22.76C17.4375 21.9947 17.2462 21.1127 17.2462 20.114C17.2462 19.1153 17.4375 18.2333 17.8202 17.468C18.2029 16.7027 18.7489 16.1053 19.4582 15.676C20.1675 15.2467 21.0169 15.032 22.0062 15.032C23.1822 15.032 24.1435 15.326 24.8902 15.914C25.6462 16.4927 26.1175 17.3093 26.3042 18.364H24.3302C24.2089 17.832 23.9475 17.4167 23.5462 17.118C23.1542 16.81 22.6315 16.656 21.9782 16.656C21.0729 16.656 20.3635 16.964 19.8502 17.58C19.3369 18.196 19.0802 19.0407 19.0802 20.114C19.0802 21.1873 19.3369 22.032 19.8502 22.648C20.3635 23.2547 21.0729 23.558 21.9782 23.558C22.6315 23.558 23.1542 23.418 23.5462 23.138C23.9475 22.8487 24.2089 22.452 24.3302 21.948H26.3042C26.1175 22.956 25.6462 23.7447 24.8902 24.314C24.1435 24.8833 23.1822 25.168 22.0062 25.168ZM27.8485 25V18.056H29.4445L29.6125 19.358C29.8645 18.91 30.2051 18.5553 30.6345 18.294C31.0731 18.0233 31.5865 17.888 32.1745 17.888V19.778H31.6705C31.2785 19.778 30.9285 19.8387 30.6205 19.96C30.3125 20.0813 30.0698 20.2913 29.8925 20.59C29.7245 20.8887 29.6405 21.304 29.6405 21.836V25H27.8485ZM36.6502 25.168C35.9502 25.168 35.3295 25.0187 34.7882 24.72C34.2469 24.4213 33.8222 24.0013 33.5142 23.46C33.2062 22.9187 33.0522 22.2933 33.0522 21.584C33.0522 20.8653 33.2015 20.226 33.5002 19.666C33.8082 19.106 34.2282 18.672 34.7602 18.364C35.3015 18.0467 35.9362 17.888 36.6642 17.888C37.3455 17.888 37.9475 18.0373 38.4702 18.336C38.9929 18.6347 39.3989 19.0453 39.6882 19.568C39.9869 20.0813 40.1362 20.6553 40.1362 21.29C40.1362 21.3927 40.1315 21.5 40.1222 21.612C40.1222 21.724 40.1175 21.8407 40.1082 21.962H34.8302C34.8675 22.5033 35.0542 22.928 35.3902 23.236C35.7355 23.544 36.1509 23.698 36.6362 23.698C37.0002 23.698 37.3035 23.6187 37.5462 23.46C37.7982 23.292 37.9849 23.0773 38.1062 22.816H39.9262C39.7955 23.2547 39.5762 23.656 39.2682 24.02C38.9695 24.3747 38.5962 24.6547 38.1482 24.86C37.7095 25.0653 37.2102 25.168 36.6502 25.168ZM36.6642 19.344C36.2255 19.344 35.8382 19.47 35.5022 19.722C35.1662 19.9647 34.9515 20.338 34.8582 20.842H38.3162C38.2882 20.3847 38.1202 20.0207 37.8122 19.75C37.5042 19.4793 37.1215 19.344 36.6642 19.344ZM44.0374 25.168C43.4401 25.168 42.9501 25.0747 42.5674 24.888C42.1847 24.692 41.9001 24.4353 41.7134 24.118C41.5267 23.8007 41.4334 23.4507 41.4334 23.068C41.4334 22.424 41.6854 21.9013 42.1894 21.5C42.6934 21.0987 43.4494 20.898 44.4574 20.898H46.2214V20.73C46.2214 20.254 46.0861 19.904 45.8154 19.68C45.5447 19.456 45.2087 19.344 44.8074 19.344C44.4434 19.344 44.1261 19.4327 43.8554 19.61C43.5847 19.778 43.4167 20.03 43.3514 20.366H41.6014C41.6481 19.862 41.8161 19.4233 42.1054 19.05C42.4041 18.6767 42.7867 18.392 43.2534 18.196C43.7201 17.9907 44.2427 17.888 44.8214 17.888C45.8107 17.888 46.5901 18.1353 47.1594 18.63C47.7287 19.1247 48.0134 19.8247 48.0134 20.73V25H46.4874L46.3194 23.88C46.1141 24.2533 45.8247 24.5613 45.4514 24.804C45.0874 25.0467 44.6161 25.168 44.0374 25.168ZM44.4434 23.768C44.9567 23.768 45.3534 23.6 45.6334 23.264C45.9227 22.928 46.1047 22.5127 46.1794 22.018H44.6534C44.1774 22.018 43.8367 22.1067 43.6314 22.284C43.4261 22.452 43.3234 22.662 43.3234 22.914C43.3234 23.1847 43.4261 23.3947 43.6314 23.544C43.8367 23.6933 44.1074 23.768 44.4434 23.768ZM52.7218 25C51.9938 25 51.4104 24.8227 50.9718 24.468C50.5331 24.1133 50.3138 23.4833 50.3138 22.578V19.554H49.1238V18.056H50.3138L50.5238 16.194H52.1058V18.056H53.9818V19.554H52.1058V22.592C52.1058 22.928 52.1758 23.1613 52.3158 23.292C52.4651 23.4133 52.7171 23.474 53.0718 23.474H53.9398V25H52.7218ZM58.7166 25.168C58.0166 25.168 57.396 25.0187 56.8546 24.72C56.3133 24.4213 55.8886 24.0013 55.5806 23.46C55.2726 22.9187 55.1186 22.2933 55.1186 21.584C55.1186 20.8653 55.268 20.226 55.5666 19.666C55.8746 19.106 56.2946 18.672 56.8266 18.364C57.368 18.0467 58.0026 17.888 58.7306 17.888C59.412 17.888 60.014 18.0373 60.5366 18.336C61.0593 18.6347 61.4653 19.0453 61.7546 19.568C62.0533 20.0813 62.2026 20.6553 62.2026 21.29C62.2026 21.3927 62.198 21.5 62.1886 21.612C62.1886 21.724 62.184 21.8407 62.1746 21.962H56.8966C56.934 22.5033 57.1206 22.928 57.4566 23.236C57.802 23.544 58.2173 23.698 58.7026 23.698C59.0666 23.698 59.37 23.6187 59.6126 23.46C59.8646 23.292 60.0513 23.0773 60.1726 22.816H61.9926C61.862 23.2547 61.6426 23.656 61.3346 24.02C61.036 24.3747 60.6626 24.6547 60.2146 24.86C59.776 25.0653 59.2766 25.168 58.7166 25.168ZM58.7306 19.344C58.292 19.344 57.9046 19.47 57.5686 19.722C57.2326 19.9647 57.018 20.338 56.9246 20.842H60.3826C60.3546 20.3847 60.1866 20.0207 59.8786 19.75C59.5706 19.4793 59.188 19.344 58.7306 19.344ZM67.0877 25V15.2H69.2157L72.3377 21.416L75.4177 15.2H77.5457V25H75.7537V18.238L73.0237 23.6H71.6097L68.8797 18.238V25H67.0877ZM82.0091 25.168C81.1411 25.168 80.4691 24.8973 79.9931 24.356C79.5265 23.8147 79.2931 23.0213 79.2931 21.976V18.056H81.0711V21.808C81.0711 22.4053 81.1925 22.8627 81.4351 23.18C81.6778 23.4973 82.0605 23.656 82.5831 23.656C83.0778 23.656 83.4838 23.4787 83.8011 23.124C84.1278 22.7693 84.2911 22.2747 84.2911 21.64V18.056H86.0831V25H84.5011L84.3611 23.824C84.1465 24.2347 83.8338 24.5613 83.4231 24.804C83.0218 25.0467 82.5505 25.168 82.0091 25.168ZM87.9227 25V14.92H89.7147V25H87.9227ZM94.6397 25C93.9117 25 93.3284 24.8227 92.8897 24.468C92.4511 24.1133 92.2317 23.4833 92.2317 22.578V19.554H91.0417V18.056H92.2317L92.4417 16.194H94.0237V18.056H95.8997V19.554H94.0237V22.592C94.0237 22.928 94.0937 23.1613 94.2337 23.292C94.3831 23.4133 94.6351 23.474 94.9897 23.474H95.8577V25H94.6397ZM98.4043 16.978C98.0777 16.978 97.807 16.88 97.5923 16.684C97.387 16.488 97.2843 16.2407 97.2843 15.942C97.2843 15.6433 97.387 15.4007 97.5923 15.214C97.807 15.018 98.0777 14.92 98.4043 14.92C98.731 14.92 98.997 15.018 99.2023 15.214C99.417 15.4007 99.5243 15.6433 99.5243 15.942C99.5243 16.2407 99.417 16.488 99.2023 16.684C98.997 16.88 98.731 16.978 98.4043 16.978ZM97.5083 25V18.056H99.3003V25H97.5083ZM101.171 28.08V18.056H102.767L102.963 19.05C103.187 18.742 103.481 18.4713 103.845 18.238C104.218 18.0047 104.699 17.888 105.287 17.888C105.94 17.888 106.523 18.0467 107.037 18.364C107.55 18.6813 107.956 19.1153 108.255 19.666C108.553 20.2167 108.703 20.842 108.703 21.542C108.703 22.242 108.553 22.8673 108.255 23.418C107.956 23.9593 107.55 24.3887 107.037 24.706C106.523 25.014 105.94 25.168 105.287 25.168C104.764 25.168 104.307 25.07 103.915 24.874C103.523 24.678 103.205 24.4027 102.963 24.048V28.08H101.171ZM104.909 23.6C105.478 23.6 105.949 23.4087 106.323 23.026C106.696 22.6433 106.883 22.1487 106.883 21.542C106.883 20.9353 106.696 20.436 106.323 20.044C105.949 19.652 105.478 19.456 104.909 19.456C104.33 19.456 103.854 19.652 103.481 20.044C103.117 20.4267 102.935 20.9213 102.935 21.528C102.935 22.1347 103.117 22.634 103.481 23.026C103.854 23.4087 104.33 23.6 104.909 23.6ZM110.304 25V14.92H112.096V25H110.304ZM117.301 25.168C116.601 25.168 115.98 25.0187 115.439 24.72C114.897 24.4213 114.473 24.0013 114.165 23.46C113.857 22.9187 113.703 22.2933 113.703 21.584C113.703 20.8653 113.852 20.226 114.151 19.666C114.459 19.106 114.879 18.672 115.411 18.364C115.952 18.0467 116.587 17.888 117.315 17.888C117.996 17.888 118.598 18.0373 119.121 18.336C119.643 18.6347 120.049 19.0453 120.339 19.568C120.637 20.0813 120.787 20.6553 120.787 21.29C120.787 21.3927 120.782 21.5 120.773 21.612C120.773 21.724 120.768 21.8407 120.759 21.962H115.481C115.518 22.5033 115.705 22.928 116.041 23.236C116.386 23.544 116.801 23.698 117.287 23.698C117.651 23.698 117.954 23.6187 118.197 23.46C118.449 23.292 118.635 23.0773 118.757 22.816H120.577C120.446 23.2547 120.227 23.656 119.919 24.02C119.62 24.3747 119.247 24.6547 118.799 24.86C118.36 25.0653 117.861 25.168 117.301 25.168ZM117.315 19.344C116.876 19.344 116.489 19.47 116.153 19.722C115.817 19.9647 115.602 20.338 115.509 20.842H118.967C118.939 20.3847 118.771 20.0207 118.463 19.75C118.155 19.4793 117.772 19.344 117.315 19.344Z" fill="#FCFCFD"/>
</svg>
