<svg width="352" height="44" viewBox="0 0 352 44" fill="none" xmlns="http://www.w3.org/2000/svg">
<g clip-path="url(#clip0_21149_17418)">
<rect y="2" width="40" height="40" rx="20" fill="#E4D7CF"/>
<rect y="-8.8335" width="40" height="59.9927"/>
</g>
<path d="M48.516 9.812C48.516 8.996 48.7 8.264 49.068 7.616C49.436 6.96 49.936 6.448 50.568 6.08C51.208 5.712 51.916 5.528 52.692 5.528C53.604 5.528 54.4 5.748 55.08 6.188C55.76 6.628 56.256 7.252 56.568 8.06H55.26C55.028 7.556 54.692 7.168 54.252 6.896C53.82 6.624 53.3 6.488 52.692 6.488C52.108 6.488 51.584 6.624 51.12 6.896C50.656 7.168 50.292 7.556 50.028 8.06C49.764 8.556 49.632 9.14 49.632 9.812C49.632 10.476 49.764 11.06 50.028 11.564C50.292 12.06 50.656 12.444 51.12 12.716C51.584 12.988 52.108 13.124 52.692 13.124C53.3 13.124 53.82 12.992 54.252 12.728C54.692 12.456 55.028 12.068 55.26 11.564H56.568C56.256 12.364 55.76 12.984 55.08 13.424C54.4 13.856 53.604 14.072 52.692 14.072C51.916 14.072 51.208 13.892 50.568 13.532C49.936 13.164 49.436 12.656 49.068 12.008C48.7 11.36 48.516 10.628 48.516 9.812ZM59.2855 8.492C59.4775 8.116 59.7495 7.824 60.1015 7.616C60.4615 7.408 60.8975 7.304 61.4095 7.304V8.432H61.1215C59.8975 8.432 59.2855 9.096 59.2855 10.424V14H58.1935V7.424H59.2855V8.492ZM68.6701 10.46C68.6701 10.668 68.6581 10.888 68.6341 11.12H63.3781C63.4181 11.768 63.6381 12.276 64.0381 12.644C64.4461 13.004 64.9381 13.184 65.5141 13.184C65.9861 13.184 66.3781 13.076 66.6901 12.86C67.0101 12.636 67.2341 12.34 67.3621 11.972H68.5381C68.3621 12.604 68.0101 13.12 67.4821 13.52C66.9541 13.912 66.2981 14.108 65.5141 14.108C64.8901 14.108 64.3301 13.968 63.8341 13.688C63.3461 13.408 62.9621 13.012 62.6821 12.5C62.4021 11.98 62.2621 11.38 62.2621 10.7C62.2621 10.02 62.3981 9.424 62.6701 8.912C62.9421 8.4 63.3221 8.008 63.8101 7.736C64.3061 7.456 64.8741 7.316 65.5141 7.316C66.1381 7.316 66.6901 7.452 67.1701 7.724C67.6501 7.996 68.0181 8.372 68.2741 8.852C68.5381 9.324 68.6701 9.86 68.6701 10.46ZM67.5421 10.232C67.5421 9.816 67.4501 9.46 67.2661 9.164C67.0821 8.86 66.8301 8.632 66.5101 8.48C66.1981 8.32 65.8501 8.24 65.4661 8.24C64.9141 8.24 64.4421 8.416 64.0501 8.768C63.6661 9.12 63.4461 9.608 63.3901 10.232H67.5421ZM69.7035 10.688C69.7035 10.016 69.8395 9.428 70.1115 8.924C70.3835 8.412 70.7555 8.016 71.2275 7.736C71.7075 7.456 72.2395 7.316 72.8235 7.316C73.3995 7.316 73.8995 7.44 74.3235 7.688C74.7475 7.936 75.0635 8.248 75.2715 8.624V7.424H76.3755V14H75.2715V12.776C75.0555 13.16 74.7315 13.48 74.2995 13.736C73.8755 13.984 73.3795 14.108 72.8115 14.108C72.2275 14.108 71.6995 13.964 71.2275 13.676C70.7555 13.388 70.3835 12.984 70.1115 12.464C69.8395 11.944 69.7035 11.352 69.7035 10.688ZM75.2715 10.7C75.2715 10.204 75.1715 9.772 74.9715 9.404C74.7715 9.036 74.4995 8.756 74.1555 8.564C73.8195 8.364 73.4475 8.264 73.0395 8.264C72.6315 8.264 72.2595 8.36 71.9235 8.552C71.5875 8.744 71.3195 9.024 71.1195 9.392C70.9195 9.76 70.8195 10.192 70.8195 10.688C70.8195 11.192 70.9195 11.632 71.1195 12.008C71.3195 12.376 71.5875 12.66 71.9235 12.86C72.2595 13.052 72.6315 13.148 73.0395 13.148C73.4475 13.148 73.8195 13.052 74.1555 12.86C74.4995 12.66 74.7715 12.376 74.9715 12.008C75.1715 11.632 75.2715 11.196 75.2715 10.7ZM79.5529 8.324V12.2C79.5529 12.52 79.6209 12.748 79.7569 12.884C79.8929 13.012 80.1289 13.076 80.4649 13.076H81.2689V14H80.2849C79.6769 14 79.2209 13.86 78.9169 13.58C78.6129 13.3 78.4609 12.84 78.4609 12.2V8.324H77.6089V7.424H78.4609V5.768H79.5529V7.424H81.2689V8.324H79.5529ZM85.46 14.108C84.844 14.108 84.284 13.968 83.78 13.688C83.284 13.408 82.892 13.012 82.604 12.5C82.324 11.98 82.184 11.38 82.184 10.7C82.184 10.028 82.328 9.436 82.616 8.924C82.912 8.404 83.312 8.008 83.816 7.736C84.32 7.456 84.884 7.316 85.508 7.316C86.132 7.316 86.696 7.456 87.2 7.736C87.704 8.008 88.1 8.4 88.388 8.912C88.684 9.424 88.832 10.02 88.832 10.7C88.832 11.38 88.68 11.98 88.376 12.5C88.08 13.012 87.676 13.408 87.164 13.688C86.652 13.968 86.084 14.108 85.46 14.108ZM85.46 13.148C85.852 13.148 86.22 13.056 86.564 12.872C86.908 12.688 87.184 12.412 87.392 12.044C87.608 11.676 87.716 11.228 87.716 10.7C87.716 10.172 87.612 9.724 87.404 9.356C87.196 8.988 86.924 8.716 86.588 8.54C86.252 8.356 85.888 8.264 85.496 8.264C85.096 8.264 84.728 8.356 84.392 8.54C84.064 8.716 83.8 8.988 83.6 9.356C83.4 9.724 83.3 10.172 83.3 10.7C83.3 11.236 83.396 11.688 83.588 12.056C83.788 12.424 84.052 12.7 84.38 12.884C84.708 13.06 85.068 13.148 85.46 13.148ZM91.3598 8.492C91.5518 8.116 91.8238 7.824 92.1758 7.616C92.5358 7.408 92.9718 7.304 93.4838 7.304V8.432H93.1958C91.9718 8.432 91.3598 9.096 91.3598 10.424V14H90.2678V7.424H91.3598V8.492Z" fill="#777E91"/>
<path d="M50.646 28.558V31.414H54.006V32.716H50.646V35.698H54.426V37H49.05V27.256H54.426V28.558H50.646ZM60.2838 29.16C60.8905 29.16 61.4318 29.286 61.9078 29.538C62.3931 29.79 62.7711 30.1633 63.0418 30.658C63.3125 31.1527 63.4478 31.75 63.4478 32.45V37H61.8658V32.688C61.8658 31.9973 61.6931 31.47 61.3478 31.106C61.0025 30.7327 60.5311 30.546 59.9338 30.546C59.3365 30.546 58.8605 30.7327 58.5058 31.106C58.1605 31.47 57.9878 31.9973 57.9878 32.688V37H56.3918V29.286H57.9878V30.168C58.2491 29.8507 58.5805 29.6033 58.9818 29.426C59.3925 29.2487 59.8265 29.16 60.2838 29.16ZM67.0796 30.406C67.3129 30.014 67.6209 29.7107 68.0036 29.496C68.3956 29.272 68.8576 29.16 69.3896 29.16V30.812H68.9836C68.3583 30.812 67.8823 30.9707 67.5556 31.288C67.2383 31.6053 67.0796 32.156 67.0796 32.94V37H65.4836V29.286H67.0796V30.406ZM71.6686 28.264C71.3793 28.264 71.1366 28.166 70.9406 27.97C70.7446 27.774 70.6466 27.5313 70.6466 27.242C70.6466 26.9527 70.7446 26.71 70.9406 26.514C71.1366 26.318 71.3793 26.22 71.6686 26.22C71.9486 26.22 72.1866 26.318 72.3826 26.514C72.5786 26.71 72.6766 26.9527 72.6766 27.242C72.6766 27.5313 72.5786 27.774 72.3826 27.97C72.1866 28.166 71.9486 28.264 71.6686 28.264ZM72.4526 29.286V37H70.8566V29.286H72.4526ZM74.016 33.136C74.016 32.3427 74.1747 31.6473 74.492 31.05C74.8187 30.4433 75.2667 29.9767 75.836 29.65C76.4054 29.3233 77.0587 29.16 77.796 29.16C78.7294 29.16 79.4994 29.384 80.106 29.832C80.722 30.2707 81.1374 30.9007 81.352 31.722H79.63C79.49 31.3393 79.266 31.0407 78.958 30.826C78.65 30.6113 78.2627 30.504 77.796 30.504C77.1427 30.504 76.62 30.7373 76.228 31.204C75.8454 31.6613 75.654 32.3053 75.654 33.136C75.654 33.9667 75.8454 34.6153 76.228 35.082C76.62 35.5487 77.1427 35.782 77.796 35.782C78.72 35.782 79.3314 35.376 79.63 34.564H81.352C81.128 35.348 80.708 35.9733 80.092 36.44C79.476 36.8973 78.7107 37.126 77.796 37.126C77.0587 37.126 76.4054 36.9627 75.836 36.636C75.2667 36.3 74.8187 35.8333 74.492 35.236C74.1747 34.6293 74.016 33.9293 74.016 33.136ZM86.2886 37.126C85.5606 37.126 84.9026 36.9627 84.3146 36.636C83.7266 36.3 83.2646 35.8333 82.9286 35.236C82.5926 34.6293 82.4246 33.9293 82.4246 33.136C82.4246 32.352 82.5972 31.6567 82.9426 31.05C83.2879 30.4433 83.7592 29.9767 84.3566 29.65C84.9539 29.3233 85.6212 29.16 86.3586 29.16C87.0959 29.16 87.7632 29.3233 88.3606 29.65C88.9579 29.9767 89.4292 30.4433 89.7746 31.05C90.1199 31.6567 90.2926 32.352 90.2926 33.136C90.2926 33.92 90.1152 34.6153 89.7606 35.222C89.4059 35.8287 88.9206 36.3 88.3046 36.636C87.6979 36.9627 87.0259 37.126 86.2886 37.126ZM86.2886 35.74C86.6992 35.74 87.0819 35.642 87.4366 35.446C87.8006 35.25 88.0946 34.956 88.3186 34.564C88.5426 34.172 88.6546 33.696 88.6546 33.136C88.6546 32.576 88.5472 32.1047 88.3326 31.722C88.1179 31.33 87.8332 31.036 87.4786 30.84C87.1239 30.644 86.7412 30.546 86.3306 30.546C85.9199 30.546 85.5372 30.644 85.1826 30.84C84.8372 31.036 84.5619 31.33 84.3566 31.722C84.1512 32.1047 84.0486 32.576 84.0486 33.136C84.0486 33.9667 84.2586 34.6107 84.6786 35.068C85.1079 35.516 85.6446 35.74 86.2886 35.74ZM94.975 32.114C94.975 31.162 95.1944 30.308 95.633 29.552C96.081 28.796 96.683 28.208 97.439 27.788C98.2044 27.3587 99.0397 27.144 99.945 27.144C100.981 27.144 101.9 27.4007 102.703 27.914C103.515 28.418 104.103 29.1367 104.467 30.07H102.549C102.297 29.5567 101.947 29.174 101.499 28.922C101.051 28.67 100.533 28.544 99.945 28.544C99.301 28.544 98.727 28.6887 98.223 28.978C97.719 29.2673 97.3224 29.6827 97.033 30.224C96.753 30.7653 96.613 31.3953 96.613 32.114C96.613 32.8327 96.753 33.4627 97.033 34.004C97.3224 34.5453 97.719 34.9653 98.223 35.264C98.727 35.5533 99.301 35.698 99.945 35.698C100.533 35.698 101.051 35.572 101.499 35.32C101.947 35.068 102.297 34.6853 102.549 34.172H104.467C104.103 35.1053 103.515 35.824 102.703 36.328C101.9 36.832 100.981 37.084 99.945 37.084C99.0304 37.084 98.195 36.874 97.439 36.454C96.683 36.0247 96.081 35.432 95.633 34.676C95.1944 33.92 94.975 33.066 94.975 32.114ZM109.681 37.126C108.953 37.126 108.295 36.9627 107.707 36.636C107.119 36.3 106.657 35.8333 106.321 35.236C105.985 34.6293 105.817 33.9293 105.817 33.136C105.817 32.352 105.99 31.6567 106.335 31.05C106.68 30.4433 107.152 29.9767 107.749 29.65C108.346 29.3233 109.014 29.16 109.751 29.16C110.488 29.16 111.156 29.3233 111.753 29.65C112.35 29.9767 112.822 30.4433 113.167 31.05C113.512 31.6567 113.685 32.352 113.685 33.136C113.685 33.92 113.508 34.6153 113.153 35.222C112.798 35.8287 112.313 36.3 111.697 36.636C111.09 36.9627 110.418 37.126 109.681 37.126ZM109.681 35.74C110.092 35.74 110.474 35.642 110.829 35.446C111.193 35.25 111.487 34.956 111.711 34.564C111.935 34.172 112.047 33.696 112.047 33.136C112.047 32.576 111.94 32.1047 111.725 31.722C111.51 31.33 111.226 31.036 110.871 30.84C110.516 30.644 110.134 30.546 109.723 30.546C109.312 30.546 108.93 30.644 108.575 30.84C108.23 31.036 107.954 31.33 107.749 31.722C107.544 32.1047 107.441 32.576 107.441 33.136C107.441 33.9667 107.651 34.6107 108.071 35.068C108.5 35.516 109.037 35.74 109.681 35.74ZM116.859 26.64V37H115.263V26.64H116.859ZM126.024 32.954C126.024 33.2433 126.006 33.5047 125.968 33.738H120.074C120.121 34.354 120.35 34.8487 120.76 35.222C121.171 35.5953 121.675 35.782 122.272 35.782C123.131 35.782 123.738 35.4227 124.092 34.704H125.814C125.581 35.4133 125.156 35.9967 124.54 36.454C123.934 36.902 123.178 37.126 122.272 37.126C121.535 37.126 120.872 36.9627 120.284 36.636C119.706 36.3 119.248 35.8333 118.912 35.236C118.586 34.6293 118.422 33.9293 118.422 33.136C118.422 32.3427 118.581 31.6473 118.898 31.05C119.225 30.4433 119.678 29.9767 120.256 29.65C120.844 29.3233 121.516 29.16 122.272 29.16C123 29.16 123.649 29.3187 124.218 29.636C124.788 29.9533 125.231 30.4013 125.548 30.98C125.866 31.5493 126.024 32.2073 126.024 32.954ZM124.358 32.45C124.349 31.862 124.139 31.3907 123.728 31.036C123.318 30.6813 122.809 30.504 122.202 30.504C121.652 30.504 121.18 30.6813 120.788 31.036C120.396 31.3813 120.163 31.8527 120.088 32.45H124.358Z" fill="#FCFCFD"/>
<rect x="192.5" y="2" width="40" height="40" rx="20" fill="#45B36B"/>
<path fill-rule="evenodd" clip-rule="evenodd" d="M212.5 14C210.548 14 208.748 14.161 207.304 14.3518C206.004 14.5235 205.023 15.5037 204.852 16.8037C204.661 18.2482 204.5 20.0478 204.5 22C204.5 23.9522 204.661 25.7518 204.852 27.1963C205.023 28.4963 206.004 29.4765 207.304 29.6482C208.748 29.839 210.548 30 212.5 30C214.452 30 216.252 29.839 217.696 29.6482C218.996 29.4765 219.977 28.4963 220.148 27.1963C220.339 25.7518 220.5 23.9522 220.5 22C220.5 20.0478 220.339 18.2482 220.148 16.8037C219.977 15.5037 218.996 14.5235 217.696 14.3518C216.252 14.161 214.452 14 212.5 14ZM207.042 12.369C204.845 12.6591 203.159 14.345 202.869 16.5418C202.67 18.0521 202.5 19.9413 202.5 22C202.5 24.0587 202.67 25.9479 202.869 27.4582C203.159 29.655 204.845 31.3409 207.042 31.631C208.552 31.8305 210.441 32 212.5 32C214.559 32 216.448 31.8305 217.958 31.631C220.155 31.3409 221.841 29.655 222.131 27.4582C222.33 25.9479 222.5 24.0587 222.5 22C222.5 19.9413 222.33 18.0521 222.131 16.5418C221.841 14.345 220.155 12.6591 217.958 12.369C216.448 12.1695 214.559 12 212.5 12C210.441 12 208.552 12.1695 207.042 12.369Z" fill="#FCFCFD"/>
<path d="M242.516 5.636V14H241.424V5.636H242.516ZM247.581 7.304C248.381 7.304 249.029 7.548 249.525 8.036C250.021 8.516 250.269 9.212 250.269 10.124V14H249.189V10.28C249.189 9.624 249.025 9.124 248.697 8.78C248.369 8.428 247.921 8.252 247.353 8.252C246.777 8.252 246.317 8.432 245.973 8.792C245.637 9.152 245.469 9.676 245.469 10.364V14H244.377V7.424H245.469V8.36C245.685 8.024 245.977 7.764 246.345 7.58C246.721 7.396 247.133 7.304 247.581 7.304ZM254.381 14.108C253.877 14.108 253.425 14.024 253.025 13.856C252.625 13.68 252.309 13.44 252.077 13.136C251.845 12.824 251.717 12.468 251.693 12.068H252.821C252.853 12.396 253.005 12.664 253.277 12.872C253.557 13.08 253.921 13.184 254.369 13.184C254.785 13.184 255.113 13.092 255.353 12.908C255.593 12.724 255.713 12.492 255.713 12.212C255.713 11.924 255.585 11.712 255.329 11.576C255.073 11.432 254.677 11.292 254.141 11.156C253.653 11.028 253.253 10.9 252.941 10.772C252.637 10.636 252.373 10.44 252.149 10.184C251.933 9.92 251.825 9.576 251.825 9.152C251.825 8.816 251.925 8.508 252.125 8.228C252.325 7.948 252.609 7.728 252.977 7.568C253.345 7.4 253.765 7.316 254.237 7.316C254.965 7.316 255.553 7.5 256.001 7.868C256.449 8.236 256.689 8.74 256.721 9.38H255.629C255.605 9.036 255.465 8.76 255.209 8.552C254.961 8.344 254.625 8.24 254.201 8.24C253.809 8.24 253.497 8.324 253.265 8.492C253.033 8.66 252.917 8.88 252.917 9.152C252.917 9.368 252.985 9.548 253.121 9.692C253.265 9.828 253.441 9.94 253.649 10.028C253.865 10.108 254.161 10.2 254.537 10.304C255.009 10.432 255.393 10.56 255.689 10.688C255.985 10.808 256.237 10.992 256.445 11.24C256.661 11.488 256.773 11.812 256.781 12.212C256.781 12.572 256.681 12.896 256.481 13.184C256.281 13.472 255.997 13.7 255.629 13.868C255.269 14.028 254.853 14.108 254.381 14.108ZM259.654 8.324V12.2C259.654 12.52 259.722 12.748 259.858 12.884C259.994 13.012 260.23 13.076 260.566 13.076H261.37V14H260.386C259.778 14 259.322 13.86 259.018 13.58C258.714 13.3 258.562 12.84 258.562 12.2V8.324H257.71V7.424H258.562V5.768H259.654V7.424H261.37V8.324H259.654ZM262.286 10.688C262.286 10.016 262.422 9.428 262.694 8.924C262.966 8.412 263.338 8.016 263.81 7.736C264.29 7.456 264.822 7.316 265.406 7.316C265.982 7.316 266.482 7.44 266.906 7.688C267.33 7.936 267.646 8.248 267.854 8.624V7.424H268.958V14H267.854V12.776C267.638 13.16 267.314 13.48 266.882 13.736C266.458 13.984 265.962 14.108 265.394 14.108C264.81 14.108 264.282 13.964 263.81 13.676C263.338 13.388 262.966 12.984 262.694 12.464C262.422 11.944 262.286 11.352 262.286 10.688ZM267.854 10.7C267.854 10.204 267.754 9.772 267.554 9.404C267.354 9.036 267.082 8.756 266.738 8.564C266.402 8.364 266.03 8.264 265.622 8.264C265.214 8.264 264.842 8.36 264.506 8.552C264.17 8.744 263.902 9.024 263.702 9.392C263.502 9.76 263.402 10.192 263.402 10.688C263.402 11.192 263.502 11.632 263.702 12.008C263.902 12.376 264.17 12.66 264.506 12.86C264.842 13.052 265.214 13.148 265.622 13.148C266.03 13.148 266.402 13.052 266.738 12.86C267.082 12.66 267.354 12.376 267.554 12.008C267.754 11.632 267.854 11.196 267.854 10.7ZM274.007 7.304C274.807 7.304 275.455 7.548 275.951 8.036C276.447 8.516 276.695 9.212 276.695 10.124V14H275.615V10.28C275.615 9.624 275.451 9.124 275.123 8.78C274.795 8.428 274.347 8.252 273.779 8.252C273.203 8.252 272.743 8.432 272.399 8.792C272.063 9.152 271.895 9.676 271.895 10.364V14H270.803V7.424H271.895V8.36C272.111 8.024 272.403 7.764 272.771 7.58C273.147 7.396 273.559 7.304 274.007 7.304ZM279.811 8.324V12.2C279.811 12.52 279.879 12.748 280.015 12.884C280.151 13.012 280.387 13.076 280.723 13.076H281.527V14H280.543C279.935 14 279.479 13.86 279.175 13.58C278.871 13.3 278.719 12.84 278.719 12.2V8.324H277.867V7.424H278.719V5.768H279.811V7.424H281.527V8.324H279.811ZM287.141 8.636C287.357 8.26 287.677 7.948 288.101 7.7C288.533 7.444 289.033 7.316 289.601 7.316C290.185 7.316 290.713 7.456 291.185 7.736C291.665 8.016 292.041 8.412 292.313 8.924C292.585 9.428 292.721 10.016 292.721 10.688C292.721 11.352 292.585 11.944 292.313 12.464C292.041 12.984 291.665 13.388 291.185 13.676C290.713 13.964 290.185 14.108 289.601 14.108C289.041 14.108 288.545 13.984 288.113 13.736C287.689 13.48 287.365 13.164 287.141 12.788V17.12H286.049V7.424H287.141V8.636ZM291.605 10.688C291.605 10.192 291.505 9.76 291.305 9.392C291.105 9.024 290.833 8.744 290.489 8.552C290.153 8.36 289.781 8.264 289.373 8.264C288.973 8.264 288.601 8.364 288.257 8.564C287.921 8.756 287.649 9.04 287.441 9.416C287.241 9.784 287.141 10.212 287.141 10.7C287.141 11.196 287.241 11.632 287.441 12.008C287.649 12.376 287.921 12.66 288.257 12.86C288.601 13.052 288.973 13.148 289.373 13.148C289.781 13.148 290.153 13.052 290.489 12.86C290.833 12.66 291.105 12.376 291.305 12.008C291.505 11.632 291.605 11.192 291.605 10.688ZM295.25 8.492C295.442 8.116 295.714 7.824 296.066 7.616C296.426 7.408 296.862 7.304 297.374 7.304V8.432H297.086C295.862 8.432 295.25 9.096 295.25 10.424V14H294.158V7.424H295.25V8.492ZM299.199 6.356C298.991 6.356 298.815 6.284 298.671 6.14C298.527 5.996 298.455 5.82 298.455 5.612C298.455 5.404 298.527 5.228 298.671 5.084C298.815 4.94 298.991 4.868 299.199 4.868C299.399 4.868 299.567 4.94 299.703 5.084C299.847 5.228 299.919 5.404 299.919 5.612C299.919 5.82 299.847 5.996 299.703 6.14C299.567 6.284 299.399 6.356 299.199 6.356ZM299.727 7.424V14H298.635V7.424H299.727ZM301.18 10.7C301.18 10.02 301.316 9.428 301.588 8.924C301.86 8.412 302.236 8.016 302.716 7.736C303.204 7.456 303.76 7.316 304.384 7.316C305.192 7.316 305.856 7.512 306.376 7.904C306.904 8.296 307.252 8.84 307.42 9.536H306.244C306.132 9.136 305.912 8.82 305.584 8.588C305.264 8.356 304.864 8.24 304.384 8.24C303.76 8.24 303.256 8.456 302.872 8.888C302.488 9.312 302.296 9.916 302.296 10.7C302.296 11.492 302.488 12.104 302.872 12.536C303.256 12.968 303.76 13.184 304.384 13.184C304.864 13.184 305.264 13.072 305.584 12.848C305.904 12.624 306.124 12.304 306.244 11.888H307.42C307.244 12.56 306.892 13.1 306.364 13.508C305.836 13.908 305.176 14.108 304.384 14.108C303.76 14.108 303.204 13.968 302.716 13.688C302.236 13.408 301.86 13.012 301.588 12.5C301.316 11.988 301.18 11.388 301.18 10.7ZM314.877 10.46C314.877 10.668 314.865 10.888 314.841 11.12H309.585C309.625 11.768 309.845 12.276 310.245 12.644C310.653 13.004 311.145 13.184 311.721 13.184C312.193 13.184 312.585 13.076 312.897 12.86C313.217 12.636 313.441 12.34 313.569 11.972H314.745C314.569 12.604 314.217 13.12 313.689 13.52C313.161 13.912 312.505 14.108 311.721 14.108C311.097 14.108 310.537 13.968 310.041 13.688C309.553 13.408 309.169 13.012 308.889 12.5C308.609 11.98 308.469 11.38 308.469 10.7C308.469 10.02 308.605 9.424 308.877 8.912C309.149 8.4 309.529 8.008 310.017 7.736C310.513 7.456 311.081 7.316 311.721 7.316C312.345 7.316 312.897 7.452 313.377 7.724C313.857 7.996 314.225 8.372 314.481 8.852C314.745 9.324 314.877 9.86 314.877 10.46ZM313.749 10.232C313.749 9.816 313.657 9.46 313.473 9.164C313.289 8.86 313.037 8.632 312.717 8.48C312.405 8.32 312.057 8.24 311.673 8.24C311.121 8.24 310.649 8.416 310.257 8.768C309.873 9.12 309.653 9.608 309.597 10.232H313.749Z" fill="#777E91"/>
<path d="M241.312 29.314C241.368 28.446 241.699 27.7693 242.306 27.284C242.922 26.7987 243.706 26.556 244.658 26.556C245.311 26.556 245.876 26.6727 246.352 26.906C246.828 27.1393 247.187 27.4567 247.43 27.858C247.673 28.2593 247.794 28.712 247.794 29.216C247.794 29.7947 247.64 30.2893 247.332 30.7C247.024 31.1107 246.655 31.386 246.226 31.526V31.582C246.777 31.75 247.206 32.058 247.514 32.506C247.822 32.9447 247.976 33.5093 247.976 34.2C247.976 34.7507 247.85 35.2407 247.598 35.67C247.346 36.0993 246.973 36.44 246.478 36.692C245.983 36.9347 245.391 37.056 244.7 37.056C243.692 37.056 242.861 36.7993 242.208 36.286C241.564 35.7633 241.219 35.0167 241.172 34.046H242.712C242.749 34.5407 242.941 34.9467 243.286 35.264C243.631 35.572 244.098 35.726 244.686 35.726C245.255 35.726 245.694 35.572 246.002 35.264C246.31 34.9467 246.464 34.5407 246.464 34.046C246.464 33.3927 246.254 32.9307 245.834 32.66C245.423 32.38 244.789 32.24 243.93 32.24H243.566V30.924H243.944C244.7 30.9147 245.274 30.7887 245.666 30.546C246.067 30.3033 246.268 29.9207 246.268 29.398C246.268 28.95 246.123 28.5953 245.834 28.334C245.545 28.0633 245.134 27.928 244.602 27.928C244.079 27.928 243.673 28.0633 243.384 28.334C243.095 28.5953 242.922 28.922 242.866 29.314H241.312ZM250.507 37.098C250.217 37.098 249.975 37 249.779 36.804C249.583 36.608 249.485 36.3653 249.485 36.076C249.485 35.7867 249.583 35.544 249.779 35.348C249.975 35.152 250.217 35.054 250.507 35.054C250.787 35.054 251.025 35.152 251.221 35.348C251.417 35.544 251.515 35.7867 251.515 36.076C251.515 36.3653 251.417 36.608 251.221 36.804C251.025 37 250.787 37.098 250.507 37.098ZM259.609 28.166H254.919V30.952C255.115 30.6907 255.405 30.4713 255.787 30.294C256.179 30.1167 256.595 30.028 257.033 30.028C257.817 30.028 258.452 30.196 258.937 30.532C259.432 30.868 259.782 31.2927 259.987 31.806C260.202 32.3193 260.309 32.8607 260.309 33.43C260.309 34.1207 260.174 34.7367 259.903 35.278C259.642 35.81 259.245 36.23 258.713 36.538C258.191 36.846 257.547 37 256.781 37C255.764 37 254.947 36.748 254.331 36.244C253.715 35.74 253.347 35.0727 253.225 34.242H254.779C254.882 34.6807 255.111 35.0307 255.465 35.292C255.82 35.544 256.263 35.67 256.795 35.67C257.458 35.67 257.953 35.4693 258.279 35.068C258.615 34.6667 258.783 34.1347 258.783 33.472C258.783 32.8 258.615 32.2867 258.279 31.932C257.943 31.568 257.449 31.386 256.795 31.386C256.338 31.386 255.951 31.5027 255.633 31.736C255.325 31.96 255.101 32.268 254.961 32.66H253.449V26.766H259.609V28.166ZM267.414 28.558V31.414H270.774V32.716H267.414V35.698H271.194V37H265.818V27.256H271.194V28.558H267.414ZM279.445 27.27V28.572H276.855V37H275.259V28.572H272.655V27.27H279.445ZM288.832 27.27V37H287.236V32.744H282.658V37H281.062V27.27H282.658V31.442H287.236V27.27H288.832Z" fill="#FCFCFD"/>
<defs>
<clipPath id="clip0_21149_17418">
<rect y="2" width="40" height="40" rx="20" fill="white"/>
</clipPath>
</defs>
</svg>
