<svg width="158" height="40" viewBox="0 0 158 40" fill="none" xmlns="http://www.w3.org/2000/svg">
<path d="M16.952 25V15.2H20.298C21.446 15.2 22.3887 15.4053 23.126 15.816C23.8727 16.2173 24.4233 16.7867 24.778 17.524C25.142 18.252 25.324 19.1107 25.324 20.1C25.324 21.0893 25.142 21.9527 24.778 22.69C24.4233 23.418 23.8727 23.9873 23.126 24.398C22.3887 24.7993 21.446 25 20.298 25H16.952ZM18.744 23.46H20.214C21.0353 23.46 21.684 23.3293 22.16 23.068C22.636 22.7973 22.9767 22.4147 23.182 21.92C23.3873 21.416 23.49 20.8093 23.49 20.1C23.49 19.4 23.3873 18.798 23.182 18.294C22.9767 17.79 22.636 17.4027 22.16 17.132C21.684 16.8613 21.0353 16.726 20.214 16.726H18.744V23.46ZM27.8291 16.978C27.5025 16.978 27.2318 16.88 27.0171 16.684C26.8118 16.488 26.7091 16.2407 26.7091 15.942C26.7091 15.6433 26.8118 15.4007 27.0171 15.214C27.2318 15.018 27.5025 14.92 27.8291 14.92C28.1558 14.92 28.4218 15.018 28.6271 15.214C28.8418 15.4007 28.9491 15.6433 28.9491 15.942C28.9491 16.2407 28.8418 16.488 28.6271 16.684C28.4218 16.88 28.1558 16.978 27.8291 16.978ZM26.9331 25V18.056H28.7251V25H26.9331ZM33.4655 25.168C32.8495 25.168 32.3082 25.07 31.8415 24.874C31.3749 24.6687 31.0015 24.3887 30.7215 24.034C30.4415 23.6793 30.2735 23.2687 30.2175 22.802H32.0235C32.0795 23.0727 32.2289 23.306 32.4715 23.502C32.7235 23.6887 33.0455 23.782 33.4375 23.782C33.8295 23.782 34.1142 23.7027 34.2915 23.544C34.4782 23.3853 34.5715 23.2033 34.5715 22.998C34.5715 22.6993 34.4409 22.4987 34.1795 22.396C33.9182 22.284 33.5542 22.1767 33.0875 22.074C32.7889 22.0087 32.4855 21.9293 32.1775 21.836C31.8695 21.7427 31.5849 21.626 31.3235 21.486C31.0715 21.3367 30.8662 21.15 30.7075 20.926C30.5489 20.6927 30.4695 20.408 30.4695 20.072C30.4695 19.456 30.7122 18.938 31.1975 18.518C31.6922 18.098 32.3829 17.888 33.2695 17.888C34.0909 17.888 34.7442 18.0793 35.2295 18.462C35.7242 18.8447 36.0182 19.372 36.1115 20.044H34.4175C34.3149 19.5307 33.9275 19.274 33.2555 19.274C32.9195 19.274 32.6582 19.3393 32.4715 19.47C32.2942 19.6007 32.2055 19.764 32.2055 19.96C32.2055 20.1653 32.3409 20.3287 32.6115 20.45C32.8822 20.5713 33.2415 20.6833 33.6895 20.786C34.1749 20.898 34.6182 21.024 35.0195 21.164C35.4302 21.2947 35.7569 21.4953 35.9995 21.766C36.2422 22.0273 36.3635 22.4053 36.3635 22.9C36.3729 23.3293 36.2609 23.7167 36.0275 24.062C35.7942 24.4073 35.4582 24.678 35.0195 24.874C34.5809 25.07 34.0629 25.168 33.4655 25.168ZM41.353 25.168C40.6437 25.168 40.0183 25.014 39.477 24.706C38.9357 24.398 38.5063 23.9687 38.189 23.418C37.881 22.8673 37.727 22.2373 37.727 21.528C37.727 20.8187 37.881 20.1887 38.189 19.638C38.5063 19.0873 38.9357 18.658 39.477 18.35C40.0183 18.042 40.6437 17.888 41.353 17.888C42.2397 17.888 42.9863 18.1213 43.593 18.588C44.1997 19.0453 44.587 19.68 44.755 20.492H42.865C42.7717 20.156 42.585 19.8947 42.305 19.708C42.0343 19.512 41.7123 19.414 41.339 19.414C40.8443 19.414 40.4243 19.6007 40.079 19.974C39.7337 20.3473 39.561 20.8653 39.561 21.528C39.561 22.1907 39.7337 22.7087 40.079 23.082C40.4243 23.4553 40.8443 23.642 41.339 23.642C41.7123 23.642 42.0343 23.5487 42.305 23.362C42.585 23.1753 42.7717 22.9093 42.865 22.564H44.755C44.587 23.348 44.1997 23.978 43.593 24.454C42.9863 24.93 42.2397 25.168 41.353 25.168ZM49.6775 25.168C49.0055 25.168 48.3989 25.014 47.8575 24.706C47.3255 24.398 46.9009 23.9733 46.5835 23.432C46.2755 22.8813 46.1215 22.2467 46.1215 21.528C46.1215 20.8093 46.2802 20.1793 46.5975 19.638C46.9149 19.0873 47.3395 18.658 47.8715 18.35C48.4129 18.042 49.0195 17.888 49.6915 17.888C50.3542 17.888 50.9515 18.042 51.4835 18.35C52.0249 18.658 52.4495 19.0873 52.7575 19.638C53.0749 20.1793 53.2335 20.8093 53.2335 21.528C53.2335 22.2467 53.0749 22.8813 52.7575 23.432C52.4495 23.9733 52.0249 24.398 51.4835 24.706C50.9422 25.014 50.3402 25.168 49.6775 25.168ZM49.6775 23.614C50.1442 23.614 50.5502 23.4413 50.8955 23.096C51.2409 22.7413 51.4135 22.2187 51.4135 21.528C51.4135 20.8373 51.2409 20.3193 50.8955 19.974C50.5502 19.6193 50.1489 19.442 49.6915 19.442C49.2155 19.442 48.8049 19.6193 48.4595 19.974C48.1235 20.3193 47.9555 20.8373 47.9555 21.528C47.9555 22.2187 48.1235 22.7413 48.4595 23.096C48.8049 23.4413 49.2109 23.614 49.6775 23.614ZM56.37 25L53.822 18.056H55.698L57.462 23.306L59.226 18.056H61.102L58.54 25H56.37ZM65.2645 25.168C64.5645 25.168 63.9438 25.0187 63.4025 24.72C62.8611 24.4213 62.4365 24.0013 62.1285 23.46C61.8205 22.9187 61.6665 22.2933 61.6665 21.584C61.6665 20.8653 61.8158 20.226 62.1145 19.666C62.4225 19.106 62.8425 18.672 63.3745 18.364C63.9158 18.0467 64.5505 17.888 65.2785 17.888C65.9598 17.888 66.5618 18.0373 67.0845 18.336C67.6071 18.6347 68.0131 19.0453 68.3025 19.568C68.6011 20.0813 68.7505 20.6553 68.7505 21.29C68.7505 21.3927 68.7458 21.5 68.7365 21.612C68.7365 21.724 68.7318 21.8407 68.7225 21.962H63.4445C63.4818 22.5033 63.6685 22.928 64.0045 23.236C64.3498 23.544 64.7651 23.698 65.2505 23.698C65.6145 23.698 65.9178 23.6187 66.1605 23.46C66.4125 23.292 66.5991 23.0773 66.7205 22.816H68.5405C68.4098 23.2547 68.1905 23.656 67.8825 24.02C67.5838 24.3747 67.2105 24.6547 66.7625 24.86C66.3238 25.0653 65.8245 25.168 65.2645 25.168ZM65.2785 19.344C64.8398 19.344 64.4525 19.47 64.1165 19.722C63.7805 19.9647 63.5658 20.338 63.4725 20.842H66.9305C66.9025 20.3847 66.7345 20.0207 66.4265 19.75C66.1185 19.4793 65.7358 19.344 65.2785 19.344ZM70.2577 25V18.056H71.8537L72.0217 19.358C72.2737 18.91 72.6143 18.5553 73.0437 18.294C73.4823 18.0233 73.9957 17.888 74.5837 17.888V19.778H74.0797C73.6877 19.778 73.3377 19.8387 73.0297 19.96C72.7217 20.0813 72.479 20.2913 72.3017 20.59C72.1337 20.8887 72.0497 21.304 72.0497 21.836V25H70.2577ZM79.1444 25V18.056H80.7264L80.8804 18.994C81.1044 18.658 81.3984 18.392 81.7624 18.196C82.1357 17.9907 82.565 17.888 83.0504 17.888C84.1237 17.888 84.8844 18.3033 85.3324 19.134C85.5844 18.7513 85.9204 18.448 86.3404 18.224C86.7697 18 87.2364 17.888 87.7404 17.888C88.6457 17.888 89.341 18.1587 89.8264 18.7C90.3117 19.2413 90.5544 20.0347 90.5544 21.08V25H88.7624V21.248C88.7624 20.6507 88.6457 20.1933 88.4124 19.876C88.1884 19.5587 87.8384 19.4 87.3624 19.4C86.877 19.4 86.485 19.5773 86.1864 19.932C85.897 20.2867 85.7524 20.7813 85.7524 21.416V25H83.9604V21.248C83.9604 20.6507 83.8437 20.1933 83.6104 19.876C83.377 19.5587 83.0177 19.4 82.5324 19.4C82.0564 19.4 81.669 19.5773 81.3704 19.932C81.081 20.2867 80.9364 20.7813 80.9364 21.416V25H79.1444ZM95.5877 25.168C94.9157 25.168 94.309 25.014 93.7677 24.706C93.2357 24.398 92.811 23.9733 92.4937 23.432C92.1857 22.8813 92.0317 22.2467 92.0317 21.528C92.0317 20.8093 92.1904 20.1793 92.5077 19.638C92.825 19.0873 93.2497 18.658 93.7817 18.35C94.323 18.042 94.9297 17.888 95.6017 17.888C96.2644 17.888 96.8617 18.042 97.3937 18.35C97.935 18.658 98.3597 19.0873 98.6677 19.638C98.985 20.1793 99.1437 20.8093 99.1437 21.528C99.1437 22.2467 98.985 22.8813 98.6677 23.432C98.3597 23.9733 97.935 24.398 97.3937 24.706C96.8524 25.014 96.2504 25.168 95.5877 25.168ZM95.5877 23.614C96.0544 23.614 96.4604 23.4413 96.8057 23.096C97.151 22.7413 97.3237 22.2187 97.3237 21.528C97.3237 20.8373 97.151 20.3193 96.8057 19.974C96.4604 19.6193 96.059 19.442 95.6017 19.442C95.1257 19.442 94.715 19.6193 94.3697 19.974C94.0337 20.3193 93.8657 20.8373 93.8657 21.528C93.8657 22.2187 94.0337 22.7413 94.3697 23.096C94.715 23.4413 95.121 23.614 95.5877 23.614ZM100.746 25V18.056H102.342L102.51 19.358C102.762 18.91 103.103 18.5553 103.532 18.294C103.971 18.0233 104.484 17.888 105.072 17.888V19.778H104.568C104.176 19.778 103.826 19.8387 103.518 19.96C103.21 20.0813 102.967 20.2913 102.79 20.59C102.622 20.8887 102.538 21.304 102.538 21.836V25H100.746ZM109.548 25.168C108.848 25.168 108.227 25.0187 107.686 24.72C107.144 24.4213 106.72 24.0013 106.412 23.46C106.104 22.9187 105.95 22.2933 105.95 21.584C105.95 20.8653 106.099 20.226 106.398 19.666C106.706 19.106 107.126 18.672 107.658 18.364C108.199 18.0467 108.834 17.888 109.562 17.888C110.243 17.888 110.845 18.0373 111.368 18.336C111.89 18.6347 112.296 19.0453 112.586 19.568C112.884 20.0813 113.034 20.6553 113.034 21.29C113.034 21.3927 113.029 21.5 113.02 21.612C113.02 21.724 113.015 21.8407 113.006 21.962H107.728C107.765 22.5033 107.952 22.928 108.288 23.236C108.633 23.544 109.048 23.698 109.534 23.698C109.898 23.698 110.201 23.6187 110.444 23.46C110.696 23.292 110.882 23.0773 111.004 22.816H112.824C112.693 23.2547 112.474 23.656 112.166 24.02C111.867 24.3747 111.494 24.6547 111.046 24.86C110.607 25.0653 110.108 25.168 109.548 25.168ZM109.562 19.344C109.123 19.344 108.736 19.47 108.4 19.722C108.064 19.9647 107.849 20.338 107.756 20.842H111.214C111.186 20.3847 111.018 20.0207 110.71 19.75C110.402 19.4793 110.019 19.344 109.562 19.344Z" fill="#FCFCFD"/>
<path fill-rule="evenodd" clip-rule="evenodd" d="M135.395 16.8433C135.665 16.5936 136.087 16.6104 136.337 16.881L138.491 19.2143C138.726 19.4697 138.726 19.8633 138.491 20.1187L136.337 22.452C136.087 22.7226 135.665 22.7394 135.395 22.4897C135.124 22.24 135.107 21.8182 135.357 21.5477L136.478 20.3331L130.001 20.3331C129.632 20.3331 129.334 20.0347 129.334 19.6665C129.334 19.2983 129.632 18.9998 130.001 18.9998L136.478 18.9998L135.357 17.7854C135.107 17.5148 135.124 17.093 135.395 16.8433Z" fill="#FCFCFD"/>
<rect x="1" y="1" width="156" height="38" rx="19" stroke="#777E91" stroke-width="2"/>
</svg>
