<svg width="199" height="52" viewBox="0 0 199 52" fill="none" xmlns="http://www.w3.org/2000/svg">
<path d="M28.1447 21.624C29.0247 21.624 29.7967 21.796 30.4607 22.14C31.1327 22.484 31.6487 22.976 32.0087 23.616C32.3767 24.248 32.5607 24.984 32.5607 25.824C32.5607 26.664 32.3767 27.4 32.0087 28.032C31.6487 28.656 31.1327 29.14 30.4607 29.484C29.7967 29.828 29.0247 30 28.1447 30H25.2167V21.624H28.1447ZM28.0847 28.572C28.9647 28.572 29.6447 28.332 30.1247 27.852C30.6047 27.372 30.8447 26.696 30.8447 25.824C30.8447 24.952 30.6047 24.272 30.1247 23.784C29.6447 23.288 28.9647 23.04 28.0847 23.04H26.8967V28.572H28.0847ZM36.7702 30.108C36.1302 30.108 35.5542 29.968 35.0422 29.688C34.5302 29.4 34.1262 28.996 33.8302 28.476C33.5422 27.956 33.3982 27.356 33.3982 26.676C33.3982 25.996 33.5462 25.396 33.8422 24.876C34.1462 24.356 34.5582 23.956 35.0782 23.676C35.5982 23.388 36.1782 23.244 36.8182 23.244C37.4582 23.244 38.0382 23.388 38.5582 23.676C39.0782 23.956 39.4862 24.356 39.7822 24.876C40.0862 25.396 40.2382 25.996 40.2382 26.676C40.2382 27.356 40.0822 27.956 39.7702 28.476C39.4662 28.996 39.0502 29.4 38.5222 29.688C38.0022 29.968 37.4182 30.108 36.7702 30.108ZM36.7702 28.644C37.0742 28.644 37.3582 28.572 37.6222 28.428C37.8942 28.276 38.1102 28.052 38.2702 27.756C38.4302 27.46 38.5102 27.1 38.5102 26.676C38.5102 26.044 38.3422 25.56 38.0062 25.224C37.6782 24.88 37.2742 24.708 36.7942 24.708C36.3142 24.708 35.9102 24.88 35.5822 25.224C35.2622 25.56 35.1022 26.044 35.1022 26.676C35.1022 27.308 35.2582 27.796 35.5702 28.14C35.8902 28.476 36.2902 28.644 36.7702 28.644ZM45.1546 23.256C45.9466 23.256 46.5866 23.508 47.0746 24.012C47.5626 24.508 47.8066 25.204 47.8066 26.1V30H46.1266V26.328C46.1266 25.8 45.9946 25.396 45.7306 25.116C45.4666 24.828 45.1066 24.684 44.6506 24.684C44.1866 24.684 43.8186 24.828 43.5466 25.116C43.2826 25.396 43.1506 25.8 43.1506 26.328V30H41.4706V23.352H43.1506V24.18C43.3746 23.892 43.6586 23.668 44.0026 23.508C44.3546 23.34 44.7386 23.256 45.1546 23.256ZM49.7402 21.624H51.5042L50.2082 24.648H49.0562L49.7402 21.624ZM54.6649 24.732V27.948C54.6649 28.172 54.7169 28.336 54.8209 28.44C54.9329 28.536 55.1169 28.584 55.3729 28.584H56.1529V30H55.0969C53.6809 30 52.9729 29.312 52.9729 27.936V24.732H52.1809V23.352H52.9729V21.708H54.6649V23.352H56.1529V24.732H54.6649ZM63.9646 23.256C64.4686 23.256 64.9166 23.368 65.3086 23.592C65.7006 23.808 66.0046 24.132 66.2206 24.564C66.4446 24.988 66.5566 25.5 66.5566 26.1V30H64.8766V26.328C64.8766 25.8 64.7446 25.396 64.4806 25.116C64.2166 24.828 63.8566 24.684 63.4006 24.684C62.9366 24.684 62.5686 24.828 62.2966 25.116C62.0326 25.396 61.9006 25.8 61.9006 26.328V30H60.2206V21.12H61.9006V24.18C62.1166 23.892 62.4046 23.668 62.7646 23.508C63.1246 23.34 63.5246 23.256 63.9646 23.256ZM67.7222 26.652C67.7222 25.98 67.8542 25.384 68.1182 24.864C68.3902 24.344 68.7542 23.944 69.2102 23.664C69.6742 23.384 70.1902 23.244 70.7582 23.244C71.2542 23.244 71.6862 23.344 72.0542 23.544C72.4302 23.744 72.7302 23.996 72.9542 24.3V23.352H74.6462V30H72.9542V29.028C72.7382 29.34 72.4382 29.6 72.0542 29.808C71.6782 30.008 71.2422 30.108 70.7462 30.108C70.1862 30.108 69.6742 29.964 69.2102 29.676C68.7542 29.388 68.3902 28.984 68.1182 28.464C67.8542 27.936 67.7222 27.332 67.7222 26.652ZM72.9542 26.676C72.9542 26.268 72.8742 25.92 72.7142 25.632C72.5542 25.336 72.3382 25.112 72.0662 24.96C71.7942 24.8 71.5022 24.72 71.1902 24.72C70.8782 24.72 70.5902 24.796 70.3262 24.948C70.0622 25.1 69.8462 25.324 69.6782 25.62C69.5182 25.908 69.4382 26.252 69.4382 26.652C69.4382 27.052 69.5182 27.404 69.6782 27.708C69.8462 28.004 70.0622 28.232 70.3262 28.392C70.5982 28.552 70.8862 28.632 71.1902 28.632C71.5022 28.632 71.7942 28.556 72.0662 28.404C72.3382 28.244 72.5542 28.02 72.7142 27.732C72.8742 27.436 72.9542 27.084 72.9542 26.676ZM79.059 28.452L80.739 23.352H82.527L80.067 30H78.027L75.579 23.352H77.379L79.059 28.452ZM89.6506 26.532C89.6506 26.772 89.6346 26.988 89.6026 27.18H84.7426C84.7826 27.66 84.9506 28.036 85.2466 28.308C85.5426 28.58 85.9066 28.716 86.3386 28.716C86.9626 28.716 87.4066 28.448 87.6706 27.912H89.4826C89.2906 28.552 88.9226 29.08 88.3786 29.496C87.8346 29.904 87.1666 30.108 86.3746 30.108C85.7346 30.108 85.1586 29.968 84.6466 29.688C84.1426 29.4 83.7466 28.996 83.4586 28.476C83.1786 27.956 83.0386 27.356 83.0386 26.676C83.0386 25.988 83.1786 25.384 83.4586 24.864C83.7386 24.344 84.1306 23.944 84.6346 23.664C85.1386 23.384 85.7186 23.244 86.3746 23.244C87.0066 23.244 87.5706 23.38 88.0666 23.652C88.5706 23.924 88.9586 24.312 89.2306 24.816C89.5106 25.312 89.6506 25.884 89.6506 26.532ZM87.9106 26.052C87.9026 25.62 87.7466 25.276 87.4426 25.02C87.1386 24.756 86.7666 24.624 86.3266 24.624C85.9106 24.624 85.5586 24.752 85.2706 25.008C84.9906 25.256 84.8186 25.604 84.7546 26.052H87.9106ZM93.3042 26.652C93.3042 25.98 93.4362 25.384 93.7002 24.864C93.9722 24.344 94.3362 23.944 94.7922 23.664C95.2562 23.384 95.7722 23.244 96.3402 23.244C96.8362 23.244 97.2682 23.344 97.6362 23.544C98.0122 23.744 98.3122 23.996 98.5362 24.3V23.352H100.228V30H98.5362V29.028C98.3202 29.34 98.0202 29.6 97.6362 29.808C97.2602 30.008 96.8242 30.108 96.3282 30.108C95.7682 30.108 95.2562 29.964 94.7922 29.676C94.3362 29.388 93.9722 28.984 93.7002 28.464C93.4362 27.936 93.3042 27.332 93.3042 26.652ZM98.5362 26.676C98.5362 26.268 98.4562 25.92 98.2962 25.632C98.1362 25.336 97.9202 25.112 97.6482 24.96C97.3762 24.8 97.0842 24.72 96.7722 24.72C96.4602 24.72 96.1722 24.796 95.9082 24.948C95.6442 25.1 95.4282 25.324 95.2602 25.62C95.1002 25.908 95.0202 26.252 95.0202 26.652C95.0202 27.052 95.1002 27.404 95.2602 27.708C95.4282 28.004 95.6442 28.232 95.9082 28.392C96.1802 28.552 96.4682 28.632 96.7722 28.632C97.0842 28.632 97.3762 28.556 97.6482 28.404C97.9202 28.244 98.1362 28.02 98.2962 27.732C98.4562 27.436 98.5362 27.084 98.5362 26.676ZM113.944 23.352L112 30H110.188L108.976 25.356L107.764 30H105.94L103.984 23.352H105.688L106.864 28.416L108.136 23.352H109.912L111.16 28.404L112.336 23.352H113.944ZM114.421 26.652C114.421 25.98 114.553 25.384 114.817 24.864C115.089 24.344 115.453 23.944 115.909 23.664C116.373 23.384 116.889 23.244 117.457 23.244C117.953 23.244 118.385 23.344 118.753 23.544C119.129 23.744 119.429 23.996 119.653 24.3V23.352H121.345V30H119.653V29.028C119.437 29.34 119.137 29.6 118.753 29.808C118.377 30.008 117.941 30.108 117.445 30.108C116.885 30.108 116.373 29.964 115.909 29.676C115.453 29.388 115.089 28.984 114.817 28.464C114.553 27.936 114.421 27.332 114.421 26.652ZM119.653 26.676C119.653 26.268 119.573 25.92 119.413 25.632C119.253 25.336 119.037 25.112 118.765 24.96C118.493 24.8 118.201 24.72 117.889 24.72C117.577 24.72 117.289 24.796 117.025 24.948C116.761 25.1 116.545 25.324 116.377 25.62C116.217 25.908 116.137 26.252 116.137 26.652C116.137 27.052 116.217 27.404 116.377 27.708C116.545 28.004 116.761 28.232 117.025 28.392C117.297 28.552 117.585 28.632 117.889 28.632C118.201 28.632 118.493 28.556 118.765 28.404C119.037 28.244 119.253 28.02 119.413 27.732C119.573 27.436 119.653 27.084 119.653 26.676ZM124.666 21.12V30H122.986V21.12H124.666ZM128.006 21.12V30H126.326V21.12H128.006ZM135.846 26.532C135.846 26.772 135.83 26.988 135.798 27.18H130.938C130.978 27.66 131.146 28.036 131.442 28.308C131.738 28.58 132.102 28.716 132.534 28.716C133.158 28.716 133.602 28.448 133.866 27.912H135.678C135.486 28.552 135.118 29.08 134.574 29.496C134.03 29.904 133.362 30.108 132.57 30.108C131.93 30.108 131.354 29.968 130.842 29.688C130.338 29.4 129.942 28.996 129.654 28.476C129.374 27.956 129.234 27.356 129.234 26.676C129.234 25.988 129.374 25.384 129.654 24.864C129.934 24.344 130.326 23.944 130.83 23.664C131.334 23.384 131.914 23.244 132.57 23.244C133.202 23.244 133.766 23.38 134.262 23.652C134.766 23.924 135.154 24.312 135.426 24.816C135.706 25.312 135.846 25.884 135.846 26.532ZM134.106 26.052C134.098 25.62 133.942 25.276 133.638 25.02C133.334 24.756 132.962 24.624 132.522 24.624C132.106 24.624 131.754 24.752 131.466 25.008C131.186 25.256 131.014 25.604 130.95 26.052H134.106ZM139.028 24.732V27.948C139.028 28.172 139.08 28.336 139.184 28.44C139.296 28.536 139.48 28.584 139.736 28.584H140.516V30H139.46C138.044 30 137.336 29.312 137.336 27.936V24.732H136.544V23.352H137.336V21.708H139.028V23.352H140.516V24.732H139.028ZM144.152 26.652C144.152 25.98 144.284 25.384 144.548 24.864C144.82 24.344 145.184 23.944 145.64 23.664C146.104 23.384 146.62 23.244 147.188 23.244C147.684 23.244 148.116 23.344 148.484 23.544C148.86 23.744 149.16 23.996 149.384 24.3V23.352H151.076V30H149.384V29.028C149.168 29.34 148.868 29.6 148.484 29.808C148.108 30.008 147.672 30.108 147.176 30.108C146.616 30.108 146.104 29.964 145.64 29.676C145.184 29.388 144.82 28.984 144.548 28.464C144.284 27.936 144.152 27.332 144.152 26.652ZM149.384 26.676C149.384 26.268 149.304 25.92 149.144 25.632C148.984 25.336 148.768 25.112 148.496 24.96C148.224 24.8 147.932 24.72 147.62 24.72C147.308 24.72 147.02 24.796 146.756 24.948C146.492 25.1 146.276 25.324 146.108 25.62C145.948 25.908 145.868 26.252 145.868 26.652C145.868 27.052 145.948 27.404 146.108 27.708C146.276 28.004 146.492 28.232 146.756 28.392C147.028 28.552 147.316 28.632 147.62 28.632C147.932 28.632 148.224 28.556 148.496 28.404C148.768 28.244 148.984 28.02 149.144 27.732C149.304 27.436 149.384 27.084 149.384 26.676ZM154.397 24.312C154.613 24.008 154.909 23.756 155.285 23.556C155.669 23.348 156.105 23.244 156.593 23.244C157.161 23.244 157.673 23.384 158.129 23.664C158.593 23.944 158.957 24.344 159.221 24.864C159.493 25.376 159.629 25.972 159.629 26.652C159.629 27.332 159.493 27.936 159.221 28.464C158.957 28.984 158.593 29.388 158.129 29.676C157.673 29.964 157.161 30.108 156.593 30.108C156.105 30.108 155.673 30.008 155.297 29.808C154.929 29.608 154.629 29.356 154.397 29.052V33.168H152.717V23.352H154.397V24.312ZM157.913 26.652C157.913 26.252 157.829 25.908 157.661 25.62C157.501 25.324 157.285 25.1 157.013 24.948C156.749 24.796 156.461 24.72 156.149 24.72C155.845 24.72 155.557 24.8 155.285 24.96C155.021 25.112 154.805 25.336 154.637 25.632C154.477 25.928 154.397 26.276 154.397 26.676C154.397 27.076 154.477 27.424 154.637 27.72C154.805 28.016 155.021 28.244 155.285 28.404C155.557 28.556 155.845 28.632 156.149 28.632C156.461 28.632 156.749 28.552 157.013 28.392C157.285 28.232 157.501 28.004 157.661 27.708C157.829 27.412 157.913 27.06 157.913 26.652ZM162.529 24.312C162.745 24.008 163.041 23.756 163.417 23.556C163.801 23.348 164.237 23.244 164.725 23.244C165.293 23.244 165.805 23.384 166.261 23.664C166.725 23.944 167.089 24.344 167.353 24.864C167.625 25.376 167.761 25.972 167.761 26.652C167.761 27.332 167.625 27.936 167.353 28.464C167.089 28.984 166.725 29.388 166.261 29.676C165.805 29.964 165.293 30.108 164.725 30.108C164.237 30.108 163.805 30.008 163.429 29.808C163.061 29.608 162.761 29.356 162.529 29.052V33.168H160.849V23.352H162.529V24.312ZM166.045 26.652C166.045 26.252 165.961 25.908 165.793 25.62C165.633 25.324 165.417 25.1 165.145 24.948C164.881 24.796 164.593 24.72 164.281 24.72C163.977 24.72 163.689 24.8 163.417 24.96C163.153 25.112 162.937 25.336 162.769 25.632C162.609 25.928 162.529 26.276 162.529 26.676C162.529 27.076 162.609 27.424 162.769 27.72C162.937 28.016 163.153 28.244 163.417 28.404C163.689 28.556 163.977 28.632 164.281 28.632C164.593 28.632 164.881 28.552 165.145 28.392C165.417 28.232 165.633 28.004 165.793 27.708C165.961 27.412 166.045 27.06 166.045 26.652ZM171.322 21.336C172.154 21.336 172.822 21.564 173.326 22.02C173.838 22.468 174.094 23.088 174.094 23.88C174.094 24.664 173.842 25.264 173.338 25.68C172.834 26.088 172.166 26.292 171.334 26.292L171.286 27.216H169.81L169.75 25.176H170.29C170.986 25.176 171.522 25.084 171.898 24.9C172.274 24.716 172.462 24.38 172.462 23.892C172.462 23.54 172.358 23.26 172.15 23.052C171.95 22.844 171.674 22.74 171.322 22.74C170.954 22.74 170.666 22.84 170.458 23.04C170.258 23.24 170.158 23.516 170.158 23.868H168.574C168.566 23.38 168.67 22.944 168.886 22.56C169.102 22.176 169.418 21.876 169.834 21.66C170.258 21.444 170.754 21.336 171.322 21.336ZM170.542 30.084C170.238 30.084 169.986 29.992 169.786 29.808C169.594 29.616 169.498 29.38 169.498 29.1C169.498 28.82 169.594 28.588 169.786 28.404C169.986 28.212 170.238 28.116 170.542 28.116C170.838 28.116 171.082 28.212 171.274 28.404C171.466 28.588 171.562 28.82 171.562 29.1C171.562 29.38 171.466 29.616 171.274 29.808C171.082 29.992 170.838 30.084 170.542 30.084Z" fill="#FCFCFD"/>
<rect x="1" y="1" width="197" height="50" rx="25" stroke="#353945" stroke-width="2"/>
</svg>
