<svg width="134" height="40" viewBox="0 0 134 40" fill="none" xmlns="http://www.w3.org/2000/svg">
<path d="M17.2333 25V15.2H23.6313V16.642H19.0253V19.33H23.2113V20.73H19.0253V23.558H23.6313V25H17.2333ZM28.477 25.168C27.8237 25.168 27.2403 25.0093 26.727 24.692C26.2137 24.3747 25.8077 23.9407 25.509 23.39C25.2103 22.8393 25.061 22.214 25.061 21.514C25.061 20.814 25.2103 20.1933 25.509 19.652C25.8077 19.1013 26.2137 18.672 26.727 18.364C27.2403 18.0467 27.8237 17.888 28.477 17.888C28.9997 17.888 29.457 17.986 29.849 18.182C30.241 18.378 30.5583 18.6533 30.801 19.008V14.92H32.593V25H30.997L30.801 24.006C30.577 24.314 30.2783 24.5847 29.905 24.818C29.541 25.0513 29.065 25.168 28.477 25.168ZM28.855 23.6C29.4337 23.6 29.905 23.4087 30.269 23.026C30.6423 22.634 30.829 22.1347 30.829 21.528C30.829 20.9213 30.6423 20.4267 30.269 20.044C29.905 19.652 29.4337 19.456 28.855 19.456C28.2857 19.456 27.8143 19.6473 27.441 20.03C27.0677 20.4127 26.881 20.9073 26.881 21.514C26.881 22.1207 27.0677 22.62 27.441 23.012C27.8143 23.404 28.2857 23.6 28.855 23.6ZM35.3838 16.978C35.0571 16.978 34.7865 16.88 34.5718 16.684C34.3665 16.488 34.2638 16.2407 34.2638 15.942C34.2638 15.6433 34.3665 15.4007 34.5718 15.214C34.7865 15.018 35.0571 14.92 35.3838 14.92C35.7105 14.92 35.9765 15.018 36.1818 15.214C36.3965 15.4007 36.5038 15.6433 36.5038 15.942C36.5038 16.2407 36.3965 16.488 36.1818 16.684C35.9765 16.88 35.7105 16.978 35.3838 16.978ZM34.4878 25V18.056H36.2798V25H34.4878ZM41.2442 25C40.5162 25 39.9329 24.8227 39.4942 24.468C39.0556 24.1133 38.8362 23.4833 38.8362 22.578V19.554H37.6462V18.056H38.8362L39.0462 16.194H40.6282V18.056H42.5042V19.554H40.6282V22.592C40.6282 22.928 40.6982 23.1613 40.8382 23.292C40.9876 23.4133 41.2396 23.474 41.5942 23.474H42.4622V25H41.2442ZM47.3788 28.08V18.056H48.9748L49.1708 19.05C49.3948 18.742 49.6888 18.4713 50.0528 18.238C50.4261 18.0047 50.9068 17.888 51.4948 17.888C52.1481 17.888 52.7314 18.0467 53.2448 18.364C53.7581 18.6813 54.1641 19.1153 54.4628 19.666C54.7614 20.2167 54.9108 20.842 54.9108 21.542C54.9108 22.242 54.7614 22.8673 54.4628 23.418C54.1641 23.9593 53.7581 24.3887 53.2448 24.706C52.7314 25.014 52.1481 25.168 51.4948 25.168C50.9721 25.168 50.5148 25.07 50.1228 24.874C49.7308 24.678 49.4134 24.4027 49.1708 24.048V28.08H47.3788ZM51.1168 23.6C51.6861 23.6 52.1574 23.4087 52.5308 23.026C52.9041 22.6433 53.0908 22.1487 53.0908 21.542C53.0908 20.9353 52.9041 20.436 52.5308 20.044C52.1574 19.652 51.6861 19.456 51.1168 19.456C50.5381 19.456 50.0621 19.652 49.6888 20.044C49.3248 20.4267 49.1428 20.9213 49.1428 21.528C49.1428 22.1347 49.3248 22.634 49.6888 23.026C50.0621 23.4087 50.5381 23.6 51.1168 23.6ZM56.5116 25V18.056H58.1076L58.2756 19.358C58.5276 18.91 58.8682 18.5553 59.2976 18.294C59.7362 18.0233 60.2496 17.888 60.8376 17.888V19.778H60.3336C59.9416 19.778 59.5916 19.8387 59.2836 19.96C58.9756 20.0813 58.7329 20.2913 58.5556 20.59C58.3876 20.8887 58.3036 21.304 58.3036 21.836V25H56.5116ZM65.2713 25.168C64.5993 25.168 63.9926 25.014 63.4513 24.706C62.9193 24.398 62.4946 23.9733 62.1773 23.432C61.8693 22.8813 61.7153 22.2467 61.7153 21.528C61.7153 20.8093 61.874 20.1793 62.1913 19.638C62.5086 19.0873 62.9333 18.658 63.4653 18.35C64.0066 18.042 64.6133 17.888 65.2853 17.888C65.948 17.888 66.5453 18.042 67.0773 18.35C67.6186 18.658 68.0433 19.0873 68.3513 19.638C68.6686 20.1793 68.8273 20.8093 68.8273 21.528C68.8273 22.2467 68.6686 22.8813 68.3513 23.432C68.0433 23.9733 67.6186 24.398 67.0773 24.706C66.536 25.014 65.934 25.168 65.2713 25.168ZM65.2713 23.614C65.738 23.614 66.144 23.4413 66.4893 23.096C66.8346 22.7413 67.0073 22.2187 67.0073 21.528C67.0073 20.8373 66.8346 20.3193 66.4893 19.974C66.144 19.6193 65.7426 19.442 65.2853 19.442C64.8093 19.442 64.3986 19.6193 64.0533 19.974C63.7173 20.3193 63.5493 20.8373 63.5493 21.528C63.5493 22.2187 63.7173 22.7413 64.0533 23.096C64.3986 23.4413 64.8046 23.614 65.2713 23.614ZM70.7515 25V19.554H69.7995V18.056H70.7515V17.244C70.7515 16.404 70.9615 15.8067 71.3815 15.452C71.8109 15.0973 72.3895 14.92 73.1175 14.92H73.8875V16.446H73.3975C73.0895 16.446 72.8702 16.5067 72.7395 16.628C72.6089 16.7493 72.5435 16.9547 72.5435 17.244V18.056H77.0235V25H75.2315V19.554H72.5435V25H70.7515ZM76.1415 17.062C75.8149 17.062 75.5442 16.964 75.3295 16.768C75.1242 16.572 75.0215 16.3247 75.0215 16.026C75.0215 15.7273 75.1242 15.4847 75.3295 15.298C75.5442 15.102 75.8149 15.004 76.1415 15.004C76.4682 15.004 76.7342 15.102 76.9395 15.298C77.1542 15.4847 77.2615 15.7273 77.2615 16.026C77.2615 16.3247 77.1542 16.572 76.9395 16.768C76.7342 16.964 76.4682 17.062 76.1415 17.062ZM78.9198 25V14.92H80.7118V25H78.9198ZM85.9168 25.168C85.2168 25.168 84.5961 25.0187 84.0548 24.72C83.5135 24.4213 83.0888 24.0013 82.7808 23.46C82.4728 22.9187 82.3188 22.2933 82.3188 21.584C82.3188 20.8653 82.4681 20.226 82.7668 19.666C83.0748 19.106 83.4948 18.672 84.0268 18.364C84.5681 18.0467 85.2028 17.888 85.9308 17.888C86.6121 17.888 87.2141 18.0373 87.7368 18.336C88.2595 18.6347 88.6655 19.0453 88.9548 19.568C89.2535 20.0813 89.4028 20.6553 89.4028 21.29C89.4028 21.3927 89.3981 21.5 89.3888 21.612C89.3888 21.724 89.3841 21.8407 89.3748 21.962H84.0968C84.1341 22.5033 84.3208 22.928 84.6568 23.236C85.0021 23.544 85.4175 23.698 85.9028 23.698C86.2668 23.698 86.5701 23.6187 86.8128 23.46C87.0648 23.292 87.2515 23.0773 87.3728 22.816H89.1928C89.0621 23.2547 88.8428 23.656 88.5348 24.02C88.2361 24.3747 87.8628 24.6547 87.4148 24.86C86.9761 25.0653 86.4768 25.168 85.9168 25.168ZM85.9308 19.344C85.4921 19.344 85.1048 19.47 84.7688 19.722C84.4328 19.9647 84.2181 20.338 84.1248 20.842H87.5828C87.5548 20.3847 87.3868 20.0207 87.0788 19.75C86.7708 19.4793 86.3881 19.344 85.9308 19.344Z" fill="#FCFCFD"/>
<path d="M104 26.6667C104 26.2985 104.298 26 104.667 26H115.333C115.702 26 116 26.2985 116 26.6667C116 27.0349 115.702 27.3333 115.333 27.3333H104.667C104.298 27.3333 104 27.0349 104 26.6667Z" fill="#FCFCFD"/>
<path fill-rule="evenodd" clip-rule="evenodd" d="M113.138 14.0808C112.878 13.8205 112.456 13.8205 112.195 14.0808L111.609 14.6666L114 17.0571L114.586 16.4714C114.846 16.211 114.846 15.7889 114.586 15.5286L113.138 14.0808ZM106.609 19.6666L110.667 15.6094L113.057 17.9999L109 22.0571L106.609 19.6666ZM105.667 20.6094L105.333 20.9428V23.3333H107.724L108.057 22.9999L105.667 20.6094ZM111.252 13.138C112.034 12.357 113.3 12.357 114.081 13.138L115.529 14.5857C116.31 15.3668 116.31 16.6331 115.529 17.4142L108.667 24.2761C108.417 24.5262 108.077 24.6666 107.724 24.6666H105.333C104.597 24.6666 104 24.0697 104 23.3333V20.9428C104 20.5891 104.14 20.25 104.391 20L111.252 13.138Z" fill="#FCFCFD"/>
<rect x="1" y="1" width="132" height="38" rx="19" stroke="#777E91" stroke-width="2"/>
</svg>
