<svg width="172" height="40" viewBox="0 0 172 40" fill="none" xmlns="http://www.w3.org/2000/svg">
<path d="M17.4989 25V15.2H23.8969V16.642H19.2909V19.33H23.4769V20.73H19.2909V23.558H23.8969V25H17.4989ZM28.7426 25.168C28.0893 25.168 27.506 25.0093 26.9926 24.692C26.4793 24.3747 26.0733 23.9407 25.7746 23.39C25.476 22.8393 25.3266 22.214 25.3266 21.514C25.3266 20.814 25.476 20.1933 25.7746 19.652C26.0733 19.1013 26.4793 18.672 26.9926 18.364C27.506 18.0467 28.0893 17.888 28.7426 17.888C29.2653 17.888 29.7226 17.986 30.1146 18.182C30.5066 18.378 30.824 18.6533 31.0666 19.008V14.92H32.8586V25H31.2626L31.0666 24.006C30.8426 24.314 30.544 24.5847 30.1706 24.818C29.8066 25.0513 29.3306 25.168 28.7426 25.168ZM29.1206 23.6C29.6993 23.6 30.1706 23.4087 30.5346 23.026C30.908 22.634 31.0946 22.1347 31.0946 21.528C31.0946 20.9213 30.908 20.4267 30.5346 20.044C30.1706 19.652 29.6993 19.456 29.1206 19.456C28.5513 19.456 28.08 19.6473 27.7066 20.03C27.3333 20.4127 27.1466 20.9073 27.1466 21.514C27.1466 22.1207 27.3333 22.62 27.7066 23.012C28.08 23.404 28.5513 23.6 29.1206 23.6ZM35.6494 16.978C35.3228 16.978 35.0521 16.88 34.8374 16.684C34.6321 16.488 34.5294 16.2407 34.5294 15.942C34.5294 15.6433 34.6321 15.4007 34.8374 15.214C35.0521 15.018 35.3228 14.92 35.6494 14.92C35.9761 14.92 36.2421 15.018 36.4474 15.214C36.6621 15.4007 36.7694 15.6433 36.7694 15.942C36.7694 16.2407 36.6621 16.488 36.4474 16.684C36.2421 16.88 35.9761 16.978 35.6494 16.978ZM34.7534 25V18.056H36.5454V25H34.7534ZM41.5099 25C40.7819 25 40.1985 24.8227 39.7599 24.468C39.3212 24.1133 39.1019 23.4833 39.1019 22.578V19.554H37.9119V18.056H39.1019L39.3119 16.194H40.8939V18.056H42.7699V19.554H40.8939V22.592C40.8939 22.928 40.9639 23.1613 41.1039 23.292C41.2532 23.4133 41.5052 23.474 41.8599 23.474H42.7279V25H41.5099ZM51.0464 25.168C50.337 25.168 49.7117 25.014 49.1704 24.706C48.629 24.398 48.1997 23.9687 47.8824 23.418C47.5744 22.8673 47.4204 22.2373 47.4204 21.528C47.4204 20.8187 47.5744 20.1887 47.8824 19.638C48.1997 19.0873 48.629 18.658 49.1704 18.35C49.7117 18.042 50.337 17.888 51.0464 17.888C51.933 17.888 52.6797 18.1213 53.2864 18.588C53.893 19.0453 54.2804 19.68 54.4484 20.492H52.5584C52.465 20.156 52.2784 19.8947 51.9984 19.708C51.7277 19.512 51.4057 19.414 51.0324 19.414C50.5377 19.414 50.1177 19.6007 49.7724 19.974C49.427 20.3473 49.2544 20.8653 49.2544 21.528C49.2544 22.1907 49.427 22.7087 49.7724 23.082C50.1177 23.4553 50.5377 23.642 51.0324 23.642C51.4057 23.642 51.7277 23.5487 51.9984 23.362C52.2784 23.1753 52.465 22.9093 52.5584 22.564H54.4484C54.2804 23.348 53.893 23.978 53.2864 24.454C52.6797 24.93 51.933 25.168 51.0464 25.168ZM59.3709 25.168C58.6989 25.168 58.0922 25.014 57.5509 24.706C57.0189 24.398 56.5942 23.9733 56.2769 23.432C55.9689 22.8813 55.8149 22.2467 55.8149 21.528C55.8149 20.8093 55.9736 20.1793 56.2909 19.638C56.6082 19.0873 57.0329 18.658 57.5649 18.35C58.1062 18.042 58.7129 17.888 59.3849 17.888C60.0476 17.888 60.6449 18.042 61.1769 18.35C61.7182 18.658 62.1429 19.0873 62.4509 19.638C62.7682 20.1793 62.9269 20.8093 62.9269 21.528C62.9269 22.2467 62.7682 22.8813 62.4509 23.432C62.1429 23.9733 61.7182 24.398 61.1769 24.706C60.6356 25.014 60.0336 25.168 59.3709 25.168ZM59.3709 23.614C59.8376 23.614 60.2436 23.4413 60.5889 23.096C60.9342 22.7413 61.1069 22.2187 61.1069 21.528C61.1069 20.8373 60.9342 20.3193 60.5889 19.974C60.2436 19.6193 59.8422 19.442 59.3849 19.442C58.9089 19.442 58.4982 19.6193 58.1529 19.974C57.8169 20.3193 57.6489 20.8373 57.6489 21.528C57.6489 22.2187 57.8169 22.7413 58.1529 23.096C58.4982 23.4413 58.9042 23.614 59.3709 23.614ZM66.0633 25L63.5153 18.056H65.3913L67.1553 23.306L68.9193 18.056H70.7953L68.2333 25H66.0633ZM74.9578 25.168C74.2578 25.168 73.6372 25.0187 73.0958 24.72C72.5545 24.4213 72.1298 24.0013 71.8218 23.46C71.5138 22.9187 71.3598 22.2933 71.3598 21.584C71.3598 20.8653 71.5092 20.226 71.8078 19.666C72.1158 19.106 72.5358 18.672 73.0678 18.364C73.6092 18.0467 74.2438 17.888 74.9718 17.888C75.6532 17.888 76.2552 18.0373 76.7778 18.336C77.3005 18.6347 77.7065 19.0453 77.9958 19.568C78.2945 20.0813 78.4438 20.6553 78.4438 21.29C78.4438 21.3927 78.4392 21.5 78.4298 21.612C78.4298 21.724 78.4252 21.8407 78.4158 21.962H73.1378C73.1752 22.5033 73.3618 22.928 73.6978 23.236C74.0432 23.544 74.4585 23.698 74.9438 23.698C75.3078 23.698 75.6112 23.6187 75.8538 23.46C76.1058 23.292 76.2925 23.0773 76.4138 22.816H78.2338C78.1032 23.2547 77.8838 23.656 77.5758 24.02C77.2772 24.3747 76.9038 24.6547 76.4558 24.86C76.0172 25.0653 75.5178 25.168 74.9578 25.168ZM74.9718 19.344C74.5332 19.344 74.1458 19.47 73.8098 19.722C73.4738 19.9647 73.2592 20.338 73.1658 20.842H76.6238C76.5958 20.3847 76.4278 20.0207 76.1198 19.75C75.8118 19.4793 75.4292 19.344 74.9718 19.344ZM79.951 25V18.056H81.547L81.715 19.358C81.967 18.91 82.3077 18.5553 82.737 18.294C83.1757 18.0233 83.689 17.888 84.277 17.888V19.778H83.773C83.381 19.778 83.031 19.8387 82.723 19.96C82.415 20.0813 82.1723 20.2913 81.995 20.59C81.827 20.8887 81.743 21.304 81.743 21.836V25H79.951ZM88.8377 28.08V18.056H90.4337L90.6297 19.05C90.8537 18.742 91.1477 18.4713 91.5117 18.238C91.8851 18.0047 92.3657 17.888 92.9537 17.888C93.6071 17.888 94.1904 18.0467 94.7037 18.364C95.2171 18.6813 95.6231 19.1153 95.9217 19.666C96.2204 20.2167 96.3697 20.842 96.3697 21.542C96.3697 22.242 96.2204 22.8673 95.9217 23.418C95.6231 23.9593 95.2171 24.3887 94.7037 24.706C94.1904 25.014 93.6071 25.168 92.9537 25.168C92.4311 25.168 91.9737 25.07 91.5817 24.874C91.1897 24.678 90.8724 24.4027 90.6297 24.048V28.08H88.8377ZM92.5757 23.6C93.1451 23.6 93.6164 23.4087 93.9897 23.026C94.3631 22.6433 94.5497 22.1487 94.5497 21.542C94.5497 20.9353 94.3631 20.436 93.9897 20.044C93.6164 19.652 93.1451 19.456 92.5757 19.456C91.9971 19.456 91.5211 19.652 91.1477 20.044C90.7837 20.4267 90.6017 20.9213 90.6017 21.528C90.6017 22.1347 90.7837 22.634 91.1477 23.026C91.5211 23.4087 91.9971 23.6 92.5757 23.6ZM97.9705 25V14.92H99.7625V19.12C99.9959 18.7373 100.309 18.4387 100.701 18.224C101.102 18 101.559 17.888 102.073 17.888C102.931 17.888 103.594 18.1587 104.061 18.7C104.537 19.2413 104.775 20.0347 104.775 21.08V25H102.997V21.248C102.997 20.6507 102.875 20.1933 102.633 19.876C102.399 19.5587 102.026 19.4 101.513 19.4C101.009 19.4 100.589 19.5773 100.253 19.932C99.9259 20.2867 99.7625 20.7813 99.7625 21.416V25H97.9705ZM109.82 25.168C109.148 25.168 108.541 25.014 108 24.706C107.468 24.398 107.043 23.9733 106.726 23.432C106.418 22.8813 106.264 22.2467 106.264 21.528C106.264 20.8093 106.423 20.1793 106.74 19.638C107.057 19.0873 107.482 18.658 108.014 18.35C108.555 18.042 109.162 17.888 109.834 17.888C110.497 17.888 111.094 18.042 111.626 18.35C112.167 18.658 112.592 19.0873 112.9 19.638C113.217 20.1793 113.376 20.8093 113.376 21.528C113.376 22.2467 113.217 22.8813 112.9 23.432C112.592 23.9733 112.167 24.398 111.626 24.706C111.085 25.014 110.483 25.168 109.82 25.168ZM109.82 23.614C110.287 23.614 110.693 23.4413 111.038 23.096C111.383 22.7413 111.556 22.2187 111.556 21.528C111.556 20.8373 111.383 20.3193 111.038 19.974C110.693 19.6193 110.291 19.442 109.834 19.442C109.358 19.442 108.947 19.6193 108.602 19.974C108.266 20.3193 108.098 20.8373 108.098 21.528C108.098 22.2187 108.266 22.7413 108.602 23.096C108.947 23.4413 109.353 23.614 109.82 23.614ZM117.799 25C117.071 25 116.488 24.8227 116.049 24.468C115.61 24.1133 115.391 23.4833 115.391 22.578V19.554H114.201V18.056H115.391L115.601 16.194H117.183V18.056H119.059V19.554H117.183V22.592C117.183 22.928 117.253 23.1613 117.393 23.292C117.542 23.4133 117.794 23.474 118.149 23.474H119.017V25H117.799ZM123.752 25.168C123.08 25.168 122.473 25.014 121.932 24.706C121.4 24.398 120.975 23.9733 120.658 23.432C120.35 22.8813 120.196 22.2467 120.196 21.528C120.196 20.8093 120.354 20.1793 120.672 19.638C120.989 19.0873 121.414 18.658 121.946 18.35C122.487 18.042 123.094 17.888 123.766 17.888C124.428 17.888 125.026 18.042 125.558 18.35C126.099 18.658 126.524 19.0873 126.832 19.638C127.149 20.1793 127.308 20.8093 127.308 21.528C127.308 22.2467 127.149 22.8813 126.832 23.432C126.524 23.9733 126.099 24.398 125.558 24.706C125.016 25.014 124.414 25.168 123.752 25.168ZM123.752 23.614C124.218 23.614 124.624 23.4413 124.97 23.096C125.315 22.7413 125.488 22.2187 125.488 21.528C125.488 20.8373 125.315 20.3193 124.97 19.974C124.624 19.6193 124.223 19.442 123.766 19.442C123.29 19.442 122.879 19.6193 122.534 19.974C122.198 20.3193 122.03 20.8373 122.03 21.528C122.03 22.2187 122.198 22.7413 122.534 23.096C122.879 23.4413 123.285 23.614 123.752 23.614Z" fill="#FCFCFD"/>
<path fill-rule="evenodd" clip-rule="evenodd" d="M148 14.6668C146.699 14.6668 145.499 14.7742 144.536 14.9013C143.669 15.0158 143.016 15.6693 142.901 16.536C142.774 17.4989 142.667 18.6987 142.667 20.0002C142.667 21.3017 142.774 22.5014 142.901 23.4644C143.016 24.331 143.669 24.9845 144.536 25.099C145.499 25.2262 146.699 25.3335 148 25.3335C149.302 25.3335 150.501 25.2262 151.464 25.099C152.331 24.9845 152.985 24.331 153.099 23.4644C153.226 22.5014 153.333 21.3017 153.333 20.0002C153.333 18.6987 153.226 17.4989 153.099 16.536C152.985 15.6693 152.331 15.0158 151.464 14.9013C150.501 14.7742 149.302 14.6668 148 14.6668ZM144.361 13.5795C142.897 13.7729 141.773 14.8969 141.579 16.3614C141.447 17.3682 141.333 18.6277 141.333 20.0002C141.333 21.3726 141.447 22.6321 141.579 23.6389C141.773 25.1035 142.897 26.2274 144.361 26.4208C145.368 26.5538 146.628 26.6668 148 26.6668C149.373 26.6668 150.632 26.5538 151.639 26.4208C153.103 26.2274 154.227 25.1035 154.421 23.6389C154.554 22.6321 154.667 21.3726 154.667 20.0002C154.667 18.6277 154.554 17.3682 154.421 16.3614C154.227 14.8969 153.103 13.7729 151.639 13.5795C150.632 13.4465 149.373 13.3335 148 13.3335C146.628 13.3335 145.368 13.4465 144.361 13.5795Z" fill="#FCFCFD"/>
<path d="M146 19.3332C146.736 19.3332 147.333 18.7362 147.333 17.9998C147.333 17.2635 146.736 16.6665 146 16.6665C145.264 16.6665 144.667 17.2635 144.667 17.9998C144.667 18.7362 145.264 19.3332 146 19.3332Z" fill="#FCFCFD"/>
<path d="M152.081 20.4714L153.277 21.6676C153.236 22.2917 153.175 22.8709 153.109 23.3852L151.138 21.4142C150.878 21.1538 150.456 21.1538 150.195 21.4142L148.747 22.8619C147.966 23.6429 146.7 23.6429 145.919 22.8619L145.805 22.7475C145.544 22.4872 145.122 22.4872 144.862 22.7475L143.256 24.3536C143.07 24.1013 142.945 23.7985 142.901 23.464C142.877 23.2816 142.854 23.0907 142.832 22.8922L143.919 21.8047C144.7 21.0236 145.966 21.0237 146.747 21.8047L146.862 21.9191C147.122 22.1794 147.544 22.1794 147.805 21.9191L149.252 20.4714C150.033 19.6903 151.3 19.6903 152.081 20.4714Z" fill="#FCFCFD"/>
<rect x="1" y="1" width="170" height="38" rx="19" stroke="#777E91" stroke-width="2"/>
</svg>
