<svg width="66" height="26" viewBox="0 0 66 26" fill="none" xmlns="http://www.w3.org/2000/svg">
<path d="M8.54 13.5C8.54 12.124 8.804 11.04 9.332 10.248C9.868 9.456 10.728 9.06 11.912 9.06C13.096 9.06 13.952 9.456 14.48 10.248C15.016 11.04 15.284 12.124 15.284 13.5C15.284 14.892 15.016 15.984 14.48 16.776C13.952 17.568 13.096 17.964 11.912 17.964C10.728 17.964 9.868 17.568 9.332 16.776C8.804 15.984 8.54 14.892 8.54 13.5ZM13.268 13.5C13.268 12.692 13.18 12.072 13.004 11.64C12.828 11.2 12.464 10.98 11.912 10.98C11.36 10.98 10.996 11.2 10.82 11.64C10.644 12.072 10.556 12.692 10.556 13.5C10.556 14.044 10.588 14.496 10.652 14.856C10.716 15.208 10.844 15.496 11.036 15.72C11.236 15.936 11.528 16.044 11.912 16.044C12.296 16.044 12.584 15.936 12.776 15.72C12.976 15.496 13.108 15.208 13.172 14.856C13.236 14.496 13.268 14.044 13.268 13.5ZM17.5321 18.096C17.1721 18.096 16.8761 17.992 16.6441 17.784C16.4201 17.568 16.3081 17.304 16.3081 16.992C16.3081 16.672 16.4201 16.404 16.6441 16.188C16.8761 15.972 17.1721 15.864 17.5321 15.864C17.8841 15.864 18.1721 15.972 18.3961 16.188C18.6281 16.404 18.7441 16.672 18.7441 16.992C18.7441 17.304 18.6281 17.568 18.3961 17.784C18.1721 17.992 17.8841 18.096 17.5321 18.096ZM19.6828 16.356C19.9548 16.14 20.0788 16.04 20.0548 16.056C20.8388 15.408 21.4548 14.876 21.9028 14.46C22.3588 14.044 22.7428 13.608 23.0548 13.152C23.3668 12.696 23.5228 12.252 23.5228 11.82C23.5228 11.492 23.4468 11.236 23.2948 11.052C23.1428 10.868 22.9148 10.776 22.6108 10.776C22.3068 10.776 22.0668 10.892 21.8908 11.124C21.7228 11.348 21.6388 11.668 21.6388 12.084H19.6588C19.6748 11.404 19.8188 10.836 20.0908 10.38C20.3708 9.924 20.7348 9.588 21.1828 9.372C21.6388 9.156 22.1428 9.048 22.6948 9.048C23.6468 9.048 24.3628 9.292 24.8428 9.78C25.3308 10.268 25.5748 10.904 25.5748 11.688C25.5748 12.544 25.2828 13.34 24.6988 14.076C24.1148 14.804 23.3708 15.516 22.4668 16.212H25.7068V17.88H19.6828V16.356ZM32.2023 10.776L29.1903 18H27.0903L30.1383 11.004H26.4063V9.252H32.2023V10.776ZM37.8312 11.22V12.924H40.5792V14.508H37.8312V16.356H40.9392V18H35.7792V9.576H40.9392V11.22H37.8312ZM48.3313 9.576V11.22H46.0993V18H44.0473V11.22H41.8153V9.576H48.3313ZM56.6572 9.576V18H54.6052V14.532H51.4132V18H49.3612V9.576H51.4132V12.876H54.6052V9.576H56.6572Z" fill="#45B36B"/>
<rect x="1" y="1" width="64" height="24" rx="3" stroke="#45B36B" stroke-width="2"/>
</svg>
