<svg width="116" height="48" viewBox="0 0 116 48" fill="none" xmlns="http://www.w3.org/2000/svg">
<rect width="116" height="48" rx="24" fill="#3772FF"/>
<path d="M25.088 29V17.8H32.32V19.448H27.136V22.584H31.328V24.2H27.136V29H25.088ZM34.9565 19.832C34.5832 19.832 34.2738 19.72 34.0285 19.496C33.7938 19.272 33.6765 18.9893 33.6765 18.648C33.6765 18.3067 33.7938 18.0293 34.0285 17.816C34.2738 17.592 34.5832 17.48 34.9565 17.48C35.3298 17.48 35.6338 17.592 35.8685 17.816C36.1138 18.0293 36.2365 18.3067 36.2365 18.648C36.2365 18.9893 36.1138 19.272 35.8685 19.496C35.6338 19.72 35.3298 19.832 34.9565 19.832ZM33.9325 29V21.064H35.9805V29H33.9325ZM38.1181 29V17.48H40.1661V29H38.1181ZM45.7948 29C44.9628 29 44.2961 28.7973 43.7948 28.392C43.2934 27.9867 43.0428 27.2667 43.0428 26.232V22.776H41.6828V21.064H43.0428L43.2828 18.936H45.0908V21.064H47.2348V22.776H45.0908V26.248C45.0908 26.632 45.1708 26.8987 45.3307 27.048C45.5014 27.1867 45.7894 27.256 46.1948 27.256H47.1868V29H45.7948ZM52.646 29.192C51.846 29.192 51.1367 29.0213 50.518 28.68C49.8993 28.3387 49.414 27.8587 49.062 27.24C48.71 26.6213 48.534 25.9067 48.534 25.096C48.534 24.2747 48.7047 23.544 49.046 22.904C49.398 22.264 49.878 21.768 50.486 21.416C51.1047 21.0533 51.83 20.872 52.662 20.872C53.4407 20.872 54.1287 21.0427 54.726 21.384C55.3233 21.7253 55.7873 22.1947 56.118 22.792C56.4593 23.3787 56.63 24.0347 56.63 24.76C56.63 24.8773 56.6247 25 56.614 25.128C56.614 25.256 56.6087 25.3893 56.598 25.528H50.566C50.6087 26.1467 50.822 26.632 51.206 26.984C51.6007 27.336 52.0753 27.512 52.63 27.512C53.046 27.512 53.3927 27.4213 53.67 27.24C53.958 27.048 54.1713 26.8027 54.31 26.504H56.39C56.2407 27.0053 55.99 27.464 55.638 27.88C55.2967 28.2853 54.87 28.6053 54.358 28.84C53.8567 29.0747 53.286 29.192 52.646 29.192ZM52.662 22.536C52.1607 22.536 51.718 22.68 51.334 22.968C50.95 23.2453 50.7047 23.672 50.598 24.248H54.55C54.518 23.7253 54.326 23.3093 53.974 23C53.622 22.6907 53.1847 22.536 52.662 22.536ZM58.3525 29V21.064H60.1765L60.3685 22.552C60.6565 22.04 61.0458 21.6347 61.5365 21.336C62.0378 21.0267 62.6245 20.872 63.2965 20.872V23.032H62.7205C62.2725 23.032 61.8725 23.1013 61.5205 23.24C61.1685 23.3787 60.8912 23.6187 60.6885 23.96C60.4965 24.3013 60.4005 24.776 60.4005 25.384V29H58.3525Z" fill="#FCFCFD"/>
<path fill-rule="evenodd" clip-rule="evenodd" d="M79.5292 19.5285C79.7896 19.2682 80.2117 19.2682 80.4721 19.5285L84.0007 23.0571L87.5292 19.5285C87.7896 19.2682 88.2117 19.2682 88.4721 19.5285C88.7324 19.7889 88.7324 20.211 88.4721 20.4713L84.9435 23.9999L88.4721 27.5285C88.7324 27.7889 88.7324 28.211 88.4721 28.4713C88.2117 28.7317 87.7896 28.7317 87.5292 28.4713L84.0007 24.9427L80.4721 28.4713C80.2117 28.7317 79.7896 28.7317 79.5292 28.4713C79.2689 28.211 79.2689 27.7889 79.5292 27.5285L83.0578 23.9999L79.5292 20.4713C79.2689 20.211 79.2689 19.7889 79.5292 19.5285Z" fill="#FCFCFD"/>
</svg>
