<svg width="384" height="376" viewBox="0 0 384 376" fill="none" xmlns="http://www.w3.org/2000/svg">
<g filter="url(#filter0_d_21149_17433)">
<rect x="16" width="352" height="296" rx="24" fill="#23262F"/>
<path d="M147.311 44.416C147.311 43.328 147.561 42.352 148.063 41.488C148.575 40.624 149.263 39.952 150.127 39.472C151.001 38.9813 151.956 38.736 152.991 38.736C154.175 38.736 155.225 39.0293 156.143 39.616C157.071 40.192 157.743 41.0133 158.159 42.08H155.967C155.679 41.4933 155.279 41.056 154.767 40.768C154.255 40.48 153.663 40.336 152.991 40.336C152.255 40.336 151.599 40.5013 151.023 40.832C150.447 41.1627 149.993 41.6373 149.663 42.256C149.343 42.8747 149.183 43.5947 149.183 44.416C149.183 45.2373 149.343 45.9573 149.663 46.576C149.993 47.1947 150.447 47.6747 151.023 48.016C151.599 48.3467 152.255 48.512 152.991 48.512C153.663 48.512 154.255 48.368 154.767 48.08C155.279 47.792 155.679 47.3547 155.967 46.768H158.159C157.743 47.8347 157.071 48.656 156.143 49.232C155.225 49.808 154.175 50.096 152.991 50.096C151.945 50.096 150.991 49.856 150.127 49.376C149.263 48.8853 148.575 48.208 148.063 47.344C147.561 46.48 147.311 45.504 147.311 44.416ZM168.278 41.184V50H166.454V48.96C166.166 49.3227 165.787 49.6107 165.318 49.824C164.859 50.0267 164.368 50.128 163.846 50.128C163.152 50.128 162.528 49.984 161.974 49.696C161.43 49.408 160.998 48.9813 160.678 48.416C160.368 47.8507 160.214 47.168 160.214 46.368V41.184H162.022V46.096C162.022 46.8853 162.219 47.4933 162.614 47.92C163.008 48.336 163.547 48.544 164.23 48.544C164.912 48.544 165.451 48.336 165.846 47.92C166.251 47.4933 166.454 46.8853 166.454 46.096V41.184H168.278ZM172.508 42.464C172.775 42.016 173.127 41.6693 173.564 41.424C174.012 41.168 174.54 41.04 175.148 41.04V42.928H174.684C173.97 42.928 173.426 43.1093 173.052 43.472C172.69 43.8347 172.508 44.464 172.508 45.36V50H170.684V41.184H172.508V42.464ZM178.649 42.464C178.916 42.016 179.268 41.6693 179.705 41.424C180.153 41.168 180.681 41.04 181.289 41.04V42.928H180.825C180.11 42.928 179.566 43.1093 179.193 43.472C178.83 43.8347 178.649 44.464 178.649 45.36V50H176.825V41.184H178.649V42.464ZM191.046 45.376C191.046 45.7067 191.024 46.0053 190.982 46.272H184.246C184.299 46.976 184.56 47.5413 185.03 47.968C185.499 48.3947 186.075 48.608 186.758 48.608C187.739 48.608 188.432 48.1973 188.838 47.376H190.806C190.539 48.1867 190.054 48.8533 189.35 49.376C188.656 49.888 187.792 50.144 186.758 50.144C185.915 50.144 185.158 49.9573 184.486 49.584C183.824 49.2 183.302 48.6667 182.918 47.984C182.544 47.2907 182.358 46.4907 182.358 45.584C182.358 44.6773 182.539 43.8827 182.902 43.2C183.275 42.5067 183.792 41.9733 184.454 41.6C185.126 41.2267 185.894 41.04 186.758 41.04C187.59 41.04 188.331 41.2213 188.982 41.584C189.632 41.9467 190.139 42.4587 190.502 43.12C190.864 43.7707 191.046 44.5227 191.046 45.376ZM189.142 44.8C189.131 44.128 188.891 43.5893 188.422 43.184C187.952 42.7787 187.371 42.576 186.678 42.576C186.048 42.576 185.51 42.7787 185.062 43.184C184.614 43.5787 184.347 44.1173 184.262 44.8H189.142ZM197.289 41.04C197.982 41.04 198.601 41.184 199.145 41.472C199.699 41.76 200.131 42.1867 200.441 42.752C200.75 43.3173 200.905 44 200.905 44.8V50H199.097V45.072C199.097 44.2827 198.899 43.68 198.505 43.264C198.11 42.8373 197.571 42.624 196.889 42.624C196.206 42.624 195.662 42.8373 195.257 43.264C194.862 43.68 194.665 44.2827 194.665 45.072V50H192.841V41.184H194.665V42.192C194.963 41.8293 195.342 41.5467 195.801 41.344C196.27 41.1413 196.766 41.04 197.289 41.04ZM205.359 42.672V47.552C205.359 47.8827 205.434 48.1227 205.583 48.272C205.743 48.4107 206.01 48.48 206.383 48.48H207.503V50H206.063C205.242 50 204.613 49.808 204.175 49.424C203.738 49.04 203.519 48.416 203.519 47.552V42.672H202.479V41.184H203.519V38.992H205.359V41.184H207.503V42.672H205.359ZM219.293 44.288C219.89 44.3947 220.397 44.7093 220.813 45.232C221.229 45.7547 221.437 46.3467 221.437 47.008C221.437 47.5733 221.287 48.0853 220.989 48.544C220.701 48.992 220.279 49.3493 219.725 49.616C219.17 49.872 218.525 50 217.789 50H213.341V38.88H217.581C218.338 38.88 218.989 39.008 219.533 39.264C220.077 39.52 220.487 39.8667 220.765 40.304C221.042 40.7307 221.181 41.2107 221.181 41.744C221.181 42.384 221.01 42.9173 220.669 43.344C220.327 43.7707 219.869 44.0853 219.293 44.288ZM215.165 43.552H217.421C218.018 43.552 218.482 43.4187 218.813 43.152C219.154 42.8747 219.325 42.48 219.325 41.968C219.325 41.4667 219.154 41.0773 218.813 40.8C218.482 40.512 218.018 40.368 217.421 40.368H215.165V43.552ZM217.629 48.512C218.247 48.512 218.733 48.3627 219.085 48.064C219.437 47.7653 219.613 47.3493 219.613 46.816C219.613 46.272 219.426 45.84 219.053 45.52C218.679 45.2 218.183 45.04 217.565 45.04H215.165V48.512H217.629ZM224.347 40.016C224.016 40.016 223.739 39.904 223.515 39.68C223.291 39.456 223.179 39.1787 223.179 38.848C223.179 38.5173 223.291 38.24 223.515 38.016C223.739 37.792 224.016 37.68 224.347 37.68C224.667 37.68 224.939 37.792 225.163 38.016C225.387 38.24 225.499 38.5173 225.499 38.848C225.499 39.1787 225.387 39.456 225.163 39.68C224.939 39.904 224.667 40.016 224.347 40.016ZM225.243 41.184V50H223.419V41.184H225.243ZM227.03 45.552C227.03 44.6667 227.211 43.8827 227.574 43.2C227.947 42.5173 228.448 41.9893 229.078 41.616C229.718 41.232 230.427 41.04 231.206 41.04C231.782 41.04 232.347 41.168 232.902 41.424C233.467 41.6693 233.915 42 234.246 42.416V38.16H236.086V50H234.246V48.672C233.947 49.0987 233.531 49.4507 232.998 49.728C232.475 50.0053 231.872 50.144 231.19 50.144C230.422 50.144 229.718 49.952 229.078 49.568C228.448 49.1733 227.947 48.6293 227.574 47.936C227.211 47.232 227.03 46.4373 227.03 45.552ZM234.246 45.584C234.246 44.976 234.118 44.448 233.862 44C233.616 43.552 233.291 43.2107 232.886 42.976C232.48 42.7413 232.043 42.624 231.574 42.624C231.104 42.624 230.667 42.7413 230.262 42.976C229.856 43.2 229.526 43.536 229.27 43.984C229.024 44.4213 228.902 44.944 228.902 45.552C228.902 46.16 229.024 46.6933 229.27 47.152C229.526 47.6107 229.856 47.9627 230.262 48.208C230.678 48.4427 231.115 48.56 231.574 48.56C232.043 48.56 232.48 48.4427 232.886 48.208C233.291 47.9733 233.616 47.632 233.862 47.184C234.118 46.7253 234.246 46.192 234.246 45.584Z" fill="#FCFCFD"/>
<path d="M104.397 100V73.408L98.877 74.704V70L106.989 66.4H110.781V100H104.397ZM118.832 100.336C117.712 100.336 116.784 99.984 116.048 99.28C115.344 98.576 114.992 97.728 114.992 96.736C114.992 95.712 115.344 94.848 116.048 94.144C116.784 93.44 117.712 93.088 118.832 93.088C119.952 93.088 120.864 93.44 121.568 94.144C122.304 94.848 122.672 95.712 122.672 96.736C122.672 97.728 122.304 98.576 121.568 99.28C120.864 99.984 119.952 100.336 118.832 100.336ZM138.761 100.576C135.657 100.576 133.001 99.856 130.793 98.416C128.585 96.944 126.873 94.912 125.657 92.32C124.473 89.696 123.881 86.656 123.881 83.2C123.881 79.776 124.473 76.752 125.657 74.128C126.873 71.504 128.585 69.472 130.793 68.032C133.001 66.56 135.657 65.824 138.761 65.824C141.865 65.824 144.521 66.56 146.729 68.032C148.937 69.472 150.633 71.504 151.817 74.128C153.033 76.752 153.641 79.776 153.641 83.2C153.641 86.656 153.033 89.696 151.817 92.32C150.633 94.912 148.937 96.944 146.729 98.416C144.521 99.856 141.865 100.576 138.761 100.576ZM138.761 95.056C141.289 95.056 143.353 94 144.953 91.888C146.553 89.776 147.353 86.88 147.353 83.2C147.353 79.52 146.553 76.624 144.953 74.512C143.353 72.4 141.289 71.344 138.761 71.344C136.201 71.344 134.121 72.4 132.521 74.512C130.953 76.624 130.169 79.52 130.169 83.2C130.169 86.88 130.953 89.776 132.521 91.888C134.121 94 136.201 95.056 138.761 95.056ZM171.879 100.576C168.775 100.576 166.119 99.856 163.911 98.416C161.703 96.944 159.991 94.912 158.775 92.32C157.591 89.696 156.999 86.656 156.999 83.2C156.999 79.776 157.591 76.752 158.775 74.128C159.991 71.504 161.703 69.472 163.911 68.032C166.119 66.56 168.775 65.824 171.879 65.824C174.983 65.824 177.639 66.56 179.847 68.032C182.055 69.472 183.751 71.504 184.935 74.128C186.151 76.752 186.759 79.776 186.759 83.2C186.759 86.656 186.151 89.696 184.935 92.32C183.751 94.912 182.055 96.944 179.847 98.416C177.639 99.856 174.983 100.576 171.879 100.576ZM171.879 95.056C174.407 95.056 176.471 94 178.071 91.888C179.671 89.776 180.471 86.88 180.471 83.2C180.471 79.52 179.671 76.624 178.071 74.512C176.471 72.4 174.407 71.344 171.879 71.344C169.319 71.344 167.239 72.4 165.639 74.512C164.071 76.624 163.287 79.52 163.287 83.2C163.287 86.88 164.071 89.776 165.639 91.888C167.239 94 169.319 95.056 171.879 95.056ZM201.699 100V66.4H223.635V71.344H207.843V80.56H222.195V85.36H207.843V95.056H223.635V100H201.699ZM236.313 100V71.344H226.521V66.4H252.297V71.344H242.457V100H236.313ZM255.888 100V66.4H262.032V80.368H277.104V66.4H283.248V100H277.104V85.36H262.032V100H255.888Z" fill="#FCFCFD"/>
<path d="M149.815 131.176C149.815 132.008 149.599 132.792 149.167 133.528C148.751 134.248 148.127 134.848 147.295 135.328C146.479 135.792 145.511 136.064 144.391 136.144V138.088H142.855V136.12C141.255 135.976 139.967 135.496 138.991 134.68C138.015 133.848 137.511 132.728 137.479 131.32H141.079C141.175 132.472 141.767 133.168 142.855 133.408V128.824C141.703 128.536 140.775 128.248 140.071 127.96C139.367 127.672 138.759 127.208 138.247 126.568C137.735 125.928 137.479 125.056 137.479 123.952C137.479 122.56 137.975 121.424 138.967 120.544C139.975 119.664 141.271 119.16 142.855 119.032V117.088H144.391V119.032C145.927 119.16 147.151 119.624 148.063 120.424C148.991 121.224 149.511 122.328 149.623 123.736H145.999C145.951 123.272 145.783 122.872 145.495 122.536C145.223 122.184 144.855 121.936 144.391 121.792V126.328C145.591 126.632 146.535 126.928 147.223 127.216C147.927 127.488 148.535 127.944 149.047 128.584C149.559 129.208 149.815 130.072 149.815 131.176ZM140.983 123.784C140.983 124.312 141.143 124.744 141.463 125.08C141.783 125.4 142.247 125.664 142.855 125.872V121.72C142.279 121.8 141.823 122.016 141.487 122.368C141.151 122.72 140.983 123.192 140.983 123.784ZM144.391 133.456C144.999 133.344 145.471 133.096 145.807 132.712C146.159 132.328 146.335 131.864 146.335 131.32C146.335 130.792 146.167 130.368 145.831 130.048C145.495 129.728 145.015 129.464 144.391 129.256V133.456ZM153.23 123.112C153.31 121.512 153.87 120.28 154.91 119.416C155.966 118.536 157.35 118.096 159.062 118.096C160.23 118.096 161.23 118.304 162.062 118.72C162.894 119.12 163.518 119.672 163.934 120.376C164.366 121.064 164.582 121.848 164.582 122.728C164.582 123.736 164.318 124.592 163.79 125.296C163.278 125.984 162.662 126.448 161.942 126.688V126.784C162.87 127.072 163.59 127.584 164.102 128.32C164.63 129.056 164.894 130 164.894 131.152C164.894 132.112 164.67 132.968 164.222 133.72C163.79 134.472 163.142 135.064 162.278 135.496C161.43 135.912 160.406 136.12 159.206 136.12C157.398 136.12 155.926 135.664 154.79 134.752C153.654 133.84 153.054 132.496 152.99 130.72H156.254C156.286 131.504 156.55 132.136 157.046 132.616C157.558 133.08 158.254 133.312 159.134 133.312C159.95 133.312 160.574 133.088 161.006 132.64C161.454 132.176 161.678 131.584 161.678 130.864C161.678 129.904 161.374 129.216 160.766 128.8C160.158 128.384 159.214 128.176 157.934 128.176H157.238V125.416H157.934C160.206 125.416 161.342 124.656 161.342 123.136C161.342 122.448 161.134 121.912 160.718 121.528C160.318 121.144 159.734 120.952 158.966 120.952C158.214 120.952 157.63 121.16 157.214 121.576C156.814 121.976 156.582 122.488 156.518 123.112H153.23ZM171.605 132.472L168.797 139.216H166.637L168.197 132.472H171.605ZM182.715 122.872C182.555 122.2 182.275 121.696 181.875 121.36C181.491 121.024 180.931 120.856 180.195 120.856C179.091 120.856 178.275 121.304 177.747 122.2C177.235 123.08 176.971 124.52 176.955 126.52C177.339 125.88 177.899 125.384 178.635 125.032C179.371 124.664 180.171 124.48 181.035 124.48C182.075 124.48 182.995 124.704 183.795 125.152C184.595 125.6 185.219 126.256 185.667 127.12C186.115 127.968 186.339 128.992 186.339 130.192C186.339 131.328 186.107 132.344 185.643 133.24C185.195 134.12 184.531 134.808 183.651 135.304C182.771 135.8 181.723 136.048 180.507 136.048C178.843 136.048 177.531 135.68 176.571 134.944C175.627 134.208 174.963 133.184 174.579 131.872C174.211 130.544 174.027 128.912 174.027 126.976C174.027 124.048 174.531 121.84 175.539 120.352C176.547 118.848 178.139 118.096 180.315 118.096C181.995 118.096 183.299 118.552 184.227 119.464C185.155 120.376 185.691 121.512 185.835 122.872H182.715ZM180.267 127.24C179.419 127.24 178.707 127.488 178.131 127.984C177.555 128.48 177.267 129.2 177.267 130.144C177.267 131.088 177.531 131.832 178.059 132.376C178.603 132.92 179.363 133.192 180.339 133.192C181.203 133.192 181.883 132.928 182.379 132.4C182.891 131.872 183.147 131.16 183.147 130.264C183.147 129.336 182.899 128.6 182.403 128.056C181.923 127.512 181.211 127.24 180.267 127.24ZM188.587 121.6V118.504H194.371V136H190.915V121.6H188.587ZM200.618 126.736C199.018 125.904 198.218 124.616 198.218 122.872C198.218 122.008 198.434 121.224 198.866 120.52C199.314 119.8 199.978 119.232 200.858 118.816C201.754 118.384 202.842 118.168 204.122 118.168C205.402 118.168 206.482 118.384 207.362 118.816C208.258 119.232 208.922 119.8 209.354 120.52C209.802 121.224 210.026 122.008 210.026 122.872C210.026 123.752 209.81 124.528 209.378 125.2C208.946 125.856 208.37 126.368 207.65 126.736C208.53 127.12 209.218 127.68 209.714 128.416C210.21 129.152 210.458 130.024 210.458 131.032C210.458 132.12 210.178 133.072 209.618 133.888C209.074 134.688 208.322 135.304 207.362 135.736C206.402 136.168 205.322 136.384 204.122 136.384C202.922 136.384 201.842 136.168 200.882 135.736C199.938 135.304 199.186 134.688 198.626 133.888C198.082 133.072 197.81 132.12 197.81 131.032C197.81 130.024 198.058 129.152 198.554 128.416C199.05 127.664 199.738 127.104 200.618 126.736ZM206.762 123.352C206.762 122.568 206.522 121.96 206.042 121.528C205.578 121.096 204.938 120.88 204.122 120.88C203.322 120.88 202.682 121.096 202.202 121.528C201.738 121.96 201.506 122.576 201.506 123.376C201.506 124.096 201.746 124.672 202.226 125.104C202.722 125.536 203.354 125.752 204.122 125.752C204.89 125.752 205.522 125.536 206.018 125.104C206.514 124.656 206.762 124.072 206.762 123.352ZM204.122 128.2C203.21 128.2 202.466 128.432 201.89 128.896C201.33 129.36 201.05 130.024 201.05 130.888C201.05 131.688 201.322 132.344 201.866 132.856C202.426 133.352 203.178 133.6 204.122 133.6C205.066 133.6 205.81 133.344 206.354 132.832C206.898 132.32 207.17 131.672 207.17 130.888C207.17 130.04 206.89 129.384 206.33 128.92C205.77 128.44 205.034 128.2 204.122 128.2ZM214.984 136.168C214.376 136.168 213.872 135.984 213.472 135.616C213.088 135.232 212.896 134.76 212.896 134.2C212.896 133.64 213.088 133.176 213.472 132.808C213.872 132.424 214.376 132.232 214.984 132.232C215.576 132.232 216.064 132.424 216.448 132.808C216.832 133.176 217.024 133.64 217.024 134.2C217.024 134.76 216.832 135.232 216.448 135.616C216.064 135.984 215.576 136.168 214.984 136.168ZM219.394 123.112C219.474 121.512 220.034 120.28 221.074 119.416C222.13 118.536 223.514 118.096 225.226 118.096C226.394 118.096 227.394 118.304 228.226 118.72C229.058 119.12 229.682 119.672 230.098 120.376C230.53 121.064 230.746 121.848 230.746 122.728C230.746 123.736 230.482 124.592 229.954 125.296C229.442 125.984 228.826 126.448 228.106 126.688V126.784C229.034 127.072 229.754 127.584 230.266 128.32C230.794 129.056 231.058 130 231.058 131.152C231.058 132.112 230.834 132.968 230.386 133.72C229.954 134.472 229.306 135.064 228.442 135.496C227.594 135.912 226.57 136.12 225.37 136.12C223.562 136.12 222.09 135.664 220.954 134.752C219.818 133.84 219.218 132.496 219.154 130.72H222.418C222.45 131.504 222.714 132.136 223.21 132.616C223.722 133.08 224.418 133.312 225.298 133.312C226.114 133.312 226.738 133.088 227.17 132.64C227.618 132.176 227.842 131.584 227.842 130.864C227.842 129.904 227.538 129.216 226.93 128.8C226.322 128.384 225.378 128.176 224.098 128.176H223.402V125.416H224.098C226.37 125.416 227.506 124.656 227.506 123.136C227.506 122.448 227.298 121.912 226.882 121.528C226.482 121.144 225.898 120.952 225.13 120.952C224.378 120.952 223.794 121.16 223.378 121.576C222.978 121.976 222.746 122.488 222.682 123.112H219.394ZM242.785 122.872C242.625 122.2 242.345 121.696 241.945 121.36C241.561 121.024 241.001 120.856 240.265 120.856C239.161 120.856 238.345 121.304 237.817 122.2C237.305 123.08 237.041 124.52 237.025 126.52C237.409 125.88 237.969 125.384 238.705 125.032C239.441 124.664 240.241 124.48 241.105 124.48C242.145 124.48 243.065 124.704 243.865 125.152C244.665 125.6 245.289 126.256 245.737 127.12C246.185 127.968 246.409 128.992 246.409 130.192C246.409 131.328 246.177 132.344 245.713 133.24C245.265 134.12 244.601 134.808 243.721 135.304C242.841 135.8 241.793 136.048 240.577 136.048C238.913 136.048 237.601 135.68 236.641 134.944C235.697 134.208 235.033 133.184 234.649 131.872C234.281 130.544 234.097 128.912 234.097 126.976C234.097 124.048 234.601 121.84 235.609 120.352C236.617 118.848 238.209 118.096 240.385 118.096C242.065 118.096 243.369 118.552 244.297 119.464C245.225 120.376 245.761 121.512 245.905 122.872H242.785ZM240.337 127.24C239.489 127.24 238.777 127.488 238.201 127.984C237.625 128.48 237.337 129.2 237.337 130.144C237.337 131.088 237.601 131.832 238.129 132.376C238.673 132.92 239.433 133.192 240.409 133.192C241.273 133.192 241.953 132.928 242.449 132.4C242.961 131.872 243.217 131.16 243.217 130.264C243.217 129.336 242.969 128.6 242.473 128.056C241.993 127.512 241.281 127.24 240.337 127.24Z" fill="#777E91"/>
<path d="M129.209 183.728H124.553L123.753 186H121.849L125.833 174.864H127.945L131.929 186H130.009L129.209 183.728ZM128.697 182.24L126.889 177.072L125.065 182.24H128.697ZM141.645 177.184V186H139.821V184.96C139.533 185.323 139.154 185.611 138.685 185.824C138.226 186.027 137.736 186.128 137.213 186.128C136.52 186.128 135.896 185.984 135.341 185.696C134.797 185.408 134.365 184.981 134.045 184.416C133.736 183.851 133.581 183.168 133.581 182.368V177.184H135.389V182.096C135.389 182.885 135.586 183.493 135.981 183.92C136.376 184.336 136.914 184.544 137.597 184.544C138.28 184.544 138.818 184.336 139.213 183.92C139.618 183.493 139.821 182.885 139.821 182.096V177.184H141.645ZM143.444 181.584C143.444 180.677 143.625 179.883 143.988 179.2C144.361 178.507 144.873 177.973 145.524 177.6C146.174 177.227 146.921 177.04 147.764 177.04C148.83 177.04 149.71 177.296 150.404 177.808C151.108 178.309 151.582 179.029 151.828 179.968H149.86C149.7 179.531 149.444 179.189 149.092 178.944C148.74 178.699 148.297 178.576 147.764 178.576C147.017 178.576 146.42 178.843 145.972 179.376C145.534 179.899 145.316 180.635 145.316 181.584C145.316 182.533 145.534 183.275 145.972 183.808C146.42 184.341 147.017 184.608 147.764 184.608C148.82 184.608 149.518 184.144 149.86 183.216H151.828C151.572 184.112 151.092 184.827 150.388 185.36C149.684 185.883 148.809 186.144 147.764 186.144C146.921 186.144 146.174 185.957 145.524 185.584C144.873 185.2 144.361 184.667 143.988 183.984C143.625 183.291 143.444 182.491 143.444 181.584ZM155.773 178.672V183.552C155.773 183.883 155.848 184.123 155.997 184.272C156.157 184.411 156.424 184.48 156.797 184.48H157.917V186H156.477C155.656 186 155.027 185.808 154.589 185.424C154.152 185.04 153.933 184.416 153.933 183.552V178.672H152.893V177.184H153.933V174.992H155.773V177.184H157.917V178.672H155.773ZM160.526 176.016C160.196 176.016 159.918 175.904 159.694 175.68C159.47 175.456 159.358 175.179 159.358 174.848C159.358 174.517 159.47 174.24 159.694 174.016C159.918 173.792 160.196 173.68 160.526 173.68C160.846 173.68 161.118 173.792 161.342 174.016C161.566 174.24 161.678 174.517 161.678 174.848C161.678 175.179 161.566 175.456 161.342 175.68C161.118 175.904 160.846 176.016 160.526 176.016ZM161.422 177.184V186H159.598V177.184H161.422ZM167.641 186.144C166.809 186.144 166.057 185.957 165.385 185.584C164.713 185.2 164.185 184.667 163.801 183.984C163.417 183.291 163.225 182.491 163.225 181.584C163.225 180.688 163.423 179.893 163.817 179.2C164.212 178.507 164.751 177.973 165.433 177.6C166.116 177.227 166.879 177.04 167.721 177.04C168.564 177.04 169.327 177.227 170.009 177.6C170.692 177.973 171.231 178.507 171.625 179.2C172.02 179.893 172.217 180.688 172.217 181.584C172.217 182.48 172.015 183.275 171.609 183.968C171.204 184.661 170.649 185.2 169.945 185.584C169.252 185.957 168.484 186.144 167.641 186.144ZM167.641 184.56C168.111 184.56 168.548 184.448 168.953 184.224C169.369 184 169.705 183.664 169.961 183.216C170.217 182.768 170.345 182.224 170.345 181.584C170.345 180.944 170.223 180.405 169.977 179.968C169.732 179.52 169.407 179.184 169.001 178.96C168.596 178.736 168.159 178.624 167.689 178.624C167.22 178.624 166.783 178.736 166.377 178.96C165.983 179.184 165.668 179.52 165.433 179.968C165.199 180.405 165.081 180.944 165.081 181.584C165.081 182.533 165.321 183.269 165.801 183.792C166.292 184.304 166.905 184.56 167.641 184.56ZM178.468 177.04C179.162 177.04 179.78 177.184 180.324 177.472C180.879 177.76 181.311 178.187 181.62 178.752C181.93 179.317 182.084 180 182.084 180.8V186H180.276V181.072C180.276 180.283 180.079 179.68 179.684 179.264C179.29 178.837 178.751 178.624 178.068 178.624C177.386 178.624 176.842 178.837 176.436 179.264C176.042 179.68 175.844 180.283 175.844 181.072V186H174.02V177.184H175.844V178.192C176.143 177.829 176.522 177.547 176.98 177.344C177.45 177.141 177.946 177.04 178.468 177.04ZM196.647 181.376C196.647 181.707 196.626 182.005 196.583 182.272H189.847C189.901 182.976 190.162 183.541 190.631 183.968C191.101 184.395 191.677 184.608 192.359 184.608C193.341 184.608 194.034 184.197 194.439 183.376H196.407C196.141 184.187 195.655 184.853 194.951 185.376C194.258 185.888 193.394 186.144 192.359 186.144C191.517 186.144 190.759 185.957 190.087 185.584C189.426 185.2 188.903 184.667 188.519 183.984C188.146 183.291 187.959 182.491 187.959 181.584C187.959 180.677 188.141 179.883 188.503 179.2C188.877 178.507 189.394 177.973 190.055 177.6C190.727 177.227 191.495 177.04 192.359 177.04C193.191 177.04 193.933 177.221 194.583 177.584C195.234 177.947 195.741 178.459 196.103 179.12C196.466 179.771 196.647 180.523 196.647 181.376ZM194.743 180.8C194.733 180.128 194.493 179.589 194.023 179.184C193.554 178.779 192.973 178.576 192.279 178.576C191.65 178.576 191.111 178.779 190.663 179.184C190.215 179.579 189.949 180.117 189.863 180.8H194.743ZM202.89 177.04C203.584 177.04 204.202 177.184 204.746 177.472C205.301 177.76 205.733 178.187 206.042 178.752C206.352 179.317 206.506 180 206.506 180.8V186H204.698V181.072C204.698 180.283 204.501 179.68 204.106 179.264C203.712 178.837 203.173 178.624 202.49 178.624C201.808 178.624 201.264 178.837 200.858 179.264C200.464 179.68 200.266 180.283 200.266 181.072V186H198.442V177.184H200.266V178.192C200.565 177.829 200.944 177.547 201.402 177.344C201.872 177.141 202.368 177.04 202.89 177.04ZM208.225 181.552C208.225 180.667 208.406 179.883 208.769 179.2C209.142 178.517 209.643 177.989 210.273 177.616C210.913 177.232 211.622 177.04 212.401 177.04C212.977 177.04 213.542 177.168 214.097 177.424C214.662 177.669 215.11 178 215.441 178.416V174.16H217.281V186H215.441V184.672C215.142 185.099 214.726 185.451 214.193 185.728C213.67 186.005 213.067 186.144 212.385 186.144C211.617 186.144 210.913 185.952 210.273 185.568C209.643 185.173 209.142 184.629 208.769 183.936C208.406 183.232 208.225 182.437 208.225 181.552ZM215.441 181.584C215.441 180.976 215.313 180.448 215.057 180C214.811 179.552 214.486 179.211 214.081 178.976C213.675 178.741 213.238 178.624 212.769 178.624C212.299 178.624 211.862 178.741 211.457 178.976C211.051 179.2 210.721 179.536 210.465 179.984C210.219 180.421 210.097 180.944 210.097 181.552C210.097 182.16 210.219 182.693 210.465 183.152C210.721 183.611 211.051 183.963 211.457 184.208C211.873 184.443 212.31 184.56 212.769 184.56C213.238 184.56 213.675 184.443 214.081 184.208C214.486 183.973 214.811 183.632 215.057 183.184C215.313 182.725 215.441 182.192 215.441 181.584ZM220.605 176.016C220.274 176.016 219.997 175.904 219.773 175.68C219.549 175.456 219.437 175.179 219.437 174.848C219.437 174.517 219.549 174.24 219.773 174.016C219.997 173.792 220.274 173.68 220.605 173.68C220.925 173.68 221.197 173.792 221.421 174.016C221.645 174.24 221.757 174.517 221.757 174.848C221.757 175.179 221.645 175.456 221.421 175.68C221.197 175.904 220.925 176.016 220.605 176.016ZM221.501 177.184V186H219.677V177.184H221.501ZM228.343 177.04C229.037 177.04 229.655 177.184 230.199 177.472C230.754 177.76 231.186 178.187 231.495 178.752C231.805 179.317 231.959 180 231.959 180.8V186H230.151V181.072C230.151 180.283 229.954 179.68 229.559 179.264C229.165 178.837 228.626 178.624 227.943 178.624C227.261 178.624 226.717 178.837 226.311 179.264C225.917 179.68 225.719 180.283 225.719 181.072V186H223.895V177.184H225.719V178.192C226.018 177.829 226.397 177.547 226.855 177.344C227.325 177.141 227.821 177.04 228.343 177.04ZM237.838 177.04C238.521 177.04 239.123 177.179 239.646 177.456C240.179 177.723 240.595 178.059 240.894 178.464V177.184H242.734V186.144C242.734 186.955 242.563 187.675 242.222 188.304C241.881 188.944 241.385 189.445 240.734 189.808C240.094 190.171 239.326 190.352 238.43 190.352C237.235 190.352 236.243 190.069 235.454 189.504C234.665 188.949 234.217 188.192 234.11 187.232H235.918C236.057 187.691 236.35 188.059 236.798 188.336C237.257 188.624 237.801 188.768 238.43 188.768C239.166 188.768 239.758 188.544 240.206 188.096C240.665 187.648 240.894 186.997 240.894 186.144V184.672C240.585 185.088 240.163 185.44 239.63 185.728C239.107 186.005 238.51 186.144 237.838 186.144C237.07 186.144 236.366 185.952 235.726 185.568C235.097 185.173 234.595 184.629 234.222 183.936C233.859 183.232 233.678 182.437 233.678 181.552C233.678 180.667 233.859 179.883 234.222 179.2C234.595 178.517 235.097 177.989 235.726 177.616C236.366 177.232 237.07 177.04 237.838 177.04ZM240.894 181.584C240.894 180.976 240.766 180.448 240.51 180C240.265 179.552 239.939 179.211 239.534 178.976C239.129 178.741 238.691 178.624 238.222 178.624C237.753 178.624 237.315 178.741 236.91 178.976C236.505 179.2 236.174 179.536 235.918 179.984C235.673 180.421 235.55 180.944 235.55 181.552C235.55 182.16 235.673 182.693 235.918 183.152C236.174 183.611 236.505 183.963 236.91 184.208C237.326 184.443 237.763 184.56 238.222 184.56C238.691 184.56 239.129 184.443 239.534 184.208C239.939 183.973 240.265 183.632 240.51 183.184C240.766 182.725 240.894 182.192 240.894 181.584ZM250.214 176.016C249.883 176.016 249.606 175.904 249.382 175.68C249.158 175.456 249.046 175.179 249.046 174.848C249.046 174.517 249.158 174.24 249.382 174.016C249.606 173.792 249.883 173.68 250.214 173.68C250.534 173.68 250.806 173.792 251.03 174.016C251.254 174.24 251.366 174.517 251.366 174.848C251.366 175.179 251.254 175.456 251.03 175.68C250.806 175.904 250.534 176.016 250.214 176.016ZM251.11 177.184V186H249.286V177.184H251.11ZM257.953 177.04C258.646 177.04 259.265 177.184 259.809 177.472C260.363 177.76 260.795 178.187 261.105 178.752C261.414 179.317 261.569 180 261.569 180.8V186H259.761V181.072C259.761 180.283 259.563 179.68 259.169 179.264C258.774 178.837 258.235 178.624 257.553 178.624C256.87 178.624 256.326 178.837 255.921 179.264C255.526 179.68 255.329 180.283 255.329 181.072V186H253.505V177.184H255.329V178.192C255.627 177.829 256.006 177.547 256.465 177.344C256.934 177.141 257.43 177.04 257.953 177.04Z" fill="#FCFCFD"/>
<path d="M97.6118 231V213.272L93.9317 214.136V211L99.3398 208.6H101.868V231H97.6118ZM113.539 231.384C111.982 231.384 110.67 231.085 109.603 230.488C108.536 229.869 107.704 229.069 107.107 228.088C106.51 227.107 106.158 226.051 106.051 224.92H109.859C110.03 225.901 110.435 226.659 111.075 227.192C111.736 227.725 112.568 227.992 113.571 227.992C115 227.992 116.152 227.341 117.027 226.04C117.902 224.717 118.371 222.712 118.435 220.024C117.923 220.899 117.144 221.624 116.099 222.2C115.075 222.776 113.944 223.064 112.707 223.064C111.47 223.064 110.307 222.765 109.219 222.168C108.131 221.571 107.246 220.728 106.563 219.64C105.88 218.552 105.539 217.272 105.539 215.8C105.539 214.456 105.87 213.208 106.531 212.056C107.192 210.904 108.11 209.976 109.283 209.272C110.456 208.568 111.832 208.216 113.411 208.216C115.096 208.216 116.515 208.525 117.667 209.144C118.819 209.763 119.736 210.595 120.419 211.64C121.123 212.685 121.624 213.848 121.923 215.128C122.243 216.408 122.403 217.72 122.403 219.064C122.403 221.56 122.051 223.736 121.347 225.592C120.664 227.427 119.651 228.856 118.307 229.88C116.984 230.883 115.395 231.384 113.539 231.384ZM113.667 219.608C114.456 219.608 115.171 219.437 115.811 219.096C116.451 218.733 116.952 218.264 117.315 217.688C117.678 217.091 117.859 216.429 117.859 215.704C117.859 214.552 117.454 213.603 116.643 212.856C115.854 212.109 114.851 211.736 113.635 211.736C112.44 211.736 111.448 212.109 110.659 212.856C109.87 213.581 109.475 214.509 109.475 215.64C109.475 216.835 109.87 217.795 110.659 218.52C111.448 219.245 112.451 219.608 113.667 219.608Z" fill="#FCFCFD"/>
<path d="M105.596 246.88V258H103.772V253.136H98.5396V258H96.7156V246.88H98.5396V251.648H103.772V246.88H105.596ZM109.821 250.464C110.088 250.016 110.44 249.669 110.877 249.424C111.325 249.168 111.853 249.04 112.461 249.04V250.928H111.997C111.282 250.928 110.738 251.109 110.365 251.472C110.002 251.835 109.821 252.464 109.821 253.36V258H107.997V249.184H109.821V250.464ZM117.338 258.144C116.644 258.144 116.02 258.021 115.466 257.776C114.922 257.52 114.49 257.179 114.17 256.752C113.85 256.315 113.679 255.829 113.658 255.296H115.546C115.578 255.669 115.754 255.984 116.074 256.24C116.404 256.485 116.815 256.608 117.306 256.608C117.818 256.608 118.212 256.512 118.49 256.32C118.778 256.117 118.922 255.861 118.922 255.552C118.922 255.221 118.762 254.976 118.442 254.816C118.132 254.656 117.636 254.48 116.954 254.288C116.292 254.107 115.754 253.931 115.338 253.76C114.922 253.589 114.559 253.328 114.25 252.976C113.951 252.624 113.802 252.16 113.802 251.584C113.802 251.115 113.94 250.688 114.218 250.304C114.495 249.909 114.89 249.6 115.402 249.376C115.924 249.152 116.522 249.04 117.194 249.04C118.196 249.04 119.002 249.296 119.61 249.808C120.228 250.309 120.559 250.997 120.602 251.872H118.778C118.746 251.477 118.586 251.163 118.298 250.928C118.01 250.693 117.62 250.576 117.13 250.576C116.65 250.576 116.282 250.667 116.026 250.848C115.77 251.029 115.642 251.269 115.642 251.568C115.642 251.803 115.727 252 115.898 252.16C116.068 252.32 116.276 252.448 116.522 252.544C116.767 252.629 117.13 252.741 117.61 252.88C118.25 253.051 118.772 253.227 119.178 253.408C119.594 253.579 119.951 253.835 120.25 254.176C120.548 254.517 120.703 254.971 120.714 255.536C120.714 256.037 120.575 256.485 120.298 256.88C120.02 257.275 119.626 257.584 119.114 257.808C118.612 258.032 118.02 258.144 117.338 258.144Z" fill="#777E91"/>
<path d="M174.542 231V228.024C175.907 226.893 177.23 225.773 178.51 224.664C179.811 223.555 180.963 222.456 181.966 221.368C182.99 220.28 183.801 219.224 184.398 218.2C185.017 217.155 185.326 216.141 185.326 215.16C185.326 214.243 185.07 213.432 184.558 212.728C184.067 212.024 183.246 211.672 182.094 211.672C180.921 211.672 180.035 212.056 179.438 212.824C178.841 213.592 178.542 214.52 178.542 215.608H174.574C174.617 213.965 174.979 212.6 175.662 211.512C176.345 210.403 177.251 209.581 178.382 209.048C179.513 208.493 180.782 208.216 182.19 208.216C184.473 208.216 186.243 208.845 187.502 210.104C188.782 211.341 189.422 212.952 189.422 214.936C189.422 216.173 189.134 217.379 188.558 218.552C188.003 219.725 187.267 220.856 186.35 221.944C185.433 223.032 184.441 224.056 183.374 225.016C182.307 225.955 181.273 226.829 180.27 227.64H189.966V231H174.542ZM203.006 231V226.84H191.966V223.576L202.462 208.6H207.102V223.288H210.046V226.84H207.102V231H203.006ZM196.35 223.288H203.262V213.112L196.35 223.288Z" fill="#FCFCFD"/>
<path d="M183.981 249.04C184.675 249.04 185.293 249.184 185.837 249.472C186.392 249.76 186.824 250.187 187.133 250.752C187.453 251.317 187.613 252 187.613 252.8V258H185.805V253.072C185.805 252.283 185.608 251.68 185.213 251.264C184.819 250.837 184.28 250.624 183.597 250.624C182.915 250.624 182.371 250.837 181.965 251.264C181.571 251.68 181.373 252.283 181.373 253.072V258H179.565V253.072C179.565 252.283 179.368 251.68 178.973 251.264C178.579 250.837 178.04 250.624 177.357 250.624C176.675 250.624 176.131 250.837 175.725 251.264C175.331 251.68 175.133 252.283 175.133 253.072V258H173.309V249.184H175.133V250.192C175.432 249.829 175.811 249.547 176.269 249.344C176.728 249.141 177.219 249.04 177.741 249.04C178.445 249.04 179.075 249.189 179.629 249.488C180.184 249.787 180.611 250.219 180.909 250.784C181.176 250.251 181.592 249.829 182.157 249.52C182.723 249.2 183.331 249.04 183.981 249.04ZM190.862 248.016C190.532 248.016 190.254 247.904 190.03 247.68C189.806 247.456 189.694 247.179 189.694 246.848C189.694 246.517 189.806 246.24 190.03 246.016C190.254 245.792 190.532 245.68 190.862 245.68C191.182 245.68 191.454 245.792 191.678 246.016C191.902 246.24 192.014 246.517 192.014 246.848C192.014 247.179 191.902 247.456 191.678 247.68C191.454 247.904 191.182 248.016 190.862 248.016ZM191.758 249.184V258H189.934V249.184H191.758ZM198.601 249.04C199.294 249.04 199.913 249.184 200.457 249.472C201.012 249.76 201.444 250.187 201.753 250.752C202.062 251.317 202.217 252 202.217 252.8V258H200.409V253.072C200.409 252.283 200.212 251.68 199.817 251.264C199.422 250.837 198.884 250.624 198.201 250.624C197.518 250.624 196.974 250.837 196.569 251.264C196.174 251.68 195.977 252.283 195.977 253.072V258H194.153V249.184H195.977V250.192C196.276 249.829 196.654 249.547 197.113 249.344C197.582 249.141 198.078 249.04 198.601 249.04ZM207.744 258.144C207.05 258.144 206.426 258.021 205.872 257.776C205.328 257.52 204.896 257.179 204.576 256.752C204.256 256.315 204.085 255.829 204.064 255.296H205.952C205.984 255.669 206.16 255.984 206.48 256.24C206.81 256.485 207.221 256.608 207.712 256.608C208.224 256.608 208.618 256.512 208.896 256.32C209.184 256.117 209.328 255.861 209.328 255.552C209.328 255.221 209.168 254.976 208.848 254.816C208.538 254.656 208.042 254.48 207.36 254.288C206.698 254.107 206.16 253.931 205.744 253.76C205.328 253.589 204.965 253.328 204.656 252.976C204.357 252.624 204.208 252.16 204.208 251.584C204.208 251.115 204.346 250.688 204.624 250.304C204.901 249.909 205.296 249.6 205.808 249.376C206.33 249.152 206.928 249.04 207.6 249.04C208.602 249.04 209.408 249.296 210.016 249.808C210.634 250.309 210.965 250.997 211.008 251.872H209.184C209.152 251.477 208.992 251.163 208.704 250.928C208.416 250.693 208.026 250.576 207.536 250.576C207.056 250.576 206.688 250.667 206.432 250.848C206.176 251.029 206.048 251.269 206.048 251.568C206.048 251.803 206.133 252 206.304 252.16C206.474 252.32 206.682 252.448 206.928 252.544C207.173 252.629 207.536 252.741 208.016 252.88C208.656 253.051 209.178 253.227 209.584 253.408C210 253.579 210.357 253.835 210.656 254.176C210.954 254.517 211.109 254.971 211.12 255.536C211.12 256.037 210.981 256.485 210.704 256.88C210.426 257.275 210.032 257.584 209.52 257.808C209.018 258.032 208.426 258.144 207.744 258.144Z" fill="#777E91"/>
<path d="M264.612 231V213.272L260.932 214.136V211L266.34 208.6H268.868V231H264.612ZM280.539 231.384C278.982 231.384 277.67 231.085 276.603 230.488C275.536 229.869 274.704 229.069 274.107 228.088C273.51 227.107 273.158 226.051 273.051 224.92H276.859C277.03 225.901 277.435 226.659 278.075 227.192C278.736 227.725 279.568 227.992 280.571 227.992C282 227.992 283.152 227.341 284.027 226.04C284.902 224.717 285.371 222.712 285.435 220.024C284.923 220.899 284.144 221.624 283.099 222.2C282.075 222.776 280.944 223.064 279.707 223.064C278.47 223.064 277.307 222.765 276.219 222.168C275.131 221.571 274.246 220.728 273.563 219.64C272.88 218.552 272.539 217.272 272.539 215.8C272.539 214.456 272.87 213.208 273.531 212.056C274.192 210.904 275.11 209.976 276.283 209.272C277.456 208.568 278.832 208.216 280.411 208.216C282.096 208.216 283.515 208.525 284.667 209.144C285.819 209.763 286.736 210.595 287.419 211.64C288.123 212.685 288.624 213.848 288.923 215.128C289.243 216.408 289.403 217.72 289.403 219.064C289.403 221.56 289.051 223.736 288.347 225.592C287.664 227.427 286.651 228.856 285.307 229.88C283.984 230.883 282.395 231.384 280.539 231.384ZM280.667 219.608C281.456 219.608 282.171 219.437 282.811 219.096C283.451 218.733 283.952 218.264 284.315 217.688C284.678 217.091 284.859 216.429 284.859 215.704C284.859 214.552 284.454 213.603 283.643 212.856C282.854 212.109 281.851 211.736 280.635 211.736C279.44 211.736 278.448 212.109 277.659 212.856C276.87 213.581 276.475 214.509 276.475 215.64C276.475 216.835 276.87 217.795 277.659 218.52C278.448 219.245 279.451 219.608 280.667 219.608Z" fill="#FCFCFD"/>
<path d="M261.619 258.144C260.925 258.144 260.301 258.021 259.747 257.776C259.203 257.52 258.771 257.179 258.451 256.752C258.131 256.315 257.96 255.829 257.939 255.296H259.827C259.859 255.669 260.035 255.984 260.355 256.24C260.685 256.485 261.096 256.608 261.587 256.608C262.099 256.608 262.493 256.512 262.771 256.32C263.059 256.117 263.203 255.861 263.203 255.552C263.203 255.221 263.043 254.976 262.723 254.816C262.413 254.656 261.917 254.48 261.235 254.288C260.573 254.107 260.035 253.931 259.619 253.76C259.203 253.589 258.84 253.328 258.531 252.976C258.232 252.624 258.083 252.16 258.083 251.584C258.083 251.115 258.221 250.688 258.499 250.304C258.776 249.909 259.171 249.6 259.683 249.376C260.205 249.152 260.803 249.04 261.475 249.04C262.477 249.04 263.283 249.296 263.891 249.808C264.509 250.309 264.84 250.997 264.883 251.872H263.059C263.027 251.477 262.867 251.163 262.579 250.928C262.291 250.693 261.901 250.576 261.411 250.576C260.931 250.576 260.563 250.667 260.307 250.848C260.051 251.029 259.923 251.269 259.923 251.568C259.923 251.803 260.008 252 260.179 252.16C260.349 252.32 260.557 252.448 260.803 252.544C261.048 252.629 261.411 252.741 261.891 252.88C262.531 253.051 263.053 253.227 263.459 253.408C263.875 253.579 264.232 253.835 264.531 254.176C264.829 254.517 264.984 254.971 264.995 255.536C264.995 256.037 264.856 256.485 264.579 256.88C264.301 257.275 263.907 257.584 263.395 257.808C262.893 258.032 262.301 258.144 261.619 258.144ZM275.046 253.376C275.046 253.707 275.024 254.005 274.982 254.272H268.246C268.299 254.976 268.56 255.541 269.03 255.968C269.499 256.395 270.075 256.608 270.758 256.608C271.739 256.608 272.432 256.197 272.838 255.376H274.806C274.539 256.187 274.054 256.853 273.35 257.376C272.656 257.888 271.792 258.144 270.758 258.144C269.915 258.144 269.158 257.957 268.486 257.584C267.824 257.2 267.302 256.667 266.918 255.984C266.544 255.291 266.358 254.491 266.358 253.584C266.358 252.677 266.539 251.883 266.902 251.2C267.275 250.507 267.792 249.973 268.454 249.6C269.126 249.227 269.894 249.04 270.758 249.04C271.59 249.04 272.331 249.221 272.982 249.584C273.632 249.947 274.139 250.459 274.502 251.12C274.864 251.771 275.046 252.523 275.046 253.376ZM273.142 252.8C273.131 252.128 272.891 251.589 272.422 251.184C271.952 250.779 271.371 250.576 270.678 250.576C270.048 250.576 269.51 250.779 269.062 251.184C268.614 251.579 268.347 252.117 268.262 252.8H273.142ZM276.233 253.584C276.233 252.677 276.414 251.883 276.777 251.2C277.15 250.507 277.662 249.973 278.313 249.6C278.963 249.227 279.71 249.04 280.553 249.04C281.619 249.04 282.499 249.296 283.193 249.808C283.897 250.309 284.371 251.029 284.617 251.968H282.649C282.489 251.531 282.233 251.189 281.881 250.944C281.529 250.699 281.086 250.576 280.553 250.576C279.806 250.576 279.209 250.843 278.761 251.376C278.323 251.899 278.105 252.635 278.105 253.584C278.105 254.533 278.323 255.275 278.761 255.808C279.209 256.341 279.806 256.608 280.553 256.608C281.609 256.608 282.307 256.144 282.649 255.216H284.617C284.361 256.112 283.881 256.827 283.177 257.36C282.473 257.883 281.598 258.144 280.553 258.144C279.71 258.144 278.963 257.957 278.313 257.584C277.662 257.2 277.15 256.667 276.777 255.984C276.414 255.291 276.233 254.491 276.233 253.584ZM289.634 258.144C288.941 258.144 288.317 258.021 287.762 257.776C287.218 257.52 286.786 257.179 286.466 256.752C286.146 256.315 285.976 255.829 285.954 255.296H287.842C287.874 255.669 288.05 255.984 288.37 256.24C288.701 256.485 289.112 256.608 289.602 256.608C290.114 256.608 290.509 256.512 290.786 256.32C291.074 256.117 291.218 255.861 291.218 255.552C291.218 255.221 291.058 254.976 290.738 254.816C290.429 254.656 289.933 254.48 289.25 254.288C288.589 254.107 288.05 253.931 287.634 253.76C287.218 253.589 286.856 253.328 286.546 252.976C286.248 252.624 286.098 252.16 286.098 251.584C286.098 251.115 286.237 250.688 286.514 250.304C286.792 249.909 287.186 249.6 287.698 249.376C288.221 249.152 288.818 249.04 289.49 249.04C290.493 249.04 291.298 249.296 291.906 249.808C292.525 250.309 292.856 250.997 292.898 251.872H291.074C291.042 251.477 290.882 251.163 290.594 250.928C290.306 250.693 289.917 250.576 289.426 250.576C288.946 250.576 288.578 250.667 288.322 250.848C288.066 251.029 287.938 251.269 287.938 251.568C287.938 251.803 288.024 252 288.194 252.16C288.365 252.32 288.573 252.448 288.818 252.544C289.064 252.629 289.426 252.741 289.906 252.88C290.546 253.051 291.069 253.227 291.474 253.408C291.89 253.579 292.248 253.835 292.546 254.176C292.845 254.517 293 254.971 293.01 255.536C293.01 256.037 292.872 256.485 292.594 256.88C292.317 257.275 291.922 257.584 291.41 257.808C290.909 258.032 290.317 258.144 289.634 258.144Z" fill="#777E91"/>
</g>
<defs>
<filter id="filter0_d_21149_17433" x="0" y="0" width="384" height="376" filterUnits="userSpaceOnUse" color-interpolation-filters="sRGB">
<feFlood flood-opacity="0" result="BackgroundImageFix"/>
<feColorMatrix in="SourceAlpha" type="matrix" values="0 0 0 0 0 0 0 0 0 0 0 0 0 0 0 0 0 0 127 0" result="hardAlpha"/>
<feMorphology radius="48" operator="erode" in="SourceAlpha" result="effect1_dropShadow_21149_17433"/>
<feOffset dy="64"/>
<feGaussianBlur stdDeviation="32"/>
<feColorMatrix type="matrix" values="0 0 0 0 0.121458 0 0 0 0 0.182875 0 0 0 0 0.275 0 0 0 0.12 0"/>
<feBlend mode="multiply" in2="BackgroundImageFix" result="effect1_dropShadow_21149_17433"/>
<feBlend mode="normal" in="SourceGraphic" in2="effect1_dropShadow_21149_17433" result="shape"/>
</filter>
</defs>
</svg>
