<svg width="311" height="48" viewBox="0 0 311 48" fill="none" xmlns="http://www.w3.org/2000/svg">
<rect x="0.5" y="0.5" width="310" height="47" rx="11.5" fill="#23262F"/>
<path d="M20.092 22.07C19.84 21.5847 19.49 21.2207 19.042 20.978C18.594 20.726 18.076 20.6 17.488 20.6C16.844 20.6 16.27 20.7447 15.766 21.034C15.262 21.3233 14.8653 21.734 14.576 22.266C14.296 22.798 14.156 23.414 14.156 24.114C14.156 24.814 14.296 25.4347 14.576 25.976C14.8653 26.508 15.262 26.9187 15.766 27.208C16.27 27.4973 16.844 27.642 17.488 27.642C18.356 27.642 19.0607 27.3993 19.602 26.914C20.1433 26.4287 20.4747 25.7707 20.596 24.94H16.942V23.666H22.304V24.912C22.2013 25.668 21.9307 26.3633 21.492 26.998C21.0627 27.6327 20.498 28.1413 19.798 28.524C19.1073 28.8973 18.3373 29.084 17.488 29.084C16.5733 29.084 15.738 28.874 14.982 28.454C14.226 28.0247 13.624 27.432 13.176 26.676C12.7373 25.92 12.518 25.066 12.518 24.114C12.518 23.162 12.7373 22.308 13.176 21.552C13.624 20.796 14.226 20.208 14.982 19.788C15.7473 19.3587 16.5827 19.144 17.488 19.144C18.524 19.144 19.4433 19.4007 20.246 19.914C21.058 20.418 21.646 21.1367 22.01 22.07H20.092ZM30.9481 24.954C30.9481 25.2433 30.9295 25.5047 30.8921 25.738H24.9981C25.0448 26.354 25.2735 26.8487 25.6841 27.222C26.0948 27.5953 26.5988 27.782 27.1961 27.782C28.0548 27.782 28.6615 27.4227 29.0161 26.704H30.7381C30.5048 27.4133 30.0801 27.9967 29.4641 28.454C28.8575 28.902 28.1015 29.126 27.1961 29.126C26.4588 29.126 25.7961 28.9627 25.2081 28.636C24.6295 28.3 24.1721 27.8333 23.8361 27.236C23.5095 26.6293 23.3461 25.9293 23.3461 25.136C23.3461 24.3427 23.5048 23.6473 23.8221 23.05C24.1488 22.4433 24.6015 21.9767 25.1801 21.65C25.7681 21.3233 26.4401 21.16 27.1961 21.16C27.9241 21.16 28.5728 21.3187 29.1421 21.636C29.7115 21.9533 30.1548 22.4013 30.4721 22.98C30.7895 23.5493 30.9481 24.2073 30.9481 24.954ZM29.2821 24.45C29.2728 23.862 29.0628 23.3907 28.6521 23.036C28.2415 22.6813 27.7328 22.504 27.1261 22.504C26.5755 22.504 26.1041 22.6813 25.7121 23.036C25.3201 23.3813 25.0868 23.8527 25.0121 24.45H29.2821ZM36.4108 21.16C37.0174 21.16 37.5588 21.286 38.0348 21.538C38.5201 21.79 38.8981 22.1633 39.1688 22.658C39.4394 23.1527 39.5748 23.75 39.5748 24.45V29H37.9928V24.688C37.9928 23.9973 37.8201 23.47 37.4748 23.106C37.1294 22.7327 36.6581 22.546 36.0608 22.546C35.4634 22.546 34.9874 22.7327 34.6328 23.106C34.2874 23.47 34.1148 23.9973 34.1148 24.688V29H32.5188V21.286H34.1148V22.168C34.3761 21.8507 34.7074 21.6033 35.1088 21.426C35.5194 21.2487 35.9534 21.16 36.4108 21.16ZM48.6805 24.954C48.6805 25.2433 48.6619 25.5047 48.6245 25.738H42.7305C42.7772 26.354 43.0059 26.8487 43.4165 27.222C43.8272 27.5953 44.3312 27.782 44.9285 27.782C45.7872 27.782 46.3939 27.4227 46.7485 26.704H48.4705C48.2372 27.4133 47.8125 27.9967 47.1965 28.454C46.5899 28.902 45.8339 29.126 44.9285 29.126C44.1912 29.126 43.5285 28.9627 42.9405 28.636C42.3619 28.3 41.9045 27.8333 41.5685 27.236C41.2419 26.6293 41.0785 25.9293 41.0785 25.136C41.0785 24.3427 41.2372 23.6473 41.5545 23.05C41.8812 22.4433 42.3339 21.9767 42.9125 21.65C43.5005 21.3233 44.1725 21.16 44.9285 21.16C45.6565 21.16 46.3052 21.3187 46.8745 21.636C47.4439 21.9533 47.8872 22.4013 48.2045 22.98C48.5219 23.5493 48.6805 24.2073 48.6805 24.954ZM47.0145 24.45C47.0052 23.862 46.7952 23.3907 46.3845 23.036C45.9739 22.6813 45.4652 22.504 44.8585 22.504C44.3079 22.504 43.8365 22.6813 43.4445 23.036C43.0525 23.3813 42.8192 23.8527 42.7445 24.45H47.0145ZM51.8472 22.406C52.0805 22.014 52.3885 21.7107 52.7712 21.496C53.1632 21.272 53.6252 21.16 54.1572 21.16V22.812H53.7512C53.1258 22.812 52.6498 22.9707 52.3232 23.288C52.0058 23.6053 51.8472 24.156 51.8472 24.94V29H50.2512V21.286H51.8472V22.406ZM55.0922 25.108C55.0922 24.3333 55.2509 23.6473 55.5682 23.05C55.8949 22.4527 56.3336 21.9907 56.8842 21.664C57.4442 21.328 58.0602 21.16 58.7322 21.16C59.3389 21.16 59.8662 21.2813 60.3142 21.524C60.7716 21.7573 61.1356 22.0513 61.4062 22.406V21.286H63.0162V29H61.4062V27.852C61.1356 28.216 60.7669 28.5193 60.3002 28.762C59.8336 29.0047 59.3016 29.126 58.7042 29.126C58.0416 29.126 57.4349 28.958 56.8842 28.622C56.3336 28.2767 55.8949 27.8007 55.5682 27.194C55.2509 26.578 55.0922 25.8827 55.0922 25.108ZM61.4062 25.136C61.4062 24.604 61.2942 24.142 61.0702 23.75C60.8556 23.358 60.5709 23.0593 60.2162 22.854C59.8616 22.6487 59.4789 22.546 59.0682 22.546C58.6576 22.546 58.2749 22.6487 57.9202 22.854C57.5656 23.05 57.2762 23.344 57.0522 23.736C56.8376 24.1187 56.7302 24.576 56.7302 25.108C56.7302 25.64 56.8376 26.1067 57.0522 26.508C57.2762 26.9093 57.5656 27.2173 57.9202 27.432C58.2842 27.6373 58.6669 27.74 59.0682 27.74C59.4789 27.74 59.8616 27.6373 60.2162 27.432C60.5709 27.2267 60.8556 26.928 61.0702 26.536C61.2942 26.1347 61.4062 25.668 61.4062 25.136ZM66.7085 18.64V29H65.1125V18.64H66.7085Z" fill="#FCFCFD"/>
<path fill-rule="evenodd" clip-rule="evenodd" d="M291.207 21.7929C290.817 21.4024 290.183 21.4024 289.793 21.7929L287 24.5858L284.207 21.7929C283.817 21.4024 283.183 21.4024 282.793 21.7929C282.402 22.1834 282.402 22.8166 282.793 23.2071L286.293 26.7071C286.683 27.0976 287.317 27.0976 287.707 26.7071L291.207 23.2071C291.598 22.8166 291.598 22.1834 291.207 21.7929Z" fill="#FCFCFD"/>
<rect x="0.5" y="0.5" width="310" height="47" rx="11.5" stroke="#353945"/>
</svg>
