<svg width="56" height="24" viewBox="0 0 56 24" fill="none" xmlns="http://www.w3.org/2000/svg">
<rect x="0.599609" width="55" height="24" rx="12" fill="#23262F"/>
<path fill-rule="evenodd" clip-rule="evenodd" d="M16.6003 18.6668C20.2822 18.6668 23.2669 15.6821 23.2669 12.0002C23.2669 8.31826 20.2822 5.3335 16.6003 5.3335C12.9184 5.3335 9.93359 8.31826 9.93359 12.0002C9.93359 15.6821 12.9184 18.6668 16.6003 18.6668ZM20.8135 15.2706C21.5155 14.3675 21.9336 13.2327 21.9336 12.0002C21.9336 9.28042 19.8978 7.03616 17.2669 6.70809V9.41751C18.4171 9.71354 19.2669 10.7576 19.2669 12.0002C19.2669 12.4947 19.1323 12.9578 18.8977 13.3549L20.8135 15.2706ZM19.8706 16.2134L17.9548 14.2977C17.5578 14.5322 17.0948 14.6668 16.6003 14.6668C16.1057 14.6668 15.6427 14.5322 15.2457 14.2977L13.3299 16.2134C14.233 16.9155 15.3678 17.3335 16.6003 17.3335C17.8327 17.3335 18.9675 16.9155 19.8706 16.2134ZM13.9336 12.0002C13.9336 12.4947 14.0682 12.9578 14.3028 13.3549L12.3871 15.2706C11.685 14.3675 11.2669 13.2327 11.2669 12.0002C11.2669 9.28042 13.3027 7.03616 15.9336 6.70809V9.41751C14.7834 9.71354 13.9336 10.7576 13.9336 12.0002ZM16.6003 13.3335C17.3366 13.3335 17.9336 12.7365 17.9336 12.0002C17.9336 11.2638 17.3366 10.6668 16.6003 10.6668C15.8639 10.6668 15.2669 11.2638 15.2669 12.0002C15.2669 12.7365 15.8639 13.3335 16.6003 13.3335Z" fill="#FCFCFD"/>
<path d="M36.8076 10.612L36.4116 12.46H37.9356V13.96H36.0876L35.6556 16H34.0596L34.4916 13.96H32.3076L31.8756 16H30.2916L30.7236 13.96H28.9116V12.46H31.0476L31.4436 10.612H29.6436V9.112H31.7676L32.1876 7.12H33.7716L33.3516 9.112H35.5356L35.9556 7.12H37.5516L37.1316 9.112H38.6676V10.612H36.8076ZM35.2116 10.612H33.0276L32.6316 12.46H34.8156L35.2116 10.612ZM45.7562 8.704H41.8682V10.756C42.0362 10.548 42.2762 10.38 42.5882 10.252C42.9002 10.116 43.2322 10.048 43.5842 10.048C44.2242 10.048 44.7482 10.188 45.1562 10.468C45.5642 10.748 45.8602 11.108 46.0442 11.548C46.2282 11.98 46.3202 12.444 46.3202 12.94C46.3202 13.86 46.0562 14.6 45.5282 15.16C45.0082 15.72 44.2642 16 43.2962 16C42.3842 16 41.6562 15.772 41.1122 15.316C40.5682 14.86 40.2602 14.264 40.1882 13.528H41.8202C41.8922 13.848 42.0522 14.104 42.3002 14.296C42.5562 14.488 42.8802 14.584 43.2722 14.584C43.7442 14.584 44.1002 14.436 44.3402 14.14C44.5802 13.844 44.7002 13.452 44.7002 12.964C44.7002 12.468 44.5762 12.092 44.3282 11.836C44.0882 11.572 43.7322 11.44 43.2602 11.44C42.9242 11.44 42.6442 11.524 42.4202 11.692C42.1962 11.86 42.0362 12.084 41.9402 12.364H40.3322V7.228H45.7562V8.704Z" fill="#FCFCFD"/>
</svg>
