<svg width="55" height="24" viewBox="0 0 55 24" fill="none" xmlns="http://www.w3.org/2000/svg">
<rect x="0.800781" width="54" height="24" rx="12" fill="#45B36B"/>
<path fill-rule="evenodd" clip-rule="evenodd" d="M17.0421 12.6669L16.3855 16.6066L20.1938 11.3335H16.5609L17.2175 7.3938L13.4092 12.6669H17.0421ZM19.0004 4.8066C19.1163 4.11151 18.215 3.73541 17.8024 4.30668L11.5649 12.9432C11.2465 13.3841 11.5615 14.0002 12.1054 14.0002H15.4682L14.6026 19.1938C14.4867 19.8889 15.388 20.265 15.8006 19.6937L22.0381 11.0572C22.3565 10.6163 22.0415 10.0002 21.4977 10.0002H18.1348L19.0004 4.8066Z" fill="#FCFCFD"/>
<path d="M37.0088 10.612L36.6128 12.46H38.1368V13.96H36.2888L35.8568 16H34.2608L34.6928 13.96H32.5088L32.0768 16H30.4928L30.9248 13.96H29.1128V12.46H31.2488L31.6448 10.612H29.8448V9.112H31.9688L32.3888 7.12H33.9728L33.5528 9.112H35.7368L36.1568 7.12H37.7528L37.3328 9.112H38.8688V10.612H37.0088ZM35.4128 10.612H33.2288L32.8328 12.46H35.0168L35.4128 10.612ZM40.1014 9.556C40.1414 8.756 40.4214 8.14 40.9414 7.708C41.4694 7.268 42.1614 7.048 43.0174 7.048C43.6014 7.048 44.1014 7.152 44.5174 7.36C44.9334 7.56 45.2454 7.836 45.4534 8.188C45.6694 8.532 45.7774 8.924 45.7774 9.364C45.7774 9.868 45.6454 10.296 45.3814 10.648C45.1254 10.992 44.8174 11.224 44.4574 11.344V11.392C44.9214 11.536 45.2814 11.792 45.5374 12.16C45.8014 12.528 45.9334 13 45.9334 13.576C45.9334 14.056 45.8214 14.484 45.5974 14.86C45.3814 15.236 45.0574 15.532 44.6254 15.748C44.2014 15.956 43.6894 16.06 43.0894 16.06C42.1854 16.06 41.4494 15.832 40.8814 15.376C40.3134 14.92 40.0134 14.248 39.9814 13.36H41.6134C41.6294 13.752 41.7614 14.068 42.0094 14.308C42.2654 14.54 42.6134 14.656 43.0534 14.656C43.4614 14.656 43.7734 14.544 43.9894 14.32C44.2134 14.088 44.3254 13.792 44.3254 13.432C44.3254 12.952 44.1734 12.608 43.8694 12.4C43.5654 12.192 43.0934 12.088 42.4534 12.088H42.1054V10.708H42.4534C43.5894 10.708 44.1574 10.328 44.1574 9.568C44.1574 9.224 44.0534 8.956 43.8454 8.764C43.6454 8.572 43.3534 8.476 42.9694 8.476C42.5934 8.476 42.3014 8.58 42.0934 8.788C41.8934 8.988 41.7774 9.244 41.7454 9.556H40.1014Z" fill="#FCFCFD"/>
</svg>
