<svg width="80" height="256" viewBox="0 0 80 256" fill="none" xmlns="http://www.w3.org/2000/svg">
<rect x="16" width="48" height="48" rx="24" fill="#FCFCFD"/>
<path fill-rule="evenodd" clip-rule="evenodd" d="M33.2929 17.2929C33.6834 16.9024 34.3166 16.9024 34.7071 17.2929L40 22.5858L45.2929 17.2929C45.6834 16.9024 46.3166 16.9024 46.7071 17.2929C47.0976 17.6834 47.0976 18.3166 46.7071 18.7071L41.4142 24L46.7071 29.2929C47.0976 29.6834 47.0976 30.3166 46.7071 30.7071C46.3166 31.0976 45.6834 31.0976 45.2929 30.7071L40 25.4142L34.7071 30.7071C34.3166 31.0976 33.6834 31.0976 33.2929 30.7071C32.9024 30.3166 32.9024 29.6834 33.2929 29.2929L38.5858 24L33.2929 18.7071C32.9024 18.3166 32.9024 17.6834 33.2929 17.2929Z" fill="#777E91"/>
<path fill-rule="evenodd" clip-rule="evenodd" d="M36.9986 86.0398C37.028 86.5913 36.6047 87.0622 36.0532 87.0916C35.3005 87.1318 34.7044 87.1808 34.2385 87.23C33.6129 87.2959 33.2328 87.6802 33.1696 88.233C33.0789 89.0267 33 90.2277 33 91.9999C33 93.7722 33.0789 94.9732 33.1696 95.7669C33.2329 96.3206 33.6121 96.7038 34.2368 96.7697C35.3308 96.8852 37.1392 96.9999 40 96.9999C42.8608 96.9999 44.6692 96.8852 45.7632 96.7697C46.3879 96.7038 46.7671 96.3206 46.8304 95.7669C46.9211 94.9732 47 93.7722 47 91.9999C47 90.2277 46.9211 89.0267 46.8304 88.233C46.7672 87.6802 46.3871 87.2959 45.7615 87.23C45.2956 87.1808 44.6995 87.1318 43.9468 87.0916C43.3953 87.0622 42.972 86.5913 43.0014 86.0398C43.0308 85.4883 43.5017 85.0651 44.0532 85.0945C44.8361 85.1362 45.4669 85.1878 45.9712 85.241C47.4556 85.3975 48.6397 86.4506 48.8175 88.0059C48.9188 88.8922 49 90.1715 49 91.9999C49 93.8284 48.9188 95.1077 48.8175 95.994C48.6398 97.5483 47.4585 98.6019 45.9732 98.7587C44.7919 98.8834 42.9108 98.9999 40 98.9999C37.0892 98.9999 35.2081 98.8834 34.0268 98.7587C32.5415 98.6019 31.3602 97.5483 31.1825 95.994C31.0812 95.1077 31 93.8284 31 91.9999C31 90.1715 31.0812 88.8922 31.1825 88.0059C31.3603 86.4506 32.5444 85.3975 34.0288 85.241C34.5331 85.1878 35.1639 85.1362 35.9468 85.0945C36.4983 85.0651 36.9692 85.4883 36.9986 86.0398Z" fill="#777E91"/>
<path fill-rule="evenodd" clip-rule="evenodd" d="M37.2071 82.2071C36.8166 82.5976 36.1834 82.5976 35.7929 82.2071C35.4024 81.8166 35.4024 81.1834 35.7929 80.7929L39.2929 77.2929C39.6834 76.9024 40.3166 76.9024 40.7071 77.2929L44.2071 80.7929C44.5976 81.1834 44.5976 81.8166 44.2071 82.2071C43.8166 82.5976 43.1834 82.5976 42.7929 82.2071L41 80.4142V90C41 90.5523 40.5523 91 40 91C39.4477 91 39 90.5523 39 90V80.4142L37.2071 82.2071Z" fill="#777E91"/>
<rect x="17" y="65" width="46" height="46" rx="23" stroke="#353945" stroke-width="2"/>
<g filter="url(#filter0_d_22030_5384)">
<rect x="16" y="128" width="48" height="48" rx="24" fill="#23262F"/>
<path d="M40 144.81C38.8321 143.689 37.2465 143 35.5 143C31.9101 143 29 145.91 29 149.5C29 155.868 35.9703 159.385 38.8138 160.555C39.5796 160.87 40.4204 160.87 41.1862 160.555C44.0297 159.385 51 155.868 51 149.5C51 145.91 48.0899 143 44.5 143C42.7535 143 41.1679 143.689 40 144.81Z" fill="#EF466F"/>
<rect x="17" y="129" width="46" height="46" rx="23" stroke="#353945" stroke-width="2"/>
</g>
<g clip-path="url(#clip0_22030_5384)">
<path d="M33 214C31.9 214 31 214.9 31 216C31 217.1 31.9 218 33 218C34.1 218 35 217.1 35 216C35 214.9 34.1 214 33 214ZM47 214C45.9 214 45 214.9 45 216C45 217.1 45.9 218 47 218C48.1 218 49 217.1 49 216C49 214.9 48.1 214 47 214ZM40 214C38.9 214 38 214.9 38 216C38 217.1 38.9 218 40 218C41.1 218 42 217.1 42 216C42 214.9 41.1 214 40 214Z" fill="#777E91"/>
</g>
<rect x="17" y="193" width="46" height="46" rx="23" stroke="#353945" stroke-width="2"/>
<defs>
<filter id="filter0_d_22030_5384" x="0" y="128" width="80" height="128" filterUnits="userSpaceOnUse" color-interpolation-filters="sRGB">
<feFlood flood-opacity="0" result="BackgroundImageFix"/>
<feColorMatrix in="SourceAlpha" type="matrix" values="0 0 0 0 0 0 0 0 0 0 0 0 0 0 0 0 0 0 127 0" result="hardAlpha"/>
<feMorphology radius="48" operator="erode" in="SourceAlpha" result="effect1_dropShadow_22030_5384"/>
<feOffset dy="64"/>
<feGaussianBlur stdDeviation="32"/>
<feColorMatrix type="matrix" values="0 0 0 0 0.121458 0 0 0 0 0.182875 0 0 0 0 0.275 0 0 0 0.12 0"/>
<feBlend mode="multiply" in2="BackgroundImageFix" result="effect1_dropShadow_22030_5384"/>
<feBlend mode="normal" in="SourceGraphic" in2="effect1_dropShadow_22030_5384" result="shape"/>
</filter>
<clipPath id="clip0_22030_5384">
<rect width="24" height="24" fill="white" transform="translate(28 204)"/>
</clipPath>
</defs>
</svg>
