<svg width="56" height="24" viewBox="0 0 56 24" fill="none" xmlns="http://www.w3.org/2000/svg">
<rect x="0.199219" width="55" height="24" rx="12" fill="#23262F"/>
<path fill-rule="evenodd" clip-rule="evenodd" d="M16.1999 18.6668C19.8818 18.6668 22.8665 15.6821 22.8665 12.0002C22.8665 8.31826 19.8818 5.3335 16.1999 5.3335C12.518 5.3335 9.5332 8.31826 9.5332 12.0002C9.5332 15.6821 12.518 18.6668 16.1999 18.6668ZM20.4131 15.2706C21.1151 14.3675 21.5332 13.2327 21.5332 12.0002C21.5332 9.28042 19.4974 7.03616 16.8665 6.70809V9.41751C18.0167 9.71354 18.8665 10.7576 18.8665 12.0002C18.8665 12.4947 18.7319 12.9578 18.4973 13.3549L20.4131 15.2706ZM19.4702 16.2134L17.5545 14.2977C17.1575 14.5322 16.6944 14.6668 16.1999 14.6668C15.7054 14.6668 15.2423 14.5322 14.8453 14.2977L12.9295 16.2134C13.8326 16.9155 14.9674 17.3335 16.1999 17.3335C17.4323 17.3335 18.5671 16.9155 19.4702 16.2134ZM13.5332 12.0002C13.5332 12.4947 13.6678 12.9578 13.9025 13.3549L11.9867 15.2706C11.2846 14.3675 10.8665 13.2327 10.8665 12.0002C10.8665 9.28042 12.9023 7.03616 15.5332 6.70809V9.41751C14.3831 9.71354 13.5332 10.7576 13.5332 12.0002ZM16.1999 13.3335C16.9362 13.3335 17.5332 12.7365 17.5332 12.0002C17.5332 11.2638 16.9362 10.6668 16.1999 10.6668C15.4635 10.6668 14.8665 11.2638 14.8665 12.0002C14.8665 12.7365 15.4635 13.3335 16.1999 13.3335Z" fill="#FCFCFD"/>
<path d="M36.4072 10.612L36.0112 12.46H37.5352V13.96H35.6872L35.2552 16H33.6592L34.0912 13.96H31.9072L31.4752 16H29.8912L30.3232 13.96H28.5112V12.46H30.6472L31.0432 10.612H29.2432V9.112H31.3672L31.7872 7.12H33.3712L32.9512 9.112H35.1352L35.5552 7.12H37.1512L36.7312 9.112H38.2672V10.612H36.4072ZM34.8112 10.612H32.6272L32.2312 12.46H34.4152L34.8112 10.612ZM39.4038 14.296V12.976L43.3278 7.36H45.2838V12.832H46.3398V14.296H45.2838V16H43.6038V14.296H39.4038ZM43.7118 9.16L41.2518 12.832H43.7118V9.16Z" fill="#FCFCFD"/>
</svg>
