<svg width="55" height="24" viewBox="0 0 55 24" fill="none" xmlns="http://www.w3.org/2000/svg">
<rect x="0.400391" width="54" height="24" rx="12" fill="#9757D7"/>
<path fill-rule="evenodd" clip-rule="evenodd" d="M19.0677 12.0002C19.0677 13.4729 17.8738 14.6668 16.401 14.6668C14.9283 14.6668 13.7344 13.4729 13.7344 12.0002C13.7344 10.5274 14.9283 9.3335 16.401 9.3335C17.8738 9.3335 19.0677 10.5274 19.0677 12.0002ZM17.7344 12.0002C17.7344 12.7365 17.1374 13.3335 16.401 13.3335C15.6647 13.3335 15.0677 12.7365 15.0677 12.0002C15.0677 11.2638 15.6647 10.6668 16.401 10.6668C17.1374 10.6668 17.7344 11.2638 17.7344 12.0002Z" fill="#FCFCFD"/>
<path fill-rule="evenodd" clip-rule="evenodd" d="M23.0677 12.0002C23.0677 15.6821 20.0829 18.6668 16.401 18.6668C12.7191 18.6668 9.73438 15.6821 9.73438 12.0002C9.73438 8.31826 12.7191 5.3335 16.401 5.3335C20.0829 5.3335 23.0677 8.31826 23.0677 12.0002ZM21.7344 12.0002C21.7344 14.9457 19.3466 17.3335 16.401 17.3335C13.4555 17.3335 11.0677 14.9457 11.0677 12.0002C11.0677 9.05464 13.4555 6.66683 16.401 6.66683C19.3466 6.66683 21.7344 9.05464 21.7344 12.0002Z" fill="#FCFCFD"/>
<path d="M12.4354 7.12253C12.5519 6.77324 12.9294 6.58446 13.2787 6.7009L15.2787 7.36756C15.628 7.48399 15.8168 7.86154 15.7003 8.21084C15.5839 8.56013 15.2064 8.74891 14.8571 8.63247L12.8571 7.96581C12.5078 7.84938 12.319 7.47183 12.4354 7.12253Z" fill="#FCFCFD"/>
<path d="M12.4716 11.0352C12.6362 10.7059 13.0367 10.5724 13.366 10.737L14.6993 11.4037C15.0286 11.5684 15.1621 11.9688 14.9975 12.2981C14.8328 12.6274 14.4324 12.7609 14.103 12.5963L12.7697 11.9296C12.4404 11.7649 12.3069 11.3645 12.4716 11.0352Z" fill="#FCFCFD"/>
<path d="M17.5393 17.1381C17.7996 16.8777 17.7996 16.4556 17.5393 16.1953C17.2789 15.9349 16.8568 15.9349 16.5965 16.1953L15.5965 17.1953C15.3361 17.4556 15.3361 17.8777 15.5965 18.1381C15.8568 18.3984 16.2789 18.3984 16.5393 18.1381L17.5393 17.1381Z" fill="#FCFCFD"/>
<path d="M17.5965 13.1953C17.8568 12.9349 18.2789 12.9349 18.5393 13.1953L18.8726 13.5286C19.133 13.7889 19.133 14.2111 18.8726 14.4714C18.6123 14.7318 18.1901 14.7318 17.9298 14.4714L17.5965 14.1381C17.3361 13.8777 17.3361 13.4556 17.5965 13.1953Z" fill="#FCFCFD"/>
<path d="M13.6641 14.9648C13.8288 14.6355 13.6953 14.235 13.366 14.0704C13.0367 13.9057 12.6362 14.0392 12.4716 14.3685L11.8049 15.7018C11.6402 16.0312 11.7737 16.4316 12.103 16.5963C12.4324 16.7609 12.8328 16.6274 12.9975 16.2981L13.6641 14.9648Z" fill="#FCFCFD"/>
<path d="M22.9975 11.7018C23.1621 12.0312 23.0287 12.4316 22.6993 12.5963L21.366 13.2629C21.0367 13.4276 20.6362 13.2941 20.4716 12.9648C20.3069 12.6355 20.4404 12.235 20.7697 12.0704L22.103 11.4037C22.4324 11.239 22.8328 11.3725 22.9975 11.7018Z" fill="#FCFCFD"/>
<path d="M19.0337 9.54417C19.1501 9.19487 18.9613 8.81733 18.612 8.7009C18.2627 8.58446 17.8852 8.77324 17.7688 9.12253L17.4354 10.1225C17.319 10.4718 17.5078 10.8494 17.8571 10.9658C18.2064 11.0822 18.5839 10.8935 18.7003 10.5442L19.0337 9.54417Z" fill="#FCFCFD"/>
<path d="M36.6084 10.612L36.2124 12.46H37.7364V13.96H35.8884L35.4564 16H33.8604L34.2924 13.96H32.1084L31.6764 16H30.0924L30.5244 13.96H28.7124V12.46H30.8484L31.2444 10.612H29.4444V9.112H31.5684L31.9884 7.12H33.5724L33.1524 9.112H35.3364L35.7564 7.12H37.3524L36.9324 9.112H38.4684V10.612H36.6084ZM35.0124 10.612H32.8284L32.4324 12.46H34.6164L35.0124 10.612ZM40.205 14.104C40.973 13.464 41.585 12.932 42.041 12.508C42.497 12.076 42.877 11.628 43.181 11.164C43.485 10.7 43.637 10.244 43.637 9.796C43.637 9.388 43.541 9.068 43.349 8.836C43.157 8.604 42.861 8.488 42.461 8.488C42.061 8.488 41.753 8.624 41.537 8.896C41.321 9.16 41.209 9.524 41.201 9.988H39.569C39.601 9.028 39.885 8.3 40.421 7.804C40.965 7.308 41.653 7.06 42.485 7.06C43.397 7.06 44.097 7.304 44.585 7.792C45.073 8.272 45.317 8.908 45.317 9.7C45.317 10.324 45.149 10.92 44.813 11.488C44.477 12.056 44.093 12.552 43.661 12.976C43.229 13.392 42.665 13.896 41.969 14.488H45.509V15.88H39.581V14.632L40.205 14.104Z" fill="#FCFCFD"/>
</svg>
