<svg width="51" height="24" viewBox="0 0 51 24" fill="none" xmlns="http://www.w3.org/2000/svg">
<rect width="51" height="24" rx="12" fill="#3772FF"/>
<path fill-rule="evenodd" clip-rule="evenodd" d="M18.6673 7.33333H13.334C12.9658 7.33333 12.6673 7.63181 12.6673 8V10.6667C12.6673 12.5076 14.1597 14 16.0007 14C17.8416 14 19.334 12.5076 19.334 10.6667V8C19.334 7.63181 19.0355 7.33333 18.6673 7.33333ZM13.334 6C12.2294 6 11.334 6.89543 11.334 8V10.6667C11.334 13.244 13.4233 15.3333 16.0007 15.3333C18.578 15.3333 20.6673 13.244 20.6673 10.6667V8C20.6673 6.89543 19.7719 6 18.6673 6H13.334Z" fill="#FCFCFD"/>
<path fill-rule="evenodd" clip-rule="evenodd" d="M8.66602 9.3335C8.66602 8.22893 9.56145 7.3335 10.666 7.3335H12.666V12.6668H11.3327C9.85992 12.6668 8.66602 11.4729 8.66602 10.0002V9.3335ZM10.666 8.66683H11.3327V11.3335C10.5963 11.3335 9.99935 10.7365 9.99935 10.0002V9.3335C9.99935 8.96531 10.2978 8.66683 10.666 8.66683Z" fill="#FCFCFD"/>
<path fill-rule="evenodd" clip-rule="evenodd" d="M23.3327 9.3335C23.3327 8.22893 22.4373 7.3335 21.3327 7.3335H19.3327V12.6668H20.666C22.1388 12.6668 23.3327 11.4729 23.3327 10.0002V9.3335ZM21.3327 8.66683H20.666V11.3335C21.4024 11.3335 21.9993 10.7365 21.9993 10.0002V9.3335C21.9993 8.96531 21.7009 8.66683 21.3327 8.66683Z" fill="#FCFCFD"/>
<path d="M16.0007 14C15.6325 14 15.334 14.2985 15.334 14.6667V16.6667H14.0007C13.6325 16.6667 13.334 16.9651 13.334 17.3333C13.334 17.7015 13.6325 18 14.0007 18H18.0007C18.3688 18 18.6673 17.7015 18.6673 17.3333C18.6673 16.9651 18.3688 16.6667 18.0007 16.6667H16.6673V14.6667C16.6673 14.2985 16.3688 14 16.0007 14Z" fill="#FCFCFD"/>
<path d="M36.208 10.612L35.812 12.46H37.336V13.96H35.488L35.056 16H33.46L33.892 13.96H31.708L31.276 16H29.692L30.124 13.96H28.312V12.46H30.448L30.844 10.612H29.044V9.112H31.168L31.588 7.12H33.172L32.752 9.112H34.936L35.356 7.12H36.952L36.532 9.112H38.068V10.612H36.208ZM34.612 10.612H32.428L32.032 12.46H34.216L34.612 10.612ZM39.0726 8.8V7.252H41.9646V16H40.2366V8.8H39.0726Z" fill="#FCFCFD"/>
</svg>
