<svg width="448" height="56" viewBox="0 0 448 56" fill="none" xmlns="http://www.w3.org/2000/svg">
<g clip-path="url(#clip0_21149_19391)">
<rect y="4" width="48" height="48" rx="24" fill="#E6E8EC"/>
<rect y="-9" width="48" height="71.9912"/>
</g>
<path d="M77.056 7.248V9.96H72.592V24H69.232V9.96H64.768V7.248H77.056ZM86.9956 10.512C88.0036 10.512 88.8996 10.736 89.6836 11.184C90.4676 11.616 91.0756 12.264 91.5076 13.128C91.9556 13.976 92.1796 15 92.1796 16.2V24H88.8196V16.656C88.8196 15.6 88.5556 14.792 88.0276 14.232C87.4996 13.656 86.7796 13.368 85.8676 13.368C84.9396 13.368 84.2036 13.656 83.6596 14.232C83.1316 14.792 82.8676 15.6 82.8676 16.656V24H79.5076V6.24H82.8676V12.36C83.2996 11.784 83.8756 11.336 84.5956 11.016C85.3156 10.68 86.1156 10.512 86.9956 10.512ZM107.735 17.064C107.735 17.544 107.703 17.976 107.639 18.36H97.9188C97.9988 19.32 98.3348 20.072 98.9268 20.616C99.5188 21.16 100.247 21.432 101.111 21.432C102.359 21.432 103.247 20.896 103.775 19.824H107.399C107.015 21.104 106.279 22.16 105.191 22.992C104.103 23.808 102.767 24.216 101.183 24.216C99.9028 24.216 98.7508 23.936 97.7268 23.376C96.7188 22.8 95.9268 21.992 95.3508 20.952C94.7908 19.912 94.5107 18.712 94.5107 17.352C94.5107 15.976 94.7908 14.768 95.3508 13.728C95.9108 12.688 96.6948 11.888 97.7028 11.328C98.7108 10.768 99.8708 10.488 101.183 10.488C102.447 10.488 103.575 10.76 104.567 11.304C105.575 11.848 106.351 12.624 106.895 13.632C107.455 14.624 107.735 15.768 107.735 17.064ZM104.255 16.104C104.239 15.24 103.927 14.552 103.319 14.04C102.711 13.512 101.967 13.248 101.087 13.248C100.255 13.248 99.5508 13.504 98.9748 14.016C98.4148 14.512 98.0708 15.208 97.9428 16.104H104.255ZM122.002 13.464H119.674V24H116.266V13.464H114.754V10.704H116.266V10.032C116.266 8.4 116.73 7.2 117.658 6.432C118.586 5.664 119.986 5.304 121.858 5.352V8.184C121.042 8.168 120.474 8.304 120.154 8.592C119.834 8.88 119.674 9.4 119.674 10.152V10.704H122.002V13.464ZM136.731 10.704V24H133.347V22.32C132.915 22.896 132.347 23.352 131.643 23.688C130.955 24.008 130.203 24.168 129.387 24.168C128.347 24.168 127.427 23.952 126.627 23.52C125.827 23.072 125.195 22.424 124.731 21.576C124.283 20.712 124.059 19.688 124.059 18.504V10.704H127.419V18.024C127.419 19.08 127.683 19.896 128.211 20.472C128.739 21.032 129.459 21.312 130.371 21.312C131.299 21.312 132.027 21.032 132.555 20.472C133.083 19.896 133.347 19.08 133.347 18.024V10.704H136.731ZM143.959 13.464V19.896C143.959 20.344 144.063 20.672 144.271 20.88C144.495 21.072 144.863 21.168 145.375 21.168H146.935V24H144.823C141.991 24 140.575 22.624 140.575 19.872V13.464H138.991V10.704H140.575V7.416H143.959V10.704H146.935V13.464H143.959ZM161.903 10.704V24H158.519V22.32C158.087 22.896 157.519 23.352 156.815 23.688C156.127 24.008 155.375 24.168 154.559 24.168C153.519 24.168 152.599 23.952 151.799 23.52C150.999 23.072 150.367 22.424 149.903 21.576C149.455 20.712 149.231 19.688 149.231 18.504V10.704H152.591V18.024C152.591 19.08 152.855 19.896 153.383 20.472C153.911 21.032 154.631 21.312 155.543 21.312C156.471 21.312 157.199 21.032 157.727 20.472C158.255 19.896 158.519 19.08 158.519 18.024V10.704H161.903ZM168.579 12.768C169.011 12.064 169.571 11.512 170.259 11.112C170.963 10.712 171.763 10.512 172.659 10.512V14.04H171.771C170.715 14.04 169.915 14.288 169.371 14.784C168.843 15.28 168.579 16.144 168.579 17.376V24H165.219V10.704H168.579V12.768ZM187.282 17.064C187.282 17.544 187.25 17.976 187.186 18.36H177.466C177.546 19.32 177.882 20.072 178.474 20.616C179.066 21.16 179.794 21.432 180.658 21.432C181.906 21.432 182.794 20.896 183.322 19.824H186.946C186.562 21.104 185.826 22.16 184.738 22.992C183.65 23.808 182.314 24.216 180.73 24.216C179.45 24.216 178.298 23.936 177.274 23.376C176.266 22.8 175.474 21.992 174.898 20.952C174.338 19.912 174.058 18.712 174.058 17.352C174.058 15.976 174.338 14.768 174.898 13.728C175.458 12.688 176.242 11.888 177.25 11.328C178.258 10.768 179.418 10.488 180.73 10.488C181.994 10.488 183.122 10.76 184.114 11.304C185.122 11.848 185.898 12.624 186.442 13.632C187.002 14.624 187.282 15.768 187.282 17.064ZM183.802 16.104C183.786 15.24 183.474 14.552 182.866 14.04C182.258 13.512 181.514 13.248 180.634 13.248C179.802 13.248 179.098 13.504 178.522 14.016C177.962 14.512 177.618 15.208 177.49 16.104H183.802ZM201.357 24.216C200.077 24.216 198.925 23.936 197.901 23.376C196.877 22.8 196.069 21.992 195.477 20.952C194.901 19.912 194.613 18.712 194.613 17.352C194.613 15.992 194.909 14.792 195.501 13.752C196.109 12.712 196.933 11.912 197.973 11.352C199.013 10.776 200.173 10.488 201.453 10.488C202.733 10.488 203.893 10.776 204.933 11.352C205.973 11.912 206.789 12.712 207.381 13.752C207.989 14.792 208.293 15.992 208.293 17.352C208.293 18.712 207.981 19.912 207.357 20.952C206.749 21.992 205.917 22.8 204.861 23.376C203.821 23.936 202.653 24.216 201.357 24.216ZM201.357 21.288C201.965 21.288 202.533 21.144 203.061 20.856C203.605 20.552 204.037 20.104 204.357 19.512C204.677 18.92 204.837 18.2 204.837 17.352C204.837 16.088 204.501 15.12 203.829 14.448C203.173 13.76 202.365 13.416 201.405 13.416C200.445 13.416 199.637 13.76 198.981 14.448C198.341 15.12 198.021 16.088 198.021 17.352C198.021 18.616 198.333 19.592 198.957 20.28C199.597 20.952 200.397 21.288 201.357 21.288ZM216.854 13.464H214.526V24H211.118V13.464H209.606V10.704H211.118V10.032C211.118 8.4 211.582 7.2 212.51 6.432C213.438 5.664 214.838 5.304 216.71 5.352V8.184C215.894 8.168 215.326 8.304 215.006 8.592C214.686 8.88 214.526 9.4 214.526 10.152V10.704H216.854V13.464ZM228.11 9.96V14.16H233.75V16.824H228.11V21.264H234.47V24H224.75V7.224H234.47V9.96H228.11ZM248.923 7.248V9.96H244.459V24H241.099V9.96H236.635V7.248H248.923ZM265.271 7.248V24H261.911V16.872H254.735V24H251.375V7.248H254.735V14.136H261.911V7.248H265.271ZM273.114 6.984C274.09 6.984 274.962 7.2 275.73 7.632C276.514 8.064 277.122 8.672 277.554 9.456C277.986 10.224 278.202 11.104 278.202 12.096C278.202 13.072 277.986 13.944 277.554 14.712C277.122 15.48 276.514 16.088 275.73 16.536C274.962 16.968 274.09 17.184 273.114 17.184C272.138 17.184 271.258 16.968 270.474 16.536C269.706 16.088 269.098 15.48 268.65 14.712C268.218 13.944 268.002 13.072 268.002 12.096C268.002 11.104 268.218 10.224 268.65 9.456C269.098 8.672 269.706 8.064 270.474 7.632C271.258 7.2 272.138 6.984 273.114 6.984ZM273.114 15.96C274.266 15.96 275.186 15.608 275.874 14.904C276.578 14.184 276.93 13.248 276.93 12.096C276.93 10.928 276.578 9.992 275.874 9.288C275.186 8.568 274.266 8.208 273.114 8.208C271.962 8.208 271.042 8.568 270.354 9.288C269.666 9.992 269.322 10.928 269.322 12.096C269.322 13.264 269.666 14.2 270.354 14.904C271.042 15.608 271.962 15.96 273.114 15.96ZM275.37 11.136C275.37 11.488 275.282 11.792 275.106 12.048C274.946 12.304 274.714 12.496 274.41 12.624L275.658 14.592H273.786L272.754 12.792H272.61V14.592H271.002V9.456H273.522C274.082 9.456 274.53 9.616 274.866 9.936C275.202 10.24 275.37 10.64 275.37 11.136ZM272.586 11.592H273.354C273.466 11.592 273.562 11.56 273.642 11.496C273.722 11.432 273.762 11.336 273.762 11.208C273.762 10.968 273.626 10.848 273.354 10.848H272.586V11.592Z" fill="#FCFCFD"/>
<path d="M64.63 40.25V38.794H67.542V49H65.932V40.25H64.63ZM71.4565 43.666C70.4859 43.1807 70.0005 42.4153 70.0005 41.37C70.0005 40.866 70.1265 40.404 70.3785 39.984C70.6305 39.564 71.0085 39.2327 71.5125 38.99C72.0165 38.738 72.6325 38.612 73.3605 38.612C74.0792 38.612 74.6905 38.738 75.1945 38.99C75.7079 39.2327 76.0905 39.564 76.3425 39.984C76.5945 40.404 76.7205 40.866 76.7205 41.37C76.7205 41.8927 76.5852 42.3547 76.3145 42.756C76.0532 43.148 75.7032 43.4513 75.2645 43.666C75.7965 43.862 76.2165 44.184 76.5245 44.632C76.8325 45.0707 76.9865 45.5887 76.9865 46.186C76.9865 46.7927 76.8325 47.3293 76.5245 47.796C76.2165 48.2627 75.7872 48.622 75.2365 48.874C74.6859 49.126 74.0605 49.252 73.3605 49.252C72.6605 49.252 72.0352 49.126 71.4845 48.874C70.9432 48.622 70.5185 48.2627 70.2105 47.796C69.9025 47.3293 69.7485 46.7927 69.7485 46.186C69.7485 45.5793 69.9025 45.0567 70.2105 44.618C70.5185 44.1793 70.9339 43.862 71.4565 43.666ZM75.1945 41.566C75.1945 41.0433 75.0312 40.642 74.7045 40.362C74.3779 40.082 73.9299 39.942 73.3605 39.942C72.8005 39.942 72.3572 40.082 72.0305 40.362C71.7039 40.642 71.5405 41.048 71.5405 41.58C71.5405 42.0467 71.7085 42.4293 72.0445 42.728C72.3899 43.0173 72.8285 43.162 73.3605 43.162C73.8925 43.162 74.3312 43.0127 74.6765 42.714C75.0219 42.4153 75.1945 42.0327 75.1945 41.566ZM73.3605 44.366C72.7445 44.366 72.2405 44.52 71.8485 44.828C71.4659 45.1267 71.2745 45.5607 71.2745 46.13C71.2745 46.662 71.4612 47.096 71.8345 47.432C72.2079 47.7587 72.7165 47.922 73.3605 47.922C73.9952 47.922 74.4945 47.754 74.8585 47.418C75.2319 47.082 75.4185 46.6527 75.4185 46.13C75.4185 45.57 75.2272 45.136 74.8445 44.828C74.4712 44.52 73.9765 44.366 73.3605 44.366ZM83.321 40.264C83.0317 40.264 82.789 40.166 82.593 39.97C82.397 39.774 82.299 39.5313 82.299 39.242C82.299 38.9527 82.397 38.71 82.593 38.514C82.789 38.318 83.0317 38.22 83.321 38.22C83.601 38.22 83.839 38.318 84.035 38.514C84.231 38.71 84.329 38.9527 84.329 39.242C84.329 39.5313 84.231 39.774 84.035 39.97C83.839 40.166 83.601 40.264 83.321 40.264ZM84.105 41.286V49H82.509V41.286H84.105ZM90.0924 41.16C90.6991 41.16 91.2404 41.286 91.7164 41.538C92.2017 41.79 92.5797 42.1633 92.8504 42.658C93.1211 43.1527 93.2564 43.75 93.2564 44.45V49H91.6744V44.688C91.6744 43.9973 91.5017 43.47 91.1564 43.106C90.8111 42.7327 90.3397 42.546 89.7424 42.546C89.1451 42.546 88.6691 42.7327 88.3144 43.106C87.9691 43.47 87.7964 43.9973 87.7964 44.688V49H86.2004V41.286H87.7964V42.168C88.0577 41.8507 88.3891 41.6033 88.7904 41.426C89.2011 41.2487 89.6351 41.16 90.0924 41.16ZM101.729 49.126C101.122 49.126 100.576 49.0187 100.091 48.804C99.6149 48.58 99.2369 48.2813 98.9569 47.908C98.6769 47.5253 98.5276 47.1007 98.5089 46.634H100.161C100.189 46.9607 100.343 47.236 100.623 47.46C100.912 47.6747 101.272 47.782 101.701 47.782C102.149 47.782 102.494 47.698 102.737 47.53C102.989 47.3527 103.115 47.1287 103.115 46.858C103.115 46.5687 102.975 46.354 102.695 46.214C102.424 46.074 101.99 45.92 101.393 45.752C100.814 45.5933 100.343 45.4393 99.9789 45.29C99.6149 45.1407 99.2976 44.912 99.0269 44.604C98.7656 44.296 98.6349 43.89 98.6349 43.386C98.6349 42.9753 98.7562 42.602 98.9989 42.266C99.2416 41.9207 99.5869 41.65 100.035 41.454C100.492 41.258 101.015 41.16 101.603 41.16C102.48 41.16 103.185 41.384 103.717 41.832C104.258 42.2707 104.548 42.8727 104.585 43.638H102.989C102.961 43.2927 102.821 43.0173 102.569 42.812C102.317 42.6067 101.976 42.504 101.547 42.504C101.127 42.504 100.805 42.5833 100.581 42.742C100.357 42.9007 100.245 43.1107 100.245 43.372C100.245 43.5773 100.32 43.75 100.469 43.89C100.618 44.03 100.8 44.142 101.015 44.226C101.23 44.3007 101.547 44.3987 101.967 44.52C102.527 44.6693 102.984 44.8233 103.339 44.982C103.703 45.1313 104.016 45.3553 104.277 45.654C104.538 45.9527 104.674 46.3493 104.683 46.844C104.683 47.2827 104.562 47.6747 104.319 48.02C104.076 48.3653 103.731 48.636 103.283 48.832C102.844 49.028 102.326 49.126 101.729 49.126ZM108.269 42.588V46.858C108.269 47.1473 108.335 47.3573 108.465 47.488C108.605 47.6093 108.839 47.67 109.165 47.67H110.145V49H108.885C108.167 49 107.616 48.832 107.233 48.496C106.851 48.16 106.659 47.614 106.659 46.858V42.588H105.749V41.286H106.659V39.368H108.269V41.286H110.145V42.588H108.269ZM114.962 49.126C114.234 49.126 113.576 48.9627 112.988 48.636C112.4 48.3 111.938 47.8333 111.602 47.236C111.266 46.6293 111.098 45.9293 111.098 45.136C111.098 44.352 111.271 43.6567 111.616 43.05C111.962 42.4433 112.433 41.9767 113.03 41.65C113.628 41.3233 114.295 41.16 115.032 41.16C115.77 41.16 116.437 41.3233 117.034 41.65C117.632 41.9767 118.103 42.4433 118.448 43.05C118.794 43.6567 118.966 44.352 118.966 45.136C118.966 45.92 118.789 46.6153 118.434 47.222C118.08 47.8287 117.594 48.3 116.978 48.636C116.372 48.9627 115.7 49.126 114.962 49.126ZM114.962 47.74C115.373 47.74 115.756 47.642 116.11 47.446C116.474 47.25 116.768 46.956 116.992 46.564C117.216 46.172 117.328 45.696 117.328 45.136C117.328 44.576 117.221 44.1047 117.006 43.722C116.792 43.33 116.507 43.036 116.152 42.84C115.798 42.644 115.415 42.546 115.004 42.546C114.594 42.546 114.211 42.644 113.856 42.84C113.511 43.036 113.236 43.33 113.03 43.722C112.825 44.1047 112.722 44.576 112.722 45.136C112.722 45.9667 112.932 46.6107 113.352 47.068C113.782 47.516 114.318 47.74 114.962 47.74ZM120.012 45.136C120.012 44.3427 120.171 43.6473 120.488 43.05C120.815 42.4433 121.263 41.9767 121.832 41.65C122.401 41.3233 123.055 41.16 123.792 41.16C124.725 41.16 125.495 41.384 126.102 41.832C126.718 42.2707 127.133 42.9007 127.348 43.722H125.626C125.486 43.3393 125.262 43.0407 124.954 42.826C124.646 42.6113 124.259 42.504 123.792 42.504C123.139 42.504 122.616 42.7373 122.224 43.204C121.841 43.6613 121.65 44.3053 121.65 45.136C121.65 45.9667 121.841 46.6153 122.224 47.082C122.616 47.5487 123.139 47.782 123.792 47.782C124.716 47.782 125.327 47.376 125.626 46.564H127.348C127.124 47.348 126.704 47.9733 126.088 48.44C125.472 48.8973 124.707 49.126 123.792 49.126C123.055 49.126 122.401 48.9627 121.832 48.636C121.263 48.3 120.815 47.8333 120.488 47.236C120.171 46.6293 120.012 45.9293 120.012 45.136ZM131.991 45.15L135.547 49H133.391L130.535 45.682V49H128.939V38.64H130.535V44.66L133.335 41.286H135.547L131.991 45.15Z" fill="#E6E8EC"/>
<path d="M387.368 5.636V14H386.276V10.208H382.016V14H380.924V5.636H382.016V9.308H386.276V5.636H387.368ZM389.797 6.356C389.589 6.356 389.413 6.284 389.269 6.14C389.125 5.996 389.053 5.82 389.053 5.612C389.053 5.404 389.125 5.228 389.269 5.084C389.413 4.94 389.589 4.868 389.797 4.868C389.997 4.868 390.165 4.94 390.301 5.084C390.445 5.228 390.517 5.404 390.517 5.612C390.517 5.82 390.445 5.996 390.301 6.14C390.165 6.284 389.997 6.356 389.797 6.356ZM390.325 7.424V14H389.233V7.424H390.325ZM394.898 7.316C395.466 7.316 395.962 7.44 396.386 7.688C396.818 7.936 397.138 8.248 397.346 8.624V7.424H398.45V14.144C398.45 14.744 398.322 15.276 398.066 15.74C397.81 16.212 397.442 16.58 396.962 16.844C396.49 17.108 395.938 17.24 395.306 17.24C394.442 17.24 393.722 17.036 393.146 16.628C392.57 16.22 392.23 15.664 392.126 14.96H393.206C393.326 15.36 393.574 15.68 393.95 15.92C394.326 16.168 394.778 16.292 395.306 16.292C395.906 16.292 396.394 16.104 396.77 15.728C397.154 15.352 397.346 14.824 397.346 14.144V12.764C397.13 13.148 396.81 13.468 396.386 13.724C395.962 13.98 395.466 14.108 394.898 14.108C394.314 14.108 393.782 13.964 393.302 13.676C392.83 13.388 392.458 12.984 392.186 12.464C391.914 11.944 391.778 11.352 391.778 10.688C391.778 10.016 391.914 9.428 392.186 8.924C392.458 8.412 392.83 8.016 393.302 7.736C393.782 7.456 394.314 7.316 394.898 7.316ZM397.346 10.7C397.346 10.204 397.246 9.772 397.046 9.404C396.846 9.036 396.574 8.756 396.23 8.564C395.894 8.364 395.522 8.264 395.114 8.264C394.706 8.264 394.334 8.36 393.998 8.552C393.662 8.744 393.394 9.024 393.194 9.392C392.994 9.76 392.894 10.192 392.894 10.688C392.894 11.192 392.994 11.632 393.194 12.008C393.394 12.376 393.662 12.66 393.998 12.86C394.334 13.052 394.706 13.148 395.114 13.148C395.522 13.148 395.894 13.052 396.23 12.86C396.574 12.66 396.846 12.376 397.046 12.008C397.246 11.632 397.346 11.196 397.346 10.7ZM403.559 7.304C404.055 7.304 404.503 7.412 404.903 7.628C405.303 7.836 405.615 8.152 405.839 8.576C406.071 9 406.187 9.516 406.187 10.124V14H405.107V10.28C405.107 9.624 404.943 9.124 404.615 8.78C404.287 8.428 403.839 8.252 403.271 8.252C402.695 8.252 402.235 8.432 401.891 8.792C401.555 9.152 401.387 9.676 401.387 10.364V14H400.295V5.12H401.387V8.36C401.603 8.024 401.899 7.764 402.275 7.58C402.659 7.396 403.087 7.304 403.559 7.304ZM413.971 10.46C413.971 10.668 413.959 10.888 413.935 11.12H408.679C408.719 11.768 408.939 12.276 409.339 12.644C409.747 13.004 410.239 13.184 410.815 13.184C411.287 13.184 411.679 13.076 411.991 12.86C412.311 12.636 412.535 12.34 412.663 11.972H413.839C413.663 12.604 413.311 13.12 412.783 13.52C412.255 13.912 411.599 14.108 410.815 14.108C410.191 14.108 409.631 13.968 409.135 13.688C408.647 13.408 408.263 13.012 407.983 12.5C407.703 11.98 407.563 11.38 407.563 10.7C407.563 10.02 407.699 9.424 407.971 8.912C408.243 8.4 408.623 8.008 409.111 7.736C409.607 7.456 410.175 7.316 410.815 7.316C411.439 7.316 411.991 7.452 412.471 7.724C412.951 7.996 413.319 8.372 413.575 8.852C413.839 9.324 413.971 9.86 413.971 10.46ZM412.843 10.232C412.843 9.816 412.751 9.46 412.567 9.164C412.383 8.86 412.131 8.632 411.811 8.48C411.499 8.32 411.151 8.24 410.767 8.24C410.215 8.24 409.743 8.416 409.351 8.768C408.967 9.12 408.747 9.608 408.691 10.232H412.843ZM417.74 14.108C417.236 14.108 416.784 14.024 416.384 13.856C415.984 13.68 415.668 13.44 415.436 13.136C415.204 12.824 415.076 12.468 415.052 12.068H416.18C416.212 12.396 416.364 12.664 416.636 12.872C416.916 13.08 417.28 13.184 417.728 13.184C418.144 13.184 418.472 13.092 418.712 12.908C418.952 12.724 419.072 12.492 419.072 12.212C419.072 11.924 418.944 11.712 418.688 11.576C418.432 11.432 418.036 11.292 417.5 11.156C417.012 11.028 416.612 10.9 416.3 10.772C415.996 10.636 415.732 10.44 415.508 10.184C415.292 9.92 415.184 9.576 415.184 9.152C415.184 8.816 415.284 8.508 415.484 8.228C415.684 7.948 415.968 7.728 416.336 7.568C416.704 7.4 417.124 7.316 417.596 7.316C418.324 7.316 418.912 7.5 419.36 7.868C419.808 8.236 420.048 8.74 420.08 9.38H418.988C418.964 9.036 418.824 8.76 418.568 8.552C418.32 8.344 417.984 8.24 417.56 8.24C417.168 8.24 416.856 8.324 416.624 8.492C416.392 8.66 416.276 8.88 416.276 9.152C416.276 9.368 416.344 9.548 416.48 9.692C416.624 9.828 416.8 9.94 417.008 10.028C417.224 10.108 417.52 10.2 417.896 10.304C418.368 10.432 418.752 10.56 419.048 10.688C419.344 10.808 419.596 10.992 419.804 11.24C420.02 11.488 420.132 11.812 420.14 12.212C420.14 12.572 420.04 12.896 419.84 13.184C419.64 13.472 419.356 13.7 418.988 13.868C418.628 14.028 418.212 14.108 417.74 14.108ZM423.014 8.324V12.2C423.014 12.52 423.082 12.748 423.218 12.884C423.354 13.012 423.59 13.076 423.926 13.076H424.73V14H423.746C423.138 14 422.682 13.86 422.378 13.58C422.074 13.3 421.922 12.84 421.922 12.2V8.324H421.07V7.424H421.922V5.768H423.014V7.424H424.73V8.324H423.014ZM430.344 8.648C430.568 8.256 430.896 7.936 431.328 7.688C431.76 7.44 432.252 7.316 432.804 7.316C433.396 7.316 433.928 7.456 434.4 7.736C434.872 8.016 435.244 8.412 435.516 8.924C435.788 9.428 435.924 10.016 435.924 10.688C435.924 11.352 435.788 11.944 435.516 12.464C435.244 12.984 434.868 13.388 434.388 13.676C433.916 13.964 433.388 14.108 432.804 14.108C432.236 14.108 431.736 13.984 431.304 13.736C430.88 13.488 430.56 13.172 430.344 12.788V14H429.252V5.12H430.344V8.648ZM434.808 10.688C434.808 10.192 434.708 9.76 434.508 9.392C434.308 9.024 434.036 8.744 433.692 8.552C433.356 8.36 432.984 8.264 432.576 8.264C432.176 8.264 431.804 8.364 431.46 8.564C431.124 8.756 430.852 9.04 430.644 9.416C430.444 9.784 430.344 10.212 430.344 10.7C430.344 11.196 430.444 11.632 430.644 12.008C430.852 12.376 431.124 12.66 431.46 12.86C431.804 13.052 432.176 13.148 432.576 13.148C432.984 13.148 433.356 13.052 433.692 12.86C434.036 12.66 434.308 12.376 434.508 12.008C434.708 11.632 434.808 11.192 434.808 10.688ZM437.926 6.356C437.718 6.356 437.542 6.284 437.398 6.14C437.254 5.996 437.182 5.82 437.182 5.612C437.182 5.404 437.254 5.228 437.398 5.084C437.542 4.94 437.718 4.868 437.926 4.868C438.126 4.868 438.294 4.94 438.43 5.084C438.574 5.228 438.646 5.404 438.646 5.612C438.646 5.82 438.574 5.996 438.43 6.14C438.294 6.284 438.126 6.356 437.926 6.356ZM438.454 7.424V14H437.362V7.424H438.454ZM439.907 10.688C439.907 10.016 440.043 9.428 440.315 8.924C440.587 8.412 440.959 8.016 441.431 7.736C441.911 7.456 442.447 7.316 443.039 7.316C443.551 7.316 444.027 7.436 444.467 7.676C444.907 7.908 445.243 8.216 445.475 8.6V5.12H446.579V14H445.475V12.764C445.259 13.156 444.939 13.48 444.515 13.736C444.091 13.984 443.595 14.108 443.027 14.108C442.443 14.108 441.911 13.964 441.431 13.676C440.959 13.388 440.587 12.984 440.315 12.464C440.043 11.944 439.907 11.352 439.907 10.688ZM445.475 10.7C445.475 10.204 445.375 9.772 445.175 9.404C444.975 9.036 444.703 8.756 444.359 8.564C444.023 8.364 443.651 8.264 443.243 8.264C442.835 8.264 442.463 8.36 442.127 8.552C441.791 8.744 441.523 9.024 441.323 9.392C441.123 9.76 441.023 10.192 441.023 10.688C441.023 11.192 441.123 11.632 441.323 12.008C441.523 12.376 441.791 12.66 442.127 12.86C442.463 13.052 442.835 13.148 443.243 13.148C443.651 13.148 444.023 13.052 444.359 12.86C444.703 12.66 444.975 12.376 445.175 12.008C445.375 11.632 445.475 11.196 445.475 10.7Z" fill="#777E91"/>
<path d="M388.324 33.148V31.24H391.648V40H389.512V33.148H388.324ZM394.216 40.096C393.856 40.096 393.56 39.992 393.328 39.784C393.104 39.568 392.992 39.304 392.992 38.992C392.992 38.672 393.104 38.404 393.328 38.188C393.56 37.972 393.856 37.864 394.216 37.864C394.568 37.864 394.856 37.972 395.08 38.188C395.312 38.404 395.428 38.672 395.428 38.992C395.428 39.304 395.312 39.568 395.08 39.784C394.856 39.992 394.568 40.096 394.216 40.096ZM396.222 33.148V31.24H399.546V40H397.41V33.148H396.222ZM400.878 38.356C401.15 38.14 401.274 38.04 401.25 38.056C402.034 37.408 402.65 36.876 403.098 36.46C403.554 36.044 403.938 35.608 404.25 35.152C404.562 34.696 404.718 34.252 404.718 33.82C404.718 33.492 404.642 33.236 404.49 33.052C404.338 32.868 404.11 32.776 403.806 32.776C403.502 32.776 403.262 32.892 403.086 33.124C402.918 33.348 402.834 33.668 402.834 34.084H400.854C400.87 33.404 401.014 32.836 401.286 32.38C401.566 31.924 401.93 31.588 402.378 31.372C402.834 31.156 403.338 31.048 403.89 31.048C404.842 31.048 405.558 31.292 406.038 31.78C406.526 32.268 406.77 32.904 406.77 33.688C406.77 34.544 406.478 35.34 405.894 36.076C405.31 36.804 404.566 37.516 403.662 38.212H406.902V39.88H400.878V38.356ZM413.974 33.028H410.23V34.684C410.39 34.508 410.614 34.364 410.902 34.252C411.19 34.14 411.502 34.084 411.838 34.084C412.438 34.084 412.934 34.22 413.326 34.492C413.726 34.764 414.018 35.116 414.202 35.548C414.386 35.98 414.478 36.448 414.478 36.952C414.478 37.888 414.214 38.632 413.686 39.184C413.158 39.728 412.414 40 411.454 40C410.814 40 410.258 39.892 409.786 39.676C409.314 39.452 408.95 39.144 408.694 38.752C408.438 38.36 408.298 37.908 408.274 37.396H410.278C410.326 37.644 410.442 37.852 410.626 38.02C410.81 38.18 411.062 38.26 411.382 38.26C411.758 38.26 412.038 38.14 412.222 37.9C412.406 37.66 412.498 37.34 412.498 36.94C412.498 36.548 412.402 36.248 412.21 36.04C412.018 35.832 411.738 35.728 411.37 35.728C411.098 35.728 410.874 35.796 410.698 35.932C410.522 36.06 410.406 36.232 410.35 36.448H408.37V31.228H413.974V33.028ZM420.409 33.22V34.924H423.157V36.508H420.409V38.356H423.517V40H418.357V31.576H423.517V33.22H420.409ZM430.909 31.576V33.22H428.677V40H426.625V33.22H424.393V31.576H430.909ZM439.235 31.576V40H437.183V36.532H433.991V40H431.939V31.576H433.991V34.876H437.183V31.576H439.235Z" fill="#45B36B"/>
<rect x="381" y="23" width="66" height="24" rx="3" stroke="#45B36B" stroke-width="2"/>
<defs>
<clipPath id="clip0_21149_19391">
<rect y="4" width="48" height="48" rx="24" fill="white"/>
</clipPath>
</defs>
</svg>
