<svg width="117" height="40" viewBox="0 0 117 40" fill="none" xmlns="http://www.w3.org/2000/svg">
<path d="M21.1297 25V15.2H22.9217V23.6H27.2617V25H21.1297ZM31.8582 25.168C31.1582 25.168 30.5376 25.0187 29.9962 24.72C29.4549 24.4213 29.0302 24.0013 28.7222 23.46C28.4142 22.9187 28.2602 22.2933 28.2602 21.584C28.2602 20.8653 28.4096 20.226 28.7082 19.666C29.0162 19.106 29.4362 18.672 29.9682 18.364C30.5096 18.0467 31.1442 17.888 31.8722 17.888C32.5536 17.888 33.1556 18.0373 33.6782 18.336C34.2009 18.6347 34.6069 19.0453 34.8962 19.568C35.1949 20.0813 35.3442 20.6553 35.3442 21.29C35.3442 21.3927 35.3396 21.5 35.3302 21.612C35.3302 21.724 35.3256 21.8407 35.3162 21.962H30.0382C30.0756 22.5033 30.2622 22.928 30.5982 23.236C30.9436 23.544 31.3589 23.698 31.8442 23.698C32.2082 23.698 32.5116 23.6187 32.7542 23.46C33.0062 23.292 33.1929 23.0773 33.3142 22.816H35.1342C35.0036 23.2547 34.7842 23.656 34.4762 24.02C34.1776 24.3747 33.8042 24.6547 33.3562 24.86C32.9176 25.0653 32.4182 25.168 31.8582 25.168ZM31.8722 19.344C31.4336 19.344 31.0462 19.47 30.7102 19.722C30.3742 19.9647 30.1596 20.338 30.0662 20.842H33.5242C33.4962 20.3847 33.3282 20.0207 33.0202 19.75C32.7122 19.4793 32.3296 19.344 31.8722 19.344ZM39.2454 25.168C38.6481 25.168 38.1581 25.0747 37.7754 24.888C37.3927 24.692 37.1081 24.4353 36.9214 24.118C36.7347 23.8007 36.6414 23.4507 36.6414 23.068C36.6414 22.424 36.8934 21.9013 37.3974 21.5C37.9014 21.0987 38.6574 20.898 39.6654 20.898H41.4294V20.73C41.4294 20.254 41.2941 19.904 41.0234 19.68C40.7527 19.456 40.4167 19.344 40.0154 19.344C39.6514 19.344 39.3341 19.4327 39.0634 19.61C38.7927 19.778 38.6247 20.03 38.5594 20.366H36.8094C36.8561 19.862 37.0241 19.4233 37.3134 19.05C37.6121 18.6767 37.9947 18.392 38.4614 18.196C38.9281 17.9907 39.4507 17.888 40.0294 17.888C41.0187 17.888 41.7981 18.1353 42.3674 18.63C42.9367 19.1247 43.2214 19.8247 43.2214 20.73V25H41.6954L41.5274 23.88C41.3221 24.2533 41.0327 24.5613 40.6594 24.804C40.2954 25.0467 39.8241 25.168 39.2454 25.168ZM39.6514 23.768C40.1647 23.768 40.5614 23.6 40.8414 23.264C41.1307 22.928 41.3127 22.5127 41.3874 22.018H39.8614C39.3854 22.018 39.0447 22.1067 38.8394 22.284C38.6341 22.452 38.5314 22.662 38.5314 22.914C38.5314 23.1847 38.6341 23.3947 38.8394 23.544C39.0447 23.6933 39.3154 23.768 39.6514 23.768ZM44.9315 25V18.056H46.5275L46.6955 19.358C46.9475 18.91 47.2882 18.5553 47.7175 18.294C48.1562 18.0233 48.6695 17.888 49.2575 17.888V19.778H48.7535C48.3615 19.778 48.0115 19.8387 47.7035 19.96C47.3955 20.0813 47.1528 20.2913 46.9755 20.59C46.8075 20.8887 46.7235 21.304 46.7235 21.836V25H44.9315ZM50.4823 25V18.056H52.0643L52.2043 19.232C52.4189 18.8213 52.7269 18.4947 53.1283 18.252C53.5389 18.0093 54.0196 17.888 54.5703 17.888C55.4289 17.888 56.0963 18.1587 56.5723 18.7C57.0483 19.2413 57.2863 20.0347 57.2863 21.08V25H55.4943V21.248C55.4943 20.6507 55.3729 20.1933 55.1303 19.876C54.8876 19.5587 54.5096 19.4 53.9963 19.4C53.4923 19.4 53.0769 19.5773 52.7503 19.932C52.4329 20.2867 52.2743 20.7813 52.2743 21.416V25H50.4823ZM62.3358 25V18.056H63.9178L64.0718 18.994C64.2958 18.658 64.5898 18.392 64.9538 18.196C65.3271 17.9907 65.7564 17.888 66.2418 17.888C67.3151 17.888 68.0758 18.3033 68.5238 19.134C68.7758 18.7513 69.1118 18.448 69.5318 18.224C69.9611 18 70.4278 17.888 70.9318 17.888C71.8371 17.888 72.5324 18.1587 73.0178 18.7C73.5031 19.2413 73.7458 20.0347 73.7458 21.08V25H71.9538V21.248C71.9538 20.6507 71.8371 20.1933 71.6038 19.876C71.3798 19.5587 71.0298 19.4 70.5538 19.4C70.0684 19.4 69.6764 19.5773 69.3778 19.932C69.0884 20.2867 68.9438 20.7813 68.9438 21.416V25H67.1518V21.248C67.1518 20.6507 67.0351 20.1933 66.8018 19.876C66.5684 19.5587 66.2091 19.4 65.7238 19.4C65.2478 19.4 64.8604 19.5773 64.5618 19.932C64.2724 20.2867 64.1278 20.7813 64.1278 21.416V25H62.3358ZM78.7791 25.168C78.1071 25.168 77.5004 25.014 76.9591 24.706C76.4271 24.398 76.0024 23.9733 75.6851 23.432C75.3771 22.8813 75.2231 22.2467 75.2231 21.528C75.2231 20.8093 75.3818 20.1793 75.6991 19.638C76.0164 19.0873 76.4411 18.658 76.9731 18.35C77.5144 18.042 78.1211 17.888 78.7931 17.888C79.4558 17.888 80.0531 18.042 80.5851 18.35C81.1264 18.658 81.5511 19.0873 81.8591 19.638C82.1764 20.1793 82.3351 20.8093 82.3351 21.528C82.3351 22.2467 82.1764 22.8813 81.8591 23.432C81.5511 23.9733 81.1264 24.398 80.5851 24.706C80.0438 25.014 79.4418 25.168 78.7791 25.168ZM78.7791 23.614C79.2458 23.614 79.6518 23.4413 79.9971 23.096C80.3424 22.7413 80.5151 22.2187 80.5151 21.528C80.5151 20.8373 80.3424 20.3193 79.9971 19.974C79.6518 19.6193 79.2504 19.442 78.7931 19.442C78.3171 19.442 77.9064 19.6193 77.5611 19.974C77.2251 20.3193 77.0571 20.8373 77.0571 21.528C77.0571 22.2187 77.2251 22.7413 77.5611 23.096C77.9064 23.4413 78.3124 23.614 78.7791 23.614ZM83.9373 25V18.056H85.5333L85.7013 19.358C85.9533 18.91 86.294 18.5553 86.7233 18.294C87.162 18.0233 87.6753 17.888 88.2633 17.888V19.778H87.7593C87.3673 19.778 87.0173 19.8387 86.7093 19.96C86.4013 20.0813 86.1587 20.2913 85.9813 20.59C85.8133 20.8887 85.7293 21.304 85.7293 21.836V25H83.9373ZM92.7391 25.168C92.0391 25.168 91.4184 25.0187 90.8771 24.72C90.3357 24.4213 89.9111 24.0013 89.6031 23.46C89.2951 22.9187 89.1411 22.2933 89.1411 21.584C89.1411 20.8653 89.2904 20.226 89.5891 19.666C89.8971 19.106 90.3171 18.672 90.8491 18.364C91.3904 18.0467 92.0251 17.888 92.7531 17.888C93.4344 17.888 94.0364 18.0373 94.5591 18.336C95.0817 18.6347 95.4877 19.0453 95.7771 19.568C96.0757 20.0813 96.2251 20.6553 96.2251 21.29C96.2251 21.3927 96.2204 21.5 96.2111 21.612C96.2111 21.724 96.2064 21.8407 96.1971 21.962H90.9191C90.9564 22.5033 91.1431 22.928 91.4791 23.236C91.8244 23.544 92.2397 23.698 92.7251 23.698C93.0891 23.698 93.3924 23.6187 93.6351 23.46C93.8871 23.292 94.0737 23.0773 94.1951 22.816H96.0151C95.8844 23.2547 95.6651 23.656 95.3571 24.02C95.0584 24.3747 94.6851 24.6547 94.2371 24.86C93.7984 25.0653 93.2991 25.168 92.7391 25.168ZM92.7531 19.344C92.3144 19.344 91.9271 19.47 91.5911 19.722C91.2551 19.9647 91.0404 20.338 90.9471 20.842H94.4051C94.3771 20.3847 94.2091 20.0207 93.9011 19.75C93.5931 19.4793 93.2104 19.344 92.7531 19.344Z" fill="#F4F5F6"/>
<rect x="1" y="1" width="115" height="38" rx="19" stroke="#777E91" stroke-width="2"/>
</svg>
