<svg width="352" height="48" viewBox="0 0 352 48" fill="none" xmlns="http://www.w3.org/2000/svg">
<rect width="352" height="48" rx="24" fill="#3772FF"/>
<path d="M134.963 29V17.8H139.107C140.003 17.8 140.744 17.9493 141.331 18.248C141.918 18.5467 142.355 18.9573 142.643 19.48C142.931 20.0027 143.075 20.5893 143.075 21.24C143.075 21.8587 142.936 22.4293 142.659 22.952C142.382 23.464 141.95 23.88 141.363 24.2C140.776 24.5093 140.024 24.664 139.107 24.664H137.011V29H134.963ZM137.011 23H138.979C139.694 23 140.206 22.8453 140.515 22.536C140.835 22.216 140.995 21.784 140.995 21.24C140.995 20.6853 140.835 20.2533 140.515 19.944C140.206 19.624 139.694 19.464 138.979 19.464H137.011V23ZM144.634 29V17.48H146.682V29H144.634ZM151.51 29.192C150.828 29.192 150.268 29.0853 149.83 28.872C149.393 28.648 149.068 28.3547 148.854 27.992C148.641 27.6293 148.534 27.2293 148.534 26.792C148.534 26.056 148.822 25.4587 149.398 25C149.974 24.5413 150.838 24.312 151.99 24.312H154.006V24.12C154.006 23.576 153.852 23.176 153.542 22.92C153.233 22.664 152.849 22.536 152.39 22.536C151.974 22.536 151.612 22.6373 151.302 22.84C150.993 23.032 150.801 23.32 150.726 23.704H148.726C148.78 23.128 148.972 22.6267 149.302 22.2C149.644 21.7733 150.081 21.448 150.614 21.224C151.148 20.9893 151.745 20.872 152.406 20.872C153.537 20.872 154.428 21.1547 155.078 21.72C155.729 22.2853 156.054 23.0853 156.054 24.12V29H154.31L154.118 27.72C153.884 28.1467 153.553 28.4987 153.126 28.776C152.71 29.0533 152.172 29.192 151.51 29.192ZM151.974 27.592C152.561 27.592 153.014 27.4 153.334 27.016C153.665 26.632 153.873 26.1573 153.958 25.592H152.214C151.67 25.592 151.281 25.6933 151.046 25.896C150.812 26.088 150.694 26.328 150.694 26.616C150.694 26.9253 150.812 27.1653 151.046 27.336C151.281 27.5067 151.59 27.592 151.974 27.592ZM161.897 29.192C161.086 29.192 160.371 29.016 159.753 28.664C159.134 28.312 158.643 27.8213 158.281 27.192C157.929 26.5627 157.753 25.8427 157.753 25.032C157.753 24.2213 157.929 23.5013 158.281 22.872C158.643 22.2427 159.134 21.752 159.753 21.4C160.371 21.048 161.086 20.872 161.897 20.872C162.91 20.872 163.763 21.1387 164.457 21.672C165.15 22.1947 165.593 22.92 165.785 23.848H163.625C163.518 23.464 163.305 23.1653 162.985 22.952C162.675 22.728 162.307 22.616 161.881 22.616C161.315 22.616 160.835 22.8293 160.441 23.256C160.046 23.6827 159.849 24.2747 159.849 25.032C159.849 25.7893 160.046 26.3813 160.441 26.808C160.835 27.2347 161.315 27.448 161.881 27.448C162.307 27.448 162.675 27.3413 162.985 27.128C163.305 26.9147 163.518 26.6107 163.625 26.216H165.785C165.593 27.112 165.15 27.832 164.457 28.376C163.763 28.92 162.91 29.192 161.897 29.192ZM171.459 29.192C170.659 29.192 169.949 29.0213 169.331 28.68C168.712 28.3387 168.227 27.8587 167.875 27.24C167.523 26.6213 167.347 25.9067 167.347 25.096C167.347 24.2747 167.517 23.544 167.859 22.904C168.211 22.264 168.691 21.768 169.299 21.416C169.917 21.0533 170.643 20.872 171.475 20.872C172.253 20.872 172.941 21.0427 173.539 21.384C174.136 21.7253 174.6 22.1947 174.931 22.792C175.272 23.3787 175.443 24.0347 175.443 24.76C175.443 24.8773 175.437 25 175.427 25.128C175.427 25.256 175.421 25.3893 175.411 25.528H169.379C169.421 26.1467 169.635 26.632 170.019 26.984C170.413 27.336 170.888 27.512 171.443 27.512C171.859 27.512 172.205 27.4213 172.483 27.24C172.771 27.048 172.984 26.8027 173.123 26.504H175.203C175.053 27.0053 174.803 27.464 174.451 27.88C174.109 28.2853 173.683 28.6053 173.171 28.84C172.669 29.0747 172.099 29.192 171.459 29.192ZM171.475 22.536C170.973 22.536 170.531 22.68 170.147 22.968C169.763 23.2453 169.517 23.672 169.411 24.248H173.363C173.331 23.7253 173.139 23.3093 172.787 23C172.435 22.6907 171.997 22.536 171.475 22.536ZM183.714 29.192C183.031 29.192 182.471 29.0853 182.034 28.872C181.596 28.648 181.271 28.3547 181.058 27.992C180.844 27.6293 180.738 27.2293 180.738 26.792C180.738 26.056 181.026 25.4587 181.602 25C182.178 24.5413 183.042 24.312 184.194 24.312H186.21V24.12C186.21 23.576 186.055 23.176 185.746 22.92C185.436 22.664 185.052 22.536 184.594 22.536C184.178 22.536 183.815 22.6373 183.506 22.84C183.196 23.032 183.004 23.32 182.93 23.704H180.93C180.983 23.128 181.175 22.6267 181.506 22.2C181.847 21.7733 182.284 21.448 182.818 21.224C183.351 20.9893 183.948 20.872 184.61 20.872C185.74 20.872 186.631 21.1547 187.282 21.72C187.932 22.2853 188.258 23.0853 188.258 24.12V29H186.514L186.322 27.72C186.087 28.1467 185.756 28.4987 185.33 28.776C184.914 29.0533 184.375 29.192 183.714 29.192ZM184.178 27.592C184.764 27.592 185.218 27.4 185.538 27.016C185.868 26.632 186.076 26.1573 186.162 25.592H184.418C183.874 25.592 183.484 25.6933 183.25 25.896C183.015 26.088 182.898 26.328 182.898 26.616C182.898 26.9253 183.015 27.1653 183.25 27.336C183.484 27.5067 183.794 27.592 184.178 27.592ZM198.728 29.192C198.131 29.192 197.608 29.08 197.16 28.856C196.712 28.632 196.35 28.3173 196.072 27.912L195.848 29H194.024V17.48H196.072V22.2C196.328 21.848 196.664 21.5387 197.08 21.272C197.507 21.0053 198.056 20.872 198.728 20.872C199.475 20.872 200.142 21.0533 200.728 21.416C201.315 21.7787 201.779 22.2747 202.12 22.904C202.462 23.5333 202.632 24.248 202.632 25.048C202.632 25.848 202.462 26.5627 202.12 27.192C201.779 27.8107 201.315 28.3013 200.728 28.664C200.142 29.016 199.475 29.192 198.728 29.192ZM198.296 27.4C198.947 27.4 199.486 27.1813 199.912 26.744C200.339 26.3067 200.552 25.7413 200.552 25.048C200.552 24.3547 200.339 23.784 199.912 23.336C199.486 22.888 198.947 22.664 198.296 22.664C197.635 22.664 197.091 22.888 196.664 23.336C196.248 23.7733 196.04 24.3387 196.04 25.032C196.04 25.7253 196.248 26.296 196.664 26.744C197.091 27.1813 197.635 27.4 198.296 27.4ZM205.566 19.832C205.193 19.832 204.883 19.72 204.638 19.496C204.403 19.272 204.286 18.9893 204.286 18.648C204.286 18.3067 204.403 18.0293 204.638 17.816C204.883 17.592 205.193 17.48 205.566 17.48C205.939 17.48 206.243 17.592 206.478 17.816C206.723 18.0293 206.846 18.3067 206.846 18.648C206.846 18.9893 206.723 19.272 206.478 19.496C206.243 19.72 205.939 19.832 205.566 19.832ZM204.542 29V21.064H206.59V29H204.542ZM212.376 29.192C211.629 29.192 210.962 29.0107 210.376 28.648C209.789 28.2853 209.325 27.7893 208.984 27.16C208.642 26.5307 208.472 25.816 208.472 25.016C208.472 24.216 208.642 23.5067 208.984 22.888C209.325 22.2587 209.789 21.768 210.376 21.416C210.962 21.0533 211.629 20.872 212.376 20.872C212.973 20.872 213.496 20.984 213.944 21.208C214.392 21.432 214.754 21.7467 215.032 22.152V17.48H217.08V29H215.256L215.032 27.864C214.776 28.216 214.434 28.5253 214.008 28.792C213.592 29.0587 213.048 29.192 212.376 29.192ZM212.808 27.4C213.469 27.4 214.008 27.1813 214.424 26.744C214.85 26.296 215.064 25.7253 215.064 25.032C215.064 24.3387 214.85 23.7733 214.424 23.336C214.008 22.888 213.469 22.664 212.808 22.664C212.157 22.664 211.618 22.8827 211.192 23.32C210.765 23.7573 210.552 24.3227 210.552 25.016C210.552 25.7093 210.765 26.28 211.192 26.728C211.618 27.176 212.157 27.4 212.808 27.4Z" fill="#FCFCFD"/>
</svg>
