<svg width="164" height="48" viewBox="0 0 164 48" fill="none" xmlns="http://www.w3.org/2000/svg">
<path d="M40.963 29V17.8H45.107C46.003 17.8 46.7443 17.9493 47.331 18.248C47.9177 18.5467 48.355 18.9573 48.643 19.48C48.931 20.0027 49.075 20.5893 49.075 21.24C49.075 21.8587 48.9363 22.4293 48.659 22.952C48.3817 23.464 47.9497 23.88 47.363 24.2C46.7763 24.5093 46.0243 24.664 45.107 24.664H43.011V29H40.963ZM43.011 23H44.979C45.6937 23 46.2057 22.8453 46.515 22.536C46.835 22.216 46.995 21.784 46.995 21.24C46.995 20.6853 46.835 20.2533 46.515 19.944C46.2057 19.624 45.6937 19.464 44.979 19.464H43.011V23ZM50.6338 29V17.48H52.6818V29H50.6338ZM57.5104 29.192C56.8277 29.192 56.2677 29.0853 55.8304 28.872C55.393 28.648 55.0677 28.3547 54.8544 27.992C54.641 27.6293 54.5344 27.2293 54.5344 26.792C54.5344 26.056 54.8224 25.4587 55.3984 25C55.9744 24.5413 56.8384 24.312 57.9904 24.312H60.0064V24.12C60.0064 23.576 59.8517 23.176 59.5424 22.92C59.233 22.664 58.849 22.536 58.3904 22.536C57.9744 22.536 57.6117 22.6373 57.3024 22.84C56.993 23.032 56.801 23.32 56.7264 23.704H54.7264C54.7797 23.128 54.9717 22.6267 55.3024 22.2C55.6437 21.7733 56.081 21.448 56.6144 21.224C57.1477 20.9893 57.745 20.872 58.4064 20.872C59.537 20.872 60.4277 21.1547 61.0784 21.72C61.729 22.2853 62.0544 23.0853 62.0544 24.12V29H60.3104L60.1184 27.72C59.8837 28.1467 59.553 28.4987 59.1264 28.776C58.7104 29.0533 58.1717 29.192 57.5104 29.192ZM57.9744 27.592C58.561 27.592 59.0144 27.4 59.3344 27.016C59.665 26.632 59.873 26.1573 59.9584 25.592H58.2144C57.6704 25.592 57.281 25.6933 57.0464 25.896C56.8117 26.088 56.6944 26.328 56.6944 26.616C56.6944 26.9253 56.8117 27.1653 57.0464 27.336C57.281 27.5067 57.5904 27.592 57.9744 27.592ZM67.8968 29.192C67.0861 29.192 66.3714 29.016 65.7528 28.664C65.1341 28.312 64.6434 27.8213 64.2808 27.192C63.9288 26.5627 63.7528 25.8427 63.7528 25.032C63.7528 24.2213 63.9288 23.5013 64.2808 22.872C64.6434 22.2427 65.1341 21.752 65.7528 21.4C66.3714 21.048 67.0861 20.872 67.8968 20.872C68.9101 20.872 69.7634 21.1387 70.4568 21.672C71.1501 22.1947 71.5928 22.92 71.7847 23.848H69.6248C69.5181 23.464 69.3048 23.1653 68.9848 22.952C68.6754 22.728 68.3074 22.616 67.8808 22.616C67.3154 22.616 66.8354 22.8293 66.4408 23.256C66.0461 23.6827 65.8488 24.2747 65.8488 25.032C65.8488 25.7893 66.0461 26.3813 66.4408 26.808C66.8354 27.2347 67.3154 27.448 67.8808 27.448C68.3074 27.448 68.6754 27.3413 68.9848 27.128C69.3048 26.9147 69.5181 26.6107 69.6248 26.216H71.7847C71.5928 27.112 71.1501 27.832 70.4568 28.376C69.7634 28.92 68.9101 29.192 67.8968 29.192ZM77.4585 29.192C76.6585 29.192 75.9492 29.0213 75.3305 28.68C74.7118 28.3387 74.2265 27.8587 73.8745 27.24C73.5225 26.6213 73.3465 25.9067 73.3465 25.096C73.3465 24.2747 73.5172 23.544 73.8585 22.904C74.2105 22.264 74.6905 21.768 75.2985 21.416C75.9172 21.0533 76.6425 20.872 77.4745 20.872C78.2532 20.872 78.9412 21.0427 79.5385 21.384C80.1358 21.7253 80.5998 22.1947 80.9305 22.792C81.2718 23.3787 81.4425 24.0347 81.4425 24.76C81.4425 24.8773 81.4372 25 81.4265 25.128C81.4265 25.256 81.4212 25.3893 81.4105 25.528H75.3785C75.4212 26.1467 75.6345 26.632 76.0185 26.984C76.4132 27.336 76.8878 27.512 77.4425 27.512C77.8585 27.512 78.2052 27.4213 78.4825 27.24C78.7705 27.048 78.9838 26.8027 79.1225 26.504H81.2025C81.0532 27.0053 80.8025 27.464 80.4505 27.88C80.1092 28.2853 79.6825 28.6053 79.1705 28.84C78.6692 29.0747 78.0985 29.192 77.4585 29.192ZM77.4745 22.536C76.9732 22.536 76.5305 22.68 76.1465 22.968C75.7625 23.2453 75.5172 23.672 75.4105 24.248H79.3625C79.3305 23.7253 79.1385 23.3093 78.7865 23C78.4345 22.6907 77.9972 22.536 77.4745 22.536ZM89.7135 29.192C89.0308 29.192 88.4708 29.0853 88.0335 28.872C87.5962 28.648 87.2708 28.3547 87.0575 27.992C86.8442 27.6293 86.7375 27.2293 86.7375 26.792C86.7375 26.056 87.0255 25.4587 87.6015 25C88.1775 24.5413 89.0415 24.312 90.1935 24.312H92.2095V24.12C92.2095 23.576 92.0548 23.176 91.7455 22.92C91.4362 22.664 91.0522 22.536 90.5935 22.536C90.1775 22.536 89.8148 22.6373 89.5055 22.84C89.1962 23.032 89.0042 23.32 88.9295 23.704H86.9295C86.9828 23.128 87.1748 22.6267 87.5055 22.2C87.8468 21.7733 88.2842 21.448 88.8175 21.224C89.3508 20.9893 89.9482 20.872 90.6095 20.872C91.7402 20.872 92.6308 21.1547 93.2815 21.72C93.9322 22.2853 94.2575 23.0853 94.2575 24.12V29H92.5135L92.3215 27.72C92.0868 28.1467 91.7562 28.4987 91.3295 28.776C90.9135 29.0533 90.3748 29.192 89.7135 29.192ZM90.1775 27.592C90.7642 27.592 91.2175 27.4 91.5375 27.016C91.8682 26.632 92.0762 26.1573 92.1615 25.592H90.4175C89.8735 25.592 89.4842 25.6933 89.2495 25.896C89.0148 26.088 88.8975 26.328 88.8975 26.616C88.8975 26.9253 89.0148 27.1653 89.2495 27.336C89.4842 27.5067 89.7935 27.592 90.1775 27.592ZM104.728 29.192C104.131 29.192 103.608 29.08 103.16 28.856C102.712 28.632 102.35 28.3173 102.072 27.912L101.848 29H100.024V17.48H102.072V22.2C102.328 21.848 102.664 21.5387 103.08 21.272C103.507 21.0053 104.056 20.872 104.728 20.872C105.475 20.872 106.142 21.0533 106.728 21.416C107.315 21.7787 107.779 22.2747 108.12 22.904C108.462 23.5333 108.632 24.248 108.632 25.048C108.632 25.848 108.462 26.5627 108.12 27.192C107.779 27.8107 107.315 28.3013 106.728 28.664C106.142 29.016 105.475 29.192 104.728 29.192ZM104.296 27.4C104.947 27.4 105.486 27.1813 105.912 26.744C106.339 26.3067 106.552 25.7413 106.552 25.048C106.552 24.3547 106.339 23.784 105.912 23.336C105.486 22.888 104.947 22.664 104.296 22.664C103.635 22.664 103.091 22.888 102.664 23.336C102.248 23.7733 102.04 24.3387 102.04 25.032C102.04 25.7253 102.248 26.296 102.664 26.744C103.091 27.1813 103.635 27.4 104.296 27.4ZM111.566 19.832C111.193 19.832 110.883 19.72 110.638 19.496C110.403 19.272 110.286 18.9893 110.286 18.648C110.286 18.3067 110.403 18.0293 110.638 17.816C110.883 17.592 111.193 17.48 111.566 17.48C111.939 17.48 112.243 17.592 112.478 17.816C112.723 18.0293 112.846 18.3067 112.846 18.648C112.846 18.9893 112.723 19.272 112.478 19.496C112.243 19.72 111.939 19.832 111.566 19.832ZM110.542 29V21.064H112.59V29H110.542ZM118.376 29.192C117.629 29.192 116.962 29.0107 116.376 28.648C115.789 28.2853 115.325 27.7893 114.984 27.16C114.642 26.5307 114.472 25.816 114.472 25.016C114.472 24.216 114.642 23.5067 114.984 22.888C115.325 22.2587 115.789 21.768 116.376 21.416C116.962 21.0533 117.629 20.872 118.376 20.872C118.973 20.872 119.496 20.984 119.944 21.208C120.392 21.432 120.754 21.7467 121.032 22.152V17.48H123.08V29H121.256L121.032 27.864C120.776 28.216 120.434 28.5253 120.008 28.792C119.592 29.0587 119.048 29.192 118.376 29.192ZM118.808 27.4C119.469 27.4 120.008 27.1813 120.424 26.744C120.85 26.296 121.064 25.7253 121.064 25.032C121.064 24.3387 120.85 23.7733 120.424 23.336C120.008 22.888 119.469 22.664 118.808 22.664C118.157 22.664 117.618 22.8827 117.192 23.32C116.765 23.7573 116.552 24.3227 116.552 25.016C116.552 25.7093 116.765 26.28 117.192 26.728C117.618 27.176 118.157 27.4 118.808 27.4Z" fill="#FCFCFD"/>
<rect x="1" y="1" width="162" height="46" rx="23" stroke="#353945" stroke-width="2"/>
</svg>
