<svg width="151" height="24" viewBox="0 0 151 24" fill="none" xmlns="http://www.w3.org/2000/svg">
<rect width="51" height="24" rx="12" fill="#3772FF"/>
<path fill-rule="evenodd" clip-rule="evenodd" d="M18.6673 7.33333H13.334C12.9658 7.33333 12.6673 7.63181 12.6673 8V10.6667C12.6673 12.5076 14.1597 14 16.0007 14C17.8416 14 19.334 12.5076 19.334 10.6667V8C19.334 7.63181 19.0355 7.33333 18.6673 7.33333ZM13.334 6C12.2294 6 11.334 6.89543 11.334 8V10.6667C11.334 13.244 13.4233 15.3333 16.0007 15.3333C18.578 15.3333 20.6673 13.244 20.6673 10.6667V8C20.6673 6.89543 19.7719 6 18.6673 6H13.334Z" fill="#FCFCFD"/>
<path fill-rule="evenodd" clip-rule="evenodd" d="M8.66602 9.3335C8.66602 8.22893 9.56145 7.3335 10.666 7.3335H12.666V12.6668H11.3327C9.85992 12.6668 8.66602 11.4729 8.66602 10.0002V9.3335ZM10.666 8.66683H11.3327V11.3335C10.5963 11.3335 9.99935 10.7365 9.99935 10.0002V9.3335C9.99935 8.96531 10.2978 8.66683 10.666 8.66683Z" fill="#FCFCFD"/>
<path fill-rule="evenodd" clip-rule="evenodd" d="M23.3327 9.3335C23.3327 8.22893 22.4373 7.3335 21.3327 7.3335H19.3327V12.6668H20.666C22.1388 12.6668 23.3327 11.4729 23.3327 10.0002V9.3335ZM21.3327 8.66683H20.666V11.3335C21.4024 11.3335 21.9993 10.7365 21.9993 10.0002V9.3335C21.9993 8.96531 21.7009 8.66683 21.3327 8.66683Z" fill="#FCFCFD"/>
<path d="M16.0007 14C15.6325 14 15.334 14.2985 15.334 14.6667V16.6667H14.0007C13.6325 16.6667 13.334 16.9651 13.334 17.3333C13.334 17.7015 13.6325 18 14.0007 18H18.0007C18.3688 18 18.6673 17.7015 18.6673 17.3333C18.6673 16.9651 18.3688 16.6667 18.0007 16.6667H16.6673V14.6667C16.6673 14.2985 16.3688 14 16.0007 14Z" fill="#FCFCFD"/>
<path d="M36.208 10.612L35.812 12.46H37.336V13.96H35.488L35.056 16H33.46L33.892 13.96H31.708L31.276 16H29.692L30.124 13.96H28.312V12.46H30.448L30.844 10.612H29.044V9.112H31.168L31.588 7.12H33.172L32.752 9.112H34.936L35.356 7.12H36.952L36.532 9.112H38.068V10.612H36.208ZM34.612 10.612H32.428L32.032 12.46H34.216L34.612 10.612ZM39.0726 8.8V7.252H41.9646V16H40.2366V8.8H39.0726Z" fill="#FCFCFD"/>
<path fill-rule="evenodd" clip-rule="evenodd" d="M106.4 4C104.448 4 102.649 4.161 101.204 4.35177C99.9041 4.52346 98.9239 5.50372 98.7522 6.80371C98.5614 8.24816 98.4004 10.0478 98.4004 12C98.4004 13.9522 98.5614 15.7518 98.7522 17.1963C98.9239 18.4963 99.9041 19.4765 101.204 19.6482C102.649 19.839 104.448 20 106.4 20C108.353 20 110.152 19.839 111.597 19.6482C112.897 19.4765 113.877 18.4963 114.049 17.1963C114.239 15.7518 114.4 13.9522 114.4 12C114.4 10.0478 114.239 8.24816 114.049 6.80371C113.877 5.50372 112.897 4.52346 111.597 4.35177C110.152 4.16101 108.353 4 106.4 4ZM100.942 2.36899C98.7454 2.65912 97.0595 4.34504 96.7694 6.54184C96.5699 8.05208 96.4004 9.94127 96.4004 12C96.4004 14.0587 96.5699 15.9479 96.7694 17.4582C97.0595 19.655 98.7454 21.3409 100.942 21.631C102.452 21.8305 104.342 22 106.4 22C108.459 22 110.348 21.8305 111.859 21.631C114.055 21.3409 115.741 19.655 116.031 17.4582C116.231 15.9479 116.4 14.0587 116.4 12C116.4 9.94127 116.231 8.05208 116.031 6.54184C115.741 4.34504 114.055 2.65912 111.859 2.36899C110.348 2.16953 108.459 2 106.4 2C104.342 2 102.452 2.16953 100.942 2.36899Z" fill="#777E91"/>
<path fill-rule="evenodd" clip-rule="evenodd" d="M106.4 17C106.953 17 107.4 16.5523 107.4 16V13H110.4C110.953 13 111.4 12.5523 111.4 12C111.4 11.4477 110.953 11 110.4 11H107.4V8C107.4 7.44772 106.953 7 106.4 7C105.848 7 105.4 7.44772 105.4 8V11H102.4C101.848 11 101.4 11.4477 101.4 12C101.4 12.5523 101.848 13 102.4 13H105.4V16C105.4 16.5523 105.848 17 106.4 17Z" fill="#777E91"/>
<path fill-rule="evenodd" clip-rule="evenodd" d="M143.374 13.516C143.925 13.494 144.355 13.0287 144.333 12.4769L144.142 7.71753C144.122 7.19663 143.704 6.77913 143.183 6.75829L138.424 6.56789C137.872 6.54581 137.407 6.97527 137.385 7.52712C137.363 8.07896 137.792 8.54421 138.344 8.56629L140.821 8.6654L133.951 15.5357C133.56 15.9262 133.56 16.5594 133.951 16.9499C134.341 17.3404 134.975 17.3404 135.365 16.9499L142.235 10.0796L142.334 12.5568C142.356 13.1086 142.822 13.5381 143.374 13.516Z" fill="#777E91"/>
</svg>
