<svg width="352" height="48" viewBox="0 0 352 48" fill="none" xmlns="http://www.w3.org/2000/svg">
<path d="M141.992 29L137.896 17.8H140.088L143.256 26.904L146.44 17.8H148.6L144.504 29H141.992ZM150.988 19.832C150.614 19.832 150.305 19.72 150.06 19.496C149.825 19.272 149.708 18.9893 149.708 18.648C149.708 18.3067 149.825 18.0293 150.06 17.816C150.305 17.592 150.614 17.48 150.988 17.48C151.361 17.48 151.665 17.592 151.9 17.816C152.145 18.0293 152.268 18.3067 152.268 18.648C152.268 18.9893 152.145 19.272 151.9 19.496C151.665 19.72 151.361 19.832 150.988 19.832ZM149.964 29V21.064H152.012V29H149.964ZM158.005 29.192C157.205 29.192 156.496 29.0213 155.877 28.68C155.259 28.3387 154.773 27.8587 154.421 27.24C154.069 26.6213 153.893 25.9067 153.893 25.096C153.893 24.2747 154.064 23.544 154.405 22.904C154.757 22.264 155.237 21.768 155.845 21.416C156.464 21.0533 157.189 20.872 158.021 20.872C158.8 20.872 159.488 21.0427 160.085 21.384C160.683 21.7253 161.147 22.1947 161.477 22.792C161.819 23.3787 161.989 24.0347 161.989 24.76C161.989 24.8773 161.984 25 161.973 25.128C161.973 25.256 161.968 25.3893 161.957 25.528H155.925C155.968 26.1467 156.181 26.632 156.565 26.984C156.96 27.336 157.435 27.512 157.989 27.512C158.405 27.512 158.752 27.4213 159.029 27.24C159.317 27.048 159.531 26.8027 159.669 26.504H161.749C161.6 27.0053 161.349 27.464 160.997 27.88C160.656 28.2853 160.229 28.6053 159.717 28.84C159.216 29.0747 158.645 29.192 158.005 29.192ZM158.021 22.536C157.52 22.536 157.077 22.68 156.693 22.968C156.309 23.2453 156.064 23.672 155.957 24.248H159.909C159.877 23.7253 159.685 23.3093 159.333 23C158.981 22.6907 158.544 22.536 158.021 22.536ZM164.951 29L162.631 21.064H164.663L166.039 26.776L167.639 21.064H169.911L171.511 26.776L172.903 21.064H174.935L172.599 29H170.471L168.775 23.064L167.079 29H164.951ZM181.144 19.832C180.771 19.832 180.461 19.72 180.216 19.496C179.981 19.272 179.864 18.9893 179.864 18.648C179.864 18.3067 179.981 18.0293 180.216 17.816C180.461 17.592 180.771 17.48 181.144 17.48C181.517 17.48 181.821 17.592 182.056 17.816C182.301 18.0293 182.424 18.3067 182.424 18.648C182.424 18.9893 182.301 19.272 182.056 19.496C181.821 19.72 181.517 19.832 181.144 19.832ZM180.12 29V21.064H182.168V29H180.12ZM187.842 29C187.01 29 186.343 28.7973 185.842 28.392C185.34 27.9867 185.09 27.2667 185.09 26.232V22.776H183.73V21.064H185.09L185.33 18.936H187.138V21.064H189.282V22.776H187.138V26.248C187.138 26.632 187.218 26.8987 187.378 27.048C187.548 27.1867 187.836 27.256 188.242 27.256H189.234V29H187.842ZM194.693 29.192C193.893 29.192 193.184 29.0213 192.565 28.68C191.946 28.3387 191.461 27.8587 191.109 27.24C190.757 26.6213 190.581 25.9067 190.581 25.096C190.581 24.2747 190.752 23.544 191.093 22.904C191.445 22.264 191.925 21.768 192.533 21.416C193.152 21.0533 193.877 20.872 194.709 20.872C195.488 20.872 196.176 21.0427 196.773 21.384C197.37 21.7253 197.834 22.1947 198.165 22.792C198.506 23.3787 198.677 24.0347 198.677 24.76C198.677 24.8773 198.672 25 198.661 25.128C198.661 25.256 198.656 25.3893 198.645 25.528H192.613C192.656 26.1467 192.869 26.632 193.253 26.984C193.648 27.336 194.122 27.512 194.677 27.512C195.093 27.512 195.44 27.4213 195.717 27.24C196.005 27.048 196.218 26.8027 196.357 26.504H198.437C198.288 27.0053 198.037 27.464 197.685 27.88C197.344 28.2853 196.917 28.6053 196.405 28.84C195.904 29.0747 195.333 29.192 194.693 29.192ZM194.709 22.536C194.208 22.536 193.765 22.68 193.381 22.968C192.997 23.2453 192.752 23.672 192.645 24.248H196.597C196.565 23.7253 196.373 23.3093 196.021 23C195.669 22.6907 195.232 22.536 194.709 22.536ZM200.399 29V21.064H202.207L202.383 22.136C202.639 21.752 202.975 21.448 203.391 21.224C203.818 20.9893 204.309 20.872 204.863 20.872C206.09 20.872 206.959 21.3467 207.471 22.296C207.759 21.8587 208.143 21.512 208.623 21.256C209.114 21 209.647 20.872 210.223 20.872C211.258 20.872 212.053 21.1813 212.607 21.8C213.162 22.4187 213.439 23.3253 213.439 24.52V29H211.391V24.712C211.391 24.0293 211.258 23.5067 210.991 23.144C210.735 22.7813 210.335 22.6 209.791 22.6C209.237 22.6 208.789 22.8027 208.447 23.208C208.117 23.6133 207.951 24.1787 207.951 24.904V29H205.903V24.712C205.903 24.0293 205.77 23.5067 205.503 23.144C205.237 22.7813 204.826 22.6 204.271 22.6C203.727 22.6 203.285 22.8027 202.943 23.208C202.613 23.6133 202.447 24.1787 202.447 24.904V29H200.399Z" fill="#FCFCFD"/>
<rect x="1" y="1" width="350" height="46" rx="23" stroke="#353945" stroke-width="2"/>
</svg>
