<svg width="164" height="48" viewBox="0 0 164 48" fill="none" xmlns="http://www.w3.org/2000/svg">
<rect width="164" height="48" rx="24" fill="#3772FF"/>
<path d="M29.0958 29V17.8H33.2398C34.1358 17.8 34.8771 17.9493 35.4638 18.248C36.0505 18.5467 36.4878 18.9573 36.7758 19.48C37.0638 20.0027 37.2078 20.5893 37.2078 21.24C37.2078 21.8587 37.0691 22.4293 36.7918 22.952C36.5145 23.464 36.0825 23.88 35.4958 24.2C34.9091 24.5093 34.1571 24.664 33.2398 24.664H31.1438V29H29.0958ZM31.1438 23H33.1118C33.8265 23 34.3385 22.8453 34.6478 22.536C34.9678 22.216 35.1278 21.784 35.1278 21.24C35.1278 20.6853 34.9678 20.2533 34.6478 19.944C34.3385 19.624 33.8265 19.464 33.1118 19.464H31.1438V23ZM41.7426 29.192C40.7506 29.192 39.9826 28.8827 39.4386 28.264C38.9052 27.6453 38.6386 26.7387 38.6386 25.544V21.064H40.6706V25.352C40.6706 26.0347 40.8092 26.5573 41.0866 26.92C41.3639 27.2827 41.8012 27.464 42.3986 27.464C42.9639 27.464 43.4279 27.2613 43.7906 26.856C44.1639 26.4507 44.3506 25.8853 44.3506 25.16V21.064H46.3986V29H44.5906L44.4306 27.656C44.1852 28.1253 43.8279 28.4987 43.3586 28.776C42.8999 29.0533 42.3612 29.192 41.7426 29.192ZM48.5009 29V21.064H50.3249L50.5169 22.552C50.8049 22.04 51.1943 21.6347 51.6849 21.336C52.1863 21.0267 52.7729 20.872 53.4449 20.872V23.032H52.8689C52.4209 23.032 52.0209 23.1013 51.6689 23.24C51.3169 23.3787 51.0396 23.6187 50.8369 23.96C50.6449 24.3013 50.5489 24.776 50.5489 25.384V29H48.5009ZM58.5921 29.192C57.7814 29.192 57.0667 29.016 56.4481 28.664C55.8294 28.312 55.3387 27.8213 54.9761 27.192C54.6241 26.5627 54.4481 25.8427 54.4481 25.032C54.4481 24.2213 54.6241 23.5013 54.9761 22.872C55.3387 22.2427 55.8294 21.752 56.4481 21.4C57.0667 21.048 57.7814 20.872 58.5921 20.872C59.6054 20.872 60.4587 21.1387 61.1521 21.672C61.8454 22.1947 62.2881 22.92 62.4801 23.848H60.3201C60.2134 23.464 60.0001 23.1653 59.6801 22.952C59.3707 22.728 59.0027 22.616 58.5761 22.616C58.0107 22.616 57.5307 22.8293 57.1361 23.256C56.7414 23.6827 56.5441 24.2747 56.5441 25.032C56.5441 25.7893 56.7414 26.3813 57.1361 26.808C57.5307 27.2347 58.0107 27.448 58.5761 27.448C59.0027 27.448 59.3707 27.3413 59.6801 27.128C60.0001 26.9147 60.2134 26.6107 60.3201 26.216H62.4801C62.2881 27.112 61.8454 27.832 61.1521 28.376C60.4587 28.92 59.6054 29.192 58.5921 29.192ZM64.2978 29V17.48H66.3458V22.28C66.6125 21.8427 66.9698 21.5013 67.4178 21.256C67.8765 21 68.3991 20.872 68.9858 20.872C69.9671 20.872 70.7245 21.1813 71.2578 21.8C71.8018 22.4187 72.0738 23.3253 72.0738 24.52V29H70.0418V24.712C70.0418 24.0293 69.9031 23.5067 69.6258 23.144C69.3591 22.7813 68.9325 22.6 68.3458 22.6C67.7698 22.6 67.2898 22.8027 66.9058 23.208C66.5325 23.6133 66.3458 24.1787 66.3458 24.904V29H64.2978ZM76.7682 29.192C76.0855 29.192 75.5255 29.0853 75.0882 28.872C74.6509 28.648 74.3255 28.3547 74.1122 27.992C73.8989 27.6293 73.7922 27.2293 73.7922 26.792C73.7922 26.056 74.0802 25.4587 74.6562 25C75.2322 24.5413 76.0962 24.312 77.2482 24.312H79.2642V24.12C79.2642 23.576 79.1095 23.176 78.8002 22.92C78.4909 22.664 78.1069 22.536 77.6482 22.536C77.2322 22.536 76.8695 22.6373 76.5602 22.84C76.2509 23.032 76.0589 23.32 75.9842 23.704H73.9842C74.0375 23.128 74.2295 22.6267 74.5602 22.2C74.9015 21.7733 75.3389 21.448 75.8722 21.224C76.4055 20.9893 77.0029 20.872 77.6642 20.872C78.7949 20.872 79.6855 21.1547 80.3362 21.72C80.9869 22.2853 81.3122 23.0853 81.3122 24.12V29H79.5682L79.3762 27.72C79.1415 28.1467 78.8109 28.4987 78.3842 28.776C77.9682 29.0533 77.4295 29.192 76.7682 29.192ZM77.2322 27.592C77.8189 27.592 78.2722 27.4 78.5922 27.016C78.9229 26.632 79.1309 26.1573 79.2162 25.592H77.4722C76.9282 25.592 76.5389 25.6933 76.3042 25.896C76.0695 26.088 75.9522 26.328 75.9522 26.616C75.9522 26.9253 76.0695 27.1653 76.3042 27.336C76.5389 27.5067 76.8482 27.592 77.2322 27.592ZM86.5466 29.192C85.8426 29.192 85.2239 29.08 84.6906 28.856C84.1572 28.6213 83.7306 28.3013 83.4106 27.896C83.0906 27.4907 82.8986 27.0213 82.8346 26.488H84.8986C84.9626 26.7973 85.1332 27.064 85.4106 27.288C85.6986 27.5013 86.0666 27.608 86.5146 27.608C86.9626 27.608 87.2879 27.5173 87.4906 27.336C87.7039 27.1547 87.8106 26.9467 87.8106 26.712C87.8106 26.3707 87.6612 26.1413 87.3626 26.024C87.0639 25.896 86.6479 25.7733 86.1146 25.656C85.7732 25.5813 85.4266 25.4907 85.0746 25.384C84.7226 25.2773 84.3972 25.144 84.0986 24.984C83.8106 24.8133 83.5759 24.6 83.3946 24.344C83.2132 24.0773 83.1226 23.752 83.1226 23.368C83.1226 22.664 83.3999 22.072 83.9546 21.592C84.5199 21.112 85.3092 20.872 86.3226 20.872C87.2612 20.872 88.0079 21.0907 88.5626 21.528C89.1279 21.9653 89.4639 22.568 89.5706 23.336H87.6346C87.5172 22.7493 87.0746 22.456 86.3066 22.456C85.9226 22.456 85.6239 22.5307 85.4106 22.68C85.2079 22.8293 85.1066 23.016 85.1066 23.24C85.1066 23.4747 85.2612 23.6613 85.5706 23.8C85.8799 23.9387 86.2906 24.0667 86.8026 24.184C87.3572 24.312 87.8639 24.456 88.3226 24.616C88.7919 24.7653 89.1652 24.9947 89.4426 25.304C89.7199 25.6027 89.8586 26.0347 89.8586 26.6C89.8692 27.0907 89.7412 27.5333 89.4746 27.928C89.2079 28.3227 88.8239 28.632 88.3226 28.856C87.8212 29.08 87.2292 29.192 86.5466 29.192ZM95.5288 29.192C94.7288 29.192 94.0195 29.0213 93.4008 28.68C92.7821 28.3387 92.2968 27.8587 91.9448 27.24C91.5928 26.6213 91.4168 25.9067 91.4168 25.096C91.4168 24.2747 91.5875 23.544 91.9288 22.904C92.2808 22.264 92.7608 21.768 93.3688 21.416C93.9875 21.0533 94.7128 20.872 95.5448 20.872C96.3235 20.872 97.0115 21.0427 97.6088 21.384C98.2061 21.7253 98.6701 22.1947 99.0008 22.792C99.3421 23.3787 99.5128 24.0347 99.5128 24.76C99.5128 24.8773 99.5075 25 99.4968 25.128C99.4968 25.256 99.4915 25.3893 99.4808 25.528H93.4488C93.4915 26.1467 93.7048 26.632 94.0888 26.984C94.4835 27.336 94.9581 27.512 95.5128 27.512C95.9288 27.512 96.2755 27.4213 96.5528 27.24C96.8408 27.048 97.0541 26.8027 97.1928 26.504H99.2728C99.1235 27.0053 98.8728 27.464 98.5208 27.88C98.1795 28.2853 97.7528 28.6053 97.2408 28.84C96.7395 29.0747 96.1688 29.192 95.5288 29.192ZM95.5448 22.536C95.0435 22.536 94.6008 22.68 94.2168 22.968C93.8328 23.2453 93.5875 23.672 93.4808 24.248H97.4328C97.4008 23.7253 97.2088 23.3093 96.8568 23C96.5048 22.6907 96.0675 22.536 95.5448 22.536ZM105.048 29V21.064H106.856L107.016 22.408C107.261 21.9387 107.613 21.5653 108.072 21.288C108.541 21.0107 109.09 20.872 109.72 20.872C110.701 20.872 111.464 21.1813 112.008 21.8C112.552 22.4187 112.824 23.3253 112.824 24.52V29H110.776V24.712C110.776 24.0293 110.637 23.5067 110.36 23.144C110.082 22.7813 109.65 22.6 109.064 22.6C108.488 22.6 108.013 22.8027 107.64 23.208C107.277 23.6133 107.096 24.1787 107.096 24.904V29H105.048ZM118.59 29.192C117.822 29.192 117.129 29.016 116.51 28.664C115.902 28.312 115.417 27.8267 115.054 27.208C114.702 26.5787 114.526 25.8533 114.526 25.032C114.526 24.2107 114.708 23.4907 115.07 22.872C115.433 22.2427 115.918 21.752 116.526 21.4C117.145 21.048 117.838 20.872 118.606 20.872C119.364 20.872 120.046 21.048 120.654 21.4C121.273 21.752 121.758 22.2427 122.11 22.872C122.473 23.4907 122.654 24.2107 122.654 25.032C122.654 25.8533 122.473 26.5787 122.11 27.208C121.758 27.8267 121.273 28.312 120.654 28.664C120.036 29.016 119.348 29.192 118.59 29.192ZM118.59 27.416C119.124 27.416 119.588 27.2187 119.982 26.824C120.377 26.4187 120.574 25.8213 120.574 25.032C120.574 24.2427 120.377 23.6507 119.982 23.256C119.588 22.8507 119.129 22.648 118.606 22.648C118.062 22.648 117.593 22.8507 117.198 23.256C116.814 23.6507 116.622 24.2427 116.622 25.032C116.622 25.8213 116.814 26.4187 117.198 26.824C117.593 27.2187 118.057 27.416 118.59 27.416ZM125.756 29L123.436 21.064H125.468L126.844 26.776L128.444 21.064H130.716L132.316 26.776L133.708 21.064H135.74L133.404 29H131.276L129.58 23.064L127.884 29H125.756Z" fill="#FCFCFD"/>
</svg>
