<svg width="262" height="30" viewBox="0 0 262 30" fill="none" xmlns="http://www.w3.org/2000/svg">
<path d="M8.816 21V19.512C9.49867 18.9467 10.16 18.3867 10.8 17.832C11.4507 17.2773 12.0267 16.728 12.528 16.184C13.04 15.64 13.4453 15.112 13.744 14.6C14.0533 14.0773 14.208 13.5707 14.208 13.08C14.208 12.6213 14.08 12.216 13.824 11.864C13.5787 11.512 13.168 11.336 12.592 11.336C12.0053 11.336 11.5627 11.528 11.264 11.912C10.9653 12.296 10.816 12.76 10.816 13.304H8.832C8.85333 12.4827 9.03467 11.8 9.376 11.256C9.71733 10.7013 10.1707 10.2907 10.736 10.024C11.3013 9.74667 11.936 9.608 12.64 9.608C13.7813 9.608 14.6667 9.92267 15.296 10.552C15.936 11.1707 16.256 11.976 16.256 12.968C16.256 13.5867 16.112 14.1893 15.824 14.776C15.5467 15.3627 15.1787 15.928 14.72 16.472C14.2613 17.016 13.7653 17.528 13.232 18.008C12.6987 18.4773 12.1813 18.9147 11.68 19.32H16.528V21H8.816ZM19.0606 21.112C18.6873 21.112 18.378 20.9947 18.1326 20.76C17.898 20.5253 17.7806 20.2427 17.7806 19.912C17.7806 19.5707 17.898 19.2827 18.1326 19.048C18.378 18.8133 18.6873 18.696 19.0606 18.696C19.434 18.696 19.738 18.8133 19.9726 19.048C20.218 19.2827 20.3406 19.5707 20.3406 19.912C20.3406 20.2427 20.218 20.5253 19.9726 20.76C19.738 20.9947 19.434 21.112 19.0606 21.112ZM26.0884 21.192C25.267 21.192 24.5577 21.048 23.9604 20.76C23.3737 20.472 22.9097 20.0773 22.5684 19.576C22.2377 19.064 22.0457 18.488 21.9924 17.848H23.9924C24.0884 18.3067 24.323 18.6907 24.6964 19C25.0697 19.2987 25.5337 19.448 26.0884 19.448C26.6857 19.448 27.171 19.2293 27.5444 18.792C27.9284 18.3547 28.1204 17.8107 28.1204 17.16C28.1204 16.488 27.9284 15.9547 27.5444 15.56C27.171 15.1653 26.6964 14.968 26.1204 14.968C25.6404 14.968 25.2244 15.0853 24.8724 15.32C24.5204 15.5547 24.2697 15.848 24.1204 16.2H22.1524L23.1124 9.8H29.3204V11.592H24.6484L24.1364 14.184C24.371 13.928 24.691 13.72 25.0964 13.56C25.5017 13.3893 25.955 13.304 26.4564 13.304C27.2564 13.304 27.923 13.4853 28.4564 13.848C28.9897 14.2 29.395 14.6693 29.6724 15.256C29.9497 15.832 30.0884 16.4613 30.0884 17.144C30.0884 17.9227 29.9177 18.616 29.5764 19.224C29.2457 19.832 28.7764 20.312 28.1684 20.664C27.571 21.016 26.8777 21.192 26.0884 21.192ZM35.8068 21V9.8H43.1188V11.448H37.8548V14.52H42.6388V16.12H37.8548V19.352H43.1188V21H35.8068ZM47.6648 21V11.448H44.4008V9.8H52.9928V11.448H49.7128V21H47.6648ZM54.5099 21V9.8H56.5579V14.456H61.5819V9.8H63.6299V21H61.5819V16.12H56.5579V21H54.5099Z" fill="#45B36B"/>
<rect x="1" y="1" width="71" height="28" rx="3" stroke="#45B36B" stroke-width="2"/>
<path d="M93.224 22.392V21.16C92.1893 21.0427 91.3467 20.68 90.696 20.072C90.0453 19.464 89.7093 18.648 89.688 17.624H91.848C91.8693 18.0507 91.9973 18.424 92.232 18.744C92.4773 19.064 92.808 19.2827 93.224 19.4V16.024C93.128 15.992 93.0267 15.96 92.92 15.928C92.824 15.896 92.7227 15.864 92.616 15.832C91.752 15.5333 91.0907 15.1493 90.632 14.68C90.184 14.2107 89.96 13.5867 89.96 12.808C89.9493 11.8907 90.248 11.1547 90.856 10.6C91.464 10.0347 92.2533 9.70933 93.224 9.624V8.328H94.296V9.64C95.256 9.736 96.0293 10.072 96.616 10.648C97.2133 11.2133 97.528 11.944 97.56 12.84H95.368C95.3573 12.5307 95.256 12.248 95.064 11.992C94.8827 11.7253 94.6267 11.5387 94.296 11.432V14.408C94.3813 14.44 94.4667 14.472 94.552 14.504C94.6373 14.5253 94.7227 14.552 94.808 14.584C95.3627 14.776 95.8693 15 96.328 15.256C96.7867 15.512 97.1547 15.8533 97.432 16.28C97.7093 16.696 97.848 17.2347 97.848 17.896C97.848 18.4507 97.7093 18.968 97.432 19.448C97.1653 19.928 96.7653 20.328 96.232 20.648C95.7093 20.9573 95.064 21.1333 94.296 21.176V22.392H93.224ZM92.104 12.664C92.104 13.0053 92.2053 13.2827 92.408 13.496C92.6107 13.6987 92.8827 13.8747 93.224 14.024V11.368C92.8933 11.432 92.6213 11.576 92.408 11.8C92.2053 12.024 92.104 12.312 92.104 12.664ZM95.672 18.04C95.672 17.6133 95.544 17.2773 95.288 17.032C95.032 16.7867 94.7013 16.5787 94.296 16.408V19.448C94.7227 19.384 95.0587 19.2293 95.304 18.984C95.5493 18.7387 95.672 18.424 95.672 18.04ZM104.755 21V18.92H99.2349V17.288L104.483 9.8H106.803V17.144H108.275V18.92H106.803V21H104.755ZM101.427 17.144H104.883V12.056L101.427 17.144ZM109.021 22.856L109.933 18.872H111.917L110.365 22.856H109.021ZM118.708 21V18.92H113.188V17.288L118.436 9.8H120.756V17.144H122.228V18.92H120.756V21H118.708ZM115.38 17.144H118.836V12.056L115.38 17.144ZM123.566 21V19.512C124.249 18.9467 124.91 18.3867 125.55 17.832C126.201 17.2773 126.777 16.728 127.278 16.184C127.79 15.64 128.195 15.112 128.494 14.6C128.803 14.0773 128.958 13.5707 128.958 13.08C128.958 12.6213 128.83 12.216 128.574 11.864C128.329 11.512 127.918 11.336 127.342 11.336C126.755 11.336 126.313 11.528 126.014 11.912C125.715 12.296 125.566 12.76 125.566 13.304H123.582C123.603 12.4827 123.785 11.8 124.126 11.256C124.467 10.7013 124.921 10.2907 125.486 10.024C126.051 9.74667 126.686 9.608 127.39 9.608C128.531 9.608 129.417 9.92267 130.046 10.552C130.686 11.1707 131.006 11.976 131.006 12.968C131.006 13.5867 130.862 14.1893 130.574 14.776C130.297 15.3627 129.929 15.928 129.47 16.472C129.011 17.016 128.515 17.528 127.982 18.008C127.449 18.4773 126.931 18.9147 126.43 19.32H131.278V21H123.566ZM136.725 21.192C135.946 21.192 135.29 21.0427 134.757 20.744C134.223 20.4347 133.807 20.0347 133.509 19.544C133.21 19.0533 133.034 18.5253 132.981 17.96H134.885C134.97 18.4507 135.173 18.8293 135.493 19.096C135.823 19.3627 136.239 19.496 136.741 19.496C137.455 19.496 138.031 19.1707 138.469 18.52C138.906 17.8587 139.141 16.856 139.173 15.512C138.917 15.9493 138.527 16.312 138.005 16.6C137.493 16.888 136.927 17.032 136.309 17.032C135.69 17.032 135.109 16.8827 134.565 16.584C134.021 16.2853 133.578 15.864 133.237 15.32C132.895 14.776 132.725 14.136 132.725 13.4C132.725 12.728 132.89 12.104 133.221 11.528C133.551 10.952 134.01 10.488 134.597 10.136C135.183 9.784 135.871 9.608 136.661 9.608C137.503 9.608 138.213 9.76267 138.789 10.072C139.365 10.3813 139.823 10.7973 140.165 11.32C140.517 11.8427 140.767 12.424 140.917 13.064C141.077 13.704 141.157 14.36 141.157 15.032C141.157 16.28 140.981 17.368 140.628 18.296C140.287 19.2133 139.781 19.928 139.109 20.44C138.447 20.9413 137.653 21.192 136.725 21.192ZM136.789 15.304C137.183 15.304 137.541 15.2187 137.861 15.048C138.181 14.8667 138.431 14.632 138.613 14.344C138.794 14.0453 138.885 13.7147 138.885 13.352C138.885 12.776 138.682 12.3013 138.277 11.928C137.882 11.5547 137.381 11.368 136.773 11.368C136.175 11.368 135.679 11.5547 135.285 11.928C134.89 12.2907 134.693 12.7547 134.693 13.32C134.693 13.9173 134.89 14.3973 135.285 14.76C135.679 15.1227 136.181 15.304 136.789 15.304ZM143.389 21.112C143.015 21.112 142.706 20.9947 142.461 20.76C142.226 20.5253 142.109 20.2427 142.109 19.912C142.109 19.5707 142.226 19.2827 142.461 19.048C142.706 18.8133 143.015 18.696 143.389 18.696C143.762 18.696 144.066 18.8133 144.301 19.048C144.546 19.2827 144.669 19.5707 144.669 19.912C144.669 20.2427 144.546 20.5253 144.301 20.76C144.066 20.9947 143.762 21.112 143.389 21.112ZM150.353 21.192C149.585 21.192 148.891 21.0587 148.273 20.792C147.654 20.5147 147.158 20.1253 146.785 19.624C146.422 19.1227 146.241 18.5413 146.241 17.88C146.241 17.1973 146.417 16.6 146.769 16.088C147.131 15.576 147.606 15.208 148.193 14.984C147.681 14.76 147.275 14.44 146.977 14.024C146.678 13.5973 146.529 13.1227 146.529 12.6C146.529 12.0667 146.673 11.576 146.961 11.128C147.249 10.6693 147.675 10.3013 148.241 10.024C148.817 9.74667 149.521 9.608 150.353 9.608C151.185 9.608 151.883 9.74667 152.449 10.024C153.014 10.3013 153.441 10.6693 153.729 11.128C154.017 11.576 154.161 12.0667 154.161 12.6C154.161 13.112 154.006 13.5867 153.697 14.024C153.398 14.4507 152.998 14.7707 152.497 14.984C153.094 15.208 153.569 15.576 153.921 16.088C154.273 16.6 154.449 17.1973 154.449 17.88C154.449 18.5413 154.267 19.1227 153.905 19.624C153.542 20.1253 153.046 20.5147 152.417 20.792C151.798 21.0587 151.11 21.192 150.353 21.192ZM150.353 14.376C150.907 14.376 151.345 14.232 151.665 13.944C151.985 13.656 152.145 13.288 152.145 12.84C152.145 12.3493 151.985 11.9653 151.665 11.688C151.355 11.4107 150.918 11.272 150.353 11.272C149.777 11.272 149.334 11.4107 149.025 11.688C148.715 11.9653 148.561 12.3493 148.561 12.84C148.561 13.2987 148.715 13.672 149.025 13.96C149.345 14.2373 149.787 14.376 150.353 14.376ZM150.353 19.48C151.035 19.48 151.553 19.3147 151.905 18.984C152.257 18.6427 152.433 18.216 152.433 17.704C152.433 17.1387 152.246 16.696 151.873 16.376C151.51 16.056 151.003 15.896 150.353 15.896C149.702 15.896 149.185 16.056 148.801 16.376C148.427 16.696 148.241 17.1387 148.241 17.704C148.241 18.216 148.417 18.6427 148.769 18.984C149.131 19.3147 149.659 19.48 150.353 19.48ZM156.9 21L161.124 11.544H155.604V9.8H163.236V11.256L159.028 21H156.9Z" fill="#777E91"/>
<rect x="82" y="1" width="89" height="28" rx="3" stroke="#353945" stroke-width="2"/>
<path d="M182.304 20V11.136L180.464 11.568V10L183.168 8.8H184.432V20H182.304ZM191.196 20.192C190.161 20.192 189.276 19.952 188.54 19.472C187.804 18.9813 187.233 18.304 186.828 17.44C186.433 16.5653 186.236 15.552 186.236 14.4C186.236 13.2587 186.433 12.2507 186.828 11.376C187.233 10.5013 187.804 9.824 188.54 9.344C189.276 8.85333 190.161 8.608 191.196 8.608C192.23 8.608 193.116 8.85333 193.852 9.344C194.588 9.824 195.153 10.5013 195.548 11.376C195.953 12.2507 196.156 13.2587 196.156 14.4C196.156 15.552 195.953 16.5653 195.548 17.44C195.153 18.304 194.588 18.9813 193.852 19.472C193.116 19.952 192.23 20.192 191.196 20.192ZM191.196 18.352C192.038 18.352 192.726 18 193.26 17.296C193.793 16.592 194.06 15.6267 194.06 14.4C194.06 13.1733 193.793 12.208 193.26 11.504C192.726 10.8 192.038 10.448 191.196 10.448C190.342 10.448 189.649 10.8 189.116 11.504C188.593 12.208 188.332 13.1733 188.332 14.4C188.332 15.6267 188.593 16.592 189.116 17.296C189.649 18 190.342 18.352 191.196 18.352ZM202.832 10.832C202.458 10.832 202.149 10.72 201.904 10.496C201.669 10.272 201.552 9.98933 201.552 9.648C201.552 9.30667 201.669 9.02933 201.904 8.816C202.149 8.592 202.458 8.48 202.832 8.48C203.205 8.48 203.509 8.592 203.744 8.816C203.989 9.02933 204.112 9.30667 204.112 9.648C204.112 9.98933 203.989 10.272 203.744 10.496C203.509 10.72 203.205 10.832 202.832 10.832ZM201.808 20V12.064H203.856V20H201.808ZM205.993 20V12.064H207.801L207.961 13.408C208.206 12.9387 208.558 12.5653 209.017 12.288C209.486 12.0107 210.036 11.872 210.665 11.872C211.646 11.872 212.409 12.1813 212.953 12.8C213.497 13.4187 213.769 14.3253 213.769 15.52V20H211.721V15.712C211.721 15.0293 211.582 14.5067 211.305 14.144C211.028 13.7813 210.596 13.6 210.009 13.6C209.433 13.6 208.958 13.8027 208.585 14.208C208.222 14.6133 208.041 15.1787 208.041 15.904V20H205.993ZM222.82 20.192C222.116 20.192 221.497 20.08 220.964 19.856C220.431 19.6213 220.004 19.3013 219.684 18.896C219.364 18.4907 219.172 18.0213 219.108 17.488H221.172C221.236 17.7973 221.407 18.064 221.684 18.288C221.972 18.5013 222.34 18.608 222.788 18.608C223.236 18.608 223.561 18.5173 223.764 18.336C223.977 18.1547 224.084 17.9467 224.084 17.712C224.084 17.3707 223.935 17.1413 223.636 17.024C223.337 16.896 222.921 16.7733 222.388 16.656C222.047 16.5813 221.7 16.4907 221.348 16.384C220.996 16.2773 220.671 16.144 220.372 15.984C220.084 15.8133 219.849 15.6 219.668 15.344C219.487 15.0773 219.396 14.752 219.396 14.368C219.396 13.664 219.673 13.072 220.228 12.592C220.793 12.112 221.583 11.872 222.596 11.872C223.535 11.872 224.281 12.0907 224.836 12.528C225.401 12.9653 225.737 13.568 225.844 14.336H223.908C223.791 13.7493 223.348 13.456 222.58 13.456C222.196 13.456 221.897 13.5307 221.684 13.68C221.481 13.8293 221.38 14.016 221.38 14.24C221.38 14.4747 221.535 14.6613 221.844 14.8C222.153 14.9387 222.564 15.0667 223.076 15.184C223.631 15.312 224.137 15.456 224.596 15.616C225.065 15.7653 225.439 15.9947 225.716 16.304C225.993 16.6027 226.132 17.0347 226.132 17.6C226.143 18.0907 226.015 18.5333 225.748 18.928C225.481 19.3227 225.097 19.632 224.596 19.856C224.095 20.08 223.503 20.192 222.82 20.192ZM231.232 20C230.4 20 229.734 19.7973 229.232 19.392C228.731 18.9867 228.48 18.2667 228.48 17.232V13.776H227.12V12.064H228.48L228.72 9.936H230.528V12.064H232.672V13.776H230.528V17.248C230.528 17.632 230.608 17.8987 230.768 18.048C230.939 18.1867 231.227 18.256 231.632 18.256H232.624V20H231.232ZM238.036 20.192C237.268 20.192 236.574 20.016 235.956 19.664C235.348 19.312 234.862 18.8267 234.5 18.208C234.148 17.5787 233.972 16.8533 233.972 16.032C233.972 15.2107 234.153 14.4907 234.516 13.872C234.878 13.2427 235.364 12.752 235.972 12.4C236.59 12.048 237.284 11.872 238.052 11.872C238.809 11.872 239.492 12.048 240.1 12.4C240.718 12.752 241.204 13.2427 241.556 13.872C241.918 14.4907 242.1 15.2107 242.1 16.032C242.1 16.8533 241.918 17.5787 241.556 18.208C241.204 18.8267 240.718 19.312 240.1 19.664C239.481 20.016 238.793 20.192 238.036 20.192ZM238.036 18.416C238.569 18.416 239.033 18.2187 239.428 17.824C239.822 17.4187 240.02 16.8213 240.02 16.032C240.02 15.2427 239.822 14.6507 239.428 14.256C239.033 13.8507 238.574 13.648 238.052 13.648C237.508 13.648 237.038 13.8507 236.644 14.256C236.26 14.6507 236.068 15.2427 236.068 16.032C236.068 16.8213 236.26 17.4187 236.644 17.824C237.038 18.2187 237.502 18.416 238.036 18.416ZM247.819 20.192C247.008 20.192 246.293 20.016 245.675 19.664C245.056 19.312 244.565 18.8213 244.203 18.192C243.851 17.5627 243.675 16.8427 243.675 16.032C243.675 15.2213 243.851 14.5013 244.203 13.872C244.565 13.2427 245.056 12.752 245.675 12.4C246.293 12.048 247.008 11.872 247.819 11.872C248.832 11.872 249.685 12.1387 250.379 12.672C251.072 13.1947 251.515 13.92 251.707 14.848H249.547C249.44 14.464 249.227 14.1653 248.907 13.952C248.597 13.728 248.229 13.616 247.803 13.616C247.237 13.616 246.757 13.8293 246.363 14.256C245.968 14.6827 245.771 15.2747 245.771 16.032C245.771 16.7893 245.968 17.3813 246.363 17.808C246.757 18.2347 247.237 18.448 247.803 18.448C248.229 18.448 248.597 18.3413 248.907 18.128C249.227 17.9147 249.44 17.6107 249.547 17.216H251.707C251.515 18.112 251.072 18.832 250.379 19.376C249.685 19.92 248.832 20.192 247.819 20.192ZM253.524 20V8.48H255.572V15.28L258.388 12.064H260.82L257.572 15.68L261.348 20H258.788L255.572 16.016V20H253.524Z" fill="#777E91"/>
</svg>
