<svg width="48" height="48" viewBox="0 0 48 48" fill="none" xmlns="http://www.w3.org/2000/svg">
<path fill-rule="evenodd" clip-rule="evenodd" d="M20.9986 22.0398C21.028 22.5913 20.6047 23.0622 20.0532 23.0916C19.3005 23.1318 18.7044 23.1808 18.2385 23.23C17.6129 23.2959 17.2328 23.6802 17.1696 24.233C17.0789 25.0267 17 26.2277 17 27.9999C17 29.7722 17.0789 30.9732 17.1696 31.7669C17.2329 32.3206 17.6121 32.7038 18.2368 32.7697C19.3308 32.8852 21.1392 32.9999 24 32.9999C26.8608 32.9999 28.6692 32.8852 29.7632 32.7697C30.3879 32.7038 30.7671 32.3206 30.8304 31.7669C30.9211 30.9732 31 29.7722 31 27.9999C31 26.2277 30.9211 25.0267 30.8304 24.233C30.7672 23.6802 30.3871 23.2959 29.7615 23.23C29.2956 23.1808 28.6995 23.1318 27.9468 23.0916C27.3953 23.0622 26.972 22.5913 27.0014 22.0398C27.0308 21.4883 27.5017 21.0651 28.0532 21.0945C28.8361 21.1362 29.4669 21.1878 29.9712 21.241C31.4556 21.3975 32.6397 22.4506 32.8175 24.0059C32.9188 24.8922 33 26.1715 33 27.9999C33 29.8284 32.9188 31.1077 32.8175 31.994C32.6398 33.5483 31.4585 34.6019 29.9732 34.7587C28.7919 34.8834 26.9108 34.9999 24 34.9999C21.0892 34.9999 19.2081 34.8834 18.0268 34.7587C16.5415 34.6019 15.3602 33.5483 15.1825 31.994C15.0812 31.1077 15 29.8284 15 27.9999C15 26.1715 15.0812 24.8922 15.1825 24.0059C15.3603 22.4506 16.5444 21.3975 18.0288 21.241C18.5331 21.1878 19.1639 21.1362 19.9468 21.0945C20.4983 21.0651 20.9692 21.4883 20.9986 22.0398Z" fill="#777E91"/>
<path fill-rule="evenodd" clip-rule="evenodd" d="M21.2071 18.2071C20.8166 18.5976 20.1834 18.5976 19.7929 18.2071C19.4024 17.8166 19.4024 17.1834 19.7929 16.7929L23.2929 13.2929C23.6834 12.9024 24.3166 12.9024 24.7071 13.2929L28.2071 16.7929C28.5976 17.1834 28.5976 17.8166 28.2071 18.2071C27.8166 18.5976 27.1834 18.5976 26.7929 18.2071L25 16.4142V26C25 26.5523 24.5523 27 24 27C23.4477 27 23 26.5523 23 26V16.4142L21.2071 18.2071Z" fill="#777E91"/>
<rect x="1" y="1" width="46" height="46" rx="23" stroke="#353945" stroke-width="2"/>
</svg>
